<svg xmlns="http://www.w3.org/2000/svg" version="1.1" xmlns:xlink="http://www.w3.org/1999/xlink" viewBox="0 0 700 700" style="overflow: hidden; display: block;" width="700" height="700"><defs><linearGradient id="two-9" x1="350" y1="-350" x2="350" y2="350" spreadMethod="pad" gradientUnits="userSpaceOnUse"><stop offset="0%" stop-color="hsl(1.4, 100%, 67%)" stop-opacity="1"></stop><stop offset="100%" stop-color="hsl(167, 52%, 78%)" stop-opacity="1"></stop></linearGradient></defs><g id="two-0" transform="matrix(1 0 0 1 0 0)" opacity="1"><path transform="matrix(1 0 0 1 350 350)" id="two-37" d="M 208.031606 61.083591 C 183.363711 79.29262 130.826885 47.72185 116.112095 74.620712 C 94.615643 113.916555 190.571911 157.657958 171.883699 198.364363 C 161.598955 220.76645 124.39606 224.3525 100.23255 219.47867 C 67.74037 212.924929 48.507648 176.411528 22.423502 155.958886 C 9.269681 145.644942 -1.390085 124.055744 -18.043348 125.494241 C -54.848295 128.673424 -57.803468 203.976326 -94.607832 207.162254 C -115.752999 208.992661 -128.720988 180.81672 -146.004839 168.498566 C -164.379849 155.402745 -182.467583 140.270933 -202.689843 130.260851 C -237.662072 112.949488 -311.56863 131.304434 -314.717462 92.409384 C -319.971801 27.506652 -140.303301 65.115032 -140.375679 0 C -140.448853 -65.830547 -329.753852 -28.481143 -316.840468 -93.032756 C -307.036833 -142.039309 -214.358514 -94.031154 -166.010309 -106.688348 C -147.476087 -111.540467 -122.802204 -113.971001 -113.041828 -130.457224 C -89.098744 -170.899416 -168.595483 -256.40423 -124.410898 -272.421867 C -66.933336 -293.258426 -78.332629 -126.433696 -17.421748 -121.170913 C 1.433401 -119.541803 10.456617 -147.658354 23.236962 -161.616627 C 62.187652 -204.157291 78.938893 -308.91127 135.12927 -295.89183 C 171.263023 -287.519556 165.856463 -223.564931 161.775681 -186.699089 C 156.858816 -142.280068 76.228832 -102.081147 101.673221 -65.341413 C 136.428607 -15.157319 252.608094 -135.17746 285.722417 -83.895672 C 303.073586 -57.025154 252.089926 -28.298655 237.181071 -0.000001 C 226.770441 19.760526 226.001284 47.818965 208.031606 61.083591 Z " fill="#e4543b" stroke="undefined" stroke-width="1" stroke-opacity="1" fill-opacity="1" visibility="visible" stroke-linecap="butt" stroke-linejoin="miter" stroke-miterlimit="4"></path></g></svg>