<svg width="44" height="14" viewBox="0 0 44 14" fill="none" xmlns="http://www.w3.org/2000/svg">
    <path
        d="M12.9688 2.1875C12.9167 2.51042 12.7396 2.71875 12.4375 2.8125C12.1146 2.48958 11.8906 2.24479 11.7656 2.07812C11.5156 1.75521 11.3698 1.46354 11.3281 1.20312C11.3698 1.04688 11.4375 0.96875 11.5312 0.96875C11.8021 0.96875 12.0885 1.10417 12.3906 1.375C12.7031 1.64583 12.8958 1.91667 12.9688 2.1875ZM11.8906 3.42188C11.8906 3.61979 11.7865 3.80208 11.5781 3.96875C11.3385 3.88542 11.1406 3.76562 10.9844 3.60938C10.8385 3.45312 10.6927 3.29167 10.5469 3.125C10.276 2.86458 10.125 2.71875 10.0938 2.6875C9.95833 2.52083 9.86979 2.33333 9.82812 2.125L9.6875 2.03125C9.85417 1.75 10.0521 1.60938 10.2812 1.60938C10.4375 1.60938 10.5521 1.63021 10.625 1.67188C10.6562 1.69271 10.849 1.875 11.2031 2.21875C11.5573 2.5625 11.75 2.75 11.7812 2.78125C11.8542 2.91667 11.8906 3.13021 11.8906 3.42188ZM10.7969 5.14062L10.7344 5.32812C10.5677 5.34896 10.4531 5.50521 10.3906 5.79688C10.349 6.02604 10.3073 6.25 10.2656 6.46875C10.2135 6.63542 10.1719 6.86458 10.1406 7.15625C10.1198 7.47917 10.0885 7.70833 10.0469 7.84375C9.90104 8.38542 9.52083 9.08854 8.90625 9.95312C8.8125 10.0885 8.60938 10.2708 8.29688 10.5C7.98438 10.7188 7.75 10.8646 7.59375 10.9375C7.36458 11.0104 7.05208 11.125 6.65625 11.2812C6.51042 11.3438 6.30208 11.4323 6.03125 11.5469C5.51042 11.8073 4.90625 12.0521 4.21875 12.2812C3.95833 12.4271 3.5625 12.6198 3.03125 12.8594C2.8125 12.9323 2.50521 13.0625 2.10938 13.25C2.60938 12.8229 3.38542 12.2135 4.4375 11.4219C4.80208 11.2135 5.34896 10.8906 6.07812 10.4531C7.21354 9.77604 8.02604 8.94271 8.51562 7.95312C8.93229 7.10938 9.18229 5.96875 9.26562 4.53125C9.20312 4.41667 9.09375 4.28646 8.9375 4.14062C8.78125 3.99479 8.65104 3.92188 8.54688 3.92188C8.49479 3.92188 8.4375 3.93229 8.375 3.95312C7.40625 3.95312 6.63021 4.09375 6.04688 4.375C5.90104 4.45833 5.67708 4.56771 5.375 4.70312C5.08333 4.83854 4.8125 4.97917 4.5625 5.125C4.1875 5.375 3.8125 5.625 3.4375 5.875C3.09375 6.07292 2.66146 6.20312 2.14062 6.26562C2.08854 6.27604 1.99479 6.30208 1.85938 6.34375C1.72396 6.375 1.61979 6.39062 1.54688 6.39062C1.36979 6.39062 1.24479 6.32812 1.17188 6.20312C1.14062 6.16146 1.09375 6.00521 1.03125 5.73438C1.01042 5.66146 0.942708 5.52083 0.828125 5.3125C0.723958 5.14583 0.671875 5.00521 0.671875 4.89062C0.671875 4.59896 0.890625 4.38021 1.32812 4.23438C1.92188 4.03646 2.26562 3.89583 2.35938 3.8125H2.4375C2.42708 3.88542 2.45833 3.98438 2.53125 4.10938C3.61458 3.69271 4.34896 3.42708 4.73438 3.3125C5.49479 3.09375 6.26562 2.98438 7.04688 2.98438C7.75521 2.98438 8.375 3.24479 8.90625 3.76562C8.95833 3.72396 9.03646 3.66667 9.14062 3.59375H9.1875C9.28125 3.59375 9.51042 3.74479 9.875 4.04688C10.1875 4.29688 10.4062 4.49479 10.5312 4.64062C10.6667 4.78646 10.7552 4.95312 10.7969 5.14062ZM27.7188 5.54688C27.6458 5.67188 27.5104 5.81771 27.3125 5.98438C27.125 6.15104 26.9948 6.28646 26.9219 6.39062C26.8594 6.49479 26.776 6.64583 26.6719 6.84375C26.4531 7.22917 26.3125 7.47917 26.25 7.59375C26.0729 7.875 25.9062 8.09375 25.75 8.25C25.5938 8.40625 25.2708 8.61979 24.7812 8.89062C24.3333 9.14062 23.9688 9.43229 23.6875 9.76562C23.8229 9.83854 24.026 9.90104 24.2969 9.95312C24.5781 9.99479 24.776 10.0417 24.8906 10.0938L24.875 10.25C25.0312 10.3125 25.1875 10.3698 25.3438 10.4219C25.5417 10.5156 25.6406 10.6406 25.6406 10.7969C25.6406 11.3385 24.875 11.6094 23.3438 11.6094C23.2188 11.6094 23.0417 11.6042 22.8125 11.5938C22.5938 11.5729 22.4271 11.5625 22.3125 11.5625C21.6146 11.5625 21.276 11.099 21.2969 10.1719L21.3125 9.78125C21.3229 9.75 21.3385 9.71875 21.3594 9.6875C21.3906 9.65625 21.4323 9.63542 21.4844 9.625C21.6094 9.625 21.8177 9.56771 22.1094 9.45312C22.2031 9.32812 22.3542 9.14062 22.5625 8.89062C23.5417 7.74479 24.2969 6.67708 24.8281 5.6875C25.0052 5.36458 25.1615 5.16667 25.2969 5.09375H25.0156C24.5156 5.09375 23.5 5.29688 21.9688 5.70312C21.8229 5.74479 21.6146 5.76562 21.3438 5.76562C21.0729 5.76562 20.8802 5.77604 20.7656 5.79688C20.5156 5.84896 20.2604 5.95312 20 6.10938C19.8958 6.25521 19.8333 6.5 19.8125 6.84375C19.8021 7.11458 19.7917 7.38021 19.7812 7.64062C19.7604 7.76562 19.6979 7.96354 19.5938 8.23438C19.5 8.50521 19.4531 8.70833 19.4531 8.84375C19.4531 9.3125 19.5208 9.86458 19.6562 10.5C19.7812 11.0417 19.9062 11.5833 20.0312 12.125L19.9375 12.1562C19.6771 12.0833 19.2708 11.8542 18.7188 11.4688C17.9896 10.9688 17.4062 10.2344 16.9688 9.26562C16.5521 8.34896 16.3438 7.41667 16.3438 6.46875C16.3438 6.40625 16.349 6.31771 16.3594 6.20312C16.3698 6.08854 16.375 6.00521 16.375 5.95312C16.3854 5.42188 16.4115 5.10938 16.4531 5.01562C16.526 4.80729 16.7448 4.58333 17.1094 4.34375C17.1719 4.30208 17.2656 4.25 17.3906 4.1875C17.4531 4.20833 17.5417 4.23958 17.6562 4.28125C17.6771 4.27083 17.7083 4.26042 17.75 4.25L17.7969 4.34375C17.8698 4.39583 17.9479 4.44271 18.0312 4.48438C18.1146 4.52604 18.1667 4.59375 18.1875 4.6875C18.7812 4.15625 19.7135 3.74479 20.9844 3.45312C22.026 3.21354 23.0625 3.09375 24.0938 3.09375C24.8021 3.09375 25.3125 3.20312 25.625 3.42188L25.9688 3.34375L26.3125 3.48438C26.3854 3.84896 26.6042 4.20833 26.9688 4.5625C27.3646 4.96875 27.6146 5.29688 27.7188 5.54688ZM19.7969 11.7031C19.776 11.5156 19.7344 11.25 19.6719 10.9062C19.651 10.8125 19.5729 10.5573 19.4375 10.1406C19.4167 10.0052 19.375 9.80729 19.3125 9.54688C19.2604 9.40104 19.1354 9.22396 18.9375 9.01562C18.7396 8.80729 18.625 8.60938 18.5938 8.42188C18.5521 8.08854 18.5104 7.75 18.4688 7.40625C18.4167 6.9375 18.3229 6.63542 18.1875 6.5C18.0625 6.80208 18 7.22917 18 7.78125C18 8.54167 18.1458 9.27083 18.4375 9.96875C18.75 10.6979 19.1875 11.2969 19.75 11.7656L19.7812 11.75L19.7969 11.7031ZM43.8594 2.03125V2.0625L43.625 2.26562L43.375 2.20312L43.1875 2.25C43.1562 2.19792 42.9948 2.01562 42.7031 1.70312C42.4948 1.47396 42.3698 1.27083 42.3281 1.09375C42.9115 1.23958 43.2344 1.32292 43.2969 1.34375C43.6823 1.51042 43.8698 1.73958 43.8594 2.03125ZM43.0156 2.34375C42.9948 2.36458 42.9792 2.49479 42.9688 2.73438C42.9583 2.96354 42.8125 3.06771 42.5312 3.04688H42.4375C42.3438 2.93229 42.099 2.73958 41.7031 2.46875C41.3802 2.25 41.1823 2.03125 41.1094 1.8125L41.1719 1.75C41.276 1.71875 41.3698 1.70312 41.4531 1.70312C41.6719 1.70312 41.8438 1.77083 41.9688 1.90625H42.0469C42.2031 1.89583 42.375 1.94792 42.5625 2.0625C42.7083 2.15625 42.8594 2.25 43.0156 2.34375ZM42.0156 3.84375L42 4.125C41.7708 4.22917 41.5729 4.33333 41.4062 4.4375C40.8438 4.79167 40.2969 5.4375 39.7656 6.375C39.3802 7.15625 38.9896 7.93229 38.5938 8.70312C38.4688 9.02604 38.2396 9.46354 37.9062 10.0156C37.8333 10.099 37.5052 10.3698 36.9219 10.8281C36.2552 11.3281 35.5885 11.8281 34.9219 12.3281C33.9219 13.0885 33.3333 13.599 33.1562 13.8594L32.8906 13.8125L32.75 13.3906C32.9062 13.1302 33.2396 12.7812 33.75 12.3438C34.1354 12.0208 34.5156 11.6979 34.8906 11.375C36.3281 10.0104 37.1458 9.15625 37.3438 8.8125C37.375 8.71875 37.4375 8.58333 37.5312 8.40625C37.9271 7.69792 38.3385 6.8125 38.7656 5.75C38.7865 5.69792 38.901 5.47917 39.1094 5.09375C39.2865 4.77083 39.3698 4.57292 39.3594 4.5V4.46875C39.2448 4.46875 39.1094 4.5 38.9531 4.5625C38.7344 4.64583 38.6042 4.69271 38.5625 4.70312C37.5938 4.94271 36.8854 5.0625 36.4375 5.0625C36.3125 5.0625 36.2031 5.08854 36.1094 5.14062C36.0052 5.24479 35.8281 5.39062 35.5781 5.57812C35.474 5.60938 35.349 5.66667 35.2031 5.75C35.1406 5.83333 35.0417 5.9375 34.9062 6.0625C34.8333 6.125 34.724 6.16667 34.5781 6.1875C34.4323 6.20833 34.3281 6.23958 34.2656 6.28125C34.1406 6.36458 33.9948 6.48438 33.8281 6.64062C33.6406 6.83854 33.5469 6.98958 33.5469 7.09375C33.3802 7.11458 33.276 7.19271 33.2344 7.32812C33.1094 7.31771 32.9948 7.24479 32.8906 7.10938C32.7969 6.97396 32.75 6.83854 32.75 6.70312C32.75 6.13021 32.9635 5.49479 33.3906 4.79688C33.6615 4.34896 34.125 3.73958 34.7812 2.96875C35.4479 2.1875 35.8802 1.64062 36.0781 1.32812C36.1823 1.32812 36.3438 1.33854 36.5625 1.35938C36.6667 1.39062 36.8073 1.47396 36.9844 1.60938C37.1719 1.74479 37.3177 1.83333 37.4219 1.875C37.6927 1.92708 38.0312 2.03646 38.4375 2.20312C38.5521 2.30729 38.6094 2.46354 38.6094 2.67188C38.6094 2.70312 38.5938 2.76042 38.5625 2.84375C38.5312 2.91667 38.5156 2.96875 38.5156 3C39.2031 3.05208 39.7292 3.13021 40.0938 3.23438C40.2396 3.17188 40.3385 3.14062 40.3906 3.14062C40.5156 3.14062 40.7708 3.27604 41.1562 3.54688C41.2917 3.64062 41.5781 3.73958 42.0156 3.84375Z"
        fill="black" />
</svg>