<svg width="442" height="432" viewBox="0 0 442 432" fill="none" xmlns="http://www.w3.org/2000/svg">
<path fill-rule="evenodd" clip-rule="evenodd" d="M55.818 82.3025C55.9377 82.4171 56.0575 82.5368 56.1773 82.6514C56.5159 82.2035 56.8544 81.7452 57.1982 81.2921C57.0992 81.2243 57.0002 81.1618 56.9065 81.0889C56.5419 81.4952 56.1825 81.8962 55.818 82.3025ZM339.823 59.7087C339.964 59.9535 340.052 60.2868 340.261 60.417C340.547 60.5889 340.922 60.5993 341.266 60.6827C341.313 60.5629 341.349 60.4483 341.396 60.3233C340.979 60.0368 339.927 59.6254 339.823 59.7087ZM62.0159 351.735C62.1252 351.672 62.2346 351.61 62.344 351.537C62.1148 351.151 61.8909 350.761 61.6617 350.375C61.5419 350.448 61.7815 351.349 62.0159 351.735ZM260.589 414.094C260.407 414.271 260.219 414.448 260.037 414.62C260.198 414.688 260.37 414.818 260.516 414.792C260.677 414.766 260.813 414.599 260.964 414.495C260.86 414.381 260.755 414.276 260.589 414.094ZM56.9221 71.7191C57.1096 71.8337 57.9794 71.1306 58.2242 70.6671C58.1044 70.5941 57.9794 70.5212 57.8544 70.4535C57.5419 70.8702 57.2346 71.2973 56.9221 71.7191ZM290.308 399.99C290.261 399.86 290.214 399.735 290.167 399.615C289.74 399.839 289.313 400.079 288.886 400.302C288.938 400.407 288.99 400.511 289.047 400.61C289.464 400.401 289.886 400.193 290.308 399.99ZM100.334 396.651C99.8127 396.25 99.2971 395.849 98.7711 395.448C98.6513 395.589 98.5367 395.73 98.4169 395.87C98.8805 396.313 100.156 396.834 100.334 396.651ZM390.688 274.401C390.802 274.448 390.917 274.49 391.031 274.537C391.209 274.052 391.386 273.568 391.568 273.079C391.474 273.047 391.38 273.016 391.287 272.98C391.084 273.454 390.886 273.927 390.688 274.401ZM391.792 277.026C391.953 277.079 392.724 275.875 392.938 275.219C392.761 275.162 392.584 275.11 392.401 275.058C392.198 275.714 391.995 276.37 391.792 277.026ZM76.568 51.8077C76.7086 51.9587 77.62 51.4848 77.943 51.0993C77.844 51.0056 77.745 50.9066 77.6513 50.8129C77.2867 51.141 76.9325 51.4743 76.568 51.8077ZM185.99 414.058C186 414.157 186.011 414.25 186.021 414.349C186.745 414.349 187.474 414.349 188.193 414.349C188.193 414.25 188.193 414.157 188.193 414.058C187.459 414.058 186.724 414.058 185.99 414.058ZM232.11 412.365C232.11 412.448 232.11 412.526 232.11 412.599C232.828 412.599 233.542 412.599 234.261 412.599C234.261 412.526 234.261 412.448 234.261 412.365C233.542 412.365 232.828 412.365 232.11 412.365ZM217.683 410.021C217.698 410.151 217.714 410.271 217.729 410.396C218.427 410.344 219.125 410.292 219.823 410.24C219.813 410.167 219.813 410.094 219.808 410.021C219.099 410.021 218.391 410.021 217.683 410.021ZM112.5 392.459C112.568 392.334 112.63 392.203 112.703 392.078C112.094 391.74 111.485 391.407 110.88 391.068C110.813 391.193 110.75 391.313 110.683 391.433C111.292 391.776 111.891 392.12 112.5 392.459ZM385.313 299.318C385.151 299.214 384.995 299.115 384.834 299.011C384.636 299.667 384.443 300.318 384.245 300.969C384.391 301.016 384.537 301.063 384.688 301.115C384.891 300.511 385.099 299.917 385.313 299.318ZM178.625 6.5785C178.047 6.72955 177.469 6.87538 176.886 7.03163C176.927 7.17225 176.974 7.31809 177.016 7.45871C177.589 7.28684 178.662 6.6983 178.625 6.5785ZM276.485 404.631C276.448 404.469 276.422 404.308 276.386 404.141C275.578 404.386 274.776 404.625 273.969 404.865C274 404.995 274.042 405.12 274.073 405.245C274.88 405.042 275.683 404.834 276.485 404.631ZM388.88 279.084C388.677 279.677 388.453 280.261 388.297 280.865C388.261 281.006 388.459 281.204 388.755 281.776C389.063 280.651 389.063 279.151 388.88 279.084ZM67.1461 356.875C67.0159 356.969 67.6982 358.136 68.1669 358.615C68.2607 358.526 68.3544 358.443 68.4482 358.36C68.0159 357.86 67.5836 357.37 67.1461 356.875ZM63.2086 347.714C63.4013 347.563 63.5888 347.417 63.7815 347.276C63.1617 346.521 61.6305 345.245 61.4794 345.365C62.0575 346.146 62.6357 346.933 63.2086 347.714ZM332.886 55.4795C332.995 55.2764 331.933 54.1358 331.292 53.766C331.177 53.9795 331.058 54.1879 330.948 54.4014C331.594 54.7608 332.24 55.1202 332.886 55.4795ZM203.61 37.4327C203.604 37.2243 201.823 36.917 200.933 36.9743C200.943 37.1254 200.953 37.2816 200.964 37.4327C201.844 37.4327 202.729 37.4327 203.61 37.4327ZM295.677 389.828C295.761 389.985 295.839 390.141 295.917 390.302C296.766 389.891 297.615 389.485 298.459 389.078C298.386 388.917 298.302 388.756 298.219 388.594C297.375 389.006 296.532 389.417 295.677 389.828ZM118.542 384.047C118.469 384.203 118.396 384.355 118.323 384.506C119.177 384.875 120.037 385.25 120.896 385.625C120.953 385.469 121.011 385.318 121.063 385.157C120.224 384.787 119.386 384.417 118.542 384.047ZM267.88 400.157C267.839 399.98 267.787 399.808 267.745 399.631C266.688 399.86 265.625 400.094 264.563 400.323C264.599 400.48 264.636 400.636 264.672 400.787C265.745 400.584 266.813 400.37 267.88 400.157ZM303.761 394.224C303.688 394.073 303.61 393.917 303.531 393.766C302.677 394.193 301.818 394.62 300.964 395.047C301.037 395.198 301.11 395.344 301.183 395.49C302.042 395.068 302.901 394.646 303.761 394.224ZM233.401 424.318C233.38 424.521 233.36 424.724 233.339 424.922C234.334 424.844 235.328 424.766 236.323 424.683C236.323 424.625 236.323 424.558 236.323 424.5C235.349 424.438 234.37 424.375 233.401 424.318ZM295.578 397.412C295.656 397.579 295.729 397.745 295.808 397.912C296.75 397.48 297.693 397.042 298.636 396.599C298.552 396.417 298.469 396.235 298.386 396.052C297.453 396.5 296.516 396.959 295.578 397.412ZM332.948 377.818C332.818 377.657 332.688 377.495 332.558 377.339C331.891 377.839 331.224 378.334 330.558 378.828C330.662 378.969 330.766 379.11 330.87 379.245C331.558 378.771 332.255 378.292 332.948 377.818ZM145.709 418.355C145.74 418.162 145.766 417.964 145.797 417.771C145.073 417.521 144.417 416.677 143.245 417.688C144.235 417.959 144.974 418.157 145.709 418.355ZM168.745 411C168.724 411.172 168.703 411.355 168.688 411.526C169.745 411.73 170.808 411.927 171.87 412.125C171.891 411.995 171.912 411.87 171.933 411.74C170.87 411.495 169.802 411.245 168.745 411ZM434.214 230.172C434.068 230.146 433.922 230.115 433.771 230.089C433.62 231 433.464 231.917 433.313 232.834C433.38 232.844 433.443 232.855 433.511 232.865C433.745 231.964 433.979 231.073 434.214 230.172ZM222.469 409.526C222.479 409.683 222.485 409.834 222.5 409.985C223.834 409.912 225.167 409.844 226.505 409.771C226.495 409.688 226.49 409.61 226.479 409.526C225.141 409.526 223.802 409.526 222.469 409.526ZM418.313 186.412C418.391 186.454 418.469 186.5 418.547 186.542C418.547 185.099 418.547 183.657 418.547 182.219C418.386 182.224 418.224 182.23 418.068 182.23C418.146 183.62 418.235 185.016 418.313 186.412ZM223.63 424.922C223.63 425.063 223.63 425.198 223.63 425.339C225.271 425.339 226.917 425.339 228.563 425.339C228.563 425.198 228.563 425.063 228.563 424.922C226.917 424.922 225.271 424.922 223.63 424.922ZM368.276 84.5212C368.464 84.3702 368.651 84.2139 368.839 84.0577C368.141 83.0889 367.844 81.7295 365.578 81.3754C366.755 82.7504 367.516 83.6358 368.276 84.5212ZM17.0732 143.495C17.219 143.521 17.3752 143.547 17.5263 143.568C17.7659 142.339 18.0055 141.105 18.2502 139.875C18.0419 139.839 17.2555 142.256 17.0732 143.495ZM42.0732 326.974C41.8909 327.089 41.7086 327.204 41.5263 327.313C41.844 329.297 41.844 329.297 43.9013 330.172C43.2034 328.954 42.6409 327.964 42.0732 326.974ZM428.037 272.438C428.229 272.485 428.417 272.537 428.615 272.594C428.933 271.375 429.235 268.849 429.063 268.802C428.719 270.016 428.375 271.224 428.037 272.438ZM8.63566 191.834C7.48462 192.896 7.26587 193.787 8.26587 195.068C9.26066 194.021 9.43254 193.12 8.63566 191.834ZM374.281 90.49C374.365 88.8754 373.516 88.0316 372.391 87.4118C372.229 87.542 372.078 87.6723 371.917 87.8025C372.703 88.6983 373.49 89.5941 374.281 90.49ZM207.464 31.8754C207.62 31.6358 207.703 31.5629 207.709 31.4795C207.719 31.4327 207.599 31.3285 207.537 31.3285C206.203 31.3181 203.568 31.8493 203.578 32.115C204.912 32.0316 206.24 31.9483 207.464 31.8754ZM261.297 401.568C257.63 401.589 256.755 401.787 254.896 403.042C257.073 402.542 258.891 402.12 261.297 401.568ZM84.6565 45.6098C84.495 45.4483 81.5888 46.3181 81.2138 47.8077C81.3857 47.99 81.568 48.1723 81.7398 48.3493C82.7138 47.4327 83.6825 46.5212 84.6565 45.6098ZM399.818 261.292C399.985 261.339 400.141 261.391 400.302 261.438C400.901 259.589 401.677 255.756 401.469 255.698C400.922 257.563 400.37 259.427 399.818 261.292ZM64.3961 231.901C64.3023 230.829 64.2086 229.756 64.0784 228.24C63.2294 228.995 62.7346 229.438 62.1148 229.99C62.818 230.834 64.245 232 64.3961 231.901ZM264.542 29.5525C266.417 29.9587 268.302 30.365 270.177 30.7712C270.224 30.5577 270.271 30.3493 270.318 30.1358C268.448 29.7035 264.594 29.3129 264.542 29.5525ZM384.651 290.308C384.901 290.401 385.151 290.495 385.396 290.589C386.162 288.631 386.927 286.667 387.693 284.709C387.469 284.625 387.25 284.537 387.026 284.454C386.235 286.407 385.448 288.355 384.651 290.308ZM414.651 226.292C414.854 226.349 415.703 221.709 415.927 219.334C415.729 219.313 415.532 219.297 415.334 219.276C415.104 221.615 414.875 223.954 414.651 226.292ZM241.073 425.766C238.599 425.912 236.203 426.052 233.813 426.193C236.224 426.23 238.745 427.599 241.073 425.766ZM411.912 145.485C411.818 148.089 411.818 150.563 413.641 152.521C413.063 150.177 412.49 147.829 411.912 145.485ZM13.8075 148.495C13.5627 148.474 12.245 154.36 11.8284 157.329C12.0159 157.355 12.1982 157.381 12.3857 157.407C12.8596 154.438 13.3336 151.464 13.8075 148.495ZM354.12 70.3962C354.662 71.891 356.63 73.891 359.745 76.0577C358.183 73.4691 356.38 71.8077 354.12 70.3962ZM290.651 35.2816C293.459 37.5056 295.433 38.0681 297.495 37.3806C295.214 36.6827 292.933 35.9848 290.651 35.2816ZM356.594 90.7868C356.526 90.8702 356.464 90.9535 356.396 91.0473C358.537 93.1775 360.672 95.3129 362.813 97.4483C362.964 97.2973 363.11 97.1462 363.255 97.0004C361.032 94.9275 358.813 92.8598 356.594 90.7868ZM72.6305 63.4066C75.4898 62.8025 77.4898 60.7816 78.5263 57.6202C76.5627 59.5473 74.594 61.4743 72.6305 63.4066ZM397.339 259.073C397.542 259.12 400.021 252.396 399.891 248.724C399.042 252.172 398.188 255.625 397.339 259.073ZM312.537 44.4587C310.813 42.5473 304.36 39.7816 302.073 40.1306C305.563 41.5733 309.047 43.016 312.537 44.4587ZM347.787 365.36C347.62 365.183 345.047 365.954 344.297 366.834C343.24 368.058 342.537 369.584 341.49 371.287C343.854 369.271 346.276 367.776 347.787 365.36ZM402.578 182.12C400.396 182.865 400.714 184.11 400.906 185.141C401.287 187.157 401.823 189.146 402.339 191.349C402.552 190.094 403.193 188.829 402.802 188.089C401.865 186.271 401.849 184.516 402.578 182.12ZM200.005 425.24C194.854 424.745 189.698 424.245 184.542 423.75C187.896 425.25 195.683 425.881 200.005 425.24ZM316.459 46.016C320.792 48.365 324.792 51.365 329.521 52.9587C325.552 49.9118 321.11 47.766 316.459 46.016ZM8.94296 184.933C9.22941 184.974 12.0523 180.542 10.9273 177.787C10.6513 177.11 10.9534 176.131 11.1669 175.339C11.3805 174.552 11.9742 173.823 11.2659 173.021C11.0159 173.068 10.6825 173.084 10.6721 173.141C10.0784 177.073 9.51066 181.006 8.94296 184.933ZM160.964 396.282C161.011 396.75 161.047 397.151 161.089 397.578C158.344 397.063 155.672 396.563 153 396.058C155.339 397.042 157.729 397.657 160.104 398.323C162.969 399.131 165.568 399.464 167.417 399.193C166.49 398.818 165.542 398.433 164.599 398.052C165.349 396.454 163.891 396.922 163.276 396.719C162.568 396.48 161.792 396.427 160.964 396.282ZM59.3961 78.4587C64.12 75.1879 67.4534 70.6045 70.8336 66.0785C67.2346 70.4014 62.2086 73.4014 59.3961 78.4587ZM366.688 346.084C370.188 342.5 373.526 338.745 375.927 334.271C372.349 337.802 368.995 341.5 366.688 346.084ZM235.354 410.578C234.912 410.547 234.469 410.469 234.031 410.5C228.297 410.844 222.568 411.313 216.828 411.526C212.318 411.698 207.797 411.563 203.271 411.563C214.016 412.896 224.683 412.026 235.354 410.578ZM417.917 176.631C418.136 170.912 415.86 159.907 413.943 157.896C414.808 164.302 416.282 170.224 417.917 176.631ZM407.917 265.651C410.74 260.391 413.042 246.042 412.558 239.396C411.026 248.052 409.5 256.704 407.917 265.651ZM431.979 258.646C434.271 249.323 435.813 239.922 436.37 230.375C434.792 239.787 432.844 249.151 431.979 258.646ZM405.031 146.875C403.25 137.198 395.823 119.433 392.589 117.115C394.959 122.329 397.266 127.079 399.297 131.943C401.349 136.865 403.13 141.896 405.031 146.875ZM259.662 35.7139C246.349 31.6514 220.995 30.1462 215.995 31.5577C230.688 31.5629 245.229 33.0993 259.662 35.7139ZM27.4586 305.907C27.4742 306.282 30.0315 312.948 31.3232 315.896C31.9325 317.297 32.5575 318.698 33.318 320.016C35.5263 323.813 37.8805 327.521 40.0367 331.339C41.3336 333.641 45.0523 340.99 46.9273 340.443C46.7971 340.188 46.7034 339.922 46.5523 339.693C39.9117 329.62 34.0888 319.12 29.5211 307.933C29.1877 307.11 27.6252 305.834 27.4586 305.907ZM166.63 411.162C166.229 410.724 166.146 410.542 166.011 410.5C153.391 406.657 140.761 402.865 128.156 398.953C125.61 398.167 123.198 396.943 120.724 395.927C120.375 395.787 120 395.704 119.636 395.615C119.563 395.594 119.453 395.667 119.38 395.724C119.339 395.761 119.339 395.849 119.229 396.167C134.261 403.198 150.073 407.73 166.63 411.162ZM297.084 43.391C296.032 43.2556 295.313 43.141 294.584 43.0785C293.094 42.9483 291.558 43.0056 290.11 42.6879C288.537 42.3441 287.063 41.5733 285.5 41.141C283.912 40.7035 282.276 40.4535 280.656 40.1202C281.453 40.9431 282.318 41.3754 283.229 41.615C291.115 43.6514 298.667 46.5785 306.099 49.9014C321.589 56.8181 335.927 65.5316 348.641 76.8025C352 79.7816 355.193 82.9483 358.391 86.1045C361.516 89.1879 364.677 92.2452 367.578 95.5368C369.703 97.9431 371.391 100.73 373.339 103.302C373.849 103.969 374.604 104.443 375.25 105.006C375.433 104.844 375.615 104.683 375.797 104.526C375.401 103.724 375.115 102.839 374.594 102.136C373.344 100.448 371.99 98.8493 370.677 97.2139C369.688 95.99 368.604 94.8077 369.219 93.3129C367.87 92.5837 366.526 92.1983 365.662 91.3389C363.365 89.0473 361.287 86.5525 359.104 84.1462C358.224 83.1827 357.104 82.4483 357 80.8806C356.964 80.3598 355.933 79.4691 355.412 79.5004C353.594 79.6306 352.641 78.365 351.505 77.4379C348.61 75.0889 345.771 72.6723 342.938 70.2556C342.516 69.891 342.229 69.3806 341.87 68.9431C341.292 68.2452 340.823 67.3858 340.099 66.8962C338.276 65.6671 336.667 64.0473 334.354 63.6306C333.823 63.5316 333.125 63.2139 332.901 62.7868C332.089 61.2452 331.386 59.7139 329.188 60.1254C329.073 60.1462 328.886 59.6983 328.709 59.5004C328.302 59.0473 327.943 58.4952 327.443 58.1879C325.162 56.7764 322.735 55.7191 320.099 55.1045C319.448 54.9535 318.636 54.3441 318.412 53.7504C317.724 51.9014 316.068 51.3337 314.584 51.2712C313.224 51.2087 312.255 50.8493 311.219 50.1202C310.604 49.6879 309.854 49.4379 309.13 49.1931C304.818 47.7087 300.495 46.2608 296.177 44.7816C296.068 44.74 296.042 44.4639 295.953 44.24C296.214 44.0368 296.5 43.8233 297.084 43.391ZM258.052 414.37C255.542 414.969 253.521 415.443 251.505 415.927C250.209 416.24 248.927 416.74 247.615 416.86C243.808 417.198 239.995 417.422 236.183 417.625C229.11 417.995 222.037 418.318 214.964 418.683C210.365 418.922 205.797 419.037 201.287 417.735C199.938 417.344 198.433 417.5 196.995 417.459C195.485 417.422 193.953 417.563 192.448 417.422C186.828 416.886 181.219 416.276 175.604 415.667C174.953 415.599 174.323 415.323 173.672 415.177C168.448 414.026 163.235 412.782 157.985 411.771C153.11 410.839 148.177 410.172 143.276 409.37C142.714 409.276 142.157 409.094 141.63 408.881C137.828 407.339 134.042 405.787 130.25 404.23C126.974 402.881 123.599 401.735 120.453 400.136C115.771 397.761 111.219 395.115 106.662 392.485C102.854 390.287 99.0107 388.12 95.3961 385.636C88.2815 380.75 81.7763 375.099 75.5211 369.172C70.3492 364.271 65.1305 359.381 60.2763 354.167C56.443 350.047 52.6252 345.813 50.1044 340.662C49.7086 339.849 49.2502 339.313 48.1148 339.344C50.818 343.87 53.6669 348.016 57.0263 351.849C64.0784 359.896 70.9534 368.12 78.9221 375.308C81.9794 378.068 85.0159 380.855 88.2607 383.375C91.0211 385.526 94.12 387.224 96.969 389.271C102.485 393.245 108.271 396.782 114.334 399.808C120.912 403.084 127.474 406.422 134.729 408.11C139.761 409.287 144.662 410.985 149.693 412.146C158.177 414.115 166.74 415.735 175.224 417.703C183.125 419.537 191.13 420.204 199.183 420.209C206.615 420.214 214.047 419.719 221.479 419.558C231.745 419.334 241.943 418.464 252.052 416.693C253.974 416.36 256.115 416.454 258.052 414.37ZM397 163.282L397.058 163.37C396.162 160.151 395.334 156.912 394.302 153.735C394.078 153.052 393.073 152.625 392.292 151.964C392.396 151.349 392.672 150.589 392.615 149.86C392.568 149.302 392.141 148.329 391.828 148.313C389.896 148.162 390.011 146.667 390.104 145.552C390.417 141.927 388.797 138.855 387.531 135.683C386.698 133.589 385.693 131.563 384.766 129.511C383.328 130.131 383.412 130.079 382.776 129.079C379.37 123.782 375.917 118.511 372.485 113.23C372.151 112.724 371.823 112.224 371.495 111.719C371.115 111.198 370.709 110.688 370.354 110.146C369.573 108.954 368.948 107.625 368.016 106.563C363.797 101.74 359.594 96.891 355.198 92.2295C346.177 82.6618 336.604 73.7452 325.401 66.6618C317.761 61.8285 309.844 57.6306 301.537 54.1098C291.021 49.6566 280.089 46.4691 269.068 43.5889C266.896 43.0212 264.683 42.6462 262.485 42.1775C264.474 43.266 266.584 43.8285 268.688 44.417C272.823 45.5837 276.985 46.6723 281.073 47.9743C283.969 48.8962 286.683 50.4275 289.615 51.1462C294.026 52.2348 298.047 54.2191 302.141 56.016C310.38 59.6358 318.292 63.9379 325.662 69.0993C330.985 72.8233 336.063 76.9171 341.078 81.0525C344.542 83.9014 347.854 86.9691 350.995 90.167C354.683 93.9223 358.365 97.7243 361.615 101.855C365.927 107.329 370.167 112.922 373.802 118.855C377.995 125.704 381.834 132.829 385.198 140.115C388.318 146.865 390.849 153.907 392.61 161.177C392.995 162.756 393.953 164.23 394.125 165.802C394.521 169.511 395.495 173.073 396.261 176.698C397.589 182.964 398.573 189.313 399.328 195.677C400.063 201.849 400.214 208.089 400.823 214.282C401.558 221.688 400.365 228.995 399.985 236.339C399.88 238.454 399.505 240.542 399.255 242.641C399.839 242.079 400.162 241.459 400.224 240.823C400.844 234.146 401.589 227.48 401.953 220.792C402.156 217.172 401.672 213.521 401.578 209.886C401.558 209.172 401.099 208.146 402.453 207.662C403.094 217.933 403.229 228.037 401.834 238.157C402.151 237.875 402.38 237.579 402.433 237.25C403.808 228.735 404.13 220.157 403.912 211.547C403.86 209.641 403.094 207.646 403.474 205.865C404.287 202.011 403.068 198.381 402.62 194.646C402.62 197.74 402.62 200.829 402.62 203.922C402.386 203.933 402.151 203.943 401.922 203.954C401.11 197.646 399.948 191.381 400.11 184.511C398.714 183.099 398.422 180.927 398.698 178.62C399.657 178.334 400.495 178.089 401.328 177.844C401.203 177.391 401.203 177.172 401.099 177.037C399.735 175.344 398.558 173.651 399.912 171.344C400.115 171 399.912 170.079 399.584 169.818C398.474 168.933 398.542 168.042 398.891 166.787C399.438 164.823 398.985 164.204 397 163.282ZM88.995 367.927C88.3336 367.157 87.7607 366.297 87.0002 365.636C83.693 362.75 80.1617 360.099 77.0419 357.037C74.0575 354.105 71.4794 350.761 68.719 347.605C67.7502 346.506 65.4169 344.589 65.2346 344.709C65.4846 345.24 65.6461 345.839 66.0055 346.282C66.9638 347.469 68.0627 348.547 69.0107 349.745C73.9065 355.938 79.5263 361.401 85.8284 366.146C86.7919 366.87 87.969 367.302 89.0471 367.87C89.9638 368.818 90.7815 369.891 91.8023 370.698C102.297 379.006 113.656 385.86 126.11 390.797C138.969 395.896 152.38 399.026 165.922 401.625C166.781 401.792 167.683 401.735 168.563 401.782C165.985 400.86 163.37 400.339 160.771 399.75C151.37 397.62 141.964 395.615 132.985 391.86C126.016 388.943 118.948 386.287 112.448 382.381C111.74 381.954 110.943 381.464 110.521 380.787C109.479 379.11 107.828 378.443 106.156 377.756C105.729 377.573 105.172 377.625 104.818 377.37C103.209 376.204 101.667 374.938 100.058 373.766C99.4638 373.339 98.6669 372.688 98.0992 372.802C97.0471 373.016 96.5159 372.438 95.8023 372.006C93.5471 370.62 91.2659 369.282 88.995 367.927ZM396.219 143.568C396.203 143.099 396.282 142.594 396.146 142.157C394.709 137.615 393.235 133.084 391.755 128.552C391.641 128.198 391.448 127.693 391.177 127.605C389.219 126.969 388.828 125.016 387.729 123.631C387.709 124.037 387.766 124.407 387.901 124.74C390.146 130.23 392.38 135.73 394.683 141.198C395.042 142.042 395.74 142.75 396.276 143.521C396.438 144.532 396.511 145.568 396.776 146.558C397.834 150.422 399.219 154.224 399.959 158.141C400.709 162.146 402.078 165.985 402.531 170.089C403.058 174.808 404.474 179.427 405.495 184.089C405.761 185.308 406.063 186.516 406.203 187.75C406.729 192.308 407.287 196.87 407.662 201.443C408.162 207.552 408.703 213.662 408.13 219.808C407.964 221.584 408.11 223.391 408.11 225.183C408.667 221.87 409.031 218.537 409 215.209C408.938 209.761 408.698 204.313 408.386 198.865C408.11 194.094 407.813 189.308 407.183 184.573C406.719 181.084 405.709 177.672 404.933 174.23C403.771 169.115 402.537 164.021 401.474 158.896C400.896 156.131 399.391 153.511 400.078 150.511C400.188 150.047 399.891 149.224 399.516 148.974C398.172 148.073 398 146.605 397.412 145.323C397.125 144.688 396.62 144.157 396.219 143.568ZM66.5367 351.245C65.9794 350.287 65.4169 349.329 64.8596 348.365C64.6877 348.49 64.5055 348.62 64.3336 348.74C64.8544 349.745 65.3596 350.766 66.5992 351.188C68.0315 353.052 69.3544 355.021 70.9221 356.771C75.9846 362.448 81.9742 367.115 87.8596 371.881C96.9846 379.266 106.875 385.469 117.485 390.5C118.391 390.927 119.36 391.219 120.308 391.568C120.037 390.823 119.594 390.511 119.12 390.261C116.662 388.969 114.099 387.834 111.755 386.365C107.058 383.427 102.292 380.537 97.8961 377.177C93.5107 373.829 88.0419 371.938 84.5732 367.349C84.469 367.209 84.2242 367.183 84.0732 367.073C78.5523 362.776 73.1409 358.37 68.6617 352.938C68.094 352.256 67.2502 351.802 66.5367 351.245ZM412.089 180.204C412.75 178.292 412.13 176.506 411.318 174.74C411.573 176.563 411.834 178.381 412.094 180.204C414.271 191.839 415.016 203.615 415.448 215.443C415.698 215.125 415.823 214.797 415.839 214.469C416.365 205.625 416.261 196.802 414.656 188.058C414.24 185.808 413.651 183.584 413.058 181.375C412.943 180.927 412.427 180.594 412.089 180.204ZM378.406 95.1775C378.198 94.5004 377.979 93.8233 377.771 93.1462C377.532 93.2764 377.292 93.4014 377.052 93.5316C377.526 94.0681 377.995 94.5941 378.464 95.1254C379.782 97.3337 381.021 99.5941 382.438 101.735C383.427 103.23 384.755 104.5 385.735 105.995C386.985 107.912 388.021 109.964 389.203 111.927C389.433 112.308 389.912 112.537 390.401 112.943C390.453 112.422 390.558 112.188 390.479 112.068C387.521 107.375 384.604 102.657 381.521 98.0473C380.761 96.9066 379.459 96.1254 378.406 95.1775ZM405.042 229.865C405.328 229.422 405.865 228.985 405.88 228.532C406.146 220.709 407.552 212.881 405.834 205.625C405.834 208.5 405.865 211.933 405.828 215.37C405.792 219.297 405.735 223.219 405.604 227.141C405.584 228.058 405.25 228.964 405.084 229.896C404.865 232.99 404.641 236.079 404.417 239.177C405 237.672 405.417 236.125 405.464 234.573C405.511 233.011 405.198 231.438 405.042 229.865ZM289.797 392.605C287.74 393.172 285.677 393.74 283.615 394.313C286.584 392.839 289.526 391.329 292.511 389.901C299.125 386.74 305.802 383.704 312.354 380.433C314.724 379.256 316.839 377.568 319.058 376.089C319.917 375.516 320.839 374.292 321.563 374.412C323.313 374.698 323.641 373.641 324.302 372.578C324.792 371.792 325.568 371.193 326.219 370.506L326.063 370.526C328.427 369.615 330.354 368.11 331.912 366.125L331.823 366.24C333.297 365.61 335.026 365.282 336.198 364.292C339.766 361.276 343.172 358.063 346.542 354.818C349.969 351.506 353.412 348.193 356.604 344.651C360.495 340.339 363.907 335.646 366.209 330.24C366.328 330.026 366.448 329.813 366.568 329.594C368.573 329.079 369.886 327.797 370.823 325.98C371.344 324.974 372.172 324.131 372.787 323.167C373.709 321.73 375.115 320.313 375.302 318.766C375.563 316.688 377.547 315.782 377.787 313.886C380.74 312.021 380.313 308.568 381.604 305.896C381.151 306.131 380.875 306.464 380.662 306.823C378.516 310.443 376.417 314.084 374.224 317.667C373.651 318.594 372.797 319.339 372.073 320.177C372.542 319.047 372.943 317.886 373.495 316.802C374.271 315.282 375.167 313.829 375.995 312.339C377.146 310.276 378.302 308.219 379.412 306.136C379.959 305.115 380.407 304.037 380.896 302.985C380.755 302.917 380.62 302.855 380.479 302.792C379.521 303.797 378.568 304.802 377.61 305.802C378.693 303.667 380.412 301.808 380.656 298.875C379.677 300.438 378.776 301.615 378.156 302.927C377.75 303.792 377.74 304.844 377.552 305.813C375.948 305.938 375.427 307.287 374.771 308.401C371.344 314.271 367.808 320.047 363.662 325.459C356.74 334.521 349.62 343.349 341.224 351.172C333.755 358.136 325.594 364.058 317.011 369.464C309.235 374.36 301.099 378.61 292.729 382.401C285.24 385.797 277.599 388.797 269.62 390.87C265.36 391.98 261.183 393.407 256.901 394.422C251.505 395.703 246 396.542 240.62 397.881C229.026 400.761 217.203 401.391 205.349 401.771C202.683 401.86 200.005 401.584 197.339 401.526C195.865 401.49 194.391 400.802 192.959 402.25C192.401 402.813 190.735 402.453 189.62 402.25C188.714 402.084 187.38 402.344 187.214 400.834C185.328 400.589 183.453 400.219 181.568 400.136C179.089 400.026 176.604 400.141 174.125 400.172C173.677 400.172 173.229 400.25 172.776 400.287C182.99 402.558 193.292 403.771 203.651 404.584C194.469 405.011 185.354 404.605 176.308 402.672C175.328 402.615 174.349 402.558 173.37 402.495C173.38 402.688 173.391 402.875 173.396 403.063C174.391 402.917 175.38 402.771 176.375 402.62C177.219 404.125 178.839 403.735 180.12 404.11C182.188 404.709 184.521 404.761 186.334 405.771C187.771 406.573 188.86 406.646 190.328 406.381C191.479 406.167 193.214 405.959 193.813 406.589C194.938 407.75 195.995 407.407 197.177 407.386C197.985 407.37 198.787 407.474 199.594 407.464C201.87 407.427 203.99 408.631 206.505 407.349C208.146 406.516 210.771 406.74 212.584 407.443C213.797 407.907 214.834 408.079 215.995 408.021C218.188 407.907 220.37 407.693 222.563 407.542C225.563 407.339 228.568 407.157 232.172 406.922C231.141 406.526 230.735 406.37 229.959 406.073C232.125 405.797 233.703 405.792 235.427 406.292C236.839 406.704 238.584 406.079 240.167 405.802C243.417 405.224 246.646 404.573 249.891 403.953C249.865 403.808 249.834 403.672 249.808 403.532C248.589 403.672 247.365 403.808 246.141 403.953C246.443 403.334 246.823 403.073 247.24 402.974C253.755 401.427 260.276 399.901 266.792 398.375C269.584 397.719 272.375 397.079 275.162 396.396C278.011 395.698 280.854 394.953 283.698 394.235C282.578 394.818 281.469 395.412 280.349 395.99C279.386 396.485 278.417 396.964 277.433 397.438C275.443 396.964 273.761 397.672 272.297 399.115C273.995 398.547 275.688 397.974 277.386 397.407C280.662 396.349 283.959 395.349 287.203 394.203C288.13 393.87 288.901 393.11 289.745 392.542C290.927 392.219 292.115 391.896 293.297 391.568C293.209 391.349 293.13 391.131 293.042 390.907C291.964 391.474 290.88 392.037 289.797 392.605ZM378.417 118.776C378.339 116.891 376.953 115.818 376.13 114.391C375.922 114.526 375.714 114.657 375.505 114.792C376.495 116.105 377.49 117.417 378.474 118.73C379.552 120.849 380.636 122.964 381.714 125.084C381.886 124.985 382.052 124.891 382.224 124.797C380.922 122.813 380.698 120.183 378.417 118.776ZM282.459 33.5108C279.995 32.1879 279.558 32.0785 277.589 32.7035C279.24 32.9483 280.88 33.1931 282.526 33.4379C285.865 35.1879 286.261 35.2764 288.042 34.3077C286.183 34.042 284.328 33.7712 282.459 33.5108ZM350.047 355.105C348.261 355.282 346.542 356.646 345.078 359.245C346.12 358.266 346.844 357.521 347.636 356.865C348.401 356.23 349.245 355.688 350.047 355.094C350.438 354.36 350.834 353.625 351.229 352.886C351.068 352.834 350.901 352.776 350.735 352.724C350.511 353.516 350.281 354.313 350.047 355.105ZM386.938 289.427C388.854 288.079 388.959 285.922 389.406 283.917C389.823 283.193 390.235 282.474 390.651 281.75C390.443 281.667 390.235 281.589 390.026 281.511C389.844 282.334 389.657 283.151 389.474 283.974C388.651 285.813 387.823 287.651 387.005 289.506C386.287 290.959 385.563 292.412 384.839 293.86C386.115 292.62 387.193 291.287 386.938 289.427ZM134.474 390.959C133.933 389.938 133.099 389.662 131.969 390.261C132.823 390.469 133.688 390.677 134.547 390.886C136.281 391.443 138.016 392 139.755 392.563C142.594 394.61 146.094 394.297 149.662 395.834C149.104 395.026 148.959 394.818 148.808 394.61C149.141 394.427 149.474 394.245 150.141 393.886C148.063 393.849 146.698 392.605 144.74 393.11C143.198 393.5 141.391 392.823 139.698 392.625C138.125 391.552 136.453 390.782 134.474 390.959ZM339.933 363.292C341.287 362.865 342.115 361.886 342.943 360.901C342.797 360.75 342.646 360.605 342.5 360.459C341.667 361.422 340.828 362.386 339.99 363.344C339.104 363.901 338.229 364.454 337.354 365.011C337.495 365.177 337.625 365.349 337.766 365.521C338.49 364.776 339.209 364.032 339.933 363.292ZM426.474 277.157C426.959 276.48 427.443 275.802 427.927 275.125C427.782 275.047 427.641 274.969 427.505 274.891C427.172 275.657 426.839 276.433 426.526 277.23C426.391 277.995 426.255 278.761 426.115 279.526C426.308 279.526 426.542 277.948 426.474 277.157ZM125.891 387.433C125.198 387.063 124.5 386.693 123.802 386.318C123.735 386.511 123.667 386.709 123.604 386.896C124.386 387.058 125.167 387.214 125.948 387.37C126.979 388.271 126.979 388.271 128.162 387.813C127.407 387.683 126.646 387.563 125.891 387.433ZM186.005 5.58892C187.229 5.49517 188.474 5.47434 189.693 5.29725C193.755 4.69309 197.88 4.80767 201.927 3.79725C204.193 3.23996 206.693 3.58371 209.089 3.5733C214.068 3.56288 219.052 3.6358 224.031 3.56809C225.636 3.54205 227.235 3.16705 228.844 2.97955C229.594 2.89621 230.365 2.78684 231.11 2.86496C236.61 3.46392 242.094 4.15142 247.594 4.72434C257.021 5.71392 266.292 7.55246 275.485 9.79725C281.156 11.1827 286.802 12.6983 292.448 14.1983C301.464 16.5837 310.13 19.9431 318.521 23.9743C327.672 28.3702 336.568 33.1723 345.094 38.792C355.459 45.615 365.188 53.1618 374.193 61.6358C379.214 66.3545 383.834 71.5004 388.495 76.5837C391.537 79.891 394.459 83.3285 397.219 86.8754C400.438 91.016 403.677 95.1827 406.443 99.6306C409.162 103.99 411.318 108.704 413.688 113.282C413.985 113.86 414.099 114.542 414.313 115.172C415.323 118.146 416.193 121.172 418.209 123.709C418.787 124.433 419.078 125.412 419.401 126.313C421.578 132.433 423.839 138.521 425.854 144.693C426.912 147.964 427.625 151.36 428.323 154.735C429.641 161.11 430.88 167.506 432.073 173.901C433.854 183.443 434.443 193.11 434.662 202.792C434.808 209.297 434.61 215.813 434.563 222.318C434.552 224.016 434.563 225.714 434.563 227.631C436.292 227.302 436.651 226.386 436.505 225.131C436.125 221.818 436.349 218.552 436.808 215.24C437.13 212.912 436.651 210.485 436.672 208.099C436.75 199.579 436.36 191.073 435.516 182.599C435.11 178.537 434.141 174.526 433.459 170.485C433.302 169.542 433.235 168.589 433.167 167.636C433.073 166.308 433.141 165 432.162 163.839C431.74 163.344 431.808 162.417 431.688 161.683C431.323 159.422 431.016 157.157 430.599 154.912C430.214 152.855 429.75 150.802 429.24 148.766C428.693 146.579 428.058 144.407 427.448 142.235C426.959 140.495 426.38 138.776 425.979 137.016C425.667 135.646 425.599 134.323 424.625 133.052C423.927 132.157 424.136 130.563 424.302 129.146C424.61 129.766 424.985 130.36 425.203 131.006C426.417 134.532 427.703 138.042 428.74 141.62C430.068 146.193 431.344 150.787 432.36 155.433C433.792 161.98 434.985 168.573 436.224 175.157C438.016 184.683 438.318 194.349 438.729 204C438.854 206.865 438.448 209.766 438.724 212.605C439.62 221.761 438.203 230.735 437.016 239.735C436.787 241.443 436.693 243.183 436.37 244.87C434.865 252.667 433.5 260.5 431.683 268.235C430.511 273.235 428.573 278.052 427.11 282.995C425.917 287.026 424.969 291.131 423.802 295.172C423.36 296.698 422.568 298.12 421.985 299.61C419.865 305.042 414.724 314.927 415 314.224C416.344 310.865 417.729 307.511 418.953 304.11C420.141 300.808 421.854 293.954 421.656 293.881C421.104 294.969 420.37 296.011 420.031 297.162C417.651 305.193 414.146 312.724 410.266 320.115C407.948 324.526 404.839 328.334 401.615 332.084C400.766 333.073 400.276 334.36 399.552 335.459C398.88 336.474 398.151 337.459 397.38 338.407C396.146 339.927 394.865 341.407 393.599 342.907C393.787 343.084 393.974 343.256 394.162 343.433C395.386 342.172 396.615 340.912 397.844 339.651C397.964 339.766 398.078 339.881 398.198 339.995C396.162 343.276 394.13 346.552 392.104 349.834C390.776 351.365 389.453 352.907 388.136 354.438C386.328 354.151 385.099 354.954 383.99 356.339C377.479 364.407 370.037 371.605 362.521 378.709C359.62 381.448 356.427 383.886 353.318 386.396C349.604 389.401 345.933 392.464 342.068 395.271C338.271 398.026 334.292 400.526 330.334 403.047C329.615 403.506 328.61 403.506 327.74 403.735C327.11 403.901 326.438 404 325.886 404.308C318.766 408.282 311.328 411.521 303.672 414.297C303.495 414.36 303.313 414.443 303.13 414.474C297.797 415.235 292.729 416.974 287.646 418.631C286.203 419.099 284.792 419.662 283.36 420.146C282.651 420.386 281.917 420.537 281.183 420.714C279.308 421.172 277.229 420.688 275.531 422.12C275.104 422.48 274.125 422.23 273.406 422.172C271.912 422.052 270.537 422.073 269.328 423.245C268.87 423.688 267.969 423.782 267.255 423.839C265.672 423.959 264.063 423.818 262.5 424.037C260.136 424.36 257.808 424.927 255.453 425.339C254.526 425.495 253.552 426.115 252.886 424.568C252.568 423.834 251.078 424.412 250.5 425.412C250.318 425.73 250.115 426.021 249.917 426.323C250.297 426.438 250.688 426.563 251.073 426.683C251.058 426.823 245.943 427.615 243.396 427.818C241.396 427.98 239.396 428.177 237.391 428.177C235.49 428.177 233.589 427.86 231.693 427.839C221.261 427.714 210.823 427.625 200.396 427.537C198.438 427.521 196.521 428.636 194.5 427.677C194.183 427.526 193.516 428.084 193.021 428.328C192 428.828 192.005 428.834 190.328 427.948C190.38 427.875 190.417 427.771 190.485 427.74C190.662 427.662 190.849 427.625 191.255 427.506C188.464 426.974 185.88 426.48 183.276 425.985C183.308 427.938 182.636 428.792 181 428.401C178.255 427.756 175.433 427.526 172.88 425.98C170.162 424.339 166.964 423.985 163.808 423.75C162.792 423.677 161.761 423.547 160.771 423.297C158.011 422.61 155.287 421.782 152.516 421.141C151.74 420.964 150.865 421.245 150.037 421.271C149.38 421.287 148.656 421.401 148.089 421.162C145.729 420.177 143.172 419.792 140.985 418.219C139.578 417.203 137.63 416.964 135.948 416.323C131.86 414.761 127.761 413.209 123.714 411.537C122.959 411.224 121.453 411.099 122.162 409.469C122.214 409.339 121.761 408.881 121.469 408.724C117.834 406.839 114.183 404.98 110.255 403.511C111.901 404.761 113.537 406.006 115.511 407.511C113.985 407.886 98.6669 397.636 91.7763 393.167C82.1565 386.933 74.2138 378.823 66.6252 370.412C59.5732 362.589 52.7763 354.5 46.4273 346.099C42.1252 340.407 38.7138 334.016 35.068 327.834C32.8857 324.131 30.7555 320.344 29.0732 316.391C27.1409 311.834 25.6982 307.063 24.0992 302.36C23.9482 301.901 24.1721 301.302 24.2398 300.605C25.0992 300.948 25.7555 301.204 26.6461 301.558C26.8075 300.594 26.943 299.802 27.1565 298.542C28.5836 301.797 29.7034 304.73 31.1252 307.516C33.2242 311.651 35.5367 315.688 37.7659 319.761C38.1877 320.526 38.693 321.214 39.7502 320.776C39.9325 320.948 40.12 321.12 40.2971 321.287C40.8336 321.235 41.37 321.188 41.9065 321.136C42.6617 322.339 43.3648 323.568 44.1773 324.73C44.8961 325.756 45.7398 326.698 46.7763 327.516C46.3336 324.724 43.9534 322.735 43.5523 320.011C43.8023 319.875 44.0575 319.75 44.3127 319.62C44.8544 320.532 45.4325 321.427 45.9273 322.365C46.8127 324.047 47.4586 325.886 48.5263 327.427C51.4013 331.589 54.443 335.631 57.4273 339.714C57.9169 340.375 58.3075 341.276 59.4273 340.901C59.0002 341.636 59.0002 341.636 60.0575 342.297C59.7919 341.834 59.5211 341.365 59.2502 340.896C60.1565 339.829 58.9065 339.422 58.5367 338.849C54.4377 332.599 50.2815 326.391 46.1669 320.157C45.693 319.443 45.37 318.636 45.0263 317.839C44.8857 317.506 44.8909 317.11 44.7086 316.032C45.469 317.12 45.87 317.651 46.2242 318.209C50.2919 324.48 54.3388 330.761 58.4273 337.016C59.0002 337.886 59.6305 338.886 60.4846 339.365C61.495 339.912 62.7815 339.959 63.9117 340.209C64.6357 339.058 63.745 338.48 63.2971 337.829C60.6669 334.052 57.8857 330.375 55.4013 326.5C53.5471 323.61 52.0575 320.49 50.4169 317.464C50.2086 317.079 50.1148 316.636 50.1565 316.162C52.7919 320.355 55.2971 324.631 58.0888 328.719C66.193 340.589 75.7086 351.204 86.9898 360.146C99.9013 370.381 113.787 378.891 129.276 384.792C141.589 389.474 154.162 392.985 167.099 395.391C181.563 398.073 196.11 399.87 210.823 399.5C217.802 399.323 224.766 398.448 231.729 397.839C232.646 397.761 233.532 397.412 234.334 396.672C232.209 396.912 230.084 397.188 227.953 397.396C215.235 398.646 202.511 399.099 189.787 397.469C183.229 396.631 176.62 396.089 170.136 394.891C162.037 393.401 153.891 391.881 146.058 389.438C137.589 386.797 128.985 384.308 121.058 380.151C115.891 377.438 110.761 374.631 105.75 371.646C98.3284 367.224 91.1565 362.381 84.818 356.506C80.4742 352.485 76.6513 347.901 72.6096 343.558C72.3232 343.245 72.1409 342.844 71.6305 342.058C73.3336 343.62 74.7086 344.745 75.9221 346.032C84.87 355.526 95.4586 362.901 106.396 369.881C110.755 372.662 115.099 375.37 119.787 377.625C128.964 382.052 138.474 385.542 148.25 388.313C164.995 393.058 182.115 395.891 199.453 396.907C209.099 397.469 218.818 397.131 228.443 395.87C232.615 395.329 236.745 394.386 240.933 394.063C247.302 393.573 253.266 391.438 259.406 390.047C259.86 389.943 260.318 389.886 260.886 390.167C259.255 390.714 257.641 391.297 255.995 391.792C254.261 392.313 252.469 392.683 250.745 393.245C249.828 393.542 248.573 393.386 248.188 394.677C246.287 394.224 244.526 394.308 243.12 395.896C241.735 395.355 240.406 395.506 239.104 396.24C240.438 396.115 241.771 396 243.104 395.875C244.792 395.48 246.49 395.073 248.183 394.672C254.453 392.964 260.729 391.302 266.974 389.511C268.151 389.172 269.933 389.365 269.995 387.25C270 386.953 271.104 386.646 271.724 386.422C275.776 384.964 279.86 383.594 283.88 382.058C294.005 378.204 303.688 373.443 312.761 367.5C315 366.032 317.214 364.526 319.459 363.068C320.011 362.709 320.693 362.141 321.229 362.23C323.141 362.532 324.266 361.36 325.459 360.287C327.287 358.641 329.073 356.948 330.875 355.276C332.13 355.818 332.516 354.86 332.985 354.052C335.417 352.084 337.974 350.256 340.255 348.125C350.141 338.927 358.282 328.282 365.792 317.12C372.375 307.334 378.516 297.282 383.203 286.407C387.313 276.875 393.183 256.339 392.959 255.927C388.183 268.704 384.698 281.969 377.511 293.787C377.646 293.235 377.761 292.672 377.927 292.131C378.042 291.766 378.24 291.427 378.401 291.079C382.933 281.339 386.302 271.172 389.552 260.948C392.261 252.427 393.729 243.662 395.589 234.964C397.521 225.938 397.11 216.87 396.042 207.797C395.5 203.146 394.844 198.49 394.261 193.834C394.183 193.198 394.255 192.537 394.448 191.87C397.339 203.125 397.61 214.667 398.334 226.25C398.427 225.901 398.552 225.563 398.604 225.209C398.657 224.829 398.646 224.443 398.651 224.063C398.88 214.834 398.188 205.672 396.849 196.547C396.474 193.99 396.162 191.427 395.865 188.86C394.407 176.443 391.651 164.313 387.688 152.474C385.13 144.844 381.766 137.516 377.933 130.433C376.979 128.672 375.693 127.099 374.656 125.386C372.136 121.214 369.797 116.927 367.151 112.839C363.495 107.188 359.058 102.157 354.292 97.4066C349.417 92.5473 344.709 87.5108 339.735 82.74C337.547 80.641 334.88 79.042 332.469 77.1566C330.136 75.3441 327.959 73.3285 325.542 71.641C315.36 64.516 304.318 58.99 292.776 54.4587C281.151 49.891 269.089 46.7868 256.865 44.2973C240.474 40.9587 223.927 39.0941 207.198 39.6618C183.318 40.4639 160.49 45.7452 139.167 56.766C133.047 59.9327 127.167 63.5577 121.172 66.9639C120.25 67.4848 119.287 67.9275 118.417 68.5056C116.912 69.4952 115.453 70.542 114 71.5941C113.068 72.2608 112.198 73.0212 111.255 73.6723C101.229 80.6514 91.8805 88.4275 83.7242 97.5368C80.4169 101.23 77.2763 105.157 74.6409 109.344C69.7711 117.094 64.3648 124.579 60.9377 133.157C59.2398 137.417 57.7867 141.782 56.3232 146.136C54.2034 152.417 53.1044 158.922 51.9534 165.443C50.6148 173.052 50.693 180.709 50.318 188.349C50.0992 192.698 51.495 196.829 52.5627 200.855C53.568 201.204 54.6617 201.256 55.1617 201.829C55.8648 202.646 56.3127 203.808 56.5523 204.891C56.9221 206.568 56.4742 207.021 54.2919 207.782C53.8127 211.089 55.943 212.823 58.3909 214.552C59.1096 214.177 59.8388 213.797 60.7607 213.318C61.4482 214.641 62.0836 215.865 62.745 217.146C63.2086 216.74 63.5419 216.443 63.8805 216.146C65.9377 218.573 63.7294 220.964 63.5315 223.245C65.9377 224 64.9482 221.349 66.6721 221.188C66.6721 221.985 66.7607 222.776 66.6565 223.532C66.1357 227.276 66.0627 230.954 67.8544 234.454C68.1982 235.12 68.2919 235.922 68.4742 236.667C68.745 237.761 68.6044 238.672 67.6513 239.49C65.9169 240.974 64.844 242.73 65.5732 245.219C65.969 246.573 65.9169 248.068 66.2502 249.454C66.9898 252.474 65.8596 255.188 63.9482 257.073C62.7138 258.297 62.8075 260.141 61.4273 260.943C59.5419 262.032 60.568 263.917 59.8596 265.594C59.219 264.891 58.6461 264.266 57.9377 263.485C57.4794 263.98 57.1669 264.443 56.7398 264.73C55.4742 265.594 55.4065 268.125 53.0107 267.427C52.8961 267.396 52.6096 267.599 52.568 267.735C51.9013 270.157 49.8544 269.125 48.3648 269.355C47.8336 269.433 46.818 268.974 46.6982 268.563C46.2034 266.86 44.8127 266.62 43.4846 266.12C42.8909 265.896 42.4221 265.339 41.9221 264.959C40.1773 265.526 38.4846 266.073 36.568 266.693C36.6565 267.026 36.8544 267.532 36.9117 268.058C37.0367 269.219 36.6148 270.172 35.4846 270.589C34.4325 270.974 33.37 270.959 32.6565 269.896C31.9013 268.771 31.0315 267.865 29.7034 267.339C29.245 267.157 29.0575 266.25 28.7711 265.667C28.37 264.834 28.1305 263.865 27.568 263.167C26.5211 261.865 25.443 262.094 24.7919 263.625C24.6825 263.886 24.7502 264.287 24.5784 264.443C24.0627 264.912 23.3961 265.677 22.9273 265.589C22.3857 265.495 21.8336 264.672 21.5784 264.042C21.3909 263.589 21.7086 262.943 21.745 262.375C21.9325 259.276 20.4586 257.016 17.995 254.808C18.1982 256.12 18.4898 257.052 18.4273 257.959C18.3961 258.464 17.8388 259.235 17.4013 259.334C16.9742 259.422 15.9898 258.849 15.9534 258.495C15.8023 257.073 13.5888 256.198 14.87 254.433C14.9065 254.381 14.7294 254.068 14.594 254.016C12.9065 253.329 12.9117 251.563 12.1773 250.276C12.0002 249.959 11.745 249.688 11.1982 248.964C10.8492 250.068 10.62 250.802 10.3857 251.542L10.4742 251.469C9.91691 251.443 9.11483 251.641 8.84921 251.355C7.97421 250.396 6.93775 249.355 6.60441 248.172C5.77108 245.183 4.20337 242.355 4.57837 239.052C4.67212 238.23 4.20858 236.969 3.57316 236.495C1.27108 234.782 1.0367 232.334 0.823163 229.855C0.609621 227.407 0.510662 224.943 0.422121 222.485C0.271078 218.282 0.161704 214.084 0.031496 209.875C0.026288 209.594 -0.020588 209.302 0.0106627 209.016C0.677329 203.23 1.32837 197.438 2.0315 191.657C2.17212 190.521 2.62525 189.427 2.7867 188.297C2.95337 187.084 3.17212 185.808 2.95858 184.636C2.56795 182.469 2.83358 180.49 3.62004 178.459C4.1617 177.052 4.41691 175.532 4.67733 174.037C6.67733 162.542 7.63566 150.839 12.2867 139.912C13.6617 136.677 14.2502 133.11 15.2763 129.719C18.1721 120.172 21.3232 110.73 26.3805 102.042C27.818 99.5629 28.7607 96.792 30.2294 94.3337C33.1669 89.4327 39.7346 79.9587 39.9169 80.0316C39.7867 80.5681 39.7502 81.1566 39.5002 81.6306C35.8023 88.6671 32.0367 95.667 28.3805 102.724C27.2815 104.844 26.4013 107.079 25.5367 109.313C23.844 113.688 22.1617 118.068 20.6252 122.506C19.6565 125.297 19.2815 131.542 19.8023 131.792C19.9482 131.62 21.4117 127.131 22.0107 125.11C22.2555 124.287 22.4482 123.355 22.9638 122.724C23.8284 121.672 24.7138 120.886 23.6513 119.36C23.3857 118.974 24.2086 117.193 24.4482 117.209C26.1409 117.334 26.1669 115.969 26.6148 115.047C29.193 109.709 31.719 104.344 34.2971 99.0108C34.6148 98.3545 35.1461 97.8025 35.8388 97.3389C35.5263 99.5941 34.1305 101.381 33.2502 103.381C32.344 105.448 31.5159 107.552 31.0367 109.922C31.3596 109.48 31.7502 109.068 32.0002 108.589C34.8909 103.084 37.6357 97.5004 40.6982 92.0837C42.5159 88.8598 44.8127 85.9066 46.9117 82.8337C49.1044 79.6254 51.3023 76.4171 53.5315 73.2243C53.9117 72.6775 54.4221 72.2243 54.8805 71.7348C60.12 66.1566 65.2502 60.4691 70.6357 55.0368C73.5888 52.0629 76.9117 49.4327 80.1669 46.766C91.0211 37.8702 102.558 29.9848 115.084 23.6254C118.573 21.8545 122.328 20.5993 125.922 19.0264C135.412 14.8702 145.188 11.49 155.151 8.7035C161.146 7.03163 167.24 5.70871 173.308 4.3233C180.979 2.5733 188.75 1.47954 196.615 1.04725C200.714 0.823296 204.802 0.182671 208.906 0.0316292C212.61 -0.0985788 216.328 0.177463 220.12 0.781629C219.568 0.927463 219.016 1.19309 218.459 1.1983C208.75 1.29205 199.198 2.94309 189.625 4.27121C188.417 4.43788 186.88 4.21913 186.037 5.59413C184.464 5.67225 181.391 6.30246 181.417 6.53163C182.948 6.21913 184.474 5.90142 186.005 5.58892Z" fill="black"/>
<path fill-rule="evenodd" clip-rule="evenodd" d="M209.552 394.558C199.511 395.131 189.495 395.407 179.552 393.516C171.479 391.98 163.386 390.589 155.318 389.026C152.985 388.573 150.709 387.787 148.438 387.042C143.896 385.558 139.375 384.021 134.865 382.454C133.657 382.032 132.521 381.407 130.823 380.646C132.552 379.943 133.438 380.62 134.323 380.943C142.146 383.823 150.032 386.49 158.198 388.198C163.526 389.313 168.896 390.245 174.287 391.052C182.125 392.219 189.985 393.329 197.86 394.219C201.36 394.615 204.933 394.412 208.474 394.485C208.834 394.49 209.193 394.532 209.552 394.558Z" fill="black"/>
<path fill-rule="evenodd" clip-rule="evenodd" d="M388.136 354.438C389.453 352.907 390.776 351.365 392.104 349.834C392.974 348.954 393.979 348.172 394.688 347.177C398.36 342.047 401.953 336.865 405.578 331.693C405.745 331.459 405.891 331.209 406.328 330.542C406.589 331.506 405.943 334.105 405.391 334.881C402.703 338.605 399.74 342.151 397.334 346.052C395.157 349.589 392.334 352.552 389.844 355.813C388.781 357.209 388.146 358.969 386.969 360.25C385.714 361.62 384.031 362.589 382.573 363.782C381.917 364.318 381.323 364.943 380.755 365.578C379.938 366.506 379.042 367.115 377.75 366.578L377.823 366.657C381.255 362.584 384.698 358.511 388.136 354.438Z" fill="black"/>
<path fill-rule="evenodd" clip-rule="evenodd" d="M358.771 44.4639C363.698 48.2399 368.646 51.9951 373.469 55.9118C375.537 57.5889 377.401 59.542 379.177 61.5316C382.776 65.5889 387.573 68.5212 390.302 73.391C390.479 73.7139 390.662 74.0368 390.99 74.6254C389.313 74.7712 388.558 73.9899 388.068 72.7972C387.896 72.391 387.912 71.7191 387.625 71.5576C383.74 69.391 381.61 65.4743 378.505 62.5264C371.552 55.9431 364.36 49.6566 356.745 43.8545C355.099 42.5993 353.323 41.516 351.604 40.3545C351.776 40.1097 356.594 42.7972 358.771 44.4639Z" fill="black"/>
<path fill-rule="evenodd" clip-rule="evenodd" d="M226.589 0.755584C233.11 -0.9215 270.995 3.43267 275.922 6.78163C274.584 6.80767 273.771 6.97433 273.032 6.81288C269.026 5.94309 265.052 4.92225 261.037 4.09413C258.521 3.5785 255.969 3.18787 253.412 2.96392C247.328 2.43787 241.235 2.01079 235.146 1.62017C232.302 1.43788 226.594 0.9535 226.589 0.755584Z" fill="black"/>
<path fill-rule="evenodd" clip-rule="evenodd" d="M408.084 98.6045C405.433 95.9639 403.771 93.3858 402.328 90.4118C400.693 87.0212 397.891 84.1879 395.61 81.1097C394.552 79.667 393.531 78.1983 392.36 76.5576C396.073 78.1983 406.787 93.1774 408.084 98.6045Z" fill="black"/>
<path fill-rule="evenodd" clip-rule="evenodd" d="M394.74 226.558C394.266 216.886 393.281 207.276 393.031 197.625C394.906 200.605 395.844 217.511 394.74 226.558Z" fill="black"/>
<path fill-rule="evenodd" clip-rule="evenodd" d="M387.417 259.922C388.631 255 389.995 250.105 391.011 245.146C391.99 240.355 392.344 235.438 393.516 230.683C393.755 230.703 394.245 233.047 394.021 234.151C392.469 241.714 390.901 249.276 389.209 256.808C388.959 257.907 388.026 258.86 387.412 259.881L387.417 259.922Z" fill="black"/>
<path fill-rule="evenodd" clip-rule="evenodd" d="M100.38 364.125C92.193 359.714 85.3128 353.761 79.443 346.62C86.4222 352.459 93.4013 358.292 100.38 364.125Z" fill="black"/>
<path fill-rule="evenodd" clip-rule="evenodd" d="M23.2034 295.605C21.3961 293.839 17.1305 279.662 16.9065 275.063C19.0055 281.912 21.1044 288.761 23.2034 295.605Z" fill="black"/>
<path fill-rule="evenodd" clip-rule="evenodd" d="M279.297 7.69827C279.349 7.51598 292.604 10.417 298.974 12.7764C298.922 12.9587 285.802 9.57327 279.297 7.69827Z" fill="black"/>
<path fill-rule="evenodd" clip-rule="evenodd" d="M347.787 393.407C350.516 392.839 352.401 391.099 354.24 389.193C355.052 388.355 356.099 387.75 357.224 387.287C354.943 391.219 350.808 392.849 347.547 395.542C347.297 395.37 347.36 393.5 347.787 393.407Z" fill="black"/>
<path fill-rule="evenodd" clip-rule="evenodd" d="M309.453 365.631C309.714 365.266 309.896 364.787 310.24 364.547C314.24 361.776 318.261 359.037 322.287 356.302C322.479 356.172 322.766 356.172 323.052 356.094C322.995 356.355 323.021 356.605 322.917 356.677C318.782 359.589 314.641 362.495 310.479 365.365C310.203 365.558 309.766 365.511 309.401 365.573L309.453 365.631Z" fill="black"/>
<path fill-rule="evenodd" clip-rule="evenodd" d="M41.9065 321.136C41.37 321.188 40.8336 321.235 40.2971 321.287C40.0836 321.141 39.87 320.985 39.6565 320.828C39.8075 320.412 39.9534 319.99 40.0992 319.568C39.3752 318.052 38.6461 316.537 37.9221 315.021C37.1773 312.61 36.4325 310.198 35.6877 307.792C35.8023 307.75 36.4638 308.459 36.6409 308.875C38.4013 312.964 40.1565 317.047 41.9065 321.136Z" fill="black"/>
<path d="M439.802 226.011H441.922V240.469H439.802V226.011Z" fill="black"/>
<path fill-rule="evenodd" clip-rule="evenodd" d="M441.224 226.62C442.927 231.11 441.104 235.302 440.104 239.563C440.479 235.25 440.849 230.933 441.224 226.62Z" fill="black"/>
<path fill-rule="evenodd" clip-rule="evenodd" d="M331.011 405.37C334.193 403.526 337.38 401.677 340.563 399.828C340.662 400.006 334.99 404.881 331.396 406.063C331.266 405.828 331.141 405.605 331.011 405.37Z" fill="black"/>
<path fill-rule="evenodd" clip-rule="evenodd" d="M315.229 415.162C316.386 412.48 318.62 411.407 321.005 410.594C321.229 410.521 321.657 411.079 322.412 411.677C319.782 412.954 317.505 414.063 315.229 415.162Z" fill="black"/>
<path fill-rule="evenodd" clip-rule="evenodd" d="M18.7763 289.094C19.9638 292.834 21.1565 296.568 22.3492 300.308C22.094 300.391 18.5211 289.177 18.7763 289.094Z" fill="black"/>
<path fill-rule="evenodd" clip-rule="evenodd" d="M371.74 374.214C370.167 376.485 368.172 378.375 365.995 380.297C366.828 377.688 369.209 375.084 371.74 374.214Z" fill="black"/>
<path fill-rule="evenodd" clip-rule="evenodd" d="M124.005 377.172C120.933 376.214 117.917 375.125 115.49 372.756C116.292 373.089 117.13 373.355 117.886 373.766C119.922 374.891 121.922 376.068 123.943 377.23L124.005 377.172Z" fill="black"/>
<path fill-rule="evenodd" clip-rule="evenodd" d="M404.505 340.349C403.021 342.261 401.714 343.948 400.12 346.006C400.297 342.927 402.068 340.667 404.505 340.349Z" fill="black"/>
<path fill-rule="evenodd" clip-rule="evenodd" d="M10.3857 251.542C11.6252 251.589 12.4377 252.25 12.3231 253.469C12.2711 254.047 11.5419 254.558 11.12 255.105C10.6044 254.657 9.70335 254.235 9.6721 253.75C9.61481 253.016 10.1669 252.24 10.469 251.474C10.4742 251.469 10.3857 251.542 10.3857 251.542Z" fill="black"/>
<path fill-rule="evenodd" clip-rule="evenodd" d="M329.375 407.214C327.813 409.521 327.13 409.875 324.115 410.297C324.792 407.589 327.167 408.204 329.375 407.214Z" fill="black"/>
<path fill-rule="evenodd" clip-rule="evenodd" d="M51.0732 321.829C48.8232 319.506 47.4378 316.724 46.318 313.797C46.5107 313.688 49.6409 319.084 51.0107 321.881L51.0732 321.829Z" fill="black"/>
<path fill-rule="evenodd" clip-rule="evenodd" d="M411.37 102.344C412.922 103.287 413.328 104.703 413.516 106.578C411.162 105.698 411.313 103.985 411.37 102.344Z" fill="black"/>
<path fill-rule="evenodd" clip-rule="evenodd" d="M325.38 23.4066C327.005 24.3441 331.276 26.8806 331.532 27.6618C329.677 26.6462 327.792 25.6722 325.979 24.5941C325.662 24.4014 325.589 23.7868 325.407 23.3754L325.38 23.4066Z" fill="black"/>
<path fill-rule="evenodd" clip-rule="evenodd" d="M325.407 23.3754C322.552 24.5108 320.875 22.2191 318.735 21.266C318.802 21.0889 323.214 22.5316 325.365 23.4222C325.38 23.4066 325.407 23.3754 325.407 23.3754Z" fill="black"/>
<path fill-rule="evenodd" clip-rule="evenodd" d="M37.9221 315.021C38.6461 316.537 39.3752 318.052 40.0992 319.568C39.7086 319.448 39.12 319.443 38.9638 319.177C38.3492 318.157 37.8232 317.068 37.3752 315.959C37.2971 315.75 37.7294 315.334 37.9221 315.021Z" fill="black"/>
<path d="M169.677 428.881H175.802V431.068H169.677V428.881Z" fill="black"/>
<path fill-rule="evenodd" clip-rule="evenodd" d="M169.974 429.49C171.693 429.813 173.412 430.141 175.12 430.469C175.084 430.683 175.047 430.901 175.011 431.12C173.302 430.844 169.948 429.75 169.974 429.49Z" fill="black"/>
<path fill-rule="evenodd" clip-rule="evenodd" d="M37.6721 302.292C37.4794 302.365 37.2867 302.438 37.094 302.511C36.4586 300.844 35.8284 299.177 35.1982 297.516C35.4013 297.438 37.0523 300.62 37.6721 302.292Z" fill="black"/>
<path fill-rule="evenodd" clip-rule="evenodd" d="M377.75 366.578C377.511 368.735 377.511 368.735 374.891 370.453C374.943 368.292 376.36 367.459 377.823 366.662C377.823 366.657 377.75 366.578 377.75 366.578Z" fill="black"/>
<path fill-rule="evenodd" clip-rule="evenodd" d="M354.261 102.594C352.797 101.021 351.334 99.4535 349.823 97.8337C351.604 98.2556 354.396 102.448 354.261 102.594Z" fill="black"/>
<path fill-rule="evenodd" clip-rule="evenodd" d="M123.943 377.23C125.875 377.787 127.818 378.349 129.75 378.907C129.667 379.162 129.578 379.417 129.485 379.672C127.547 379.136 125.735 378.276 124.011 377.167C124.005 377.172 123.943 377.23 123.943 377.23Z" fill="black"/>
<path fill-rule="evenodd" clip-rule="evenodd" d="M63.2138 334.188C62.6201 333.099 62.0263 332.006 61.4326 330.912C63.469 331.245 63.5784 332.651 64.0315 333.86C63.7607 333.969 63.4846 334.078 63.2138 334.188Z" fill="black"/>
<path fill-rule="evenodd" clip-rule="evenodd" d="M360.698 385.073C360.573 384.943 360.448 384.808 360.323 384.677C361.521 383.506 362.714 382.328 363.912 381.151C364.073 381.349 361.933 383.964 360.698 385.073Z" fill="black"/>
<path fill-rule="evenodd" clip-rule="evenodd" d="M42.3284 87.3076C41.7503 88.1149 41.1669 88.9222 40.5836 89.7295C40.3648 89.5837 40.1461 89.4326 39.9326 89.2868C40.4846 88.4483 42.0836 87.1306 42.3284 87.3076Z" fill="black"/>
<path fill-rule="evenodd" clip-rule="evenodd" d="M44.1461 74.7191C43.4951 75.5837 42.844 76.4483 42.193 77.3129C42.3701 76.1097 43.9586 74.5837 44.1461 74.7191Z" fill="black"/>
<path fill-rule="evenodd" clip-rule="evenodd" d="M40.6982 304.474C40.4794 304.552 40.2607 304.625 40.0419 304.698C39.7138 303.605 39.3909 302.516 39.0627 301.427C39.1877 301.375 40.2763 303.412 40.6982 304.474Z" fill="black"/>
<path fill-rule="evenodd" clip-rule="evenodd" d="M364.38 317.266C364.193 317.136 365.068 315.068 365.698 314.167C365.86 314.282 364.985 316.344 364.38 317.266Z" fill="black"/>
<path fill-rule="evenodd" clip-rule="evenodd" d="M309.401 365.573C308.688 366.927 307.36 367.287 306.058 367.672C306.927 366.552 307.985 365.74 309.453 365.631L309.401 365.573Z" fill="black"/>
<path fill-rule="evenodd" clip-rule="evenodd" d="M196.448 429.615C197.688 429.615 198.933 429.615 200.172 429.615C200.172 429.693 200.172 429.771 200.172 429.849C198.927 429.849 197.683 429.849 196.443 429.849C196.443 429.771 196.443 429.693 196.448 429.615Z" fill="black"/>
<path fill-rule="evenodd" clip-rule="evenodd" d="M387.412 259.881C387.292 261.157 387.172 262.433 387.047 263.709C386.891 263.688 386.729 263.667 386.573 263.651C386.854 262.412 387.146 261.188 387.427 259.938C387.417 259.922 387.412 259.881 387.412 259.881Z" fill="black"/>
<path fill-rule="evenodd" clip-rule="evenodd" d="M45.2919 299.771C45.1148 299.167 44.943 298.563 44.6669 297.61C46.1669 298.073 46.443 298.641 45.2919 299.771Z" fill="black"/>
<path fill-rule="evenodd" clip-rule="evenodd" d="M302.537 419.73C302.49 419.584 302.443 419.438 302.401 419.292C303.198 419.032 304 418.776 304.797 418.516C304.854 418.693 303.344 419.506 302.537 419.73Z" fill="black"/>
<path fill-rule="evenodd" clip-rule="evenodd" d="M50.1357 76.5629C49.7554 76.766 49.4586 76.9326 49.1617 77.0889C49.0263 76.8076 48.719 76.4431 48.8023 76.2764C48.9221 76.0472 49.3284 75.8962 49.6304 75.8545C49.7398 75.8389 49.9065 76.2295 50.1357 76.5629Z" fill="black"/>
<path fill-rule="evenodd" clip-rule="evenodd" d="M51.0107 321.881C51.5732 322.563 52.1357 323.245 52.6982 323.927C52.5055 324.042 52.3076 324.157 52.1096 324.271C51.7659 323.459 51.417 322.641 51.0732 321.829L51.0107 321.881Z" fill="black"/>
<path fill-rule="evenodd" clip-rule="evenodd" d="M69.9013 52.6931C69.6044 52.9587 69.4273 53.2191 69.1982 53.2712C69.0784 53.2972 68.7086 52.9066 68.7398 52.7972C68.8076 52.5785 69.0523 52.3233 69.2711 52.2608C69.4117 52.2191 69.6461 52.5056 69.9013 52.6931Z" fill="black"/>
<path fill-rule="evenodd" clip-rule="evenodd" d="M333.037 354.115C332.532 354.11 332.021 354.105 331.516 354.099C332.078 353.667 332.636 353.24 333.511 352.573C333.287 353.297 333.162 353.703 333.037 354.115Z" fill="black"/>
<path fill-rule="evenodd" clip-rule="evenodd" d="M165.922 401.625C166.781 401.792 167.683 401.735 168.563 401.782Z" fill="white"/>
<path fill-rule="evenodd" clip-rule="evenodd" d="M326.219 370.506C325.339 370.844 324.386 371.063 323.584 371.532C318.297 374.62 313.073 377.813 307.755 380.844C305.625 382.058 303.297 382.927 301.058 383.959C300.974 383.792 300.886 383.625 300.808 383.459C305.047 381.256 309.323 379.125 313.505 376.818C316.089 375.396 318.558 373.75 321.005 372.099C324.094 370.011 327.094 367.802 330.151 365.672C330.584 365.37 331.11 365.209 331.719 364.922C331.761 365.516 331.792 365.875 331.823 366.24L331.912 366.125C329.479 366.953 327.443 368.302 326.063 370.526L326.219 370.506Z" fill="black"/>
<path fill-rule="evenodd" clip-rule="evenodd" d="M370.453 322.959C370 323.849 369.594 324.766 369.089 325.62C368.281 326.964 367.412 328.276 366.568 329.594C366.448 329.813 366.328 330.026 366.209 330.24C365.365 331.115 364.453 331.933 363.677 332.87C360.464 336.761 353.422 345.183 352.735 345.146C354.386 343.151 356.11 341.204 357.688 339.151C359.542 336.74 361.188 334.172 363.073 331.787C365.453 328.782 367.99 325.901 370.453 322.959Z" fill="black"/>
<path fill-rule="evenodd" clip-rule="evenodd" d="M302.073 40.1306C305.563 41.5733 309.047 43.016 312.537 44.4587Z" fill="white"/>
<path fill-rule="evenodd" clip-rule="evenodd" d="M372.485 113.23C372.521 113.542 372.568 113.86 372.61 114.172C372.453 114.25 372.297 114.328 372.151 114.407C371.651 113.724 371.214 111.933 371.49 111.714C371.823 112.224 372.151 112.724 372.485 113.23Z" fill="black"/>
<path fill-rule="evenodd" clip-rule="evenodd" d="M252.5 400.099C265.813 396.579 279.032 392.875 291.74 387.547C287.063 391.386 262.422 398.995 252.5 400.099Z" fill="black"/>
<path fill-rule="evenodd" clip-rule="evenodd" d="M286.552 387.032C289.141 384.865 292.318 384.875 294.896 383.453C292.641 385.672 289.328 387.084 286.552 387.032Z" fill="black"/>
<path fill-rule="evenodd" clip-rule="evenodd" d="M329.693 362.813C331.698 360.157 334.542 358.506 337.177 356.599C334.964 359.026 332.573 361.23 329.625 362.75C329.62 362.745 329.693 362.813 329.693 362.813Z" fill="black"/>
<path fill-rule="evenodd" clip-rule="evenodd" d="M298.985 381.438C301.183 380.276 303.386 379.115 305.584 377.953C303.849 379.974 301.797 381.401 298.985 381.438Z" fill="black"/>
<path fill-rule="evenodd" clip-rule="evenodd" d="M209.427 402.636C212.542 402.636 215.651 402.636 218.761 402.636C218.761 402.688 218.761 402.74 218.761 402.792C215.651 402.792 212.542 402.792 209.427 402.792C209.427 402.74 209.427 402.688 209.427 402.636Z" fill="black"/>
<path fill-rule="evenodd" clip-rule="evenodd" d="M345.229 352.625C343.729 354.391 342.229 356.151 340.729 357.917C340.62 357.802 340.511 357.698 340.406 357.594C342.037 355.985 343.667 354.386 345.297 352.782C345.276 352.73 345.25 352.683 345.229 352.625Z" fill="black"/>
<path fill-rule="evenodd" clip-rule="evenodd" d="M204.901 402.766C202.365 402.766 199.834 402.766 197.302 402.766C197.302 402.693 197.302 402.62 197.302 402.547C199.834 402.547 202.365 402.547 204.901 402.547C204.901 402.62 204.901 402.693 204.901 402.766Z" fill="black"/>
<path fill-rule="evenodd" clip-rule="evenodd" d="M315.995 372.584C314.672 373.318 313.349 374.047 312.032 374.782C312.755 372.99 314.412 372.86 315.995 372.584Z" fill="black"/>
<path fill-rule="evenodd" clip-rule="evenodd" d="M339.052 359.287C338.219 360.011 337.38 360.735 336.552 361.464C336.433 361.323 336.308 361.183 336.193 361.047C337.016 360.313 337.844 359.584 338.677 358.849C338.802 358.99 338.927 359.136 339.052 359.287Z" fill="black"/>
<path fill-rule="evenodd" clip-rule="evenodd" d="M320.396 369.683C319.636 370.177 318.87 370.672 318.11 371.172C318 371.006 317.891 370.839 317.782 370.672C318.542 370.172 319.302 369.672 320.063 369.172C320.172 369.344 320.282 369.511 320.396 369.683Z" fill="black"/>
<path fill-rule="evenodd" clip-rule="evenodd" d="M335.005 362.756C334.365 363.25 333.724 363.74 333.084 364.235C333 364.125 332.912 364.026 332.823 363.917C333.448 363.375 334.068 362.829 334.693 362.287C334.792 362.438 334.896 362.599 335.005 362.756Z" fill="black"/>
<path fill-rule="evenodd" clip-rule="evenodd" d="M271.542 391.61C272.24 391.532 272.938 391.453 273.636 391.386C273.667 391.568 273.698 391.756 273.729 391.938C273.042 392.099 272.354 392.266 271.662 392.427C271.625 392.157 271.584 391.881 271.542 391.61Z" fill="black"/>
<path fill-rule="evenodd" clip-rule="evenodd" d="M327.334 364.511C327.761 363.443 328.521 362.849 329.688 362.813C329.693 362.813 329.62 362.745 329.625 362.75C328.844 363.318 328.058 363.881 327.276 364.443L327.334 364.511Z" fill="black"/>
<path fill-rule="evenodd" clip-rule="evenodd" d="M359.709 332.573C360.016 332.131 360.318 331.693 360.62 331.245C360.745 331.339 360.87 331.438 360.995 331.532C360.662 331.953 360.334 332.375 360 332.792C359.907 332.719 359.802 332.646 359.709 332.573Z" fill="black"/>
<path fill-rule="evenodd" clip-rule="evenodd" d="M355.089 338.422C355.354 338.115 355.625 337.813 355.886 337.506C355.974 337.568 356.058 337.641 356.146 337.703C355.927 338.026 355.703 338.344 355.479 338.662C355.349 338.584 355.219 338.5 355.089 338.422Z" fill="black"/>
<path fill-rule="evenodd" clip-rule="evenodd" d="M327.276 364.443C326.703 365.063 326.13 365.677 325.563 366.287C325.407 366.084 325.255 365.881 325.099 365.677C325.844 365.287 326.589 364.896 327.334 364.506C327.334 364.511 327.276 364.443 327.276 364.443Z" fill="black"/>
<path fill-rule="evenodd" clip-rule="evenodd" d="M357.464 335.37C357.797 334.974 358.125 334.573 358.453 334.177C358.552 334.261 358.651 334.344 358.755 334.427C358.433 334.829 358.115 335.235 357.797 335.636C357.688 335.547 357.578 335.459 357.464 335.37Z" fill="black"/>
<path fill-rule="evenodd" clip-rule="evenodd" d="M397 163.282C397.146 164.563 397.292 165.844 397.443 167.125C397.563 168.162 398.412 169.209 397.401 170.427C396.078 169.683 396.38 168.443 396.193 167.412C395.985 166.292 395.693 165.183 395.61 164.058C395.537 163.052 394.235 162.058 395.615 160.844C396.13 161.756 396.594 162.552 397.052 163.365C397.058 163.37 397 163.282 397 163.282Z" fill="black"/>
</svg>
