<svg width="200" height="35" viewBox="0 0 200 35" fill="none" xmlns="http://www.w3.org/2000/svg">
<path d="M30.7398 16.3439C30.6148 15.2606 29.7762 14.4741 28.8596 14.5887L10.6825 16.8908C9.76581 17.0054 9.11997 17.9794 9.24497 19.0627C9.36476 20.1512 10.2033 20.9377 11.12 20.8179L29.2971 18.521C30.2137 18.4012 30.8596 17.4273 30.7398 16.3439Z" fill="white"/>
<path d="M25.7189 13.6252C26.4481 12.245 27.6825 11.2658 29.172 11.0887L35.37 10.2137C34.8231 8.89079 35.6043 7.26579 34.1408 6.521L28.6929 7.26058C26.12 7.57308 23.9793 9.29704 22.745 11.7085C22.3335 12.5522 22.0262 13.4689 21.8491 14.4429L25.5314 13.995C25.5887 13.87 25.6512 13.745 25.7189 13.6252Z" fill="white"/>
<path d="M36.047 21.6613L30.3022 22.3592C28.5991 22.5675 27.1981 21.6144 26.1981 20.104L22.4585 20.5832C23.922 24.2394 27.2345 26.6144 30.7814 26.1873L36.5002 25.4894C36.9533 23.9738 35.5835 23.4634 36.047 21.6613Z" fill="white"/>
<mask id="mask0_547_4994" style="mask-type:luminance" maskUnits="userSpaceOnUse" x="32" y="32" width="4" height="3">
<path d="M32.5835 32.1509H35.8283V34.9998H32.5835V32.1509Z" fill="white"/>
</mask>
<g mask="url(#mask0_547_4994)">
<path d="M32.6147 32.3384L35.1147 34.9998L35.745 33.5519L35.2762 32.1665L32.6147 32.3384Z" fill="white"/>
</g>
<path d="M41.5212 12.5522L40.5368 9.11475L37.3545 12.12L41.5212 12.5522Z" fill="white"/>
<path d="M35.5054 28.3333L37.1512 29.9479L38.5887 28.3229L36.4429 27.2031L35.5054 28.3333Z" fill="white"/>
<path d="M40.6514 29.1978L42.8962 30.9946L42.7816 28.4946L40.6514 29.1978Z" fill="white"/>
<mask id="mask1_547_4994" style="mask-type:luminance" maskUnits="userSpaceOnUse" x="39" y="0" width="5" height="4">
<path d="M39.6875 0H43.6875V3.33333H39.6875V0Z" fill="white"/>
</mask>
<g mask="url(#mask1_547_4994)">
<path d="M43.104 0.625L41.3436 0L40.9478 1.83333L42.7186 2.59896L43.104 0.625Z" fill="white"/>
</g>
<path d="M37.5472 6.04671L38.391 3.81234L35.542 3.33838L36.2347 5.15609L37.5472 6.04671Z" fill="white"/>
<path d="M43.8229 10.0208L49.4479 10.3542C51.1354 10.4219 52.4219 11.7448 53.2031 13.3542C53.2188 13.3802 56.9531 13.3802 56.9531 13.3802C56.9479 13.3542 56.9427 13.3229 56.9323 13.3021C55.9792 9.48438 53.0625 6.64062 49.5156 6.48958L42.9688 6.07812C44.3646 7.4375 42.5781 9.08854 43.8229 10.0208Z" fill="white"/>
<path d="M52.7555 19.7345C51.8389 20.9793 50.4795 21.745 48.9847 21.6825L42.8805 21.4272C41.7347 22.7397 42.6149 24.1512 41.9326 25.1772L48.917 25.547C51.5055 25.6564 53.8649 24.297 55.4222 22.1095C55.9482 21.3439 56.3805 20.4845 56.693 19.5522L52.9899 19.396C52.917 19.5158 52.8389 19.6252 52.7555 19.7345Z" fill="white"/>
<path d="M68.0004 14.9585L49.7191 14.1876C48.7973 14.1512 48.016 15.0054 47.9795 16.0939C47.9431 17.1147 48.5681 17.9845 49.4014 18.1251C49.4587 18.1356 49.516 18.1408 49.5785 18.146L67.8598 18.9116C68.7816 18.9533 69.5629 18.0939 69.5993 17.0054C69.6358 15.9845 69.0108 15.1147 68.1775 14.9741C68.1202 14.9637 68.0629 14.9585 68.0004 14.9585Z" fill="white"/>
<path d="M70.4115 12.8648L81.4375 17.3648C82.25 17.6877 82.9479 18.2971 83.4635 19.0575C83.4688 19.0627 83.4688 19.0679 83.474 19.0731C83.6302 19.2815 83.7656 19.5002 83.8906 19.7294C83.8802 19.7294 84.0573 20.1565 84.2083 20.8179L87.9271 20.5836C87.9167 20.5054 87.9062 20.4273 87.8906 20.3544C87.8906 20.344 87.8906 20.3283 87.8906 20.3231C87.4271 17.4117 85.7292 14.9221 83.1458 13.8648L72.125 9.44814C69.8906 8.52626 67.3542 8.68772 65.3177 10.0315C63.0677 11.5106 62.3958 13.2033 62.2188 13.5054L65.9844 13.6721C66.0573 13.6148 68 11.8856 70.4115 12.8648Z" fill="white"/>
<path d="M82.1668 27.2917L82.1564 27.2865C81.8647 27.5 81.5627 27.6823 81.245 27.8333L81.2397 27.8385C80.6877 28.1458 80.0939 28.3594 79.5054 28.4063C78.922 28.4323 77.2866 28.0104 76.7241 27.7813L66.7866 23.724C65.9585 23.3854 65.2554 22.7031 64.7554 21.8802C64.745 21.875 64.745 21.8698 64.7397 21.8594C64.3752 21.2656 64.12 20.6042 63.9845 19.9427L63.9533 19.9375L60.271 19.7812C60.3387 21.0052 60.62 22.1823 61.0939 23.2396C61.922 25.099 63.3387 26.5885 65.2137 27.3281L72.6147 30.2552L76.3283 31.724C77.396 32.1458 78.5106 32.2813 79.6043 32.1719C80.7918 32.0521 81.922 31.6979 82.9533 31.099C83.495 30.7865 84.0054 30.4115 84.4741 30C85.1304 29.4115 85.6929 28.8177 86.1564 28.0781C86.5002 27.5313 86.745 27.0573 86.9689 26.5677L82.646 26.8438C82.495 27 82.3335 27.151 82.1668 27.2917Z" fill="white"/>
<path d="M98.3854 24.8332C98.4843 24.828 98.5885 24.8123 98.6822 24.7863C99.4479 24.5675 99.9687 23.7342 99.8749 22.7707C99.776 21.7238 98.9895 20.9165 98.1041 20.9165C98.0729 20.9165 98.0416 20.9165 98.0104 20.9217L93.2968 21.2186L89.9479 21.4269L87.6718 21.5728L84.0468 21.8019L79.6145 22.078C79.5104 22.0832 79.4114 22.104 79.3177 22.13C78.5468 22.3436 78.0312 23.1821 78.1197 24.1405C78.2239 25.1873 79.0052 25.9946 79.8958 25.9946C79.927 25.9946 79.9583 25.9946 79.9843 25.9946L83.1302 25.7967L87.052 25.5467L90.7968 25.3123L94.5937 25.0728L98.3854 24.8332Z" fill="white"/>
<mask id="mask2_547_4994" style="mask-type:luminance" maskUnits="userSpaceOnUse" x="0" y="8" width="19" height="9">
<path d="M0 8.6665H18.3542V16.6665H0V8.6665Z" fill="white"/>
</mask>
<g mask="url(#mask2_547_4994)">
<path d="M13.2707 15.4113L17.0519 14.6405C15.3332 11.104 11.8592 8.98945 8.3488 9.68736L0.119629 11.3228V15.3488L9.04671 13.578C10.6978 13.2447 12.1717 14.0363 13.2707 15.4113Z" fill="white"/>
</g>
<mask id="mask3_547_4994" style="mask-type:luminance" maskUnits="userSpaceOnUse" x="0" y="20" width="19" height="12">
<path d="M0 20.6665H18.3542V31.3332H0V20.6665Z" fill="white"/>
</mask>
<g mask="url(#mask3_547_4994)">
<path d="M18.0936 20.7188L14.4478 21.4427C13.8696 23.0625 12.6248 24.2969 11.0311 24.6146L0.119629 26.7865V30.8125L11.729 28.5052C15.1873 27.8177 17.6665 24.5938 18.0936 20.7188Z" fill="white"/>
</g>
<path d="M130.662 16.3022C130.547 15.2866 129.807 14.5366 128.964 14.5366C128.906 14.5366 128.844 14.5418 128.781 14.547L117.443 15.9845L113.557 16.4741L110.604 16.8491C109.688 16.9637 109.047 17.9377 109.167 19.021C109.281 20.0366 110.021 20.7918 110.865 20.7918C110.927 20.7918 110.984 20.7866 111.047 20.7762L114.526 20.3387L117.969 19.9012L129.224 18.4793C130.141 18.3595 130.781 17.3856 130.662 16.3022Z" fill="white"/>
<path d="M125.422 13.9741C125.479 13.8543 125.537 13.7397 125.599 13.6252C126.328 12.245 127.568 11.2658 129.052 11.0887L135.25 10.2137C134.709 8.89079 135.485 7.26579 134.026 6.521L128.573 7.26058C126 7.57308 123.86 9.29704 122.631 11.7085C122.214 12.547 121.907 13.4689 121.729 14.4429L125.412 13.995C125.417 13.9897 125.422 13.9793 125.422 13.9741Z" fill="white"/>
<mask id="mask4_547_4994" style="mask-type:luminance" maskUnits="userSpaceOnUse" x="132" y="32" width="4" height="3">
<path d="M132.464 32.1509H135.688V34.9998H132.464V32.1509Z" fill="white"/>
</mask>
<g mask="url(#mask4_547_4994)">
<path d="M132.5 32.3384L134.995 34.9998L135.631 33.5519L135.157 32.1665L132.5 32.3384Z" fill="white"/>
</g>
<path d="M141.406 12.5522L140.417 9.11475L137.24 12.12L141.406 12.5522Z" fill="white"/>
<path d="M135.386 28.3333L137.032 29.9479L138.469 28.3229L136.328 27.2031L135.386 28.3333Z" fill="white"/>
<path d="M140.531 29.1978L142.776 30.9946L142.661 28.4946L140.531 29.1978Z" fill="white"/>
<mask id="mask5_547_4994" style="mask-type:luminance" maskUnits="userSpaceOnUse" x="139" y="0" width="5" height="4">
<path d="M139.688 0H143.688V3.33333H139.688V0Z" fill="white"/>
</mask>
<g mask="url(#mask5_547_4994)">
<path d="M142.984 0.625L141.229 0L140.828 1.83333L142.599 2.59896L142.984 0.625Z" fill="white"/>
</g>
<path d="M137.427 6.04671L138.271 3.81234L135.422 3.33838L136.115 5.15609L137.427 6.04671Z" fill="white"/>
<path d="M143.703 10.0208L149.333 10.3542C151.021 10.4219 152.302 11.7448 153.089 13.3542C153.099 13.3802 156.833 13.3802 156.833 13.3802C156.828 13.3542 156.823 13.3229 156.813 13.3021C155.865 9.48438 152.943 6.64062 149.401 6.48958L142.849 6.07812C144.25 7.4375 142.458 9.08854 143.703 10.0208Z" fill="white"/>
<path d="M152.635 19.7345C151.719 20.9793 150.359 21.745 148.87 21.6825L142.766 21.4272C141.615 22.7397 142.5 24.1512 141.812 25.1772L148.802 25.547C151.391 25.6564 153.745 24.297 155.302 22.1095C155.828 21.3439 156.26 20.4845 156.578 19.5522L152.875 19.396C152.797 19.5158 152.719 19.6252 152.635 19.7345Z" fill="white"/>
<path d="M167.88 14.9585L149.599 14.1876C148.677 14.1512 147.901 15.0054 147.86 16.0939C147.828 17.1147 148.448 17.9845 149.281 18.1251C149.339 18.1356 149.401 18.1408 149.458 18.146L167.745 18.9116C168.667 18.9533 169.443 18.0939 169.479 17.0054C169.516 15.9845 168.896 15.1147 168.057 14.9741C168 14.9637 167.943 14.9585 167.88 14.9585Z" fill="white"/>
<path d="M170.292 12.8648L181.318 17.3648C182.131 17.6877 182.828 18.2971 183.344 19.0575C183.349 19.0627 183.349 19.0679 183.354 19.0731C183.511 19.2815 183.651 19.5002 183.771 19.7294C183.766 19.7294 183.938 20.1565 184.089 20.8179L187.808 20.5836C187.797 20.5054 187.787 20.4273 187.776 20.3544C187.771 20.344 187.771 20.3283 187.771 20.3231C187.308 17.4117 185.61 14.9221 183.026 13.8648L172.006 9.44814C169.771 8.52626 167.235 8.68772 165.198 10.0315C162.948 11.5106 162.282 13.2033 162.104 13.5054L165.865 13.6721C165.938 13.6148 167.881 11.8856 170.292 12.8648Z" fill="white"/>
<path d="M182.047 27.2917L182.037 27.2865C181.75 27.5 181.443 27.6823 181.131 27.8333C181.125 27.8333 181.12 27.8385 181.12 27.8385C180.568 28.1458 179.979 28.3594 179.386 28.4063C178.802 28.4323 177.167 28.0104 176.604 27.7813L166.672 23.724C165.839 23.3854 165.141 22.7031 164.636 21.8802C164.631 21.875 164.625 21.8698 164.62 21.8594C164.261 21.2656 164 20.6042 163.865 19.9427L163.839 19.9375L160.151 19.7812C160.219 21.0052 160.5 22.1823 160.974 23.2396C161.802 25.099 163.224 26.5885 165.094 27.3281L172.495 30.2552L176.214 31.724C177.282 32.1458 178.391 32.2813 179.485 32.1719C180.677 32.0521 181.802 31.6979 182.839 31.099C183.381 30.7865 183.886 30.4115 184.354 30C185.011 29.4115 185.578 28.8177 186.042 28.0781C186.386 27.5313 186.631 27.0573 186.849 26.5677L182.532 26.8438C182.375 27 182.214 27.151 182.047 27.2917Z" fill="white"/>
<mask id="mask6_547_4994" style="mask-type:luminance" maskUnits="userSpaceOnUse" x="177" y="20" width="24" height="6">
<path d="M177.021 20.6665H200V25.9998H177.021V20.6665Z" fill="white"/>
</mask>
<g mask="url(#mask6_547_4994)">
<path d="M198.266 24.8332C198.37 24.828 198.469 24.8123 198.563 24.7863C199.333 24.5675 199.849 23.7342 199.755 22.7707C199.656 21.7238 198.875 20.9165 197.985 20.9165C197.953 20.9165 197.922 20.9165 197.891 20.9217L193.182 21.2186L189.833 21.4269L187.557 21.5728L183.927 21.8019L179.495 22.078C179.391 22.0832 179.292 22.104 179.198 22.13C178.427 22.3436 177.912 23.1821 178.005 24.1405C178.104 25.1873 178.886 25.9946 179.776 25.9946C179.807 25.9946 179.839 25.9946 179.87 25.9946L183.011 25.7967L186.932 25.5467L190.682 25.3123L198.266 24.8332Z" fill="white"/>
</g>
<path d="M97.2396 15.9009L100 15.3488L108.927 13.578C110.552 13.2551 112 14.0103 113.099 15.3436H113.094C113.135 15.4113 113.172 15.4686 113.203 15.5207L117.089 15.0259C117.026 14.8644 116.969 14.7342 116.932 14.6405C116.927 14.6301 116.917 14.6144 116.911 14.604C116.885 14.5363 116.87 14.4999 116.87 14.4999H116.859C115.12 11.0519 111.693 8.99986 108.229 9.68736L100 11.3228L96.5417 12.0103C92.8958 12.7394 90.3385 16.2759 90.125 20.4321L93.5365 20.2186C93.8646 18.0572 95.2865 16.2863 97.2396 15.9009Z" fill="white"/>
<path d="M114.323 21.4478C113.745 23.0675 112.505 24.2967 110.912 24.6144L100 26.7863L99.2241 26.9373C97.9533 27.1925 96.6981 26.8175 95.6772 26.0103L91.4272 26.2759C93.2085 29.5675 96.547 31.4998 99.922 30.828L100 30.8123L111.61 28.505C115.016 27.828 117.469 24.6978 117.953 20.9009L114.354 21.3592C114.344 21.3957 114.333 21.4269 114.323 21.4478Z" fill="white"/>
<path d="M135.927 21.6616L130.188 22.3595C130.115 22.37 130.047 22.3752 129.974 22.3804C129.141 22.4325 128.323 22.1929 127.631 21.7241C127.271 21.4845 126.953 21.1929 126.667 20.87C126.516 20.7033 126.375 20.5262 126.245 20.3387C126.224 20.3127 125.995 19.8908 126.042 19.8804C126.016 19.8856 122.261 20.3595 122.261 20.3595C122.261 20.3491 122.537 21.0679 122.584 21.1564C122.782 21.5575 122.995 21.9533 123.24 22.3283C123.709 23.0575 124.276 23.7241 124.927 24.297C126.162 25.3856 127.719 26.1095 129.37 26.2189C129.802 26.2502 130.235 26.2397 130.662 26.1877C130.667 26.1825 136.386 25.4897 136.386 25.4897C136.834 23.9741 135.464 23.4637 135.927 21.6616Z" fill="white"/>
<mask id="mask7_547_4994" style="mask-type:luminance" maskUnits="userSpaceOnUse" x="189" y="10" width="12" height="11">
<path d="M189.021 10H200V20.6667H189.021V10Z" fill="white"/>
</mask>
<g mask="url(#mask7_547_4994)">
<path d="M190.005 20.4321L193.417 20.2186C193.745 18.0571 195.167 16.2863 197.125 15.9009L199.886 15.3488V11.3228L196.427 12.0103C192.776 12.7394 190.219 16.2759 190.005 20.4321Z" fill="white"/>
</g>
<mask id="mask8_547_4994" style="mask-type:luminance" maskUnits="userSpaceOnUse" x="190" y="26" width="11" height="6">
<path d="M190.354 26H200V31.3333H190.354V26Z" fill="white"/>
</mask>
<g mask="url(#mask8_547_4994)">
<path d="M199.886 26.7863L199.104 26.9373C197.839 27.1925 196.578 26.8175 195.563 26.0103L191.308 26.2759C193.089 29.5675 196.427 31.4998 199.802 30.828L199.886 30.8123V26.7863Z" fill="white"/>
</g>
</svg>
