<svg width="32" height="16" viewBox="0 0 32 16" fill="none" xmlns="http://www.w3.org/2000/svg">
    <path
        d="M15.375 14.3125L15.3125 14.5312L15.0156 14.6875C14.8177 14.6979 14.5365 14.6823 14.1719 14.6406L14.125 14.6094C13.8958 14.6615 13.5885 14.776 13.2031 14.9531C12.776 15.151 12.4635 15.276 12.2656 15.3281L12.3125 15.2812V15.2188C12.2917 15.1875 12.2604 15.1719 12.2188 15.1719C12.1771 15.1719 12.1302 15.1875 12.0781 15.2188C12.5052 14.9479 12.9115 14.6198 13.2969 14.2344C12.5885 14.0573 11.9323 13.9688 11.3281 13.9688C10.5885 13.9688 9.53646 14.1771 8.17188 14.5938C6.81771 15.0208 5.82292 15.2344 5.1875 15.2344C4.58333 15.2344 3.80208 15.0208 2.84375 14.5938C1.85417 14.1562 1.1875 13.7031 0.84375 13.2344C0.666667 13.0052 0.578125 12.7344 0.578125 12.4219C0.692708 12.2656 0.822917 12.1875 0.96875 12.1875C0.96875 12.1875 1.00521 12.1927 1.07812 12.2031C1.16146 12.2865 1.29688 12.3906 1.48438 12.5156C1.67188 12.6406 2.05729 12.7552 2.64062 12.8594C3.17188 12.9531 3.58854 13 3.89062 13C3.16146 12.5312 2.57292 11.875 2.125 11.0312L1.60938 11.2656C1.52604 11.1406 1.43229 11.0625 1.32812 11.0312C1.22396 11 1.14583 10.9635 1.09375 10.9219C1.15625 10.7344 1.26042 10.5208 1.40625 10.2812C1.60417 9.95833 1.72396 9.75521 1.76562 9.67188C1.74479 9.59896 1.73438 9.48438 1.73438 9.32812C1.73438 9.04688 1.80729 8.83333 1.95312 8.6875L2 8.67188L2.04688 8.6875L2.09375 8.71875L2.10938 8.76562C2.16146 8.76562 2.24479 8.77604 2.35938 8.79688C2.36979 8.81771 2.41667 8.84896 2.5 8.89062C2.57292 8.88021 2.6875 8.83854 2.84375 8.76562C3.01042 8.69271 3.13542 8.65625 3.21875 8.65625C3.27083 8.65625 3.32292 8.66667 3.375 8.6875C3.41667 8.65625 3.46354 8.64062 3.51562 8.64062C3.63021 8.64062 3.73438 8.69792 3.82812 8.8125C3.92188 8.91667 3.96875 9.02604 3.96875 9.14062C3.96875 9.40104 3.84375 9.58333 3.59375 9.6875C3.5 9.88542 3.45312 10.1146 3.45312 10.375C3.45312 10.8021 3.59896 11.1979 3.89062 11.5625C4.05729 11.7812 4.36979 12.0781 4.82812 12.4531C5.28646 12.8281 5.59896 13.125 5.76562 13.3438C5.74479 13.3958 5.71354 13.4688 5.67188 13.5625C6.02604 13.6562 6.40625 13.7031 6.8125 13.7031C7.08333 13.7031 7.44792 13.6458 7.90625 13.5312C8.41667 13.4167 8.78125 13.349 9 13.3281C8.84375 13.1406 8.58854 12.8802 8.23438 12.5469C8.07812 12.5885 7.85417 12.6667 7.5625 12.7812L6.9375 13.0938H6.89062C6.71354 13.1042 6.55729 12.9427 6.42188 12.6094C6.34896 12.349 6.27083 12.0938 6.1875 11.8438C6.23958 11.75 6.32292 11.6927 6.4375 11.6719C6.55208 11.651 6.66146 11.6354 6.76562 11.625C6.85938 11.5104 6.98958 11.3438 7.15625 11.125C6.90625 10.7396 6.53125 10.3021 6.03125 9.8125C5.47917 9.29167 5.02604 8.95833 4.67188 8.8125C4.45312 8.82292 4.27083 8.74479 4.125 8.57812C3.97917 8.41146 3.91667 8.21875 3.9375 8C3.92708 7.96875 3.92188 7.94271 3.92188 7.92188C3.92188 7.92188 3.97396 7.79167 4.07812 7.53125C4.09896 7.29167 4.11979 7.05208 4.14062 6.8125C4.17188 6.47917 4.29167 6.3125 4.5 6.3125C4.52083 6.3125 4.81771 6.375 5.39062 6.5C5.54688 6.4375 5.78646 6.33854 6.10938 6.20312L6.59375 5.5C6.22917 5.26042 6.04688 5.05208 6.04688 4.875C6.04688 4.84375 6.05729 4.80208 6.07812 4.75C6.07812 4.53125 6.16667 4.26042 6.34375 3.9375C6.53125 3.61458 6.61979 3.41146 6.60938 3.32812C6.58854 3.14062 6.57812 3.0625 6.57812 3.09375C6.57812 2.86458 6.76042 2.72917 7.125 2.6875C7.27083 2.72917 7.33333 2.75 7.3125 2.75C7.60417 2.75 8.00521 2.66146 8.51562 2.48438C9.03646 2.29688 9.42188 2.19792 9.67188 2.1875C9.75521 1.9375 9.79688 1.66146 9.79688 1.35938V1.21875L9.76562 1.1875C9.60938 1.21875 9.5 1.27083 9.4375 1.34375C9.4375 0.864583 9.57812 0.625 9.85938 0.625C10.0677 0.802083 10.224 0.875 10.3281 0.84375C10.5156 0.979167 10.6615 1.11458 10.7656 1.25C10.7552 1.35417 10.75 1.45312 10.75 1.54688C10.75 1.64062 10.7708 1.73438 10.8125 1.82812C11.1146 1.80729 11.5312 1.75521 12.0625 1.67188L12.1094 1.75L12.0469 2.03125C11.7344 2.16667 11.2812 2.39062 10.6875 2.70312L10.375 3.625L10.3906 3.78125C11.151 3.71875 11.5521 3.6875 11.5938 3.6875C11.7604 3.6875 11.9062 3.71875 12.0312 3.78125C12.0938 3.76042 12.1875 3.72396 12.3125 3.67188L12.3281 3.625C12.3073 3.58333 12.2969 3.55729 12.2969 3.54688C12.3802 3.45312 12.5052 3.40625 12.6719 3.40625C12.849 3.40625 12.9948 3.42708 13.1094 3.46875C13.276 3.55208 13.5573 3.8125 13.9531 4.25C14.349 4.67708 14.5885 4.97396 14.6719 5.14062C14.724 5.25521 14.7708 5.38542 14.8125 5.53125L14.75 5.78125C14.6979 5.80208 14.526 5.88542 14.2344 6.03125L14.0781 5.96875C13.7865 6.08333 13.3229 6.44271 12.6875 7.04688C12.125 7.57812 11.7135 8.02083 11.4531 8.375C11.5677 8.63542 11.6979 8.79167 11.8438 8.84375C12.0312 8.92708 12.1615 9.01562 12.2344 9.10938C12.1198 9.49479 11.9219 9.83333 11.6406 10.125C11.4844 10.3021 11.2031 10.5417 10.7969 10.8438C10.3906 11.1458 10.0938 11.3958 9.90625 11.5938C9.90625 11.75 9.94271 12 10.0156 12.3438C10.0885 12.6875 10.1146 12.9531 10.0938 13.1406C10.2188 13.1302 10.3438 13.125 10.4688 13.125C10.875 13.125 11.4219 13.1875 12.1094 13.3125C12.8906 13.4583 13.4323 13.5417 13.7344 13.5625L13.9375 13.5C14.2083 13.6042 14.4792 13.7083 14.75 13.8125C15.1042 13.9688 15.3125 14.1354 15.375 14.3125ZM3.60938 3.34375C3.52604 3.48958 3.38021 3.59896 3.17188 3.67188C2.96354 3.74479 2.84375 3.79688 2.8125 3.82812C2.6875 3.96354 2.57812 4.19271 2.48438 4.51562C2.38021 4.92188 2.30208 5.17188 2.25 5.26562L2.23438 5.1875C2.23438 5.14583 2.24479 5.08854 2.26562 5.01562C2.28646 4.93229 2.29688 4.875 2.29688 4.84375C2.29688 4.54167 2.18229 4.29688 1.95312 4.10938C1.91146 4.13021 1.84896 4.14062 1.76562 4.14062C1.70312 4.14062 1.60938 4.125 1.48438 4.09375C1.35938 4.0625 1.27083 4.04688 1.21875 4.04688C1.21875 4.04688 1.0625 3.89062 0.75 3.57812L0.734375 3.5C0.744792 3.40625 0.817708 3.28646 0.953125 3.14062C1.25521 2.80729 1.75 2.64062 2.4375 2.64062C2.6875 2.64062 2.97396 2.66146 3.29688 2.70312C3.29688 2.89062 3.35417 3 3.46875 3.03125C3.48958 3.16667 3.53646 3.27083 3.60938 3.34375ZM12.5156 4.32812C12.474 4.23438 12.3802 4.11979 12.2344 3.98438C11.9219 4.05729 11.6979 4.125 11.5625 4.1875C10.8854 4.53125 10.5052 4.73438 10.4219 4.79688C10.2552 4.94271 10.1719 5.17188 10.1719 5.48438C10.1719 5.98438 10.4323 6.59896 10.9531 7.32812C11.2448 6.84896 11.5365 6.36458 11.8281 5.875C12.1406 5.3125 12.3698 4.79688 12.5156 4.32812ZM9.5 3.46875L9.45312 3.32812C9.21354 3.44271 8.97396 3.5625 8.73438 3.6875C8.47396 3.84375 8.30729 4.04167 8.23438 4.28125C8.63021 4.09375 9.02083 3.96875 9.40625 3.90625C9.40625 3.80208 9.4375 3.65625 9.5 3.46875ZM9.32812 6.10938C9.31771 6.05729 9.31771 5.90104 9.32812 5.64062C9.14062 5.73438 8.94792 5.83333 8.75 5.9375C8.55208 6.04167 8.40625 6.17708 8.3125 6.34375C8.5625 6.22917 8.90104 6.15104 9.32812 6.10938ZM10.2969 7.5L10.1719 7C9.98438 7.13542 9.89583 7.3125 9.90625 7.53125V7.60938L10.0312 7.625L10.2969 7.5ZM10.9062 9.54688C10.8646 9.36979 10.8073 9.10938 10.7344 8.76562C10.599 8.78646 10.3438 8.875 9.96875 9.03125L9.90625 8.96875L9.85938 8.98438C9.81771 9.08854 9.80208 9.30729 9.8125 9.64062C9.82292 10.0573 9.82292 10.3021 9.8125 10.375H9.79688C9.79688 10.3854 9.80729 10.3958 9.82812 10.4062L9.85938 10.4219C10.1406 10.2135 10.4896 9.92188 10.9062 9.54688ZM9.10938 7.70312C9.07812 7.72396 9.04167 7.73958 9 7.75C8.92708 7.77083 8.71354 7.84896 8.35938 7.98438C7.95312 8.14062 7.74479 8.22917 7.73438 8.25C7.65104 8.36458 7.60938 8.51042 7.60938 8.6875V8.875C7.60938 9.0625 7.625 9.1875 7.65625 9.25L9.09375 8.25C9.09375 8.20833 9.09375 8.14062 9.09375 8.04688C9.10417 7.96354 9.10938 7.90104 9.10938 7.85938V7.70312ZM9.09375 10.7188V10.4375C9.09375 10.2188 9.07292 9.99479 9.03125 9.76562L7.96875 10.9219C8.03125 11.0156 8.13021 11.151 8.26562 11.3281C8.44271 11.2344 8.71875 11.099 9.09375 10.9219V10.7188ZM8.375 9.5625C8.33333 9.58333 8.21354 9.68229 8.01562 9.85938C7.85938 10.0052 7.72917 10.0625 7.625 10.0312L7.54688 10.4062L7.53125 10.4219C7.55208 10.4427 7.58333 10.4792 7.625 10.5312L8.375 9.5625ZM7.60938 8.32812C7.52604 8.29688 7.35938 8.28125 7.10938 8.28125C6.86979 8.27083 6.69271 8.21875 6.57812 8.125C6.60938 8.04167 6.72396 7.90104 6.92188 7.70312C7.19271 7.42188 7.32812 7.28125 7.32812 7.28125L7.04688 7.14062C6.57812 7.26562 6.02604 7.52604 5.39062 7.92188C5.50521 8.60938 6.1875 9.44271 7.4375 10.4219C7.4375 10.3802 7.44792 10.3125 7.46875 10.2188C7.5 10.125 7.51562 10.0521 7.51562 10L7.5 9.90625C7.39583 9.85417 7.26042 9.76562 7.09375 9.64062C7.09375 9.52604 7.16146 9.40104 7.29688 9.26562H7.57812C7.56771 9.05729 7.57812 8.74479 7.60938 8.32812ZM31.625 10.4688C31.5833 10.4792 31.5208 10.5 31.4375 10.5312C31.1667 10.4375 30.7604 10.3073 30.2188 10.1406C29.7604 10.2344 29.1562 10.3958 28.4062 10.625L28.4375 10.7031C28.5 10.7344 28.5938 10.7812 28.7188 10.8438C29.1042 11.1562 29.2969 11.3958 29.2969 11.5625L29.25 11.6406C29.2292 11.724 29.2031 11.8438 29.1719 12C28.9635 12.0312 28.7188 12.1354 28.4375 12.3125C28.0833 12.5312 27.849 12.6615 27.7344 12.7031L27.3125 13.1875C27.3229 13.1979 27.7552 13.3229 28.6094 13.5625C29.3073 13.75 29.6562 13.9844 29.6562 14.2656V14.3281C29.5938 14.3906 29.4427 14.4479 29.2031 14.5C29.0052 14.5417 28.8906 14.6302 28.8594 14.7656C28.776 14.7552 28.6198 14.75 28.3906 14.75C28.0156 14.75 27.7812 14.7604 27.6875 14.7812C27.5 14.8229 27.3073 14.9427 27.1094 15.1406C27.026 15.1719 26.9062 15.2552 26.75 15.3906C26.7292 15.3906 26.6927 15.3906 26.6406 15.3906C26.6198 15.3906 26.5729 15.401 26.5 15.4219C26.4271 15.4531 26.3802 15.4688 26.3594 15.4688L26.2656 15.4375L26.0156 15.625C26.151 15.3125 26.3229 14.9531 26.5312 14.5469C26.1979 14.3802 25.9792 14.2344 25.875 14.1094C25.7188 13.9427 25.6406 13.6927 25.6406 13.3594C25.6406 13.1406 25.7135 12.901 25.8594 12.6406C26.0469 12.2969 26.1562 12.0833 26.1875 12C25.8333 12.0625 25.5052 12.2292 25.2031 12.5C24.7865 12.875 24.5781 13.2031 24.5781 13.4844C24.5781 13.6719 24.7083 13.9948 24.9688 14.4531C25.2396 14.9115 25.3802 15.2708 25.3906 15.5312L25.125 15.625C24.8333 15.5208 24.4062 15.3438 23.8438 15.0938C23.6042 14.9688 23.276 14.7031 22.8594 14.2969C22.4531 13.8906 22.1771 13.5625 22.0312 13.3125C21.5625 13.9062 20.974 14.3594 20.2656 14.6719L20.1719 14.3281H20.2188L20.3281 14.375H20.3906C20.6615 13.9167 21.0729 13.2292 21.625 12.3125C21.5729 12.0521 21.5469 11.9271 21.5469 11.9375C21.5469 11.9062 21.5573 11.8698 21.5781 11.8281C21.5469 11.7031 21.5729 11.5208 21.6562 11.2812H21.4062C21.3021 11.1042 21.25 10.9115 21.25 10.7031C21.25 10.7031 21.2656 10.5938 21.2969 10.375C21.276 10.3333 21.2604 10.2552 21.25 10.1406L21.2188 10.1094C20.9792 10.1094 20.7969 10.1719 20.6719 10.2969C20.4844 10.4948 20.3125 10.7604 20.1562 11.0938C19.9896 11.4583 19.9062 11.7604 19.9062 12C19.9062 12.1667 19.9792 12.3229 20.125 12.4688C20.125 12.7188 20.0833 12.9115 20 13.0469H19.9375L19.8125 13.1094L19.7656 13.125C19.7135 13.125 19.5417 13.0312 19.25 12.8438C18.9167 12.6146 18.7292 12.4896 18.6875 12.4688C18.4896 12.4896 18.3073 12.6302 18.1406 12.8906C17.974 13.1406 17.8906 13.375 17.8906 13.5938C17.8906 13.7292 17.9896 13.901 18.1875 14.1094C18.3958 14.3281 18.5104 14.5 18.5312 14.625C18.4271 14.875 18.1823 15.0521 17.7969 15.1562C17.5469 15.0104 17.3333 14.75 17.1562 14.375C16.9792 14.0104 16.8229 13.776 16.6875 13.6719C16.6875 13.6406 16.7604 13.4792 16.9062 13.1875L16.8906 13.1094C16.8594 13.0885 16.8385 13.0573 16.8281 13.0156L16.8125 12.9844L16.8438 12.875C16.8438 12.875 16.9115 12.8177 17.0469 12.7031L17.3125 12.9531C17.7292 12.4635 18.2552 11.7969 18.8906 10.9531C18.776 10.9635 18.6094 11.0312 18.3906 11.1562C18.1823 11.2812 18.0312 11.3438 17.9375 11.3438C17.9375 11.3438 17.9062 11.3385 17.8438 11.3281L17.75 11.25H17.7188C17.5417 10.9375 17.4531 10.6719 17.4531 10.4531C17.4531 10.2135 17.6667 9.74479 18.0938 9.04688C18.6458 8.13021 18.9375 7.64583 18.9688 7.59375C18.1042 8.28125 17.625 8.86458 17.5312 9.34375C17.5 9.34375 17.4271 9.34896 17.3125 9.35938C17.2188 9.36979 17.151 9.36979 17.1094 9.35938C16.9427 9.33854 16.8281 9.30208 16.7656 9.25C16.7552 9.23958 16.6875 9.15104 16.5625 8.98438C16.4583 8.85938 16.4062 8.79688 16.4062 8.79688C16.4062 8.71354 16.4479 8.64583 16.5312 8.59375C16.5 8.54167 16.4583 8.46875 16.4062 8.375L16.3906 8.32812C16.5781 8.23438 16.7448 8.04167 16.8906 7.75C16.9948 7.51042 17.1042 7.27083 17.2188 7.03125C17.5312 6.45833 17.7708 6 17.9375 5.65625C18.1146 5.30208 18.3906 4.78125 18.7656 4.09375C18.9531 3.69792 19.2604 3.10938 19.6875 2.32812C19.7188 2.25521 19.7604 2.07812 19.8125 1.79688C19.8438 1.56771 19.9219 1.41146 20.0469 1.32812C20.4948 1.32812 20.875 1.28646 21.1875 1.20312C21.6979 1.27604 21.9688 1.45833 22 1.75C21.9375 1.97917 21.7188 2.1875 21.3438 2.375C20.8646 2.61458 20.5677 2.79688 20.4531 2.92188C20.0885 3.30729 19.625 3.98438 19.0625 4.95312C18.5208 5.88021 18.151 6.60938 17.9531 7.14062L18.0156 7.17188C18.1823 6.96354 18.4427 6.74479 18.7969 6.51562C19.3073 6.16146 19.5885 5.96354 19.6406 5.92188C19.7552 5.85938 19.9323 5.74479 20.1719 5.57812C20.224 5.52604 20.2708 5.39583 20.3125 5.1875L20.3594 5.10938L20.5469 5.14062L20.625 5.04688C20.7188 5.14062 20.9375 5.20833 21.2812 5.25C21.5625 5.29167 21.7396 5.43229 21.8125 5.67188L21.7969 5.90625C21.6198 5.96875 21.3594 6.08333 21.0156 6.25C20.8906 6.34375 20.5104 6.90625 19.875 7.9375C19.2812 8.88542 18.9115 9.51042 18.7656 9.8125C19.1198 9.5 19.6615 9.03646 20.3906 8.42188L20.3594 8.23438C20.3698 8.18229 20.5156 8.08854 20.7969 7.95312C21.0052 7.97396 21.2083 7.99479 21.4062 8.01562C21.6458 8.05729 21.7552 8.19792 21.7344 8.4375V8.53125C21.6615 8.57292 21.5521 8.61979 21.4062 8.67188H21.3125C21.0417 8.81771 20.7552 9.09375 20.4531 9.5C20.2135 9.82292 19.974 10.151 19.7344 10.4844C19.5156 10.724 19.2135 11.1094 18.8281 11.6406C18.8802 11.7344 18.9688 11.7917 19.0938 11.8125C19.2292 11.8229 19.3177 11.8438 19.3594 11.875C19.6094 11.4583 19.8594 11.0365 20.1094 10.6094C20.474 10.0885 20.849 9.82812 21.2344 9.82812C21.276 9.82812 21.3333 9.84375 21.4062 9.875C21.4896 9.89583 21.5469 9.91146 21.5781 9.92188L21.8125 9.60938C21.7292 9.91146 21.6875 10.2604 21.6875 10.6562C21.6875 10.7812 21.6979 10.9062 21.7188 11.0312C21.8646 10.7917 22.1302 10.625 22.5156 10.5312L23.7969 7.78125C23.5885 7.22917 23.3646 6.73958 23.125 6.3125C22.7604 6.64583 22.4479 6.85938 22.1875 6.95312C22.1458 6.93229 22.0677 6.90625 21.9531 6.875L21.9062 6.84375C21.8854 6.6875 21.875 6.60938 21.875 6.60938C21.875 6.14062 22.1875 5.33854 22.8125 4.20312C23.3438 3.25521 23.8281 2.50521 24.2656 1.95312C24.2969 1.88021 24.375 1.77083 24.5 1.625L24.5938 1.59375C24.5833 1.55208 24.5781 1.50521 24.5781 1.45312C24.5781 1.34896 24.6094 1.28125 24.6719 1.25C24.7135 1.23958 24.7552 1.23958 24.7969 1.25C24.901 0.916667 25.0573 0.697917 25.2656 0.59375C25.4323 0.614583 25.6458 0.697917 25.9062 0.84375C26.1771 0.989583 26.3802 1.07812 26.5156 1.10938C26.5365 1.10938 26.6562 1.11979 26.875 1.14062C26.9896 1.14062 27.1042 1.17708 27.2188 1.25C27.375 1.35417 27.4792 1.5625 27.5312 1.875C27.7083 1.83333 27.9375 1.72917 28.2188 1.5625C28.3021 1.41667 28.4531 1.21875 28.6719 0.96875L28.7656 0.953125C28.7865 0.953125 28.8229 0.96875 28.875 1C28.8854 1.15625 29.0469 1.32292 29.3594 1.5C29.6719 1.66667 29.8281 1.83333 29.8281 2C29.8281 2 29.8177 2.0625 29.7969 2.1875C29.4427 2.30208 29.0312 2.63542 28.5625 3.1875C28.2292 3.625 27.8958 4.0625 27.5625 4.5C27.1979 4.91667 26.8333 5.32812 26.4688 5.73438C26.0625 6.21354 25.7812 6.67188 25.625 7.10938C26.4062 7.38021 27.1927 7.65625 27.9844 7.9375C28.901 8.27083 29.6458 8.625 30.2188 9L30.4062 8.95312C30.5417 8.99479 30.7708 9.21875 31.0938 9.625C31.4271 10.0208 31.6042 10.3021 31.625 10.4688ZM27.4531 2.375C27.1615 2.45833 26.7604 2.69271 26.25 3.07812C25.7917 3.41146 25.4323 3.71875 25.1719 4C25.0469 4.16667 24.8542 4.39583 24.5938 4.6875C24.2083 5.07292 23.9427 5.38542 23.7969 5.625C23.9115 5.82292 24.1354 6.07812 24.4688 6.39062C25.0104 5.26562 26.0052 3.92708 27.4531 2.375ZM26.6094 2.42188C26.5052 2.36979 26.3385 2.34375 26.1094 2.34375C25.849 2.34375 25.3646 2.75521 24.6562 3.57812C24.0104 4.33854 23.6094 4.90104 23.4531 5.26562L23.5938 5.39062C24.8125 3.91146 25.8177 2.92188 26.6094 2.42188ZM28.5781 9.6875C28.2969 9.60417 27.7604 9.53125 26.9688 9.46875C26.25 9.41667 25.4844 9.1875 24.6719 8.78125C24.151 9.54167 23.7448 10.2188 23.4531 10.8125C23.6406 10.9062 23.7344 11.0469 23.7344 11.2344C23.7344 11.5885 23.5312 12.0573 23.125 12.6406C23.1354 12.7344 23.2135 12.9115 23.3594 13.1719C23.4323 12.5781 23.7083 12.0521 24.1875 11.5938C24.4896 11.3021 24.9844 10.9531 25.6719 10.5469C25.7552 10.4948 25.875 10.4583 26.0312 10.4375C26.2292 10.4062 26.3542 10.3802 26.4062 10.3594C26.5 10.3281 26.6146 10.2292 26.75 10.0625C26.8958 9.89583 27.0208 9.8125 27.125 9.8125C27.2604 9.8125 27.4167 9.89062 27.5938 10.0469C27.75 10.026 27.9115 9.97917 28.0781 9.90625C28.2552 9.83333 28.4219 9.76042 28.5781 9.6875Z"
        fill="black" />
</svg>