<svg width="190" height="189" viewBox="0 0 190 189" fill="none" xmlns="http://www.w3.org/2000/svg">
<path d="M55.6061 63.3333V30L115 86L75 130L35 86L55.6061 63.3333Z" stroke="white" stroke-width="7"/>
<path d="M134.394 63.3333V30L75 86L115 130L155 86L134.394 63.3333Z" stroke="white" stroke-width="7"/>
<path d="M21.64 181.8L25.56 168H30.12L23.84 188H19.6L15.44 174.52L11.24 188H7L0.72 168H5.28L9.16 181.8L13.36 168H17.48L21.64 181.8ZM51.04 179.84H35.12C35.44 181.333 36.16 182.493 37.28 183.32C38.4267 184.147 39.84 184.56 41.52 184.56C43.7867 184.56 45.5067 183.733 46.68 182.08L50.24 184.16C48.2933 187.067 45.3733 188.52 41.48 188.52C38.2533 188.52 35.6267 187.533 33.6 185.56C31.6 183.56 30.6 181.04 30.6 178C30.6 175.04 31.5867 172.547 33.56 170.52C35.5067 168.493 38.04 167.48 41.16 167.48C44.0667 167.48 46.4667 168.507 48.36 170.56C50.2533 172.613 51.2 175.107 51.2 178.04C51.2 178.573 51.1467 179.173 51.04 179.84ZM35.08 176.32H46.84C46.5467 174.747 45.88 173.533 44.84 172.68C43.8267 171.827 42.5867 171.4 41.12 171.4C39.52 171.4 38.1867 171.84 37.12 172.72C36.0533 173.6 35.3733 174.8 35.08 176.32ZM64.7213 167.48C67.0413 167.48 68.8946 168.227 70.2813 169.72C71.6946 171.187 72.4013 173.187 72.4013 175.72V188H68.0813V176.16C68.0813 174.667 67.6813 173.52 66.8813 172.72C66.0813 171.92 64.9879 171.52 63.6013 171.52C62.0279 171.52 60.7879 172.013 59.8813 173C58.9746 173.96 58.5213 175.387 58.5213 177.28V188H54.2013V168H58.5213V170.56C59.8546 168.507 61.9213 167.48 64.7213 167.48ZM87.4128 168V172.16H82.4528V181.76C82.4528 182.587 82.6395 183.187 83.0128 183.56C83.3861 183.907 83.9328 184.107 84.6528 184.16C85.3995 184.187 86.3195 184.173 87.4128 184.12V188C84.1061 188.4 81.7328 188.12 80.2928 187.16C78.8528 186.173 78.1328 184.373 78.1328 181.76V172.16H74.4528V168H78.1328V163.68L82.4528 162.4V168H87.4128ZM105.551 170.84V168H109.871V188H105.551V185.12C103.924 187.387 101.591 188.52 98.5506 188.52C95.804 188.52 93.4573 187.507 91.5106 185.48C89.564 183.453 88.5906 180.96 88.5906 178C88.5906 175.04 89.564 172.547 91.5106 170.52C93.4573 168.493 95.804 167.48 98.5506 167.48C101.591 167.48 103.924 168.6 105.551 170.84ZM94.7106 182.6C95.9106 183.8 97.4173 184.4 99.2306 184.4C101.044 184.4 102.551 183.8 103.751 182.6C104.951 181.373 105.551 179.84 105.551 178C105.551 176.16 104.951 174.64 103.751 173.44C102.551 172.213 101.044 171.6 99.2306 171.6C97.4173 171.6 95.9106 172.213 94.7106 173.44C93.5106 174.64 92.9106 176.16 92.9106 178C92.9106 179.813 93.5106 181.347 94.7106 182.6ZM118.426 188H114.106V158.8H118.426V188ZM126.962 188H122.642V158.8H126.962V188ZM148.098 185.48C146.071 187.507 143.578 188.52 140.618 188.52C137.658 188.52 135.164 187.507 133.138 185.48C131.084 183.427 130.058 180.933 130.058 178C130.058 175.067 131.084 172.573 133.138 170.52C135.164 168.493 137.658 167.48 140.618 167.48C143.578 167.48 146.071 168.493 148.098 170.52C150.151 172.573 151.178 175.067 151.178 178C151.178 180.933 150.151 183.427 148.098 185.48ZM134.378 178C134.378 179.813 134.978 181.32 136.178 182.52C137.378 183.72 138.858 184.32 140.618 184.32C142.378 184.32 143.858 183.72 145.058 182.52C146.258 181.32 146.858 179.813 146.858 178C146.858 176.187 146.258 174.68 145.058 173.48C143.858 172.28 142.378 171.68 140.618 171.68C138.858 171.68 137.378 172.28 136.178 173.48C134.978 174.68 134.378 176.187 134.378 178ZM167.764 178.72V168H172.084V188H167.764V185.44C166.431 187.493 164.364 188.52 161.564 188.52C159.244 188.52 157.377 187.787 155.964 186.32C154.577 184.827 153.884 182.813 153.884 180.28V168H158.204V179.84C158.204 181.333 158.604 182.48 159.404 183.28C160.204 184.08 161.297 184.48 162.684 184.48C164.257 184.48 165.497 184 166.404 183.04C167.311 182.053 167.764 180.613 167.764 178.72ZM187.496 168V172.16H182.536V181.76C182.536 182.587 182.722 183.187 183.096 183.56C183.469 183.907 184.016 184.107 184.736 184.16C185.482 184.187 186.402 184.173 187.496 184.12V188C184.189 188.4 181.816 188.12 180.376 187.16C178.936 186.173 178.216 184.373 178.216 181.76V172.16H174.536V168H178.216V163.68L182.536 162.4V168H187.496Z" fill="white"/>
</svg>
