<svg width="348" height="615" viewBox="0 0 348 615" fill="none" xmlns="http://www.w3.org/2000/svg">
<mask id="mask0_1235_18" style="mask-type:luminance" maskUnits="userSpaceOnUse" x="0" y="0" width="348" height="615">
<path d="M0 0H348V614.885H0V0Z" fill="white"/>
</mask>
<g mask="url(#mask0_1235_18)">
<path d="M346.313 42.5052C344.573 42.5052 342.958 42.1667 341.286 41.974V27.5208H335.938V20.625H341.219V7.50521H328.167V12.7917H320.807V7.50521H306.818C306.682 5.83854 306.286 4.16146 306.286 2.42188V0.28125H42.0885V2.42188C42.0885 4.16667 41.8229 5.83854 41.6198 7.51042H27.5625V12.7917H20.276V7.50521H7.28646V20.625H12.5104V27.5208H7.15625V41.974C5.55208 42.1667 3.80729 42.5052 2.07292 42.5052H0V572.646H2.07292C3.80729 572.646 5.55208 572.911 7.15625 573.115V587.63H12.5104V594.458H7.28646V607.573H20.2708V602.354H27.5625V607.573H41.6146C41.8229 609.25 42.0885 610.922 42.0885 612.661V614.807H306.286V612.661C306.286 610.922 306.688 609.25 306.823 607.573H320.807V602.354H328.172V607.573H341.224V594.458H335.938V587.63H341.286V573.115C342.964 572.911 344.573 572.646 346.313 572.646H348.385V42.5052H346.313ZM333.323 27.5208H330.781V20.625H333.323V27.5208ZM333.323 18.0208H330.781V15.4063H333.323V18.0208ZM330.781 10.1198H338.547V18.0208H335.932V12.7917H330.781V10.1198ZM328.172 15.4063V18.0156H320.807V15.4063H328.172ZM318.135 10.1198V20.625H328.172V30.125H338.615V41.7031C322.755 38.625 310.234 26.0469 307.094 10.1198H318.135ZM338.615 394.234V569.229C320.469 572.443 306.219 586.698 302.943 604.896H45.5052C42.224 586.698 28.0365 572.505 9.83333 569.229V45.8542C28.0313 42.6406 42.2917 28.3177 45.5729 10.1198H302.943C306.219 28.3177 320.469 42.6406 338.615 45.8542V394.234ZM46.3073 4.49479H302.141C302.208 5.56771 302.542 6.5 302.542 7.50521H45.8385C45.9688 6.5 46.2344 5.56771 46.3073 4.49479ZM27.5625 15.4063V18.0156H20.276V15.4063H27.5625ZM17.6667 18.0208H15.1823V15.4063H17.6667V18.0208ZM9.90104 18.0208V10.1198H17.6667V12.7917H12.5104V18.0208H9.90104ZM15.1823 20.625H17.6667V27.5208H15.1823V20.625ZM9.83333 30.125H20.2708V20.625H30.2448V10.1198H41.3542C38.2031 26.0469 25.7604 38.5625 9.83333 41.7031V30.125ZM4.20833 568.432V46.6615C5.28125 46.5885 6.21875 46.3229 7.15625 46.2552V568.896C6.21875 568.766 5.28125 568.5 4.20833 568.432ZM15.1823 587.63H17.6667V594.458H15.1823V587.63ZM15.1823 597.135H17.6667V599.682H15.1823V597.135ZM17.6667 604.896H9.90104V597.135H12.5104V602.354H17.6719V604.896H17.6667ZM20.276 599.682V597H27.5625V599.682H20.276ZM30.2448 604.896V594.391H20.276V584.958H9.83333V573.448C25.6927 576.526 38.2031 588.974 41.3542 604.896H30.2448ZM302.141 610.589H46.3073C46.2344 609.578 45.974 608.51 45.8385 607.573H302.536C302.536 608.51 302.203 609.578 302.141 610.589ZM320.807 599.682V597H328.172V599.682H320.807ZM330.781 597.135H333.323V599.682H330.781V597.135ZM338.547 597.135V604.896H330.781V602.354H335.938V597.135H338.547ZM333.323 594.458H330.781V587.63H333.323V594.458ZM338.615 584.958H328.172V594.391H318.135V604.896H307.094C310.302 588.974 322.755 576.526 338.615 573.38V584.958ZM344.161 394.234V568.432C343.229 568.5 342.286 568.76 341.286 568.901V46.2552C342.286 46.3906 343.229 46.6615 344.161 46.6615V394.234Z" fill="black"/>
</g>
</svg>
