<svg width="132" height="42" viewBox="0 0 132 42" fill="none" xmlns="http://www.w3.org/2000/svg">
<path d="M1.45071 0.663879H116.594C124.602 0.663879 131.094 7.15575 131.094 15.1639V41.3379H15.9507C7.94258 41.3379 1.45071 34.846 1.45071 26.8379V0.663879Z" fill="black" stroke="#ACACAC"/>
<path d="M18.5687 24.0332C22.0819 26.8781 27.1061 26.8781 30.6192 24.0332L29.2609 22.3558C26.5397 24.5593 22.6482 24.5593 19.9271 22.3558L18.5687 24.0332Z" fill="white"/>
<path d="M20.0318 20.3397V17.4237H22.1902V20.3397H20.0318Z" fill="white"/>
<path d="M26.7295 17.4237V20.3397H28.8879V17.4237H26.7295Z" fill="white"/>
<path fill-rule="evenodd" clip-rule="evenodd" d="M35.8394 21.3396C35.8394 27.7771 30.6208 32.9957 24.1834 32.9957C17.7459 32.9957 12.5273 27.7771 12.5273 21.3396C12.5273 14.9022 17.7459 9.68359 24.1834 9.68359C30.6208 9.68359 35.8394 14.9022 35.8394 21.3396ZM33.681 21.3396C33.681 26.585 29.4288 30.8373 24.1834 30.8373C18.938 30.8373 14.6857 26.585 14.6857 21.3396C14.6857 16.0942 18.938 11.842 24.1834 11.842C29.4288 11.842 33.681 16.0942 33.681 21.3396Z" fill="white"/>
<path d="M48.7197 22.2122C49.708 22.2122 50.515 22.4725 51.1408 22.993C51.7724 23.5076 52.0882 24.3644 52.0882 25.5633V32.0021H49.5267V26.1861C49.5267 25.6831 49.4594 25.2972 49.3249 25.0281C49.0793 24.5369 48.6115 24.2913 47.9214 24.2913C47.0734 24.2913 46.4915 24.6509 46.1757 25.3703C46.0119 25.7504 45.9301 26.2358 45.9301 26.8265V32.0021H43.4388V22.4579H45.8511V23.8527C46.1728 23.3614 46.4769 23.0076 46.7634 22.7912C47.2781 22.4052 47.9301 22.2122 48.7197 22.2122Z" fill="white"/>
<path d="M57.9751 30.2389C58.7061 30.2389 59.2675 29.9786 59.6594 29.4581C60.0512 28.9376 60.2471 28.1979 60.2471 27.2388C60.2471 26.2797 60.0512 25.5428 59.6594 25.0281C59.2675 24.5077 58.7061 24.2474 57.9751 24.2474C57.2441 24.2474 56.6797 24.5077 56.282 25.0281C55.8902 25.5428 55.6943 26.2797 55.6943 27.2388C55.6943 28.1979 55.8902 28.9376 56.282 29.4581C56.6797 29.9786 57.2441 30.2389 57.9751 30.2389ZM62.87 27.2388C62.87 28.6423 62.4665 29.8441 61.6594 30.8442C60.8524 31.8383 59.6272 32.3354 57.9839 32.3354C56.3405 32.3354 55.1153 31.8383 54.3083 30.8442C53.5012 29.8441 53.0977 28.6423 53.0977 27.2388C53.0977 25.8586 53.5012 24.6626 54.3083 23.6509C55.1153 22.6392 56.3405 22.1333 57.9839 22.1333C59.6272 22.1333 60.8524 22.6392 61.6594 23.6509C62.4665 24.6626 62.87 25.8586 62.87 27.2388Z" fill="white"/>
<path d="M62.9672 24.3088V22.528H64.3006V19.8613H66.7744V22.528H68.3271V24.3088H66.7744V29.3616C66.7744 29.7535 66.8241 29.9991 66.9235 30.0985C67.0229 30.1921 67.327 30.2389 67.8358 30.2389C67.9118 30.2389 67.9908 30.2389 68.0727 30.2389C68.1604 30.233 68.2452 30.2272 68.3271 30.2213V32.0898L67.1428 32.1337C65.9615 32.1746 65.1544 31.9699 64.7217 31.5196C64.441 31.2331 64.3006 30.7915 64.3006 30.195V24.3088H62.9672Z" fill="white"/>
<path d="M77.9836 22.2298C79.241 22.2298 80.2235 22.683 80.9311 23.5895C81.6446 24.496 82.0013 25.6656 82.0013 27.0984C82.0013 28.5838 81.6504 29.8149 80.9486 30.7915C80.2469 31.7682 79.2673 32.2565 78.0099 32.2565C77.2204 32.2565 76.5859 32.0986 76.1063 31.7828C75.8198 31.5956 75.5098 31.2681 75.1765 30.8003V32.0021H72.729V19.0893H75.2204V23.686C75.5362 23.2415 75.8841 22.9023 76.2643 22.6684C76.7146 22.376 77.2877 22.2298 77.9836 22.2298ZM77.3432 30.195C77.9865 30.195 78.4866 29.9348 78.8433 29.4143C79.2 28.8938 79.3784 28.2096 79.3784 27.3616C79.3784 26.6832 79.2907 26.1218 79.1152 25.6773C78.7819 24.8352 78.1678 24.4141 77.2731 24.4141C76.3666 24.4141 75.7438 24.8264 75.4046 25.651C75.2291 26.0896 75.1414 26.6569 75.1414 27.3528C75.1414 28.1715 75.3227 28.8499 75.6853 29.388C76.0479 29.926 76.6005 30.195 77.3432 30.195Z" fill="white"/>
<path d="M83.467 33.8355L83.7828 33.853C84.0284 33.8647 84.2623 33.856 84.4846 33.8267C84.7068 33.7975 84.8939 33.7302 85.046 33.625C85.1922 33.5255 85.3267 33.3179 85.4495 33.0021C85.5782 32.6863 85.6308 32.4933 85.6074 32.4232L82.0985 22.4403H84.8793L86.9671 29.4932L88.9409 22.4403H91.5989L88.318 31.8442C87.6864 33.6571 87.1864 34.78 86.818 35.2127C86.4495 35.6514 85.7127 35.8707 84.6074 35.8707C84.3851 35.8707 84.2068 35.8677 84.0723 35.8619C83.9378 35.8619 83.736 35.8531 83.467 35.8356V33.8355Z" fill="white"/>
<path d="M98.1313 27.1159H101.412L99.798 22.028L98.1313 27.1159ZM98.2979 19.0718H101.351L105.93 32.0021H103L102.167 29.3441H97.4032L96.5084 32.0021H93.6837L98.2979 19.0718Z" fill="white"/>
<path d="M110.917 32.0021H108.233V19.0718H110.917V32.0021Z" fill="white"/>
<path d="M106.64 19.0718H112.325V21.2712H106.64V19.0718Z" fill="white"/>
<path d="M106.64 29.8057H112.325V32.0051H106.64V29.8057Z" fill="white"/>
<path d="M43.4713 9.85206L44.4838 14.0004L45.5111 9.85206H46.5039L47.5361 13.9758L48.6125 9.85206H49.4972L47.9686 15.1161H47.0495L45.978 11.0415L44.9409 15.1161H44.0218L42.5031 9.85206H43.4713Z" fill="white"/>
<path d="M50.2616 9.85206H51.1021V10.7613C51.1709 10.5844 51.3397 10.3698 51.6084 10.1175C51.877 9.86189 52.1867 9.7341 52.5373 9.7341C52.5537 9.7341 52.5815 9.73573 52.6209 9.73901C52.6602 9.74229 52.7274 9.74884 52.8224 9.75867V10.6925C52.77 10.6827 52.7208 10.6762 52.6749 10.6729C52.6323 10.6696 52.5848 10.668 52.5324 10.668C52.0868 10.668 51.7443 10.8121 51.5051 11.1005C51.2659 11.3856 51.1463 11.7149 51.1463 12.0884V15.1161H50.2616V9.85206Z" fill="white"/>
<path d="M53.4885 9.87663H54.3879V15.1161H53.4885V9.87663ZM53.4885 7.89585H54.3879V8.89853H53.4885V7.89585Z" fill="white"/>
<path d="M55.806 8.38245H56.7006V9.85206H57.5411V10.5746H56.7006V14.0102C56.7006 14.1937 56.7628 14.3166 56.8874 14.3789C56.9562 14.4149 57.0709 14.4329 57.2314 14.4329C57.274 14.4329 57.3199 14.4329 57.369 14.4329C57.4182 14.4296 57.4755 14.4247 57.5411 14.4182V15.1161C57.4395 15.1456 57.333 15.1669 57.2216 15.18C57.1135 15.1931 56.9955 15.1997 56.8677 15.1997C56.4548 15.1997 56.1747 15.0948 56.0272 14.8851C55.8798 14.6721 55.806 14.3969 55.806 14.0594V10.5746H55.0934V9.85206H55.806V8.38245Z" fill="white"/>
<path d="M58.507 8.38245H59.4015V9.85206H60.242V10.5746H59.4015V14.0102C59.4015 14.1937 59.4638 14.3166 59.5883 14.3789C59.6571 14.4149 59.7718 14.4329 59.9324 14.4329C59.975 14.4329 60.0208 14.4329 60.07 14.4329C60.1191 14.4296 60.1765 14.4247 60.242 14.4182V15.1161C60.1404 15.1456 60.0339 15.1669 59.9225 15.18C59.8144 15.1931 59.6964 15.1997 59.5686 15.1997C59.1558 15.1997 58.8756 15.0948 58.7282 14.8851C58.5807 14.6721 58.507 14.3969 58.507 14.0594V10.5746H57.7943V9.85206H58.507V8.38245Z" fill="white"/>
<path d="M63.2231 9.7341C63.5967 9.7341 63.9587 9.82257 64.3093 9.99951C64.6599 10.1732 64.927 10.3993 65.1105 10.6778C65.2874 10.9432 65.4054 11.2529 65.4644 11.6067C65.5168 11.8492 65.543 12.2359 65.543 12.7667H61.6847C61.7011 13.3008 61.8272 13.7301 62.0631 14.0545C62.2991 14.3756 62.6644 14.5361 63.1592 14.5361C63.6212 14.5361 63.9899 14.3838 64.2651 14.079C64.4224 13.9021 64.5338 13.6973 64.5993 13.4646H65.4693C65.4464 13.658 65.3694 13.8742 65.2383 14.1134C65.1105 14.3494 64.9663 14.5427 64.8058 14.6934C64.5371 14.9556 64.2045 15.1325 63.808 15.2243C63.595 15.2767 63.3542 15.3029 63.0855 15.3029C62.4301 15.3029 61.8747 15.0653 61.4193 14.5902C60.9638 14.1118 60.7361 13.4434 60.7361 12.5848C60.7361 11.7395 60.9654 11.053 61.4242 10.5254C61.8829 9.99787 62.4826 9.7341 63.2231 9.7341ZM64.6337 12.0638C64.5977 11.6805 64.5141 11.3741 64.3831 11.1447C64.1406 10.7188 63.7359 10.5058 63.169 10.5058C62.7627 10.5058 62.4219 10.6532 62.1467 10.9481C61.8715 11.2398 61.7256 11.6117 61.7093 12.0638H64.6337Z" fill="white"/>
<path d="M66.5335 9.85206H67.374V10.5992C67.623 10.2911 67.8868 10.07 68.1653 9.93562C68.4438 9.80127 68.7535 9.7341 69.0943 9.7341C69.8414 9.7341 70.346 9.9946 70.6081 10.5156C70.7523 10.8007 70.8244 11.2086 70.8244 11.7395V15.1161H69.9249V11.7984C69.9249 11.4773 69.8774 11.2185 69.7824 11.0218C69.6251 10.6942 69.34 10.5303 68.9272 10.5303C68.7175 10.5303 68.5454 10.5516 68.4111 10.5942C68.1686 10.6663 67.9556 10.8105 67.7721 11.0268C67.6247 11.2004 67.528 11.3807 67.4821 11.5674C67.4395 11.7509 67.4182 12.0147 67.4182 12.3588V15.1161H66.5335V9.85206Z" fill="white"/>
<path d="M74.6682 7.87128H75.5283V10.491C75.7217 10.2387 75.9527 10.047 76.2214 9.91595C76.4901 9.78161 76.7817 9.71444 77.0962 9.71444C77.7516 9.71444 78.2824 9.94053 78.6887 10.3927C79.0983 10.8416 79.3031 11.5052 79.3031 12.3833C79.3031 13.2156 79.1016 13.907 78.6986 14.4575C78.2955 15.008 77.7368 15.2832 77.0225 15.2832C76.6228 15.2832 76.2853 15.1866 76.01 14.9932C75.8462 14.8786 75.6709 14.6951 75.4841 14.4428V15.1161H74.6682V7.87128ZM76.9685 14.5017C77.4469 14.5017 77.804 14.3117 78.0399 13.9316C78.2791 13.5515 78.3987 13.0501 78.3987 12.4276C78.3987 11.8738 78.2791 11.4151 78.0399 11.0513C77.804 10.6876 77.455 10.5058 76.993 10.5058C76.59 10.5058 76.2361 10.6549 75.9314 10.953C75.6299 11.2512 75.4792 11.7427 75.4792 12.4276C75.4792 12.9224 75.5414 13.3238 75.666 13.6318C75.8986 14.2117 76.3328 14.5017 76.9685 14.5017Z" fill="white"/>
<path d="M83.5277 9.85206H84.5058C84.3813 10.1896 84.1044 10.9596 83.6752 12.1622C83.3541 13.0665 83.0854 13.8038 82.8691 14.3739C82.3579 15.7174 81.9975 16.5366 81.7878 16.8315C81.5781 17.1264 81.2176 17.2738 80.7065 17.2738C80.582 17.2738 80.4853 17.2689 80.4165 17.2591C80.351 17.2493 80.269 17.2312 80.1707 17.205V16.399C80.3247 16.4416 80.4361 16.4678 80.505 16.4776C80.5738 16.4874 80.6344 16.4923 80.6868 16.4923C80.8507 16.4923 80.9703 16.4645 81.0456 16.4088C81.1243 16.3564 81.1898 16.2908 81.2422 16.2122C81.2586 16.186 81.3176 16.0516 81.4192 15.8091C81.5207 15.5667 81.5945 15.3864 81.6403 15.2685L79.694 9.85206H80.6966L82.1073 14.138L83.5277 9.85206Z" fill="white"/>
<path d="M87.8729 7.87128H88.7576V10.5647C88.9673 10.2993 89.1557 10.1126 89.3228 10.0044C89.6079 9.81765 89.9634 9.72427 90.3894 9.72427C91.1529 9.72427 91.6706 9.99132 91.9426 10.5254C92.09 10.8171 92.1637 11.2217 92.1637 11.7395V15.1161H91.2545V11.7984C91.2545 11.4118 91.2053 11.1283 91.107 10.9481C90.9464 10.6598 90.645 10.5156 90.2026 10.5156C89.8356 10.5156 89.503 10.6417 89.2049 10.8941C88.9067 11.1464 88.7576 11.6231 88.7576 12.3243V15.1161H87.8729V7.87128Z" fill="white"/>
<path d="M94.2601 9.85206V13.3467C94.2601 13.6154 94.3027 13.8349 94.3879 14.0053C94.5452 14.3199 94.8385 14.4772 95.2677 14.4772C95.8838 14.4772 96.3032 14.2019 96.526 13.6514C96.6472 13.3565 96.7078 12.9518 96.7078 12.4374V9.85206H97.5926V15.1161H96.757L96.7668 14.3395C96.6521 14.5394 96.5096 14.7082 96.3392 14.8458C96.0017 15.121 95.5921 15.2587 95.1104 15.2587C94.3601 15.2587 93.8489 15.008 93.5769 14.5066C93.4295 14.238 93.3558 13.8792 93.3558 13.4302V9.85206H94.2601Z" fill="white"/>
<path d="M98.878 9.85206H99.7528V10.5992C99.9626 10.3403 100.153 10.1519 100.323 10.0339C100.615 9.83404 100.946 9.7341 101.316 9.7341C101.735 9.7341 102.073 9.83731 102.328 10.0437C102.473 10.1617 102.604 10.3354 102.722 10.5647C102.918 10.2829 103.149 10.0749 103.415 9.94053C103.68 9.80291 103.978 9.7341 104.309 9.7341C105.017 9.7341 105.499 9.98968 105.754 10.5009C105.892 10.7761 105.961 11.1464 105.961 11.6117V15.1161H105.041V11.4593C105.041 11.1087 104.953 10.8678 104.776 10.7368C104.602 10.6057 104.389 10.5402 104.137 10.5402C103.79 10.5402 103.49 10.6565 103.238 10.8891C102.989 11.1218 102.864 11.5101 102.864 12.054V15.1161H101.965V11.6805C101.965 11.3233 101.922 11.0628 101.837 10.899C101.702 10.6532 101.452 10.5303 101.085 10.5303C100.751 10.5303 100.446 10.6598 100.171 10.9186C99.8987 11.1775 99.7627 11.6461 99.7627 12.3243V15.1161H98.878V9.85206Z" fill="white"/>
<path d="M107.841 13.7153C107.841 13.9709 107.934 14.1724 108.121 14.3199C108.308 14.4673 108.529 14.5411 108.784 14.5411C109.096 14.5411 109.397 14.469 109.689 14.3248C110.18 14.0856 110.426 13.694 110.426 13.1501V12.4374C110.318 12.5062 110.179 12.5635 110.008 12.6094C109.838 12.6553 109.671 12.6881 109.507 12.7077L108.971 12.7765C108.65 12.8191 108.409 12.8863 108.249 12.9781C107.977 13.1321 107.841 13.3778 107.841 13.7153ZM109.984 11.9262C110.187 11.9 110.323 11.8148 110.392 11.6706C110.431 11.592 110.451 11.479 110.451 11.3315C110.451 11.03 110.343 10.8121 110.126 10.6778C109.913 10.5402 109.607 10.4714 109.207 10.4714C108.745 10.4714 108.417 10.5959 108.224 10.8449C108.116 10.9825 108.046 11.1873 108.013 11.4593H107.187C107.203 10.8105 107.413 10.36 107.816 10.1076C108.222 9.85206 108.693 9.72427 109.227 9.72427C109.846 9.72427 110.349 9.84223 110.736 10.0782C111.119 10.3141 111.311 10.6811 111.311 11.1791V14.2117C111.311 14.3035 111.329 14.3772 111.365 14.4329C111.404 14.4886 111.484 14.5165 111.606 14.5165C111.645 14.5165 111.689 14.5148 111.738 14.5116C111.788 14.505 111.84 14.4968 111.896 14.487V15.1407C111.758 15.18 111.653 15.2046 111.581 15.2144C111.509 15.2243 111.411 15.2292 111.286 15.2292C110.981 15.2292 110.76 15.121 110.623 14.9048C110.551 14.7901 110.5 14.6279 110.47 14.4182C110.29 14.6541 110.031 14.8589 109.694 15.0326C109.356 15.2062 108.984 15.2931 108.578 15.2931C108.09 15.2931 107.69 15.1456 107.379 14.8507C107.071 14.5525 106.917 14.1806 106.917 13.735C106.917 13.2467 107.069 12.8683 107.374 12.5996C107.679 12.3309 108.078 12.1654 108.573 12.1032L109.984 11.9262Z" fill="white"/>
<path d="M112.665 9.85206H113.505V10.5992C113.754 10.2911 114.018 10.07 114.297 9.93562C114.575 9.80127 114.885 9.7341 115.226 9.7341C115.973 9.7341 116.477 9.9946 116.74 10.5156C116.884 10.8007 116.956 11.2086 116.956 11.7395V15.1161H116.056V11.7984C116.056 11.4773 116.009 11.2185 115.914 11.0218C115.757 10.6942 115.471 10.5303 115.059 10.5303C114.849 10.5303 114.677 10.5516 114.543 10.5942C114.3 10.6663 114.087 10.8105 113.904 11.0268C113.756 11.2004 113.659 11.3807 113.614 11.5674C113.571 11.7509 113.55 12.0147 113.55 12.3588V15.1161H112.665V9.85206Z" fill="white"/>
</svg>
