<svg width="91" height="30" viewBox="0 0 91 30" fill="none" xmlns="http://www.w3.org/2000/svg">
<path d="M15.84 29.52C6.36 29.52 0.48 24 0.48 14.88C0.48 6.12 6.96 0.239998 15.84 0.239998C24.88 0.239998 31.2 6.2 31.2 15C31.2 24.12 25.12 29.52 15.84 29.52ZM28.08 14.72C28.08 10.6 26.4 6.24 23.84 5.04V24.84C26.44 22.24 28.08 19.56 28.08 14.72ZM7.72 24.8L7.84 24.84V5.04C5.24 7.6 3.6 10.32 3.6 15.12C3.6 19.16 5.24 23.68 7.72 24.8ZM10.36 3.36L10.28 3.44V26.32C11.52 26.88 12.96 27.4 15.92 27.4C17.88 27.4 20.36 27 21.32 26.4L21.4 26.32V3.44C20.2 2.88 18.76 2.36 15.8 2.36C13.84 2.36 11.24 2.76 10.36 3.36ZM34.9025 16.16V0.759999H43.3825V26.68L43.5025 26.72C45.7825 27.2 46.5825 27.32 48.3025 27.32C56.4625 27.32 58.1825 23.88 58.1825 16.16V0.799998H61.1425V17.24C61.1425 25.84 57.7025 29.52 48.1825 29.52C38.5025 29.52 34.9025 25.28 34.9025 16.16ZM40.9425 25.6V2.88H37.3425V15.92C37.3425 20.76 38.5825 24.24 40.7825 25.52L40.9425 25.6ZM72.2541 3.72H62.6141V0.759999H90.3741V3.72H80.7341V29H72.2541V3.72ZM78.2941 3.72H74.6941V26.88H78.2941V3.72Z" fill="white"/>
</svg>
