<svg width="31" height="16" viewBox="0 0 31 16" fill="none" xmlns="http://www.w3.org/2000/svg">
    <path
        d="M13.4062 6.26562C13.4062 6.44271 13.349 6.61458 13.2344 6.78125C13.1719 6.80208 13.0781 6.82292 12.9531 6.84375C12.776 6.77083 12.5156 6.66146 12.1719 6.51562C12.1198 6.51562 12.0417 6.50521 11.9375 6.48438C11.6146 6.55729 10.9062 6.96354 9.8125 7.70312C9.52083 7.85938 9.08854 8.10938 8.51562 8.45312C8.35938 8.58854 8.13021 8.78125 7.82812 9.03125C7.90104 9.11458 8.16667 9.20312 8.625 9.29688C8.90625 9.16146 9.1875 9.09375 9.46875 9.09375C9.76042 9.09375 10.0417 9.20312 10.3125 9.42188C10.5938 9.64062 10.7292 9.88542 10.7188 10.1562V10.1875C10.5729 10.2917 10.4115 10.3646 10.2344 10.4062C10.0573 10.4375 9.88542 10.4688 9.71875 10.5C9.51042 10.5833 9.19271 10.6979 8.76562 10.8438C8.53646 10.875 8.20312 10.9219 7.76562 10.9844L7.21875 10.875L7.17188 10.9062C7.17188 10.9062 7.17188 11.0052 7.17188 11.2031C7.17188 11.3073 7.18229 11.4688 7.20312 11.6875C7.23438 11.8958 7.25 12.0573 7.25 12.1719C7.25 12.724 7.08333 13.1667 6.75 13.5C8.58333 13.2708 9.86458 13.1562 10.5938 13.1562C11.0521 13.1562 11.375 13.1771 11.5625 13.2188C11.6458 13.2292 11.9427 13.3125 12.4531 13.4688C12.901 13.6146 13.2135 13.8229 13.3906 14.0938C13.2656 14.4792 13.0573 14.6719 12.7656 14.6719C12.7448 14.6719 12.4583 14.6042 11.9062 14.4688C11.875 14.4583 11.6615 14.5156 11.2656 14.6406C10.8698 14.776 10.6406 14.8646 10.5781 14.9062C10.3698 15.0104 10.1615 15.1146 9.95312 15.2188C9.70312 15.3333 9.47396 15.3906 9.26562 15.3906C9.70312 15.151 10.3385 14.7604 11.1719 14.2188C10.9635 14.0938 10.7656 14.0312 10.5781 14.0312C10.3177 14.0312 9.98958 14.0729 9.59375 14.1562C9.27083 14.2396 8.94792 14.3177 8.625 14.3906C8.17708 14.4531 7.51562 14.5625 6.64062 14.7188C4.86979 15.0521 3.63021 15.2188 2.92188 15.2188C2.84896 15.2188 2.58854 15.1875 2.14062 15.125C1.60938 15.0417 1.32812 14.9948 1.29688 14.9844C1.07812 14.9115 0.854167 14.7396 0.625 14.4688C0.40625 14.1979 0.302083 13.9844 0.3125 13.8281L0.328125 13.7188C0.359375 13.6667 0.40625 13.5938 0.46875 13.5L0.15625 13.4219C0.197917 13.276 0.286458 13.151 0.421875 13.0469C0.567708 12.9427 0.713542 12.8906 0.859375 12.8906C1.00521 12.8906 1.17188 12.9479 1.35938 13.0625C1.66146 13.2396 1.82292 13.3333 1.84375 13.3438C1.95833 13.3542 2.14062 13.4062 2.39062 13.5V13.5156C2.34896 13.5365 2.32292 13.5573 2.3125 13.5781L2.35938 13.625C2.60938 13.7083 2.95833 13.75 3.40625 13.75C3.51042 13.75 3.67188 13.7448 3.89062 13.7344C4.10938 13.7135 4.27083 13.7031 4.375 13.7031C4.09375 13.6719 3.8125 13.4635 3.53125 13.0781C3.26042 12.6823 3.02604 12.4635 2.82812 12.4219C2.82812 12.401 2.77604 12.1094 2.67188 11.5469C2.67188 11.5365 2.6875 11.4948 2.71875 11.4219C2.72917 11.3698 2.71875 11.3177 2.6875 11.2656H2.71875C2.75 11.2135 2.80208 11.1875 2.875 11.1875C3.15625 11.1875 3.47396 11.2604 3.82812 11.4062C3.97396 11.4479 4.1875 11.5104 4.46875 11.5938C4.77083 11.7083 4.96354 11.8906 5.04688 12.1406C5.09896 12.276 5.125 12.5469 5.125 12.9531C5.125 13.151 5.03646 13.375 4.85938 13.625L4.82812 13.6406C4.84896 13.651 4.88021 13.6615 4.92188 13.6719L4.95312 13.7031L5.01562 13.6719C5.17188 13.6719 5.26562 13.6615 5.29688 13.6406C5.26562 13.6302 5.23958 13.6094 5.21875 13.5781L5.1875 13.5156L5.23438 13.4844L5.32812 13.5C5.47396 13.4375 5.61979 13.375 5.76562 13.3125C5.95312 13.2292 6.04688 13.0521 6.04688 12.7812C6.04688 12.4688 5.98958 12 5.875 11.375C5.77083 10.75 5.71875 10.276 5.71875 9.95312C5.71875 9.85938 5.72396 9.71354 5.73438 9.51562C5.73438 9.31771 5.73438 9.16667 5.73438 9.0625C5.73438 8.63542 5.76562 8.33333 5.82812 8.15625C5.94271 7.84375 6.18229 7.6875 6.54688 7.6875C6.69271 7.6875 6.88542 7.86458 7.125 8.21875C7.29167 8.45833 7.45833 8.70312 7.625 8.95312C8.14583 8.33854 8.94271 7.44271 10.0156 6.26562C9.85938 6.25521 9.70312 6.25 9.54688 6.25C8.89062 6.25 7.97917 6.33854 6.8125 6.51562C5.5 6.72396 4.64062 6.94271 4.23438 7.17188L4.125 7.14062C4.07292 7.16146 4.01042 7.20312 3.9375 7.26562C3.875 7.32812 3.79167 7.41146 3.6875 7.51562L3.65625 7.57812L3.67188 7.625C3.29688 8.08333 2.94271 8.57292 2.60938 9.09375C2.40104 9.46875 2.07292 10.0156 1.625 10.7344C1.54167 10.8594 1.40104 10.9792 1.20312 11.0938C1.01562 11.1979 0.854167 11.25 0.71875 11.25H0.65625C0.5 11.0312 0.421875 10.8542 0.421875 10.7188C0.421875 10.3646 0.635417 9.73958 1.0625 8.84375C2.36458 6.08333 4.3125 3.38021 6.90625 0.734375C7 0.713542 7.05729 0.703125 7.07812 0.703125C7.16146 0.703125 7.41146 0.786458 7.82812 0.953125C7.85938 0.942708 7.94792 0.963542 8.09375 1.01562C8.63542 1.19271 8.92708 1.29167 8.96875 1.3125C9.30208 1.48958 9.45833 1.72396 9.4375 2.01562V2.10938C9.17708 2.20312 8.79688 2.35938 8.29688 2.57812C7.95312 2.74479 7.38021 3.24479 6.57812 4.07812C5.78646 4.91146 5.31771 5.5 5.17188 5.84375C6.05729 5.5625 6.95312 5.28125 7.85938 5C8.77604 4.71875 9.72396 4.57812 10.7031 4.57812C11.1615 4.57812 11.4531 4.58854 11.5781 4.60938C11.6719 4.63021 11.776 4.69271 11.8906 4.79688C12.0573 4.93229 12.151 5.00521 12.1719 5.01562C12.6927 5.34896 12.9531 5.52083 12.9531 5.53125C13.2552 5.76042 13.4062 6.00521 13.4062 6.26562ZM7.76562 9.73438C7.56771 9.44271 7.27083 9.09375 6.875 8.6875L6.8125 8.73438L6.79688 8.8125C6.79688 9.46875 6.88021 9.94792 7.04688 10.25C7.06771 10.2292 7.30729 10.0573 7.76562 9.73438ZM2.21875 9.45312C2.125 9.46354 2.04167 9.54688 1.96875 9.70312C1.91667 9.81771 1.86458 9.93229 1.8125 10.0469L2.21875 9.45312ZM30.3594 8.96875C30.2969 9.27083 30.1823 9.52604 30.0156 9.73438C29.9219 10.1927 29.7656 10.7552 29.5469 11.4219C29.3073 12.1823 29.099 12.7083 28.9219 13C28.651 13.3646 28.3281 13.8906 27.9531 14.5781C27.6927 14.5781 27.4531 14.6562 27.2344 14.8125C27.0156 14.9688 26.8021 15.125 26.5938 15.2812C26.5 15.3333 26.2708 15.4115 25.9062 15.5156C25.5521 15.6302 25.3021 15.6875 25.1562 15.6875C25.1562 15.6875 25.0365 15.6615 24.7969 15.6094L24.7656 15.5C24.6719 15.4375 24.6146 15.3594 24.5938 15.2656C24.7292 15.1823 24.9115 15.1042 25.1406 15.0312C25.4948 14.9375 25.6823 14.8854 25.7031 14.875C26.3594 14.6354 26.7969 14.3073 27.0156 13.8906C27.0365 13.849 27.1875 13.3333 27.4688 12.3438C24.6354 14.1458 22.1875 15.0469 20.125 15.0469C19.6146 15.0469 19.1927 14.8438 18.8594 14.4375C18.8073 14.2292 18.6875 14.0521 18.5 13.9062C18.3229 13.7604 18.151 13.6146 17.9844 13.4688C17.7552 13.2708 17.5156 12.9844 17.2656 12.6094C16.7135 11.8073 16.3333 11.0677 16.125 10.3906C15.9271 9.70312 15.8281 8.86458 15.8281 7.875C15.8281 7.51042 15.8854 7.14583 16 6.78125C16.1354 6.34375 16.3281 6.04167 16.5781 5.875C16.6094 5.85417 16.651 5.84375 16.7031 5.84375C16.9635 5.84375 17.1198 6.03646 17.1719 6.42188C17.2031 6.70312 17.2292 6.98438 17.25 7.26562C17.0521 8.00521 16.9531 8.67708 16.9531 9.28125C16.9531 11.1771 17.6198 12.7188 18.9531 13.9062L19.1094 13.875L19.5312 14.0156C19.5833 13.9948 19.6458 13.9688 19.7188 13.9375C19.7396 13.9375 19.7656 13.9427 19.7969 13.9531L20.0156 14.1875C21.3385 14.0417 22.9688 13.5469 24.9062 12.7031C24.6771 12.474 24.4115 12.224 24.1094 11.9531C23.8802 11.9948 23.5781 12.1302 23.2031 12.3594C22.7344 12.6302 22.4323 12.7917 22.2969 12.8438C22.2969 12.8438 22.151 12.8646 21.8594 12.9062C21.6927 12.9271 21.5885 13.0156 21.5469 13.1719C21.2135 13.099 20.8333 12.7865 20.4062 12.2344C19.8854 11.5573 19.5104 10.9896 19.2812 10.5312C19 9.97917 18.7865 9.32812 18.6406 8.57812C18.5885 8.31771 18.5625 8.15625 18.5625 8.09375C18.5625 7.91667 18.625 7.65625 18.75 7.3125C18.875 6.95833 19 6.75 19.125 6.6875C19.1979 6.64583 19.2969 6.625 19.4219 6.625C19.5885 6.625 19.6927 6.61979 19.7344 6.60938L19.875 6.64062L20.5 6.25C20.4479 6.29167 20.4115 6.34375 20.3906 6.40625V6.5L20.4688 6.54688L20.5156 6.51562C20.526 6.48438 20.5469 6.45833 20.5781 6.4375L20.6094 6.45312C20.0677 7.08854 19.7969 7.56771 19.7969 7.89062C19.7969 8.13021 19.8438 8.32812 19.9375 8.48438C20.3958 8.70312 20.7812 8.84896 21.0938 8.92188C21.1146 8.92188 21.1458 8.90104 21.1875 8.85938L21.2188 8.84375C21.1875 8.78125 21.1719 8.70833 21.1719 8.625C21.1719 8.53125 21.1979 8.29688 21.25 7.92188C21.2812 7.70312 21.2969 7.48438 21.2969 7.26562C21.2969 6.83854 21.651 6.27083 22.3594 5.5625L22.3906 4.89062C22.3906 4.88021 22.3906 4.85417 22.3906 4.8125C22.3802 4.78125 22.375 4.75521 22.375 4.73438L22.3594 4.70312C21.526 4.97396 20.8698 5.10938 20.3906 5.10938C20.1719 5.10938 20.0469 5.11458 20.0156 5.125L19.9688 5.07812C19.9479 4.96354 19.8698 4.89583 19.7344 4.875L19.6875 4.84375C19.6875 4.30208 19.8385 3.81771 20.1406 3.39062C20.5573 2.78646 21.1875 2.24479 22.0312 1.76562C22.8854 1.27604 23.6667 1.03125 24.375 1.03125C24.875 1.03125 25.2656 1.15104 25.5469 1.39062C25.7448 1.43229 26.0417 1.5 26.4375 1.59375L26.625 1.5625L26.8125 1.60938C26.8646 1.71354 26.8906 1.79167 26.8906 1.84375C26.7552 2.08333 26.5208 2.30729 26.1875 2.51562C25.9688 2.71354 25.5729 2.99479 25 3.35938C24.625 3.46354 24.1667 3.63542 23.625 3.875C23.5625 3.92708 23.4635 4.01042 23.3281 4.125C23.349 4.23958 23.3854 4.38542 23.4375 4.5625C23.4062 4.60417 23.3906 4.65104 23.3906 4.70312L23.4062 4.78125C23.9792 4.51042 24.3333 4.34896 24.4688 4.29688C24.7812 4.20312 25.1771 4.15625 25.6562 4.15625C25.7708 4.15625 25.9115 4.18229 26.0781 4.23438C26.2344 4.20312 26.3333 4.1875 26.375 4.1875C26.6042 4.1875 26.8646 4.31771 27.1562 4.57812C27.3854 4.78646 27.6146 4.98958 27.8438 5.1875C28.0104 5.3125 28.2552 5.5 28.5781 5.75C28.724 5.88542 28.7969 6.0625 28.7969 6.28125C28.7969 6.45833 28.75 6.59375 28.6562 6.6875L28.2344 6.78125C28.1615 6.73958 28.0469 6.69271 27.8906 6.64062C27.3594 7.36979 26.8333 8.34375 26.3125 9.5625C25.875 10.5833 25.4427 11.6042 25.0156 12.625C25.5156 12.4583 26.0208 12.2552 26.5312 12.0156C27.1771 11.7135 27.5417 11.526 27.625 11.4531C27.8958 11.2448 28.0729 10.8906 28.1562 10.3906C28.25 9.84896 28.2969 9.53646 28.2969 9.45312C28.2969 9.40104 28.2812 9.28125 28.25 9.09375C28.1458 9.02083 28.0156 8.90104 27.8594 8.73438C28.1094 7.99479 28.375 7.625 28.6562 7.625C28.8229 7.625 29.026 7.73958 29.2656 7.96875C29.5052 8.1875 29.7396 8.28125 29.9688 8.25C30.1771 8.41667 30.3073 8.65625 30.3594 8.96875ZM26.5938 5.40625C26.4792 5.32292 26.3229 5.25521 26.125 5.20312C25.4583 5.39062 25.0938 5.5 25.0312 5.53125C24.8438 5.61458 24.5208 5.81771 24.0625 6.14062C23.9375 6.21354 23.7552 6.31771 23.5156 6.45312C23.0781 6.74479 22.8698 7.20312 22.8906 7.82812V7.95312L23.0156 7.98438C23.1823 7.82812 23.4635 7.75 23.8594 7.75C24.0052 7.75 24.151 7.83333 24.2969 8C24.4427 8.16667 24.5156 8.32292 24.5156 8.46875C24.5156 8.47917 24.3125 8.68229 23.9062 9.07812C23.5104 9.46354 23.2917 9.88021 23.25 10.3281C23.3958 10.4427 23.625 10.5729 23.9375 10.7188C24.1042 10.7708 24.276 10.8177 24.4531 10.8594C24.651 10.9427 24.75 11.0729 24.75 11.25C24.75 11.2812 24.7396 11.3229 24.7188 11.375C24.6979 11.4271 24.6875 11.4635 24.6875 11.4844C24.6979 11.526 24.7135 11.5625 24.7344 11.5938C24.7865 11.5729 24.875 11.5312 25 11.4688C25.3021 10.1146 25.5625 9.11458 25.7812 8.46875C26.1667 7.27083 26.4375 6.25 26.5938 5.40625ZM22.2344 8.32812C22.2552 8.06771 22.2396 7.70833 22.1875 7.25C21.8854 7.51042 21.6667 8.02083 21.5312 8.78125C21.8333 8.63542 22.0677 8.48438 22.2344 8.32812ZM23.2969 11.4688L22.9531 11.0625C22.9323 11.1146 22.9219 11.1719 22.9219 11.2344C22.9219 11.349 22.9531 11.4531 23.0156 11.5469L23.2969 11.4688ZM22.3125 10.4219C22.1979 10.2865 21.9531 10.0625 21.5781 9.75H21.5C21.5 9.75 21.4792 9.75521 21.4375 9.76562L21.4062 9.79688L21.375 9.84375V10.3438C21.375 10.7708 21.4479 11.1875 21.5938 11.5938C21.8542 11.2917 22.0938 10.901 22.3125 10.4219ZM22.6875 11.6406V11.5781C22.6667 11.5573 22.6354 11.526 22.5938 11.4844C22.4688 11.5052 22.3958 11.5729 22.375 11.6875C22.4062 11.6979 22.4323 11.7031 22.4531 11.7031H22.4844C22.5573 11.7031 22.625 11.6823 22.6875 11.6406ZM21.4062 12.4062C21.4062 12.125 21.3646 11.7031 21.2812 11.1406C21.1979 10.5677 21.1562 10.1354 21.1562 9.84375L20.9062 9.625L20.9375 9.34375C20.7292 9.20833 20.4062 9.01562 19.9688 8.76562C20.0104 9.69271 20.0885 10.3854 20.2031 10.8438C20.3802 11.5625 20.7083 12.1615 21.1875 12.6406C21.2292 12.6302 21.2969 12.6042 21.3906 12.5625C21.401 12.4583 21.4062 12.4062 21.4062 12.4062Z"
        fill="black" />
</svg>