<svg width="31" height="16" viewBox="0 0 31 16" fill="none" xmlns="http://www.w3.org/2000/svg">
    <path
        d="M14.3906 8.23438C14.224 8.42188 14.1146 8.51562 14.0625 8.51562C14 8.51562 13.7865 8.46875 13.4219 8.375C13.0677 8.28125 12.7917 8.23438 12.5938 8.23438C12.3229 8.23438 11.9219 8.26562 11.3906 8.32812C10.8594 8.38021 10.4688 8.40625 10.2188 8.40625C10.2188 8.40625 10.1823 8.40104 10.1094 8.39062C10.7344 8.07812 11.4219 7.83854 12.1719 7.67188C12.0052 7.53646 11.7552 7.4375 11.4219 7.375C10.9531 7.27083 10.6823 7.20312 10.6094 7.17188C8.96354 6.57812 7.91667 6.13542 7.46875 5.84375L7.42188 5.875C7.29688 5.90625 7.21354 6 7.17188 6.15625C7.10938 6.26042 7.01042 6.40625 6.875 6.59375L6.85938 6.64062L6.875 6.70312C6.98958 6.66146 7.14062 6.64583 7.32812 6.65625C7.52604 6.66667 7.66146 6.66146 7.73438 6.64062C7.79688 6.67188 7.94792 6.6875 8.1875 6.6875C8.375 6.6875 8.51042 6.75 8.59375 6.875C8.80208 6.94792 9.13542 7.11979 9.59375 7.39062C9.59375 7.43229 9.61979 7.6875 9.67188 8.15625C9.71354 8.58333 9.73438 8.82292 9.73438 8.875L9.67188 9.73438C9.66146 9.82812 9.66667 9.96875 9.6875 10.1562C9.71875 10.3438 9.73438 10.4792 9.73438 10.5625C9.73438 10.9688 9.69792 11.5312 9.625 12.25C9.53125 13.125 9.42708 13.6406 9.3125 13.7969C9.20833 13.9427 9.02604 14.0365 8.76562 14.0781C8.55729 13.974 8.40104 13.9479 8.29688 14C8.23438 13.9167 8.02083 13.75 7.65625 13.5C7.35417 13.3021 7.1875 13.1198 7.15625 12.9531C7.44792 12.9531 7.67188 12.8958 7.82812 12.7812C7.84896 12.7188 7.85938 12.651 7.85938 12.5781C7.85938 12.5052 7.84896 12.4479 7.82812 12.4062C7.67188 12.4271 7.47396 12.5052 7.23438 12.6406C7.08854 12.7656 6.85417 12.9219 6.53125 13.1094C6.21875 13.2865 5.81771 13.4583 5.32812 13.625C4.91146 13.7708 4.5 13.9115 4.09375 14.0469L3.82812 14.0156C3.75521 14.0052 3.65104 14.0208 3.51562 14.0625C3.39062 14.1146 3.30208 14.1406 3.25 14.1406C3.20833 14.1406 3.16667 14.1302 3.125 14.1094C3.1875 14.0781 3.33854 14.0312 3.57812 13.9688C3.20312 13.4375 3.01562 12.7552 3.01562 11.9219C3.01562 10.4844 3.34896 9.51042 4.01562 9H4.09375L4.21875 9.125C3.94792 9.57292 3.8125 10.1875 3.8125 10.9688C3.8125 11.1146 3.8125 11.3281 3.8125 11.6094C3.82292 11.901 3.82812 12.1146 3.82812 12.25L4.03125 12.2812C4.3125 12.1667 4.75521 11.7552 5.35938 11.0469C4.86979 10.9219 4.55208 10.75 4.40625 10.5312L4.54688 10.5625C4.96354 10.4479 5.45833 10.2031 6.03125 9.82812H6.45312C6.88021 9.82812 7.18229 9.99479 7.35938 10.3281C7.32812 10.3698 7.21354 10.4531 7.01562 10.5781C6.82812 10.6927 6.48958 10.9948 6 11.4844C5.52083 11.974 5.22917 12.3021 5.125 12.4688L6.76562 11.7812C6.90104 11.6667 7.11458 11.5417 7.40625 11.4062C7.46875 11.3958 7.65104 11.3906 7.95312 11.3906L7.96875 10.9219C7.96875 10.5365 7.95312 9.98958 7.92188 9.28125C7.89062 8.52083 7.875 7.97396 7.875 7.64062C7.85417 7.60938 7.82292 7.57812 7.78125 7.54688H7.75C7.67708 7.60938 7.48958 7.65625 7.1875 7.6875C7.05208 7.70833 6.64583 7.83333 5.96875 8.0625C5.30208 8.29167 4.93229 8.43229 4.85938 8.48438C4.94271 8.31771 5.02604 8.14583 5.10938 7.96875C5.20312 7.78125 5.32292 7.64583 5.46875 7.5625C5.5625 7.14583 5.75521 6.64583 6.04688 6.0625C6.28646 5.58333 6.52604 5.10417 6.76562 4.625L6.75 4.5625V4.54688L6.73438 4.5625C6.55729 4.65625 6.38542 4.75521 6.21875 4.85938C6.05208 4.95312 5.92188 5.09896 5.82812 5.29688C5.78646 5.35938 5.72396 5.45312 5.64062 5.57812C5.55729 5.70312 5.46354 5.85938 5.35938 6.04688C5.32812 6.03646 5.25 5.96875 5.125 5.84375C5.11458 5.77083 5.10938 5.69792 5.10938 5.625C5.10938 5.21875 5.60938 4.15625 6.60938 2.4375C6.69271 2.26042 6.83333 1.99479 7.03125 1.64062C6.96875 1.57812 6.84896 1.51042 6.67188 1.4375C6.49479 1.35417 6.36979 1.27604 6.29688 1.20312C6.36979 1.07812 6.64062 0.838542 7.10938 0.484375C7.14062 0.484375 7.21354 0.484375 7.32812 0.484375C7.73438 0.484375 7.98438 0.5 8.07812 0.53125C8.39062 0.59375 8.53646 0.755208 8.51562 1.01562V1.09375C8.40104 1.16667 8.25521 1.33854 8.07812 1.60938C7.90104 1.86979 7.79688 2.06771 7.76562 2.20312V2.28125C8.58854 1.5 9.64583 1.10938 10.9375 1.10938C12.5312 1.10938 13.3281 1.875 13.3281 3.40625C13.3281 3.47917 13.2917 3.80729 13.2188 4.39062C13.1042 4.29688 12.9531 4.25 12.7656 4.25C12.6094 4.25 12 4.41146 10.9375 4.73438C9.88542 5.04688 9.25521 5.25 9.04688 5.34375C9.35938 5.67708 9.78125 5.97396 10.3125 6.23438C10.4062 6.27604 10.8906 6.47396 11.7656 6.82812C12.0052 6.94271 12.2448 7.05208 12.4844 7.15625C12.7656 7.27083 13.0208 7.34375 13.25 7.375C13.3646 7.48958 13.5521 7.63542 13.8125 7.8125C14.0833 7.97917 14.276 8.11979 14.3906 8.23438ZM4.79688 3V3.14062C4.57812 3.35938 4.33854 3.47917 4.07812 3.5C3.81771 3.51042 3.55729 3.52083 3.29688 3.53125C2.94271 3.28125 2.47396 3.08854 1.89062 2.95312C1.85938 2.92188 1.81771 2.85417 1.76562 2.75C2.00521 2.53125 2.26562 2.40625 2.54688 2.375C2.82812 2.33333 3.10938 2.29688 3.39062 2.26562C3.78646 2.18229 4.09375 2.14062 4.3125 2.14062C4.66667 2.14062 4.82812 2.42708 4.79688 3ZM5.89062 3.34375C5.90104 3.52083 5.71875 3.84896 5.34375 4.32812C5.08333 4.64062 4.82292 4.95312 4.5625 5.26562C4.45833 5.42188 4.28646 5.64583 4.04688 5.9375C3.79688 6.13542 3.43229 6.44792 2.95312 6.875C2.74479 7 2.45833 7.21875 2.09375 7.53125C1.9375 7.70833 1.81771 7.96354 1.73438 8.29688C1.66146 8.63021 1.57292 8.86458 1.46875 9C1.375 8.96875 1.26042 8.95312 1.125 8.95312C1.08333 8.95312 1.01562 8.95833 0.921875 8.96875C0.828125 8.96875 0.760417 8.96875 0.71875 8.96875C0.354167 8.96875 0.171875 8.78646 0.171875 8.42188C0.171875 8.35938 0.223958 8.21354 0.328125 7.98438C0.442708 7.75521 0.526042 7.625 0.578125 7.59375L0.46875 7.25C0.5 7.16667 0.541667 7.11458 0.59375 7.09375C0.625 7.09375 0.666667 7.09375 0.71875 7.09375C0.78125 7.10417 0.828125 7.10938 0.859375 7.10938C0.880208 7.10938 0.90625 7.10417 0.9375 7.09375C0.9375 7.01042 0.947917 6.89583 0.96875 6.75C1.30208 6.70833 1.58854 6.64583 1.82812 6.5625C2.23438 6.41667 2.9375 5.92708 3.9375 5.09375C4.83333 4.34375 5.48438 3.73958 5.89062 3.28125V3.34375ZM7.09375 9.3125V9.375C7 9.48958 6.81771 9.54688 6.54688 9.54688C6.51562 9.54688 6.46354 9.54167 6.39062 9.53125C6.31771 9.51042 6.26562 9.5 6.23438 9.5C6.10938 9.5 5.92188 9.52604 5.67188 9.57812C5.43229 9.61979 5.25 9.64062 5.125 9.64062C4.80208 9.64062 4.57292 9.58854 4.4375 9.48438L4.40625 9.34375C4.69792 9.1875 4.99479 9.03646 5.29688 8.89062C5.65104 8.71354 5.96354 8.625 6.23438 8.625C6.64062 8.625 6.90625 8.71354 7.03125 8.89062V8.96875C7.03125 9.01042 7.04167 9.06771 7.0625 9.14062C7.09375 9.21354 7.10417 9.27083 7.09375 9.3125ZM12.2969 14.5469C12.2865 14.6406 12.25 14.7812 12.1875 14.9688H11.7031C11.6406 14.9688 11.4688 15.0469 11.1875 15.2031C10.9167 15.3698 10.75 15.4844 10.6875 15.5469C10.5833 15.5365 10.5312 15.5312 10.5312 15.5312C10.4271 15.5312 10.2552 15.5573 10.0156 15.6094C9.77604 15.6615 9.59375 15.6875 9.46875 15.6875L9.32812 15.6719C10.1927 15.3073 10.6094 14.875 10.5781 14.375V14.2656C10.3594 14.0156 10 13.7917 9.5 13.5938C9.53125 13.5521 9.66146 13.5052 9.89062 13.4531C10.0885 13.401 10.2292 13.375 10.3125 13.375C10.3125 13.375 10.5208 13.401 10.9375 13.4531L11 13.4219C11.1771 13.4948 11.4323 13.6042 11.7656 13.75L11.6719 13.8281C11.6927 13.8594 11.8229 13.9635 12.0625 14.1406C12.2188 14.2552 12.2969 14.3906 12.2969 14.5469ZM4.53125 14.5312C4.48958 14.6458 4.41146 14.7396 4.29688 14.8125C4.11979 14.8646 3.86979 14.9583 3.54688 15.0938C2.59896 15.6042 1.99479 15.8594 1.73438 15.8594C1.56771 15.8073 1.40104 15.7552 1.23438 15.7031C1.00521 15.6302 0.864583 15.5573 0.8125 15.4844C0.75 15.3594 0.630208 15.1667 0.453125 14.9062C0.453125 14.4688 0.791667 14.25 1.46875 14.25C1.45833 14.25 1.63542 14.3125 2 14.4375C1.875 14.4375 1.78646 14.474 1.73438 14.5469C1.73438 14.5677 1.72917 14.599 1.71875 14.6406C1.70833 14.6927 1.70312 14.7344 1.70312 14.7656L1.75 14.8594C2.48958 14.8594 3.41667 14.75 4.53125 14.5312ZM12.6719 2.75V2.59375C12.6719 2.38542 12.5885 2.20833 12.4219 2.0625C12.2552 1.91667 12.0625 1.84375 11.8438 1.84375C10.5521 1.84375 9.41667 2.27604 8.4375 3.14062C8.47917 3.31771 8.58333 3.5 8.75 3.6875V3.78125C8.65625 3.89583 8.52604 4.0625 8.35938 4.28125C8.33854 4.33333 8.30729 4.40625 8.26562 4.5C8.29688 4.57292 8.46354 4.78646 8.76562 5.14062C9.11979 4.99479 9.50521 4.84375 9.92188 4.6875C10.1719 4.60417 10.6146 4.375 11.25 4C11.8854 3.625 12.2969 3.35417 12.4844 3.1875C12.6198 3.0625 12.6823 2.91667 12.6719 2.75ZM29.8281 12.2656C28.8177 13.276 28.0052 13.7656 27.3906 13.7344H27.2969C28.0365 13.3802 28.4062 13.0156 28.4062 12.6406C28.4062 12.224 28.1198 11.8125 27.5469 11.4062C27.3802 11.3229 27.1615 11.1875 26.8906 11C27.099 10.9271 27.3385 10.8906 27.6094 10.8906C29.0365 10.8906 29.776 11.349 29.8281 12.2656ZM30.25 5.90625C30.1667 6.07292 30.0156 6.22917 29.7969 6.375L29.5938 6.26562C29.4167 6.35938 29.2552 6.54688 29.1094 6.82812L29.1719 6.70312H29.0156C28.849 6.83854 28.4792 7.06771 27.9062 7.39062C27.4167 7.66146 27.0677 7.91667 26.8594 8.15625C26.7865 8.23958 26.75 8.35417 26.75 8.5C26.4688 8.54167 26.1927 8.80729 25.9219 9.29688C25.724 9.67188 25.5781 10.0469 25.4844 10.4219C25.4115 10.7344 25.375 11.1042 25.375 11.5312C25.375 11.8646 25.4479 12.3542 25.5938 13C25.75 13.6354 25.8281 14.0938 25.8281 14.375C25.8281 14.7083 25.724 15 25.5156 15.25C25.4323 15.2604 25.2344 15.2969 24.9219 15.3594C24.6719 15.4115 24.4688 15.4375 24.3125 15.4375C24.0521 15.4375 23.724 15.3698 23.3281 15.2344C22.901 15.099 22.6042 14.9479 22.4375 14.7812C22.2604 14.5521 22.0104 14.2969 21.6875 14.0156C21.6875 13.8906 21.651 13.7708 21.5781 13.6562C21.4531 13.4479 21.3906 13.3385 21.3906 13.3281L21.25 13.375V13.3906C21.2708 13.4115 21.2865 13.4375 21.2969 13.4688C21.0052 13.75 20.7396 13.8906 20.5 13.8906C20.3021 13.8906 20.1562 13.8177 20.0625 13.6719C20.0104 13.5677 19.9167 13.4167 19.7812 13.2188C19.6771 13.125 19.5729 13.026 19.4688 12.9219C19.3229 12.7865 19.25 12.6719 19.25 12.5781C19.25 12.0365 19.5573 11.7656 20.1719 11.7656C20.3906 11.7656 20.5833 11.8646 20.75 12.0625C20.9167 12.2604 21.0104 12.474 21.0312 12.7031C21.1042 12.776 21.1823 12.8125 21.2656 12.8125C21.7656 12.8125 22.2344 12.7083 22.6719 12.5C22.4115 12.6562 22.0521 12.9115 21.5938 13.2656C21.7188 13.7344 22.1198 13.9688 22.7969 13.9688C22.8177 13.9583 23.0208 13.9531 23.4062 13.9531C23.6354 13.9531 23.8438 13.9115 24.0312 13.8281C23.9688 13.2969 23.9375 12.875 23.9375 12.5625C23.9375 12 24.0312 11.2135 24.2188 10.2031C24.0938 10.2344 23.9479 10.3125 23.7812 10.4375C23.5729 10.6042 23.4323 10.7031 23.3594 10.7344C23.1615 10.6719 22.9531 10.5365 22.7344 10.3281C22.4427 10.0573 22.2604 9.89583 22.1875 9.84375C22.1875 9.79167 22.1719 9.72396 22.1406 9.64062C22.1198 9.55729 22.1094 9.48958 22.1094 9.4375C22.1094 9.375 22.2031 9.26042 22.3906 9.09375C22.5885 8.92708 22.7396 8.84375 22.8438 8.84375C22.8958 8.84375 22.974 8.85417 23.0781 8.875C23.1823 8.88542 23.2604 8.89062 23.3125 8.89062C23.3438 8.89062 23.3854 8.88542 23.4375 8.875C23.4688 8.8125 23.6562 8.52604 24 8.01562C24.2396 7.67188 24.3958 7.36458 24.4688 7.09375C24.2292 7.15625 23.8646 7.24479 23.375 7.35938C23.1146 7.36979 22.7396 7.40625 22.25 7.46875C22.2396 7.4375 22.2344 7.40104 22.2344 7.35938C22.2344 7.26562 22.3438 7.14062 22.5625 6.98438C22.75 6.84896 22.901 6.75521 23.0156 6.70312C22.8802 6.74479 22.6823 6.79167 22.4219 6.84375C22.3281 6.83333 22.2031 6.84896 22.0469 6.89062C21.9115 6.86979 21.8125 6.81771 21.75 6.73438C21.6146 6.73438 21.5469 6.89583 21.5469 7.21875C21.5469 8.90625 21.974 10.25 22.8281 11.25C21.7969 10.5104 21.0469 9.70312 20.5781 8.82812C20.1823 9.47396 19.5729 10.8646 18.75 13C18.5729 13.4479 18.3958 13.8958 18.2188 14.3438C18.0104 14.8542 17.7969 15.2812 17.5781 15.625C17.5781 15.4583 17.6302 15.2292 17.7344 14.9375C17.8385 14.6562 17.8958 14.4531 17.9062 14.3281C17.8542 14.3802 17.7604 14.4167 17.625 14.4375C17.5 14.4688 17.4167 14.5 17.375 14.5312C17.1042 14.3854 16.901 14.1875 16.7656 13.9375C16.5365 13.5417 16.3073 12.8802 16.0781 11.9531C15.8594 11.026 15.75 10.3177 15.75 9.82812C15.75 8.83854 15.8177 8.16667 15.9531 7.8125C16.0573 7.5625 16.1979 7.18229 16.375 6.67188C16.5 6.27604 16.6719 6.01562 16.8906 5.89062C16.9115 6.00521 17.0052 6.08854 17.1719 6.14062C17.4115 6.20312 17.5365 6.23958 17.5469 6.25C17.6823 5.61458 17.8698 4.66146 18.1094 3.39062C17.9219 3.14062 17.6823 2.93229 17.3906 2.76562C17.5156 2.51562 17.5938 2.36979 17.625 2.32812C17.6979 2.23438 17.8281 2.15104 18.0156 2.07812C18.2135 1.99479 18.3281 1.95312 18.3594 1.95312C18.4219 1.95312 18.5208 1.97917 18.6562 2.03125C18.8646 2.14583 19.1979 2.30729 19.6562 2.51562C19.8333 2.56771 20.099 2.67188 20.4531 2.82812C20.6719 2.96354 20.7917 3.17708 20.8125 3.46875C21.0521 2.63542 21.7031 2.02083 22.7656 1.625C23.5677 1.32292 24.5 1.17188 25.5625 1.17188C26.2396 1.17188 26.75 1.21354 27.0938 1.29688C27.6562 1.43229 28.0625 1.70312 28.3125 2.10938C27.8125 2.15104 27.3073 2.19792 26.7969 2.25C26.151 2.34375 25.6979 2.51562 25.4375 2.76562C25.4583 2.84896 25.5365 2.91146 25.6719 2.95312C25.8073 2.98438 25.8958 3.02083 25.9375 3.0625C25.9792 3.10417 26.0365 3.29688 26.1094 3.64062L26.0469 3.73438C26.0885 3.74479 26.1354 3.75521 26.1875 3.76562L26.75 3.70312C26.8229 3.69271 26.9479 3.73438 27.125 3.82812C27.3021 3.92188 27.4323 3.96354 27.5156 3.95312C27.9844 3.88021 28.2344 3.84375 28.2656 3.84375C28.4844 3.84375 28.6719 3.93229 28.8281 4.10938C28.9427 4.27604 29.1302 4.51042 29.3906 4.8125C29.5677 4.96875 29.7448 5.13542 29.9219 5.3125C30.1094 5.48958 30.2188 5.6875 30.25 5.90625ZM24.8906 4.23438C24.6823 3.75521 24.3698 3.47917 23.9531 3.40625C23.6094 3.51042 23.3125 3.75521 23.0625 4.14062C22.875 4.48438 22.6875 4.82812 22.5 5.17188L22.5312 5.25C23.5729 4.69792 24.3594 4.35938 24.8906 4.23438ZM27.7188 5.34375C27.6354 5.14583 27.5521 4.94792 27.4688 4.75C27.3542 4.51042 27.224 4.33854 27.0781 4.23438C26.0677 4.41146 24.6406 5.04688 22.7969 6.14062C22.8385 6.18229 22.9062 6.25521 23 6.35938C23.0104 6.41146 23.0208 6.46354 23.0312 6.51562L23.0625 6.57812L23.125 6.64062C23.4479 6.42188 23.9062 6.05208 24.5 5.53125C24.5625 5.53125 24.6615 5.53125 24.7969 5.53125C24.9219 5.54167 25.0156 5.54688 25.0781 5.54688C25.3385 5.54688 25.6354 5.51562 25.9688 5.45312L26.0312 5.48438C26.0312 5.52604 26.0365 5.59375 26.0469 5.6875L26.3594 5.64062L26.375 5.71875L26.4062 5.79688L26.4844 5.84375C26.5052 5.85417 26.5417 5.85417 26.5938 5.84375L26.6875 6.03125C26.6354 6.0625 26.5625 6.11979 26.4688 6.20312V6.25C26.4792 6.28125 26.5 6.30729 26.5312 6.32812L26.5469 6.39062L26.3281 6.60938C25.9844 6.55729 25.8177 6.53125 25.8281 6.53125C25.5885 6.53125 25.2448 6.80729 24.7969 7.35938C24.401 7.84896 24.1406 8.24479 24.0156 8.54688C24.474 8.35938 24.8125 8.07292 25.0312 7.6875C25.25 7.625 25.5781 7.53646 26.0156 7.42188L26.0625 7.45312C26.125 7.46354 26.2292 7.46875 26.375 7.46875L26.4531 7.54688C26.5365 7.47396 26.651 7.44271 26.7969 7.45312C27.0469 6.96354 27.2188 6.61979 27.3125 6.42188C27.4896 6.02604 27.625 5.66667 27.7188 5.34375ZM22.4375 3.89062C22.375 3.89062 22.2812 3.89583 22.1562 3.90625C22.0312 3.91667 21.9375 3.92188 21.875 3.92188C21.4375 3.92188 21.0573 3.79688 20.7344 3.54688C20.5469 3.67188 20.3438 3.74479 20.125 3.76562C20.2188 3.75521 20.0052 3.75 19.4844 3.75C19.1927 3.75 18.9479 3.84375 18.75 4.03125C18.625 4.14583 18.474 4.35938 18.2969 4.67188C18.1823 4.84896 18.0729 5.02604 17.9688 5.20312C17.875 5.38021 17.8281 5.59375 17.8281 5.84375C17.8281 5.89583 17.8438 6.11458 17.875 6.5C17.875 6.52083 17.8646 6.58333 17.8438 6.6875C17.8021 6.72917 17.7708 6.77083 17.75 6.8125C17.7292 6.85417 17.7188 6.90104 17.7188 6.95312C17.7188 7.03646 17.8438 7.29167 18.0938 7.71875C18.3542 8.14583 18.4948 8.44271 18.5156 8.60938C17.9323 8.85938 17.5938 9.19271 17.5 9.60938L17.3906 9.5625C17.0052 9.91667 16.8125 10.6667 16.8125 11.8125C16.8125 12.3438 16.9062 12.9948 17.0938 13.7656C17.5104 12.4844 17.7812 11.6719 17.9062 11.3281C18.2396 10.401 18.5938 9.625 18.9688 9C18.875 9.3125 18.7448 9.76042 18.5781 10.3438C18.4219 10.9271 18.2552 11.5104 18.0781 12.0938C17.901 12.7708 17.8073 13.375 17.7969 13.9062L18 14.1719C18.0938 13.724 18.1823 13.4635 18.2656 13.3906V13.2656C18.3177 13.0885 18.4062 12.8333 18.5312 12.5C18.8229 11.7292 19.1198 10.9531 19.4219 10.1719C19.8906 8.98438 20.2031 8.30208 20.3594 8.125C20.1302 7.57292 20.0156 7.00521 20.0156 6.42188C20.0156 5.20312 20.401 4.59375 21.1719 4.59375C21.1719 4.59375 21.4531 4.61979 22.0156 4.67188C22.1094 4.49479 22.25 4.23438 22.4375 3.89062Z"
        fill="black" />
</svg>