<svg width="764" height="112" viewBox="0 0 764 112" fill="none" xmlns="http://www.w3.org/2000/svg">
<mask id="mask0_1289_3471" style="mask-type:luminance" maskUnits="userSpaceOnUse" x="0" y="0" width="764" height="112">
<path d="M0 0H763.917V112H0V0Z" fill="white"/>
</mask>
<g mask="url(#mask0_1289_3471)">
<path d="M75.3543 68.7344C87.4636 87.1355 101.068 105.104 122.297 105.104C122.958 105.104 123.49 104.568 123.49 103.912C123.49 103.25 122.958 102.719 122.297 102.719C102.25 102.719 89.099 85.2813 77.3438 67.4219C56.2761 35.4011 33.8907 22.3438 0.088623 22.3438V24.7292C32.9792 24.7292 54.7865 37.4792 75.3543 68.7344ZM187.021 50.4532C186.557 50.9219 186.557 51.6772 187.026 52.1407C187.891 53.0053 188.641 54.0886 189.25 55.3594C189.453 55.7865 189.88 56.0365 190.323 56.0365C190.5 56.0365 190.672 56.0001 190.839 55.9167C191.432 55.6355 191.688 54.9219 191.401 54.3282C190.672 52.8126 189.771 51.5105 188.708 50.4532C188.245 49.9844 187.484 49.9897 187.021 50.4532ZM269.922 84.2553C269.276 84.2709 268.714 84.7553 268.698 85.4167C268.458 93.698 259.344 106.438 248.375 109.833C247.74 110.026 247.391 110.693 247.583 111.323C247.745 111.833 248.214 112.167 248.724 112.167C248.844 112.167 248.964 112.146 249.078 112.109C261.151 108.375 270.818 94.7292 271.083 85.4844C271.099 84.823 270.583 84.2761 269.922 84.2553ZM223.802 109.891C218.109 107.24 213.531 100.547 212.141 92.8282C211.12 87.1876 210.979 76.1355 221.474 65.4949C221.938 65.0261 221.932 64.2709 221.464 63.8074C220.99 63.3438 220.24 63.349 219.776 63.8178C208.526 75.224 208.693 87.1563 209.792 93.2501C211.318 101.708 216.422 109.089 222.797 112.057C222.958 112.13 223.13 112.167 223.302 112.167C223.75 112.167 224.182 111.906 224.38 111.474C224.662 110.88 224.401 110.167 223.802 109.891ZM197.87 94.4115C197.276 94.1251 196.568 94.3751 196.276 94.9688C196.234 95.0574 191.807 103.969 179.938 109.906C179.349 110.198 179.109 110.917 179.406 111.505C179.615 111.922 180.037 112.167 180.474 112.167C180.651 112.167 180.833 112.125 181.005 112.042C193.641 105.719 198.24 96.3959 198.427 96.0053C198.714 95.4115 198.464 94.698 197.87 94.4115ZM308.521 105.063C308.479 105.099 304.828 108.38 301.813 109.906C301.224 110.208 300.99 110.922 301.287 111.51C301.495 111.927 301.917 112.167 302.349 112.167C302.531 112.167 302.719 112.125 302.891 112.037C306.193 110.359 309.958 106.979 310.115 106.833C310.609 106.391 310.646 105.635 310.203 105.151C309.761 104.662 309.011 104.625 308.521 105.063ZM347.146 68.0782C347.057 67.4272 346.438 66.974 345.802 67.0626C345.151 67.1511 344.693 67.7553 344.787 68.4063C347.313 86.5105 333.458 104.276 312.563 109.745C311.922 109.912 311.542 110.563 311.708 111.203C311.849 111.734 312.333 112.094 312.865 112.094C312.964 112.094 313.063 112.083 313.167 112.057C335.234 106.281 349.844 87.3803 347.146 68.0782ZM349.708 90.9897C349.922 90.3699 349.589 89.6876 348.964 89.474C348.339 89.2605 347.662 89.5938 347.448 90.2188C345.297 96.4844 336.844 105.51 328.979 109.932C328.406 110.255 328.203 110.979 328.526 111.557C328.745 111.948 329.151 112.167 329.568 112.167C329.766 112.167 329.964 112.115 330.151 112.01C338.443 107.354 347.396 97.724 349.708 90.9897ZM351.75 99.7969C351.203 99.4324 350.458 99.573 350.089 100.12C347.557 103.891 344.448 107.224 340.844 110.031C340.323 110.432 340.229 111.188 340.636 111.703C340.87 112.01 341.224 112.167 341.578 112.167C341.833 112.167 342.089 112.083 342.307 111.917C346.115 108.948 349.401 105.432 352.073 101.453C352.443 100.906 352.297 100.167 351.75 99.7969ZM356.62 105.193C356.073 104.823 355.333 104.969 354.964 105.516C353.818 107.219 352.745 108.651 351.224 110.109C350.75 110.568 350.734 111.323 351.188 111.797C351.427 112.042 351.74 112.167 352.052 112.167C352.349 112.167 352.646 112.057 352.875 111.833C354.552 110.229 355.714 108.677 356.943 106.844C357.313 106.297 357.167 105.557 356.62 105.193ZM130.526 104.422L130.688 104.412C131.333 104.323 137.052 103.51 139.224 102.578C139.833 102.318 140.115 101.615 139.854 101.01C139.594 100.406 138.891 100.125 138.287 100.385C136.693 101.068 132.026 101.813 130.359 102.047C129.708 102.135 129.25 102.74 129.344 103.391C129.427 103.99 129.938 104.422 130.526 104.422ZM510.276 100.385C508.682 101.068 504.016 101.813 502.354 102.047C501.698 102.135 501.24 102.74 501.333 103.391C501.417 103.99 501.927 104.422 502.516 104.422L502.677 104.412C503.323 104.323 509.037 103.51 511.214 102.578C511.818 102.318 512.099 101.615 511.839 101.01C511.583 100.406 510.88 100.125 510.276 100.385ZM0.515706 89.2188V89.2136C0.500081 89.198 0.484456 89.1719 0.463623 89.1563C0.458415 89.1511 0.447999 89.1459 0.44279 89.1407C0.343831 89.0365 0.229248 88.9532 0.104248 88.8907C0.0938307 88.8907 0.093831 88.8855 0.088623 88.8855V98.8751C0.427164 98.5261 0.760497 98.1615 1.05737 97.7449C3.573 94.2657 1.83341 90.6824 0.515706 89.2188ZM8.03654 87.3647C6.00008 84.4428 3.07821 82.7917 0.088623 82.6355V84.9949C2.52092 85.1667 4.698 86.7449 6.07821 88.724C8.42196 92.0834 8.96362 97.099 4.90112 100.729C4.573 101.021 4.43237 101.469 4.53133 101.891C5.20841 104.781 3.81258 108.615 0.375081 109.766C0.270915 109.802 0.177164 109.854 0.088623 109.912V111.885C0.281332 112.016 0.510497 112.094 0.750081 112.094C0.875081 112.094 1.00529 112.073 1.13029 112.031C5.63029 110.521 7.56779 105.912 6.98966 102.037C11.5626 97.4897 10.7865 91.3074 8.03654 87.3647ZM742.068 13.6772C742.151 13.6615 742.229 13.6407 742.307 13.6094C742.318 13.6094 742.328 13.6042 742.339 13.599C749.266 11.8334 756.417 10.9428 763.823 10.9428V8.55736C756.182 8.55736 748.797 9.47403 741.662 11.3022C728.787 10.8855 716.974 14.1459 705.505 21.5209C692.698 19.0209 674.37 34.8907 655.104 65.2032C636.802 94.0001 624.854 107.76 616.401 109.76C614.458 109.479 611.125 108.516 609.255 105.229C607.026 101.323 607.568 95.2553 610.823 87.6772C613.797 80.7449 613.63 73.6615 610.386 68.7344C608.333 65.6199 605.271 63.8282 601.984 63.8074C601.182 63.7397 600.141 63.7917 599.031 64.0209C604.359 46.2969 598.62 36.7657 594.609 32.599C589.037 26.8178 580.339 24.4063 572.974 26.5938C567.828 28.1251 564.365 31.6824 563.479 36.3178C563.005 38.4167 563.281 42.8751 567.672 44.7397C570.953 46.1251 574.026 44.5574 575.365 42.2865C576.313 40.6876 576.25 38.948 575.307 37.6459C575.74 37.2292 576.464 36.8386 577.375 36.698C578.406 36.5313 580.412 36.6042 582.219 38.849C584.589 41.7917 585.224 46.1199 583.844 49.8751C582.261 54.198 578.365 57.1563 572.88 58.2084C562.125 60.2657 554.787 50.6719 547.016 40.5157C542.615 34.7657 538.063 28.8178 532.698 24.8334C523.287 17.8386 507.057 16.0522 494.948 20.6667C487.391 23.5469 482.5 28.6459 481.188 35.0105C480.719 37.1094 480.984 41.5678 485.38 43.4324C488.656 44.8178 491.734 43.2501 493.073 40.9792C493.953 39.4897 493.974 37.8699 493.214 36.6042C503.943 28.323 516.537 31.4115 524.448 38.3438C531.964 44.9324 537.651 57.2917 530.031 71.099C528.589 68.2657 525.328 63.5105 518.906 60.9532C512.255 58.3074 504.406 59.0053 498.917 62.7292C495.078 65.3386 492.964 68.9897 492.964 73.0105C492.964 76.9688 496.188 80.1928 500.146 80.1928C503.886 80.1928 506.964 77.323 507.297 73.6719C510.651 71.4897 514.599 73.1042 516.708 75.8647C519.24 79.1719 519.859 84.8334 513.266 89.9063C510.771 91.8282 508 93.297 505.047 94.2917C490.745 98.6615 482.875 85.5678 471.979 67.448C457.037 42.5938 436.578 8.55736 386.063 8.55736H369.849C362.214 8.55736 354.839 9.47403 347.698 11.3022C323.422 10.5105 302.938 22.7917 281.365 51.099C279.172 53.974 276.906 57.1511 274.505 60.5105C273.318 62.1719 272.099 63.8751 270.859 65.5938C268 62.2136 263.886 60.2605 259.932 59.7813C253.719 59.0209 246.547 61.8855 244.526 70.0261C244.057 72.1251 244.328 76.5834 248.719 78.448C252 79.8334 255.073 78.2657 256.417 75.9949C257.193 74.6824 257.287 73.2709 256.776 72.0834C257.698 71.974 258.615 72.224 259.443 72.8386C260.469 73.599 261.469 75.0313 262.052 77.1355C253.182 87.948 239.568 101.745 222.406 100.328C221.125 98.8074 220.078 97.0365 219.349 95.0626C215.787 85.4115 220.266 74.0157 231.318 64.5834C234.766 61.6355 246.063 51.1355 246.552 39.5469C246.75 34.9219 245.172 30.8022 241.859 27.2917C241.615 17.599 234.167 12.2761 227.24 11.4324C221.031 10.6719 213.859 13.5365 211.839 21.6772C211.365 23.7761 211.641 28.2397 216.026 30.099C219.313 31.4844 222.386 29.9167 223.724 27.6459C224.615 26.1407 224.62 24.5053 223.833 23.2344C223.969 23.1772 224.12 23.1251 224.292 23.099C225.031 22.9688 225.844 23.2397 226.693 23.8907C228.349 25.1511 229.531 28.6824 228.636 32.4011C228.094 34.6824 226.302 38.6772 220.448 39.7605C213.401 41.0574 207.891 37.0261 206.047 29.2397C205.563 27.198 200.922 9.10944 187.083 3.15111C177.516 -0.963474 166.495 -1.05722 159.016 2.91153C154.724 5.19278 152.031 8.5834 151.255 12.6824C150.677 15.2449 151.005 20.6876 156.359 22.9584C160.333 24.6407 164.052 22.7397 165.677 19.9949C166.797 18.099 166.766 16.099 165.698 14.5678C169.089 12.1563 174.245 12.1772 179.219 14.7188C185.297 17.8282 191.818 25.3907 191.052 36.7292C185.146 33.5313 178.542 32.3699 173.859 33.948C169.807 30.2709 162.636 29.2605 155.698 31.4636C148.88 33.6251 144.318 38.2449 143.479 43.8282C142.917 46.4063 143.271 51.8022 148.594 54.0574C152.568 55.7397 156.292 53.8386 157.912 51.0886C158.88 49.4532 158.979 47.7449 158.313 46.323C158.813 46.4115 159.344 46.6303 159.823 46.9844C160.365 47.3803 162.078 48.8803 161.333 51.6667C160.761 54.2292 161.089 59.6719 166.443 61.9428C170.417 63.6251 174.141 61.724 175.761 58.974C176.828 57.1719 176.865 55.2709 175.948 53.7761C176.432 53.6667 176.995 53.6511 177.599 53.7292C179.583 53.9949 181.417 55.2032 182.511 56.9584C185.511 61.7657 185.234 70.5209 181.844 78.2501C179.547 83.4949 173.99 92.3334 161.995 95.8438C163.807 93.2084 165.063 90.4324 165.755 87.6667C167.37 81.1667 165.583 75.5574 161.078 72.9011C160.38 71.0365 157.318 64.2032 149.146 60.9532C142.495 58.3074 134.646 59.0053 129.156 62.7292C125.318 65.3386 123.203 68.9897 123.203 73.0105C123.203 76.9688 126.422 80.1928 130.386 80.1928C134.12 80.1928 137.198 77.323 137.531 73.6719C140.891 71.4897 144.833 73.1042 146.948 75.8647C149.479 79.1719 150.094 84.8334 143.505 89.9063C141.005 91.8334 138.229 93.2969 135.271 94.2969C120.984 98.6511 113.109 85.5626 102.219 67.448C87.2761 42.599 66.8178 8.55736 16.3022 8.55736H0.088623V10.9428C57.6772 10.9428 76.4688 42.5626 91.5678 67.974C97.0834 77.2501 102.167 85.8022 108.542 91.4324C101.136 87.5522 94.4584 81.2761 89.3855 73.224C64.8126 34.2188 45.1824 15.6563 0.088623 15.6563V18.0417C44.3334 18.0417 62.7709 35.4584 87.3647 74.4949C95.2501 87.0157 106.891 95.4636 119.297 97.6772C121.427 98.0522 123.542 98.2397 125.62 98.2397C132.75 98.2397 139.458 96.0365 144.964 91.7969C152.432 86.0469 152.292 78.9272 148.844 74.4167C145.969 70.6615 140.443 68.5574 135.797 71.9688C135.755 72.0001 135.708 72.0261 135.667 72.0574C135.651 72.0678 135.641 72.0834 135.625 72.0938C135.583 72.1355 135.537 72.1719 135.5 72.2136C135.49 72.224 135.484 72.2344 135.474 72.2501C135.297 72.4532 135.182 72.7136 135.182 73.0105C135.182 75.6511 133.031 77.8022 130.386 77.8022C127.74 77.8022 125.589 75.6511 125.589 73.0105C125.589 69.8022 127.333 66.8542 130.495 64.7032C135.349 61.4115 142.328 60.8074 148.261 63.1719C156.484 66.4376 158.943 74.0053 158.964 74.0782C159.057 74.3751 159.266 74.6303 159.547 74.7761C163.333 76.7917 164.828 81.5105 163.438 87.0938C162.609 90.4272 160.865 93.7709 158.234 96.8334C158.042 96.9584 157.891 97.1303 157.797 97.3386C156.224 99.0886 154.349 100.729 152.182 102.214C151.995 102.281 151.833 102.396 151.708 102.537C148.693 104.531 145.13 106.224 141.026 107.469C141.005 107.474 140.984 107.479 140.964 107.49C136.172 108.932 130.651 109.781 124.396 109.781C98.0053 109.781 83.0418 90.7032 72.9584 74.0834C54.5365 43.724 30.7032 28.9688 0.088623 28.9688V31.3542C29.797 31.3542 52.9688 45.7344 70.9168 75.3178C78.7605 88.2449 89.4845 102.604 106.089 108.901C89.599 113.276 77.4376 97.8751 62.3907 75.948C44.3907 49.7188 25.172 38.0261 0.088623 38.0261V40.4115C24.3022 40.4115 42.9115 51.7917 60.422 77.2969C69.1459 90.0157 78.0574 102.99 88.7188 108.839C75.172 113.162 66.8751 101.354 56.5313 86.6147C44.4376 69.3803 29.3855 47.9376 0.088623 47.9376V50.3282C28.1459 50.3282 42.1876 70.3334 54.5782 87.9844C60.8022 96.8594 66.5574 105.052 73.3647 109.245C59.3699 112.068 51.3907 101.141 42.2345 88.6147C32.3907 75.1303 21.2292 59.849 0.088623 59.849V62.2344C20.0157 62.2344 30.3334 76.3594 40.3074 90.0209C46.1355 97.9949 51.7709 105.703 58.9949 109.552C55.1095 109.969 51.7605 109.146 48.7345 107.464C48.6147 107.401 48.4949 107.328 48.3803 107.26C42.724 103.969 38.1511 97.6876 33.1928 90.849C31.422 88.4115 29.5938 85.8959 27.6563 83.4688C27.6563 83.4688 27.6563 83.4688 27.6563 83.4636C27.6459 83.4584 27.6407 83.448 27.6303 83.4376C20.8074 74.8855 12.5522 67.3178 0.088623 67.3178V69.7084C11.5417 69.7084 19.1147 76.5678 25.6772 84.8074C30.7917 92.5626 29.7292 100.354 27.2605 104.672C25.3178 108.073 22.4011 109.938 19.2397 109.766C16.7917 109.641 15.5574 107.797 15.599 106.037C15.6407 104.573 16.599 103.005 19.1824 103.005C19.474 103.005 19.7605 102.896 19.9792 102.703C22.8959 100.083 23.5261 95.8386 21.698 91.0574C18.7605 83.3751 9.87508 75.4324 0.088623 75.4324V77.8178C8.84383 77.8178 16.8178 84.9844 19.4688 91.9063C20.2917 94.0678 21.2501 98.0001 18.6876 100.635C15.0209 100.854 13.2761 103.505 13.2136 105.979C13.1459 108.818 15.1876 111.953 19.1199 112.151C19.2813 112.162 19.448 112.167 19.6095 112.167C23.2605 112.167 26.698 110.063 28.9792 106.438C31.8751 110.162 35.6511 112.083 39.797 112.083C42.4115 112.083 45.1667 111.307 47.9376 109.76C50.6511 111.214 53.6199 112.063 56.9636 112.063C58.8438 112.063 60.8438 111.781 62.9845 111.214C64.8647 111.781 66.8595 112.099 68.9897 112.099C71.3438 112.099 73.8647 111.703 76.5782 110.88C78.6511 111.714 80.8282 112.177 83.1511 112.177C85.797 112.177 88.6303 111.573 91.7084 110.271C94.5105 111.412 97.4376 112.047 100.516 112.047C103.484 112.047 106.594 111.448 109.865 110.162C114.302 111.443 119.125 112.167 124.396 112.167C130.802 112.167 136.484 111.307 141.438 109.833C144.995 110.625 150.115 111.156 154.333 111.156C172.401 111.156 187.287 101.807 195.177 85.5157C195.464 84.9219 195.214 84.2084 194.62 83.9219C194.026 83.6355 193.313 83.8855 193.026 84.474C185.552 99.9167 171.448 108.771 154.333 108.771C151.761 108.771 148.761 108.557 146.052 108.203C148.604 107.146 150.932 105.906 153.005 104.526C153.479 104.542 153.948 104.557 154.406 104.557C168.599 104.557 177.599 97.9845 182.714 92.3334C191.651 82.4636 194.432 69.3126 193.224 60.6563C193.136 60.0001 192.526 59.5469 191.875 59.6355C191.224 59.7292 190.771 60.3282 190.859 60.9844C191.995 69.0938 189.365 81.4376 180.948 90.7344C176.386 95.7709 168.495 101.583 156.24 102.115C157.458 101.094 158.578 100.021 159.578 98.9063C174.651 95.8647 181.365 85.2917 184.031 79.2084C187.776 70.6667 187.979 61.2188 184.537 55.698C183.073 53.3438 180.599 51.724 177.917 51.3647C176.031 51.1094 174.328 51.5365 173.24 52.5417C172.984 52.7761 172.844 53.1147 172.854 53.4636C172.87 53.8178 173.037 54.1407 173.313 54.3594C174.833 55.5574 174 57.2657 173.708 57.7605C172.615 59.6147 170.083 60.8907 167.37 59.7397C162.531 57.6928 163.615 52.4115 163.651 52.2397C164.547 48.8959 162.99 46.3386 161.229 45.0574C159.422 43.7397 157.261 43.5209 155.677 44.4688C155.651 44.4844 155.62 44.5001 155.594 44.5157C155.583 44.5209 155.568 44.5261 155.557 44.5313C155.464 44.5938 155.38 44.6719 155.307 44.7553C155.297 44.7709 155.276 44.7761 155.266 44.7969C155.255 44.8074 155.255 44.823 155.245 44.8386C155.172 44.9376 155.115 45.0469 155.083 45.1563C155.068 45.1928 155.057 45.2292 155.047 45.2657C155.021 45.3803 155.016 45.4949 155.021 45.6094C155.021 45.6459 155.026 45.6772 155.031 45.7136C155.047 45.8334 155.089 45.948 155.141 46.0522C155.156 46.0834 155.167 46.1147 155.182 46.1407C155.193 46.1563 155.198 46.1719 155.203 46.1824C155.271 46.2865 155.349 46.3647 155.438 46.4376C155.448 46.448 155.453 46.4584 155.464 46.474C156.99 47.6719 156.151 49.3803 155.859 49.8751C154.761 51.7292 152.234 53.0053 149.526 51.8542C144.682 49.8074 145.771 44.5261 145.818 44.3022L145.833 44.2188C146.516 39.5417 150.474 35.6199 156.417 33.7397C162.745 31.7292 169.448 32.724 172.708 36.1511C173.047 36.5105 173.578 36.6251 174.037 36.4324C178.636 34.4897 187.656 36.099 194.781 42.1355C199.865 46.448 207.75 56.3699 203.448 74.3907C203.292 75.0313 203.688 75.6772 204.328 75.8282C204.422 75.849 204.516 75.8647 204.609 75.8647C205.146 75.8647 205.636 75.4949 205.771 74.9428C210.37 55.6876 201.828 44.9844 196.323 40.3178C195.37 39.5105 194.365 38.7709 193.328 38.0886C194.74 24.9376 187.261 16.1511 180.307 12.599C173.953 9.34382 167.219 9.72923 163.146 13.5678C163.125 13.5886 163.12 13.6199 163.099 13.6407C163.078 13.6615 163.047 13.6719 163.026 13.698C162.995 13.7397 162.99 13.7865 162.958 13.8334C162.922 13.9011 162.88 13.9688 162.854 14.0417C162.828 14.1147 162.818 14.1928 162.807 14.2657C162.792 14.3386 162.787 14.4115 162.787 14.4844C162.792 14.5626 162.807 14.6407 162.828 14.7188C162.844 14.7865 162.865 14.8542 162.896 14.9219C162.927 14.9949 162.974 15.0678 163.026 15.1303C163.052 15.1719 163.068 15.2188 163.099 15.2501C163.12 15.2761 163.146 15.2813 163.167 15.3022C163.193 15.3282 163.203 15.3542 163.229 15.3699C164.755 16.573 163.917 18.2813 163.625 18.7761C162.526 20.6303 160 21.9063 157.292 20.7605C152.453 18.7084 153.537 13.4272 153.589 13.1719C154.24 9.7709 156.505 6.94798 160.141 5.0209C167.005 1.37507 177.208 1.50528 186.141 5.34382C198.906 10.8386 203.271 27.8647 203.724 29.7917C205.594 37.698 211.005 42.3855 217.901 42.3855C218.87 42.3855 219.865 42.2969 220.88 42.1042C226.13 41.1355 229.802 37.8022 230.958 32.9584C231.974 28.7084 230.766 23.9949 228.141 21.9897C226.261 20.5574 224.63 20.5574 223.594 20.8022C222.323 21.1094 221.417 21.9324 221.094 22.5782L221.089 22.5834C221.083 22.5938 221.078 22.6042 221.073 22.6094C220.813 23.1667 221.005 23.823 221.511 24.1459C222.391 24.9428 221.927 26.0001 221.672 26.4324C221.011 27.5469 219.219 28.8542 216.958 27.9011C213.318 26.3594 214.13 22.3647 214.162 22.224C215.938 15.0678 222.156 13.2188 226.953 13.7969C232.984 14.5365 239.479 19.2292 239.479 27.7813C239.479 28.0938 239.599 28.3959 239.823 28.6147C242.88 31.7136 244.344 35.3594 244.167 39.4428C243.807 47.8855 236.495 57.0261 229.771 62.7657C217.922 72.8751 213.188 85.2553 217.109 95.8907C217.995 98.2917 219.281 100.427 220.886 102.234C220.886 102.24 220.886 102.24 220.891 102.24C224.484 106.307 229.646 108.719 235.302 108.719C249.547 108.719 261.672 99.3751 264.386 86.4115C264.386 86.4063 264.386 86.4011 264.386 86.3959C264.427 86.198 264.474 86.0053 264.511 85.8022C265.156 82.3282 265.052 79.4219 264.505 77.0782C264.505 77.0782 264.505 77.0782 264.505 77.073C263.807 74.099 262.386 72.0469 260.865 70.9219C258.875 69.448 256.474 69.2553 254.281 70.3959C253.693 70.7032 253.464 71.4219 253.771 72.0053C253.854 72.1667 253.969 72.2969 254.104 72.4011C255.13 73.2084 254.625 74.3334 254.359 74.7813C253.703 75.8907 251.906 77.2032 249.651 76.2501C246.005 74.7084 246.823 70.7084 246.849 70.573C248.625 63.4167 254.849 61.5626 259.641 62.1511C263.427 62.6094 267.391 64.6303 269.823 68.1876C269.844 68.2136 269.859 68.2449 269.875 68.2813C271.287 70.3751 272.167 72.9844 272.167 76.1251C272.167 76.5626 272.406 76.9636 272.787 77.1719C276.755 79.3386 278.823 84.1615 278.453 90.4115C278.109 96.3178 275.318 103.25 270.495 107.333C270.146 107.63 269.787 107.912 269.417 108.172C268.469 108.849 267.464 109.432 266.38 109.865C265.771 110.109 265.474 110.807 265.719 111.417C265.906 111.88 266.354 112.167 266.828 112.167C266.974 112.167 267.125 112.135 267.276 112.078C268.432 111.615 269.505 111.01 270.505 110.323C270.542 110.302 270.583 110.292 270.615 110.266C270.672 110.219 270.734 110.172 270.797 110.125C271.313 109.755 271.818 109.37 272.297 108.953C279.453 103.318 287.589 95.8282 295.25 83.6719C300.443 75.4324 308.422 63.5417 318.719 53.5261C318.662 53.9376 318.537 54.3751 318.307 54.849C317.516 56.6928 316.953 60.448 319.344 63.3647C315.828 67.4011 312.271 72.0001 308.24 77.7136C305.589 77.9011 303.078 79.1355 301.276 81.3751C300.323 82.6147 299.167 85.5417 301.151 88.1459C300.422 89.2397 299.698 90.3334 298.974 91.4376C294.323 98.4949 287.922 104.479 282.156 109.453C281.583 109.526 281.136 110.005 281.12 110.599C281.115 110.646 281.125 110.693 281.13 110.74C281.125 110.755 281.13 110.771 281.13 110.787C281.125 110.807 281.125 110.823 281.125 110.839C281.125 110.885 281.115 110.932 281.12 110.979C281.125 111.031 281.151 111.073 281.156 111.12C281.172 111.193 281.188 111.266 281.214 111.333C281.245 111.412 281.292 111.49 281.339 111.557C281.365 111.594 281.375 111.641 281.406 111.677C281.427 111.703 281.448 111.719 281.474 111.74C281.495 111.76 281.511 111.776 281.531 111.797C281.63 111.875 281.734 111.948 281.854 112C281.87 112.005 281.886 112.01 281.901 112.016C282.031 112.063 282.167 112.094 282.307 112.094C282.313 112.094 282.313 112.094 282.313 112.094L282.391 112.089C294.052 111.297 304.401 106.052 310.063 98.0574C313.484 93.2344 313.406 89.1407 312.198 86.9272C312.13 86.8022 312.052 86.6928 311.979 86.5782C311.969 86.5626 311.958 86.5522 311.948 86.5365C311.011 85.1147 309.5 84.3386 307.755 84.4219C307.099 84.4584 306.589 85.0105 306.62 85.6719C306.625 85.8542 306.682 86.0209 306.755 86.1719C307.026 86.7136 306.667 87.1147 306.313 87.3594C305.646 87.8178 304.281 88.0886 303.25 86.9428C301.568 85.0938 303.005 83.0469 303.151 82.849C306.151 79.1147 310.719 79.5834 313.693 81.6042C313.839 81.698 313.979 81.8178 314.12 81.9219C314.136 81.9376 314.146 81.9584 314.162 81.9688C314.182 81.9844 314.203 81.9897 314.224 82.0053C318.266 85.1772 320.13 91.8751 315.391 100.245C315.344 100.328 315.313 100.412 315.287 100.5C315.193 100.75 315.177 101.031 315.266 101.302C315.438 101.802 315.901 102.115 316.396 102.115C316.526 102.115 316.651 102.094 316.781 102.052C328.99 97.9219 334.667 90.3959 337.271 84.8126C338.052 83.1459 338.646 81.4688 339.089 79.8126C339.089 79.8074 339.094 79.7969 339.094 79.7865C340.13 75.9115 340.307 72.1511 339.995 68.8855C340.016 68.7292 339.995 68.5626 339.948 68.4011C339.688 66.073 339.172 64.0053 338.537 62.3699C337.615 59.9949 335.656 58.1042 333.297 57.3178C331.63 56.7657 330 56.8647 328.833 57.5938C328.537 57.7761 328.333 58.0834 328.281 58.4272C328.229 58.7761 328.333 59.1251 328.563 59.3855C329.636 60.6147 328.766 61.8699 328.339 62.349C327.078 63.7813 324.667 64.4792 322.495 63.0261C318.599 60.4324 320.422 55.9792 320.479 55.8386C321.412 53.9115 321.276 52.1094 320.677 50.6876C320.667 50.6772 320.667 50.6667 320.662 50.6563C320.365 49.9688 319.964 49.3751 319.516 48.8959C318.094 47.3855 316.162 46.8178 314.547 47.4063C314.516 47.4219 314.49 47.4219 314.464 47.4324C314.448 47.4376 314.432 47.4376 314.422 47.448C314.313 47.4897 314.219 47.5522 314.13 47.6199C314.12 47.6355 314.099 47.6355 314.083 47.6511C314.073 47.6615 314.068 47.6719 314.057 47.6824C313.964 47.7709 313.891 47.8699 313.833 47.974C313.818 48.0053 313.797 48.0365 313.787 48.0678C313.734 48.1772 313.703 48.2917 313.693 48.4063C313.688 48.4428 313.682 48.474 313.682 48.5053C313.677 48.6251 313.693 48.7449 313.724 48.8594C313.734 48.8959 313.74 48.9272 313.75 48.9584C313.761 48.974 313.761 48.9897 313.766 49.0001C313.813 49.1147 313.875 49.2084 313.948 49.2969C313.958 49.3074 313.958 49.323 313.969 49.3334C315.037 50.5626 314.167 51.8126 313.745 52.2969C312.484 53.7292 310.073 54.4219 307.901 52.974C306.021 51.7188 305.474 50.0365 305.422 48.6042C305.417 48.5626 305.417 48.5209 305.412 48.4792C305.386 47.0053 305.865 45.8334 305.906 45.7397L305.938 45.6563C307.328 41.6407 311.484 38.8386 317.068 38.1667C322.594 37.5001 327.953 39.1772 330.542 42.2917C330.573 42.3386 330.609 42.3699 330.646 42.4115C330.807 42.6094 330.953 42.8178 331.089 43.0261C331.359 43.4428 331.859 43.6511 332.344 43.5469C336.63 42.6251 343.016 45.5105 347.875 50.5626C351.734 54.573 360.198 65.9324 355.406 84.698C353.078 93.823 356.307 98.9792 360.109 100.755C361.255 101.292 362.458 101.547 363.651 101.547C366.37 101.547 369.047 100.203 370.818 97.7449C373.333 94.2657 371.594 90.6824 370.281 89.2188L370.276 89.2136C370.261 89.198 370.24 89.1719 370.229 89.1563C370.219 89.1511 370.208 89.1459 370.203 89.1407C370.104 89.0365 369.99 88.9532 369.865 88.8959C369.849 88.8855 369.833 88.8803 369.813 88.8751C369.708 88.8282 369.599 88.7917 369.474 88.7813C369.458 88.7813 369.443 88.7813 369.422 88.7813C369.406 88.7813 369.386 88.7813 369.375 88.7813C369.24 88.7813 369.104 88.7969 368.974 88.8386C368.953 88.849 368.943 88.8542 368.922 88.8647C368.792 88.9115 368.672 88.9792 368.568 89.0782C368.563 89.0782 368.552 89.0834 368.547 89.0886C368.542 89.0938 368.537 89.1042 368.526 89.1147C368.422 89.2188 368.339 89.3334 368.281 89.4584C368.271 89.4688 368.266 89.4792 368.266 89.4897C368.214 89.599 368.177 89.7136 368.167 89.8386C368.068 90.7397 367.339 90.9167 367.026 90.9532C366.245 91.0417 365.271 90.5834 364.859 89.3751C364.094 87.1303 366.109 85.8959 366.313 85.7761C370.073 83.7761 373.813 85.8178 375.839 88.724C378.182 92.0834 378.724 97.099 374.662 100.729C374.339 101.021 374.198 101.469 374.297 101.891C374.984 104.844 373.615 108.599 370.136 109.766C369.511 109.979 369.172 110.656 369.38 111.281C369.547 111.776 370.016 112.094 370.516 112.094C370.641 112.094 370.766 112.073 370.896 112.031C375.391 110.521 377.328 105.912 376.75 102.037C381.328 97.4897 380.552 91.3074 377.797 87.3594C374.682 82.8959 369.5 81.3751 365.172 83.6824C363.781 84.4532 361.458 86.8022 362.599 90.1459C363.438 92.5938 365.615 93.5157 367.292 93.323C368.125 93.2292 368.849 92.8855 369.406 92.3699C369.807 93.4115 369.958 94.8594 368.88 96.349C367.016 98.9376 363.823 99.8594 361.12 98.5938C358.188 97.2188 355.75 93.0001 357.719 85.2917C358.141 83.6355 358.453 82.0417 358.693 80.5001C361.734 78.7032 365.386 77.8178 369.849 77.8178C378.604 77.8178 386.578 84.9844 389.229 91.9063C390.052 94.0678 391.011 98.0001 388.448 100.635C384.781 100.854 383.042 103.505 382.974 105.979C382.901 108.818 384.953 111.953 388.886 112.151C389.047 112.162 389.208 112.167 389.37 112.167C393.021 112.167 396.458 110.063 398.74 106.438C401.636 110.162 405.417 112.083 409.557 112.083C412.167 112.083 414.927 111.307 417.698 109.76C420.412 111.214 423.38 112.063 426.729 112.063C428.604 112.063 430.604 111.781 432.74 111.208C434.63 111.781 436.62 112.099 438.75 112.099C441.099 112.099 443.63 111.703 446.344 110.88C448.412 111.714 450.589 112.177 452.917 112.177C455.557 112.177 458.396 111.573 461.469 110.271C464.271 111.412 467.198 112.047 470.276 112.047C473.245 112.047 476.354 111.448 479.625 110.162C484.063 111.443 488.886 112.167 494.156 112.167C505.729 112.167 514.953 109.385 521.776 105.162C538.234 95.8022 548.844 79.8126 550.844 67.7344C550.953 67.0834 550.511 66.4688 549.865 66.3594C549.214 66.2449 548.594 66.6928 548.49 67.3438C547.146 75.4636 541.688 85.4428 533.052 93.7709C534.177 91.7709 535.005 89.7188 535.516 87.6667C536.109 85.2865 536.24 83.0209 535.953 80.9844C540.365 75.1772 545.047 65.4792 544.162 56.5209C544.094 55.8647 543.5 55.4011 542.854 55.4532C542.198 55.5209 541.719 56.1042 541.787 56.7605C542.526 64.2865 538.943 72.474 535.167 77.9949C534.396 76.0834 533.162 74.4897 531.5 73.3334C540.13 58.8282 535.068 44.4792 526.016 36.5522C517.396 28.9949 502.682 25.4532 490.74 35.5313C490.703 35.5626 490.688 35.6042 490.651 35.6407C490.625 35.6667 490.594 35.6772 490.568 35.7136C490.547 35.7397 490.537 35.7761 490.521 35.8074C490.474 35.8803 490.438 35.9532 490.406 36.0261C490.38 36.099 490.359 36.1719 490.344 36.2449C490.333 36.3178 490.333 36.3855 490.333 36.4532C490.333 36.5365 490.339 36.6199 490.359 36.7084C490.37 36.7657 490.391 36.823 490.412 36.8803C490.448 36.9688 490.495 37.0522 490.552 37.1355C490.573 37.1615 490.573 37.1876 490.594 37.2136C490.62 37.2397 490.646 37.2449 490.667 37.2709C490.703 37.3074 490.724 37.3542 490.766 37.3855C491.787 38.1928 491.287 39.3178 491.021 39.7657C490.365 40.8751 488.563 42.1876 486.307 41.2292C482.667 39.6876 483.479 35.6928 483.521 35.5105C484.99 28.3959 491.005 24.724 495.797 22.8959C507.026 18.6199 522.604 20.3126 531.271 26.7501C536.37 30.5365 540.818 36.349 545.12 41.9688C552.245 51.2761 559.589 60.8751 569.969 60.8751C571.057 60.8751 572.172 60.7709 573.328 60.5469C581.88 58.9115 584.995 53.6719 586.089 50.6928C587.75 46.1719 586.958 40.9376 584.078 37.3542C582.208 35.0313 579.63 33.9272 577.005 34.3386C575.063 34.6407 573.386 35.7709 572.761 37.1824C572.75 37.198 572.74 37.2136 572.734 37.2344C572.719 37.2605 572.698 37.2917 572.688 37.323C572.677 37.349 572.677 37.3751 572.667 37.4011C572.656 37.4272 572.651 37.4584 572.641 37.4949C572.615 37.6094 572.604 37.7292 572.615 37.849C572.62 37.8803 572.625 37.9167 572.63 37.9532C572.646 38.0678 572.682 38.1719 572.734 38.2761C572.75 38.3126 572.771 38.349 572.792 38.3803C572.854 38.4792 572.927 38.5678 573.021 38.6459C573.037 38.6615 573.042 38.6824 573.057 38.6928C574.078 39.5001 573.578 40.6251 573.313 41.073C572.651 42.1876 570.859 43.4949 568.604 42.5417C564.958 41.0001 565.771 37.0001 565.813 36.8022C566.537 33.0365 569.391 30.1511 573.651 28.8803C579.094 27.2657 587.151 28.3022 592.891 34.2605C599.391 41.0001 600.557 51.9219 596.208 65.0313C594.276 66.0574 592.511 67.8282 591.698 70.7449C591.011 73.2084 591.469 75.4324 592.542 77.1719C588.844 87.599 578.833 102.104 565.188 109.938C564.698 110.214 564.474 110.792 564.641 111.323C564.797 111.828 565.261 112.167 565.781 112.167L565.875 112.162C578.625 111.151 597.25 99.6928 599.802 80.7397C601.099 80.448 602.219 79.6667 602.969 78.4063C603.307 77.8386 603.12 77.1094 602.557 76.7709C601.99 76.4324 601.255 76.6199 600.917 77.1876C600.359 78.1199 599.583 78.4324 598.859 78.474C598.771 78.4792 598.682 78.4844 598.594 78.4792C597.948 78.4636 597.386 78.2605 597.12 78.1459C596.302 77.7969 595.547 77.2188 594.958 76.474C594.875 76.3647 594.792 76.2501 594.714 76.1303C593.87 74.8803 593.484 73.224 593.995 71.3855C595.573 65.724 601.573 66.1667 601.823 66.1928H601.932C604.422 66.1928 606.781 67.599 608.396 70.0469C611.198 74.3022 611.287 80.5417 608.63 86.7397C605.021 95.1459 604.531 101.766 607.182 106.412C608.984 109.589 612.208 111.625 616.266 112.156C617.073 112.26 617.891 112.313 618.714 112.313C631.068 112.313 644.568 100.724 653.422 89.3386C657.62 83.9428 668.13 72.2865 679.813 73.3334C679.927 73.3699 680.047 73.3907 680.167 73.3907C680.208 73.3907 680.245 73.3751 680.281 73.3751C681.089 73.4688 681.901 73.6251 682.714 73.849C687.583 75.1928 688.823 78.8334 688.359 81.7969C688.031 83.9115 686.708 86.1042 684.745 86.8594C684.641 86.9011 684.537 86.9324 684.427 86.9636C684.005 87.0886 683.557 87.1511 683.083 87.1303C681.448 87.0678 680.583 86.3022 680.125 85.6094C680.078 85.4636 680 85.3282 679.896 85.2032C679.401 84.1928 679.427 83.0626 679.734 82.4688C679.896 82.1563 679.912 81.7865 679.776 81.4584C679.636 81.1355 679.359 80.8855 679.021 80.7813C672.672 78.8594 666.734 85.8334 659.859 93.9063C654.979 99.6355 649.448 106.125 643.208 109.953C642.646 110.302 642.469 111.037 642.818 111.594C643.162 112.162 643.896 112.333 644.458 111.99C651.021 107.964 656.677 101.318 661.677 95.4532C667.505 88.6042 672.604 82.6251 677.167 82.8647C677.042 83.8334 677.193 84.8907 677.583 85.8647C676.25 87.6615 674.88 89.3751 673.542 91.0209L672.375 92.474C672.021 92.9115 671.662 93.3647 671.281 93.8386C666.958 99.2917 661.031 106.755 652.495 109.849C651.875 110.073 651.557 110.76 651.781 111.38C651.958 111.865 652.412 112.167 652.901 112.167C653.037 112.167 653.172 112.141 653.307 112.094C662.484 108.771 668.651 101 673.151 95.323C673.526 94.8542 673.886 94.4011 674.234 93.9688L675.401 92.5209C676.589 91.0522 677.807 89.5469 679.011 87.9532C679.912 88.7917 681.078 89.3074 682.427 89.4636C676.344 97.9324 669.865 104.854 663.13 110.026C662.609 110.427 662.511 111.172 662.912 111.698C663.146 112.005 663.495 112.167 663.859 112.167C664.109 112.167 664.365 112.083 664.583 111.917C671.984 106.24 679.073 98.5469 685.656 89.0522C688.219 88.0261 690.214 85.4324 690.719 82.1615C690.771 81.8386 690.797 81.5001 690.813 81.1615C698.318 69.5209 705.318 60.6719 712.688 53.5157C712.63 53.9324 712.505 54.3699 712.276 54.849C711.479 56.6928 710.922 60.448 713.313 63.3647C709.797 67.4011 706.234 72.0001 702.208 77.7136C699.552 77.8959 697.047 79.1355 695.24 81.3751C694.292 82.6147 693.13 85.5417 695.12 88.1459C694.391 89.2397 693.667 90.3334 692.943 91.4376C687.745 99.323 680.182 105.969 676.109 109.474C675.547 109.552 675.104 110.01 675.089 110.599C675.083 110.646 675.094 110.693 675.099 110.74C675.094 110.755 675.099 110.771 675.099 110.787C675.094 110.802 675.094 110.823 675.094 110.844C675.094 110.885 675.083 110.932 675.089 110.979C675.094 111.026 675.12 111.068 675.125 111.12C675.136 111.193 675.156 111.266 675.182 111.333C675.214 111.417 675.261 111.49 675.307 111.563C675.333 111.594 675.344 111.641 675.37 111.677C675.391 111.698 675.417 111.714 675.443 111.74C675.458 111.76 675.479 111.776 675.5 111.797C675.599 111.875 675.703 111.948 675.818 112C675.839 112.005 675.854 112.01 675.87 112.016C676 112.063 676.13 112.094 676.276 112.094C676.281 112.094 676.281 112.094 676.281 112.094L676.359 112.089C688.021 111.297 698.365 106.052 704.031 98.0574C707.453 93.2344 707.375 89.1407 706.162 86.9272C706.099 86.8022 706.016 86.6928 705.943 86.5782C705.938 86.5626 705.927 86.5522 705.917 86.5365C704.979 85.1147 703.49 84.3438 701.724 84.4219C701.068 84.4584 700.557 85.0105 700.589 85.6719C700.594 85.8438 700.641 86.0053 700.714 86.1459C700.719 86.1511 700.719 86.1615 700.724 86.1719C701 86.7136 700.636 87.1147 700.281 87.3594C699.615 87.8178 698.25 88.0886 697.219 86.9428C695.537 85.0886 696.974 83.0469 697.12 82.849C700.12 79.1147 704.693 79.5834 707.662 81.6042C707.807 81.698 707.943 81.8126 708.083 81.9219C708.099 81.9376 708.109 81.9532 708.13 81.9688C708.151 81.9897 708.172 81.9897 708.198 82.0053C712.234 85.1824 714.094 91.8803 709.359 100.245C709.313 100.328 709.281 100.412 709.255 100.5C709.162 100.75 709.141 101.031 709.234 101.302C709.401 101.802 709.865 102.115 710.365 102.115C710.495 102.115 710.62 102.094 710.75 102.052C722.958 97.9219 728.63 90.4011 731.24 84.8178C732.021 83.1459 732.615 81.474 733.057 79.8126C733.057 79.8022 733.063 79.7917 733.063 79.7761C734.094 75.9063 734.276 72.1511 733.964 68.8855C733.984 68.7292 733.964 68.5626 733.917 68.4011C733.651 66.0678 733.141 64.0053 732.505 62.3699C731.583 59.9949 729.625 58.1042 727.266 57.3178C725.594 56.7657 723.964 56.8647 722.802 57.5938C722.5 57.7761 722.302 58.0834 722.25 58.4272C722.198 58.7761 722.302 59.1251 722.531 59.3855C723.599 60.6147 722.729 61.8699 722.307 62.349C721.047 63.7813 718.641 64.4792 716.464 63.0261C712.568 60.4324 714.391 55.9792 714.448 55.8386C715.38 53.9115 715.245 52.1094 714.646 50.6876C714.636 50.6772 714.63 50.6667 714.625 50.6563C714.328 49.9688 713.927 49.3751 713.484 48.8959C712.063 47.3855 710.125 46.8178 708.511 47.4063C708.484 47.4219 708.453 47.4219 708.427 47.4324C708.417 47.4376 708.401 47.4376 708.386 47.448C708.281 47.4897 708.188 47.5522 708.099 47.6199C708.083 47.6355 708.068 47.6355 708.052 47.6511C708.042 47.6615 708.037 47.6719 708.026 47.6824C707.932 47.7709 707.859 47.8699 707.797 47.9792C707.781 48.0053 707.766 48.0313 707.75 48.0678C707.703 48.1719 707.672 48.2917 707.656 48.4115C707.656 48.4428 707.651 48.474 707.651 48.5053C707.646 48.6251 707.662 48.7449 707.693 48.8699C707.703 48.8959 707.708 48.9272 707.719 48.9532C707.724 48.9688 707.724 48.9897 707.734 49.0001C707.781 49.1147 707.844 49.2136 707.917 49.3022C707.927 49.3126 707.927 49.323 707.938 49.3334C709.005 50.5626 708.136 51.8126 707.714 52.2969C706.453 53.7292 704.042 54.4219 701.87 52.974C699.99 51.7188 699.443 50.0365 699.391 48.6042C699.386 48.5626 699.38 48.5209 699.38 48.4792C699.354 47.0053 699.833 45.8334 699.875 45.7397L699.906 45.6563C701.297 41.6407 705.453 38.8386 711.037 38.1667C716.557 37.5001 721.922 39.1772 724.511 42.2917C724.542 42.3334 724.578 42.3699 724.609 42.4063C724.771 42.6094 724.922 42.8126 725.057 43.0261C725.328 43.4428 725.823 43.6511 726.313 43.5469C730.599 42.6251 736.984 45.5105 741.844 50.5626C745.703 54.573 754.162 65.9324 749.37 84.698C747.047 93.823 750.276 98.974 754.078 100.755C755.219 101.292 756.422 101.547 757.615 101.547C759.891 101.547 762.115 100.604 763.823 98.8751V88.8855C763.807 88.8803 763.792 88.8803 763.781 88.8751C763.677 88.8282 763.568 88.7917 763.448 88.7813C763.422 88.7813 763.406 88.7813 763.386 88.7813C763.37 88.7813 763.354 88.7813 763.344 88.7813C763.208 88.7813 763.073 88.7969 762.943 88.8386C762.922 88.849 762.906 88.8594 762.886 88.8647C762.755 88.9167 762.646 88.9844 762.542 89.073C762.537 89.0782 762.526 89.0782 762.516 89.0886C762.5 89.099 762.5 89.1094 762.495 89.1199C762.391 89.2188 762.307 89.3334 762.25 89.4532C762.24 89.4688 762.24 89.4792 762.234 89.4949C762.182 89.599 762.141 89.7136 762.125 89.8386C762.042 90.7397 761.307 90.9167 761 90.9532C760.219 91.0365 759.24 90.5886 758.823 89.3751C758.063 87.1303 760.078 85.8959 760.281 85.7761C761.484 85.1355 762.672 84.9115 763.823 84.9949V82.6355C762.234 82.5574 760.641 82.8803 759.141 83.6824C757.75 84.4532 755.427 86.8022 756.563 90.1459C757.406 92.5938 759.583 93.5157 761.261 93.323C762.089 93.2344 762.818 92.8855 763.38 92.3699C763.776 93.4167 763.927 94.8594 762.849 96.349C760.984 98.9376 757.792 99.8594 755.089 98.5938C752.156 97.2188 749.714 93.0001 751.682 85.2917C752.109 83.6355 752.427 82.0417 752.662 80.5001C755.703 78.7032 759.354 77.8178 763.823 77.8178V75.4324C759.641 75.4324 756.094 76.1563 753.016 77.6147C753.193 75.6199 753.234 73.7188 753.151 71.9167C756.714 70.4011 760.042 69.7084 763.823 69.7084V67.3178C759.958 67.3178 756.542 67.974 752.948 69.4063C752.703 67.2397 752.287 65.224 751.766 63.3699C755.698 62.6303 759.74 62.2344 763.823 62.2344V59.849C759.495 59.849 755.198 60.2761 751.026 61.0834C749.761 57.5574 748.109 54.7084 746.547 52.5209C752.136 51.0678 757.927 50.3282 763.823 50.3282V47.9376C757.38 47.9376 751.047 48.7969 744.969 50.474C744.464 49.8699 743.99 49.349 743.568 48.9063C742.339 47.6303 741.026 46.4949 739.672 45.4949C747.115 42.0782 755.037 40.4115 763.823 40.4115V38.0261C754.162 38.0261 745.505 39.9688 737.359 43.9532C734.448 42.224 731.458 41.198 728.766 41.0261C739.563 34.6094 751.339 31.3542 763.823 31.3542V28.9688C750.193 28.9688 737.391 32.7188 725.734 40.0938C724.823 39.1667 723.724 38.3699 722.479 37.7136C735.255 29.099 749.146 24.7292 763.823 24.7292V22.3438C748.172 22.3438 733.386 27.1459 719.865 36.6094C718.052 36.0209 716.057 35.6876 713.969 35.6459C729.177 23.9636 745.927 18.0417 763.823 18.0417V15.6563C744.297 15.6563 726.109 22.4844 709.761 35.9428C703.766 36.9324 699.287 40.2084 697.667 44.8386C697.318 45.6563 697.021 46.8438 696.995 48.1615C691.453 54.2397 686.167 61.0834 680.844 69.0678C680.422 69.6928 680 70.3074 679.583 70.9272C677.167 70.7761 674.682 71.099 672.172 71.8594C674.224 69.2605 676.318 66.4376 678.511 63.3178C697.568 36.1615 718.516 19.7709 742.068 13.6772ZM93.6147 66.7501C86.0313 53.9844 77.4324 39.5105 63.297 28.1407C53.547 20.2865 42.2501 14.8594 29.1824 11.7397C68.9845 16.8126 86.1407 45.3334 100.172 68.6772C107.484 80.8438 113.781 91.3022 121.886 95.5365C109.5 93.474 102.396 81.5261 93.6147 66.7501ZM30.2084 104.052C31.5053 100.932 32.1511 96.8074 31.3022 92.3074C35.8178 98.5313 40.2136 104.568 45.5574 108.297C39.547 111.099 33.9428 109.573 30.2084 104.052ZM235.302 106.333C231.854 106.333 228.625 105.302 225.906 103.479C227.63 103.714 229.344 103.844 231.052 103.844C241.609 103.844 251.74 99.3647 260.495 90.7553C256.365 100.037 246.552 106.333 235.302 106.333ZM262.167 85.3699C262.156 85.4115 262.146 85.4584 262.136 85.5053C252.776 96.3647 243.141 100.448 234.724 101.297C246.271 97.7136 255.651 88.448 262.537 80.2865C262.615 81.7813 262.516 83.4688 262.167 85.3699ZM308.115 96.6772C304.823 101.328 299.787 104.979 293.792 107.234C299.797 103.037 306.005 96.5105 310.568 89.9688C310.636 91.6615 310.021 93.9897 308.115 96.6772ZM302.99 89.6928C304.594 90.4688 306.406 90.1928 307.667 89.3282C308.511 88.7449 309.016 87.9532 309.177 87.099C309.287 87.1615 309.375 87.2501 309.474 87.3334C303.542 96.2761 294.203 105.448 286.922 108.432C291.891 103.948 297.021 98.7449 300.964 92.7501C301.641 91.7292 302.313 90.7084 302.99 89.6928ZM335.109 83.8022C332.021 90.4167 326.417 95.5313 318.813 98.724C319.396 97.3803 319.823 96.0834 320.109 94.8282C320.188 94.7865 320.271 94.7553 320.339 94.698C321.568 93.6147 322.729 92.5678 323.849 91.5626C327.865 87.948 331.438 84.7553 335.859 82.0365C335.63 82.6251 335.386 83.2188 335.109 83.8022ZM336.917 78.6667C331.182 81.7761 327.026 85.4949 322.255 89.7865C321.708 90.2761 321.156 90.7761 320.589 91.2813C320.667 88.8022 320.188 86.5782 319.302 84.6772C325.203 78.9324 331.396 74.2449 337.74 70.7084C337.833 73.1719 337.604 75.8803 336.917 78.6667ZM331.255 59.349C331.651 59.3542 332.089 59.4324 332.542 59.5886C333.224 59.8126 333.859 60.1772 334.417 60.6303C333.271 61.2032 332.104 61.9219 330.938 62.7449C331.511 61.6303 331.62 60.4428 331.255 59.349ZM335.979 62.5209C336.104 62.7501 336.219 62.9844 336.313 63.2344C336.833 64.5782 337.261 66.2397 337.516 68.1094C330.807 71.7188 324.276 76.5782 318.063 82.5626C317.594 81.9272 317.078 81.3438 316.521 80.8178C319.083 77.5105 328.354 66.0209 335.979 62.5209ZM321.115 64.9688C321.136 64.9844 321.151 65.0001 321.172 65.0157C323.099 66.2969 325.156 66.4636 326.927 65.9428C321.365 70.8594 316.422 77.0313 314.62 79.3699C313.464 78.6511 312.25 78.1719 311.026 77.9115C314.656 72.823 317.906 68.6511 321.115 64.9688ZM316.781 49.7969C317.125 49.9636 317.474 50.2084 317.776 50.5313C317.849 50.6094 317.943 50.724 318.047 50.8647C317.531 51.3542 317.016 51.849 316.505 52.349C316.865 51.5053 316.948 50.6355 316.781 49.7969ZM469.932 68.6772C477.25 80.8438 483.547 91.3022 491.651 95.5365C479.266 93.474 472.162 81.5261 463.38 66.7501C455.792 53.9844 447.193 39.5105 433.063 28.1407C423.307 20.2865 412.011 14.8594 398.948 11.7397C438.75 16.8126 455.901 45.3334 469.932 68.6772ZM274.261 72.948C273.906 70.9584 273.24 69.1824 272.323 67.6407C273.734 65.698 275.109 63.7709 276.448 61.8959C278.833 58.5522 281.089 55.3907 283.261 52.5469C301.724 28.323 319.266 16.099 339.109 13.9844C318.391 21.6615 299.724 37.5365 282.594 61.9428C279.688 66.0782 276.948 69.698 274.261 72.948ZM308.302 55.8074C310.156 56.4324 312.011 56.1876 313.521 55.4167C304.75 64.7449 297.88 75.0209 293.229 82.4011C288.323 90.1876 283.203 96.0105 278.292 100.662C279.313 98.3959 280.037 96.0365 280.448 93.7501C284.328 89.1824 288.281 83.7188 292.531 77.0522C297.729 68.8959 302.896 61.9428 308.302 55.8074ZM306.151 54.6459C300.797 60.7709 295.667 67.6876 290.516 75.7709C287.146 81.0574 283.974 85.5626 280.875 89.4636C280.917 86.974 280.599 84.6876 279.943 82.6667C282.823 79.0886 285.74 75.0678 288.859 70.3855C293.708 63.1199 298.521 56.8178 303.526 51.1824C303.979 52.4219 304.807 53.6303 306.151 54.6459ZM315.792 35.9428C309.802 36.9324 305.318 40.2084 303.698 44.8386C303.349 45.6563 303.052 46.8438 303.026 48.1615C297.49 54.2449 292.198 61.0834 286.875 69.0678C284.083 73.2501 281.458 76.8959 278.88 80.1667C277.917 78.3647 276.62 76.8751 275.016 75.7605C278.089 72.1355 281.219 68.0574 284.547 63.3178C303.604 36.1615 324.547 19.7709 348.099 13.6772C348.182 13.6615 348.266 13.6407 348.339 13.6094C348.349 13.6042 348.359 13.6042 348.375 13.599C355.297 11.8334 362.453 10.9428 369.849 10.9428C427.438 10.9428 446.229 42.5626 461.328 67.974C466.844 77.2501 471.932 85.8022 478.302 91.4324C470.896 87.5522 464.219 81.2761 459.146 73.224C434.573 34.2188 414.943 15.6563 369.849 15.6563C350.328 15.6563 332.141 22.4844 315.792 35.9428ZM397.026 104.672C395.083 108.073 392.156 109.932 389.005 109.766C386.552 109.641 385.318 107.797 385.365 106.037C385.401 104.573 386.359 103.005 388.943 103.005C389.24 103.005 389.521 102.896 389.74 102.703C392.662 100.083 393.287 95.8386 391.458 91.0574C388.521 83.3751 379.636 75.4324 369.849 75.4324C365.672 75.4324 362.125 76.1563 359.047 77.6147C359.224 75.6199 359.266 73.7188 359.182 71.9167C362.745 70.4011 366.073 69.7084 369.849 69.7084C381.302 69.7084 388.875 76.5678 395.443 84.8022C400.552 92.5626 399.49 100.354 397.026 104.672ZM399.969 104.052C401.266 100.932 401.912 96.8074 401.063 92.3074C405.583 98.5313 409.974 104.568 415.318 108.297C409.313 111.099 403.708 109.573 399.969 104.052ZM418.495 107.464C418.386 107.375 418.271 107.307 418.141 107.26C412.49 103.969 407.917 97.6876 402.953 90.849C401.182 88.4115 399.359 85.9011 397.417 83.4688C397.417 83.4688 397.417 83.4688 397.417 83.4636C397.406 83.448 397.396 83.4376 397.386 83.4219C390.563 74.8751 382.307 67.3178 369.849 67.3178C365.99 67.3178 362.578 67.974 358.979 69.4063C358.734 67.2397 358.323 65.224 357.792 63.3699C361.729 62.6303 365.771 62.2344 369.849 62.2344C389.776 62.2344 400.094 76.3594 410.073 90.0209C415.896 97.9949 421.537 105.703 428.755 109.552C424.87 109.969 421.526 109.146 418.495 107.464ZM412 88.6147C402.151 75.1303 390.99 59.849 369.849 59.849C365.526 59.849 361.229 60.2761 357.057 61.0834C355.792 57.5574 354.146 54.7084 352.578 52.5209C358.162 51.0678 363.964 50.3282 369.849 50.3282C397.906 50.3282 411.948 70.3334 424.339 87.9844C430.568 96.8594 436.318 105.052 443.13 109.245C429.13 112.068 421.151 101.141 412 88.6147ZM426.292 86.6147C414.198 69.3803 399.146 47.9376 369.849 47.9376C363.417 47.9376 357.078 48.7969 351 50.474C350.495 49.8699 350.021 49.349 349.599 48.9063C348.37 47.6303 347.057 46.4949 345.703 45.4949C353.151 42.0782 361.068 40.4115 369.849 40.4115C394.068 40.4115 412.677 51.7917 430.182 77.2969C438.912 90.0157 447.823 102.99 458.479 108.839C444.938 113.162 436.636 101.354 426.292 86.6147ZM432.151 75.948C414.151 49.7188 394.938 38.0261 369.849 38.0261C360.193 38.0261 351.537 39.9688 343.391 43.9532C340.484 42.224 337.495 41.198 334.797 41.0261C345.594 34.6094 357.37 31.3542 369.849 31.3542C399.557 31.3542 422.729 45.7344 440.682 75.3178C448.521 88.2449 459.245 102.604 475.849 108.901C459.354 113.276 447.198 97.8751 432.151 75.948ZM533.198 87.0938C531.745 92.9272 527.521 98.7865 520.599 103.089C518.089 104.516 515.443 105.787 512.662 106.849C512.641 106.859 512.625 106.87 512.604 106.88C507.396 108.698 501.245 109.781 494.156 109.781C467.766 109.781 452.802 90.7032 442.719 74.0834C424.297 43.724 400.464 28.9688 369.849 28.9688C356.224 28.9688 343.422 32.7188 331.766 40.0938C330.854 39.1667 329.755 38.3699 328.511 37.7136C341.281 29.1042 355.177 24.7292 369.849 24.7292C402.74 24.7292 424.547 37.4792 445.115 68.7344C457.224 87.1355 470.828 105.104 492.057 105.104C492.719 105.104 493.255 104.568 493.255 103.912C493.255 103.25 492.719 102.719 492.057 102.719C472.016 102.719 458.865 85.2813 447.109 67.4219C426.037 35.4011 403.656 22.3438 369.849 22.3438C354.203 22.3438 339.417 27.1459 325.896 36.6147C324.083 36.0209 322.083 35.6928 320 35.6459C335.208 23.9636 351.958 18.0417 369.849 18.0417C414.094 18.0417 432.537 35.4584 457.125 74.4949C465.016 87.0157 476.651 95.4636 489.057 97.6772C491.193 98.0522 493.307 98.2397 495.38 98.2397C502.511 98.2397 509.219 96.0365 514.719 91.7969C522.193 86.0469 522.057 78.9272 518.609 74.4167C515.729 70.6563 510.203 68.5522 505.557 71.9688C505.516 72.0001 505.469 72.0261 505.427 72.0574C505.412 72.0678 505.401 72.0834 505.386 72.0938C505.344 72.1355 505.297 72.1719 505.261 72.2136C505.25 72.224 505.245 72.2344 505.234 72.2449C505.057 72.4532 504.943 72.7136 504.943 73.0105C504.943 75.6511 502.792 77.8022 500.146 77.8022C497.505 77.8022 495.349 75.6511 495.349 73.0105C495.349 69.8022 497.094 66.8542 500.255 64.7032C505.115 61.4115 512.089 60.8074 518.021 63.1719C526.245 66.4376 528.703 74.0053 528.729 74.0782C528.729 74.0834 528.734 74.0886 528.74 74.099C528.781 74.2292 528.849 74.349 528.938 74.4636C528.948 74.4792 528.958 74.4897 528.969 74.5053C529.042 74.5886 529.125 74.6667 529.224 74.7292C529.24 74.7397 529.261 74.7449 529.276 74.7553C529.292 74.7605 529.297 74.7709 529.307 74.7761C533.099 76.7917 534.589 81.5105 533.198 87.0938ZM594.333 79.2136C594.906 79.6772 595.526 80.0626 596.177 80.3386C596.589 80.5157 596.995 80.6355 597.401 80.724C595.271 95.2553 582.511 105.224 571.625 108.594C583.906 99.6199 591.287 86.974 594.333 79.2136ZM702.083 96.6772C698.787 101.328 693.755 104.979 687.761 107.234C693.766 103.037 699.974 96.5105 704.537 89.974C704.604 91.6615 703.99 93.9897 702.083 96.6772ZM696.958 89.6928C698.563 90.4688 700.38 90.1928 701.636 89.3282C702.474 88.7449 702.984 87.948 703.141 87.099C703.255 87.1563 703.344 87.2501 703.443 87.3334C697.511 96.2761 688.172 105.448 680.891 108.432C685.859 103.943 690.99 98.7449 694.932 92.7501C695.609 91.7292 696.281 90.7084 696.958 89.6928ZM729.078 83.8022C725.99 90.4167 720.38 95.5313 712.781 98.724C713.365 97.3803 713.792 96.0834 714.078 94.8282C714.156 94.7865 714.234 94.7553 714.302 94.698C715.537 93.6147 716.698 92.5678 717.818 91.5626C721.833 87.9532 725.401 84.7553 729.823 82.0365C729.599 82.6251 729.354 83.2188 729.078 83.8022ZM730.886 78.6667C725.151 81.7761 720.995 85.4949 716.224 89.7865C715.677 90.2761 715.125 90.7761 714.557 91.2813C714.636 88.8022 714.156 86.5782 713.271 84.6772C719.172 78.9272 725.365 74.2449 731.708 70.7084C731.802 73.1719 731.573 75.8803 730.886 78.6667ZM725.219 59.349C725.615 59.3542 726.057 59.4324 726.511 59.5886C727.193 59.8126 727.823 60.1772 728.386 60.6303C727.24 61.2032 726.073 61.9219 724.906 62.7449C725.479 61.6303 725.589 60.4428 725.219 59.349ZM729.948 62.5209C730.073 62.7501 730.188 62.9844 730.281 63.2292C730.802 64.573 731.229 66.2397 731.484 68.1094C724.776 71.7136 718.245 76.5782 712.026 82.5626C711.563 81.9272 711.047 81.3438 710.49 80.8178C713.052 77.5105 722.323 66.0209 729.948 62.5209ZM715.083 64.9688C715.104 64.9844 715.115 65.0001 715.136 65.0157C717.068 66.2969 719.125 66.4636 720.896 65.9428C715.328 70.8594 710.386 77.0313 708.589 79.3699C707.432 78.6511 706.219 78.1719 704.995 77.9115C708.62 72.823 711.875 68.6511 715.083 64.9688ZM710.745 49.7969C711.094 49.9636 711.443 50.2084 711.74 50.5313C711.813 50.6094 711.906 50.7188 712.016 50.8594C711.5 51.349 710.99 51.8438 710.474 52.349C710.833 51.5053 710.917 50.6355 710.745 49.7969ZM702.271 55.8074C704.109 56.4324 705.953 56.1928 707.458 55.4324C701.734 61.5105 696.156 68.7136 690.318 77.5626C689.912 76.4063 689.25 75.2917 688.281 74.3074C692.891 67.3126 697.479 61.2397 702.271 55.8074ZM682.828 70.3855C687.677 63.1199 692.49 56.8178 697.495 51.1824C697.948 52.4219 698.771 53.6303 700.12 54.6407C695.422 60.0105 690.917 65.9844 686.401 72.8282C685.537 72.3074 684.526 71.8751 683.349 71.5469C682.979 71.448 682.604 71.3594 682.224 71.2813C682.427 70.9792 682.63 70.6928 682.828 70.3855ZM628.719 107.432C628.641 107.479 628.573 107.531 628.516 107.583C626.531 108.479 624.547 109.146 622.578 109.537C631.037 104.078 641.828 90.5417 657.115 66.4844C674.198 39.6094 690.776 24.0261 702.37 23.6563C693.307 30.1147 684.417 39.1824 675.333 51.099C670.99 56.7969 667.234 61.9844 663.844 66.948C662.974 68.224 662.089 69.5313 661.198 70.8542C652.005 84.448 641.583 99.8542 628.719 107.432ZM667.578 73.724C663.62 75.7449 659.646 78.8282 655.802 82.8959C658.354 79.3126 660.802 75.6928 663.172 72.1876C664.063 70.8699 664.948 69.5678 665.813 68.2917C669.182 63.3594 672.912 58.2084 677.229 52.5469C695.693 28.3178 713.219 16.0938 733.078 13.9844C712.359 21.6563 693.688 37.5313 676.557 61.9428C673.412 66.4272 670.474 70.2813 667.578 73.724ZM763.349 111.281C763.438 111.537 763.604 111.745 763.823 111.885V109.912C763.386 110.208 763.177 110.76 763.349 111.281ZM702.49 105.063C702.448 105.099 698.797 108.38 695.776 109.906C695.193 110.208 694.958 110.922 695.255 111.51C695.464 111.927 695.886 112.167 696.318 112.167C696.5 112.167 696.688 112.125 696.859 112.037C700.162 110.359 703.927 106.979 704.083 106.833C704.578 106.391 704.609 105.635 704.172 105.151C703.729 104.662 702.974 104.62 702.49 105.063ZM741.115 68.0782C741.021 67.4272 740.406 66.974 739.771 67.0626C739.115 67.1511 738.662 67.7553 738.75 68.4063C741.281 86.5105 727.427 104.276 706.526 109.745C705.891 109.912 705.511 110.563 705.677 111.203C705.818 111.734 706.302 112.094 706.833 112.094C706.932 112.094 707.031 112.083 707.13 112.057C729.203 106.281 743.813 87.3803 741.115 68.0782ZM743.672 90.9897C743.891 90.3699 743.557 89.6876 742.932 89.474C742.307 89.2605 741.63 89.5938 741.417 90.2188C739.266 96.4844 730.813 105.51 722.948 109.932C722.375 110.255 722.172 110.979 722.495 111.557C722.714 111.948 723.115 112.167 723.537 112.167C723.734 112.167 723.932 112.115 724.12 112.01C732.406 107.354 741.365 97.724 743.672 90.9897ZM745.719 99.7969C745.172 99.4324 744.427 99.573 744.057 100.12C741.526 103.891 738.417 107.224 734.807 110.031C734.292 110.432 734.198 111.188 734.604 111.703C734.839 112.01 735.188 112.167 735.542 112.167C735.802 112.167 736.057 112.083 736.276 111.917C740.083 108.948 743.37 105.432 746.042 101.453C746.406 100.906 746.261 100.167 745.719 99.7969ZM750.583 105.193C750.042 104.823 749.292 104.969 748.927 105.516C747.787 107.219 746.708 108.651 745.193 110.109C744.714 110.568 744.703 111.323 745.156 111.797C745.391 112.042 745.703 112.167 746.016 112.167C746.318 112.167 746.615 112.057 746.844 111.833C748.521 110.229 749.688 108.677 750.912 106.844C751.281 106.297 751.13 105.557 750.583 105.193ZM113.083 48.1928C115.807 48.1928 118.021 45.974 118.021 43.2553C118.021 40.5313 115.807 38.3178 113.083 38.3178C110.359 38.3178 108.146 40.5313 108.146 43.2553C108.146 45.974 110.359 48.1928 113.083 48.1928ZM113.083 40.7032C114.49 40.7032 115.636 41.849 115.636 43.2553C115.636 44.6563 114.49 45.8022 113.083 45.8022C111.677 45.8022 110.531 44.6563 110.531 43.2553C110.531 41.849 111.677 40.7032 113.083 40.7032ZM270.109 48.224C272.833 48.224 275.047 46.0105 275.047 43.2865C275.047 40.5626 272.833 38.349 270.109 38.349C267.386 38.349 265.172 40.5626 265.172 43.2865C265.172 46.0105 267.386 48.224 270.109 48.224ZM270.109 40.7344C271.516 40.7344 272.656 41.8803 272.656 43.2865C272.656 44.6928 271.516 45.8386 270.109 45.8386C268.703 45.8386 267.557 44.6928 267.557 43.2865C267.557 41.8803 268.703 40.7344 270.109 40.7344ZM676.359 19.6042C679.083 19.6042 681.297 17.3855 681.297 14.6667C681.297 11.9428 679.083 9.72923 676.359 9.72923C673.636 9.72923 671.422 11.9428 671.422 14.6667C671.422 17.3855 673.636 19.6042 676.359 19.6042ZM676.359 12.1147C677.766 12.1147 678.912 13.2605 678.912 14.6667C678.912 16.073 677.766 17.2136 676.359 17.2136C674.953 17.2136 673.813 16.073 673.813 14.6667C673.813 13.2605 674.953 12.1147 676.359 12.1147ZM611.714 49.2605C611.714 51.9844 613.932 54.198 616.651 54.198C619.375 54.198 621.589 51.9844 621.589 49.2605C621.589 46.5417 619.375 44.323 616.651 44.323C613.932 44.323 611.714 46.5417 611.714 49.2605ZM616.651 46.7136C618.057 46.7136 619.203 47.8542 619.203 49.2605C619.203 50.6667 618.057 51.8126 616.651 51.8126C615.245 51.8126 614.104 50.6667 614.104 49.2605C614.104 47.8542 615.245 46.7136 616.651 46.7136ZM551.302 27.5782C554.026 27.5782 556.24 25.3594 556.24 22.6407C556.24 19.9167 554.026 17.7032 551.302 17.7032C548.583 17.7032 546.37 19.9167 546.37 22.6407C546.37 25.3594 548.583 27.5782 551.302 27.5782ZM551.302 20.0886C552.708 20.0886 553.854 21.2344 553.854 22.6407C553.854 24.0469 552.708 25.1928 551.302 25.1928C549.896 25.1928 548.755 24.0469 548.755 22.6407C548.755 21.2344 549.896 20.0886 551.302 20.0886ZM95.4168 36.9584C98.9532 36.9584 101.828 34.0834 101.828 30.5469C101.828 27.0157 98.9532 24.1407 95.4168 24.1407C91.8855 24.1407 89.0105 27.0157 89.0105 30.5469C89.0105 34.0834 91.8855 36.9584 95.4168 36.9584ZM95.4168 26.5261C97.6355 26.5261 99.4376 28.3282 99.4376 30.5469C99.4376 32.7657 97.6355 34.573 95.4168 34.573C93.2032 34.573 91.3959 32.7657 91.3959 30.5469C91.3959 28.3282 93.2032 26.5261 95.4168 26.5261ZM289.052 28.448C292.583 28.448 295.458 25.573 295.458 22.0365C295.458 18.5053 292.583 15.6303 289.052 15.6303C285.521 15.6303 282.646 18.5053 282.646 22.0365C282.646 25.573 285.521 28.448 289.052 28.448ZM289.052 18.0157C291.271 18.0157 293.073 19.823 293.073 22.0365C293.073 24.2553 291.271 26.0574 289.052 26.0574C286.833 26.0574 285.031 24.2553 285.031 22.0365C285.031 19.823 286.833 18.0157 289.052 18.0157ZM607.682 12.823C611.219 12.823 614.094 9.94799 614.094 6.41153C614.094 2.88028 611.219 0.00527624 607.682 0.00527624C604.146 0.00527624 601.271 2.88028 601.271 6.41153C601.271 9.94799 604.146 12.823 607.682 12.823ZM607.682 2.39069C609.901 2.39069 611.703 4.19799 611.703 6.41153C611.703 8.63028 609.901 10.4376 607.682 10.4376C605.464 10.4376 603.662 8.63028 603.662 6.41153C603.662 4.19799 605.464 2.39069 607.682 2.39069ZM633.599 70.7397C637.13 70.7397 640.005 67.8647 640.005 64.3282C640.005 60.7969 637.13 57.9219 633.599 57.9219C630.063 57.9219 627.188 60.7969 627.188 64.3282C627.188 67.8647 630.063 70.7397 633.599 70.7397ZM633.599 60.3074C635.813 60.3074 637.62 62.1094 637.62 64.3282C637.62 66.5469 635.813 68.3542 633.599 68.3542C631.375 68.3542 629.573 66.5469 629.573 64.3282C629.573 62.1094 631.375 60.3074 633.599 60.3074ZM126.943 43.1719C129.24 43.1719 131.115 41.3022 131.115 39.0001C131.115 36.7032 129.24 34.8334 126.943 34.8334C124.641 34.8334 122.776 36.7032 122.776 39.0001C122.776 41.3022 124.641 43.1719 126.943 43.1719ZM126.943 37.2188C127.927 37.2188 128.724 38.0209 128.724 39.0001C128.724 39.9897 127.927 40.7865 126.943 40.7865C125.958 40.7865 125.162 39.9897 125.162 39.0001C125.162 38.0209 125.958 37.2188 126.943 37.2188ZM137.011 12.2292C139.307 12.2292 141.182 10.3647 141.182 8.06257C141.182 5.76048 139.307 3.89069 137.011 3.89069C134.708 3.89069 132.844 5.76048 132.844 8.06257C132.844 10.3647 134.708 12.2292 137.011 12.2292ZM137.011 6.28132C137.995 6.28132 138.792 7.07819 138.792 8.06257C138.792 9.04694 137.995 9.84382 137.011 9.84382C136.026 9.84382 135.229 9.04694 135.229 8.06257C135.229 7.07819 136.026 6.28132 137.011 6.28132ZM257.938 34.3855C260.234 34.3855 262.109 32.5157 262.109 30.2136C262.109 27.9115 260.234 26.0469 257.938 26.0469C255.641 26.0469 253.771 27.9115 253.771 30.2136C253.771 32.5157 255.641 34.3855 257.938 34.3855ZM257.938 28.4324C258.922 28.4324 259.724 29.2292 259.724 30.2136C259.724 31.198 258.922 31.9949 257.938 31.9949C256.953 31.9949 256.156 31.198 256.156 30.2136C256.156 29.2292 256.953 28.4324 257.938 28.4324ZM602.646 25.8282C602.646 28.1251 604.521 29.9949 606.818 29.9949C609.115 29.9949 610.984 28.1251 610.984 25.8282C610.984 23.5261 609.115 21.6563 606.818 21.6563C604.521 21.6563 602.646 23.5261 602.646 25.8282ZM608.599 25.8282C608.599 26.8074 607.802 27.6094 606.818 27.6094C605.833 27.6094 605.031 26.8074 605.031 25.8282C605.031 24.8438 605.833 24.0417 606.818 24.0417C607.802 24.0417 608.599 24.8438 608.599 25.8282ZM667.828 35.948C670.13 35.948 671.995 34.0782 671.995 31.7761C671.995 29.4792 670.13 27.6094 667.828 27.6094C665.531 27.6094 663.656 29.4792 663.656 31.7761C663.656 34.0782 665.531 35.948 667.828 35.948ZM667.828 29.9949C668.813 29.9949 669.609 30.7969 669.609 31.7761C669.609 32.7605 668.813 33.5574 667.828 33.5574C666.844 33.5574 666.047 32.7605 666.047 31.7761C666.047 30.7969 666.844 29.9949 667.828 29.9949ZM510.542 46.474C510.542 44.1719 508.672 42.3022 506.375 42.3022C504.073 42.3022 502.203 44.1719 502.203 46.474C502.203 48.7761 504.073 50.6407 506.375 50.6407C508.672 50.6407 510.542 48.7761 510.542 46.474ZM504.589 46.474C504.589 45.4897 505.391 44.6928 506.375 44.6928C507.354 44.6928 508.156 45.4897 508.156 46.474C508.156 47.4584 507.354 48.2553 506.375 48.2553C505.391 48.2553 504.589 47.4584 504.589 46.474ZM461.99 32.2292C464.287 32.2292 466.162 30.3594 466.162 28.0574C466.162 25.7605 464.287 23.8907 461.99 23.8907C459.693 23.8907 457.823 25.7605 457.823 28.0574C457.823 30.3594 459.693 32.2292 461.99 32.2292ZM461.99 26.2761C462.974 26.2761 463.771 27.073 463.771 28.0574C463.771 29.0417 462.974 29.8438 461.99 29.8438C461.005 29.8438 460.208 29.0417 460.208 28.0574C460.208 27.073 461.005 26.2761 461.99 26.2761ZM71.7865 15.9688C74.0886 15.9688 75.9584 14.099 75.9584 11.7969C75.9584 9.50007 74.0886 7.63028 71.7865 7.63028C69.4897 7.63028 67.6199 9.50007 67.6199 11.7969C67.6199 14.099 69.4897 15.9688 71.7865 15.9688ZM71.7865 10.0157C72.7709 10.0157 73.573 10.8178 73.573 11.7969C73.573 12.7813 72.7709 13.5834 71.7865 13.5834C70.8074 13.5834 70.0053 12.7813 70.0053 11.7969C70.0053 10.8178 70.8074 10.0157 71.7865 10.0157ZM557.901 76.3126C558.13 75.6928 557.807 75.0105 557.188 74.7865C556.568 74.5574 555.88 74.8855 555.662 75.5053C555.568 75.7605 546.234 101.042 523.292 109.859C522.677 110.094 522.37 110.787 522.604 111.401C522.787 111.875 523.24 112.167 523.719 112.167C523.859 112.167 524.005 112.141 524.146 112.089C548.094 102.88 557.516 77.3907 557.901 76.3126ZM569.99 67.4844C569.339 67.3542 568.714 67.7761 568.583 68.4219C568.531 68.6928 562.948 95.7188 540.109 109.958C539.547 110.307 539.375 111.042 539.724 111.604C539.953 111.969 540.344 112.167 540.74 112.167C540.958 112.167 541.172 112.109 541.37 111.984C565.109 97.1876 570.87 69.1667 570.927 68.8855C571.052 68.2397 570.636 67.6147 569.99 67.4844ZM579.646 76.0469C579.016 75.8647 578.354 76.2344 578.172 76.8647C578.115 77.0678 572.266 97.1407 555.943 110.037C555.422 110.443 555.333 111.193 555.74 111.714C555.979 112.01 556.328 112.167 556.682 112.167C556.938 112.167 557.198 112.083 557.417 111.906C574.37 98.5209 580.224 78.3699 580.469 77.5209C580.651 76.8855 580.276 76.224 579.646 76.0469ZM599.87 98.5417C599.328 98.1667 598.589 98.3074 598.214 98.849C598.162 98.9219 593.313 105.922 586.026 109.927C585.448 110.245 585.24 110.969 585.552 111.547C585.776 111.943 586.182 112.167 586.599 112.167C586.797 112.167 586.995 112.12 587.172 112.016C594.974 107.734 599.974 100.5 600.182 100.198C600.552 99.6511 600.417 98.9115 599.87 98.5417Z" fill="black"/>
</g>
</svg>
