<svg width="70" height="13" viewBox="0 0 70 13" fill="none" xmlns="http://www.w3.org/2000/svg">
<path d="M11.6953 6.92188C11.6562 6.96094 11.5898 7.00781 11.4961 7.0625C11.4492 7.04688 11.3789 7.03125 11.2852 7.01562C11.2461 7.03906 11.2148 7.04688 11.1914 7.03906L11.1562 7.01562L11.0977 7.00391C11.0742 7.01953 11.043 7.03516 11.0039 7.05078C10.5352 6.91797 9.95312 6.84766 9.25781 6.83984C10.3125 6.85547 9.72656 6.86328 7.5 6.86328C7.14844 6.86328 6.82031 6.84766 6.51562 6.81641L6.5625 6.73438C6.625 6.72656 7.375 6.62109 8.8125 6.41797C9.22656 6.35547 9.89844 6.28906 10.8281 6.21875C10.0312 5.42188 9.32031 4.83594 8.69531 4.46094C7.82812 3.94531 6.95312 3.70313 6.07031 3.73438C6.01562 3.71875 5.96484 3.71094 5.91797 3.71094C5.77734 3.71094 5.55469 3.82422 5.25 4.05078C4.99219 4.25391 4.80859 4.42969 4.69922 4.57812C4.61328 4.6875 4.51953 4.86328 4.41797 5.10547C4.31641 5.33984 4.25781 5.52344 4.24219 5.65625L4.01953 5.85547C4.11328 5.83984 4.33984 5.71094 4.69922 5.46875C5.01172 5.26562 5.24219 5.10547 5.39062 4.98828C5.46875 4.92578 5.65234 4.82812 5.94141 4.69531C6.19141 4.58594 6.36328 4.46875 6.45703 4.34375C6.67578 4.39062 6.90625 4.44531 7.14844 4.50781C7.19531 4.57812 7.27734 4.66797 7.39453 4.77734L7.28906 4.87109L7.3125 4.98828C7.26562 5.08203 7.18359 5.19141 7.06641 5.31641C6.93359 5.46484 6.84766 5.56641 6.80859 5.62109C6.69922 5.78516 6.58594 6.02344 6.46875 6.33594C6.35156 6.64062 6.28516 6.88672 6.26953 7.07422C6.51172 7.14453 6.75391 7.21094 6.99609 7.27344C7.30859 7.35938 7.46484 7.48828 7.46484 7.66016C7.46484 7.75391 7.39453 7.86328 7.25391 7.98828C7.12109 7.98828 7.00391 8.07422 6.90234 8.24609C6.83203 8.39453 6.76562 8.53906 6.70312 8.67969C6.45312 9.04688 6.18359 9.49219 5.89453 10.0156C5.78516 10.3828 5.73047 10.7773 5.73047 11.1992C5.73047 11.2383 5.73438 11.2734 5.74219 11.3047C6.90625 11.0469 7.60156 10.8633 7.82812 10.7539C7.9375 10.6992 8.10156 10.625 8.32031 10.5312C8.44531 10.5 8.62891 10.4453 8.87109 10.3672C8.97266 10.3281 9.125 10.2656 9.32812 10.1797C9.42969 10.25 9.69922 10.3008 10.1367 10.332C10.4805 10.3555 10.6953 10.4883 10.7812 10.7305L10.7344 10.8828C10.6719 10.9219 10.5039 10.9609 10.2305 11C10.0195 11.0312 9.88281 11.1133 9.82031 11.2461C9.67969 11.2852 9.41406 11.4414 9.02344 11.7148C8.67188 11.9648 8.39062 12.0898 8.17969 12.0898L8.09766 12.0781C8.46484 11.8203 8.73438 11.5039 8.90625 11.1289C8.69531 11.168 7.95703 11.375 6.69141 11.75C5.69141 12.0469 4.96484 12.1953 4.51172 12.1953C4.19922 12.1953 3.85156 12.1406 3.46875 12.0312C3.08594 11.9219 2.77734 11.7812 2.54297 11.6094L2.55469 11.5508C2.55469 11.5117 2.53906 11.4531 2.50781 11.375C2.47656 11.2969 2.46094 11.2344 2.46094 11.1875C2.46094 11.1719 2.46484 11.1523 2.47266 11.1289C2.44922 11.043 2.46094 10.9648 2.50781 10.8945C2.55469 10.8242 2.625 10.7891 2.71875 10.7891C2.74219 10.7891 2.77344 10.793 2.8125 10.8008L2.88281 10.7891C2.92969 10.8125 3.00781 10.8398 3.11719 10.8711C3.19531 10.8164 3.37109 10.75 3.64453 10.6719C3.87109 10.6016 4.05859 10.4844 4.20703 10.3203C4.11328 10.2266 3.95703 10.1289 3.73828 10.0273C3.52734 9.92578 3.40625 9.85547 3.375 9.81641C3.26562 9.81641 3.1875 9.79297 3.14062 9.74609C3.14062 9.30078 3.69141 8.59766 4.79297 7.63672C4.84766 7.59766 5.11719 7.49609 5.60156 7.33203C5.64062 7.14453 5.69531 6.86328 5.76562 6.48828C5.67188 6.49609 5.53125 6.54688 5.34375 6.64062C5.15625 6.72656 5 6.76953 4.875 6.76953C4.83594 6.76953 4.77344 6.75 4.6875 6.71094C4.60156 6.66406 4.53906 6.63672 4.5 6.62891C4.39062 6.48828 4.17188 6.34766 3.84375 6.20703C3.83594 6.17578 3.83594 6.14062 3.84375 6.10156C3.85156 6.07812 3.86719 6.05859 3.89062 6.04297L3.78516 5.92578L3.97266 5.89062C4.03516 5.73438 4.125 5.49609 4.24219 5.17578C4.28125 4.98047 4.35938 4.69531 4.47656 4.32031C2.57031 6.17969 1.47266 7.60156 1.18359 8.58594H1.16016C1.14453 8.57031 1.13672 8.55469 1.13672 8.53906L1.125 8.5625C1.01562 8.65625 0.953125 8.78125 0.9375 8.9375L0.996094 8.96094L1.01953 8.9375L1.03125 8.91406L1.04297 8.92578V8.98438C0.933594 9.02344 0.773438 9.08594 0.5625 9.17188C0.484375 9.0625 0.445312 8.93359 0.445312 8.78516C0.445312 6.94141 1.75 4.77734 4.35938 2.29297C4.38281 2.15234 4.44922 1.9375 4.55859 1.64844C4.60547 1.57031 4.73438 1.43359 4.94531 1.23828C5.16406 1.03516 5.30078 0.933594 5.35547 0.933594C5.40234 0.933594 5.56641 1.07031 5.84766 1.34375C5.92578 1.32812 6.00391 1.32031 6.08203 1.32031C6.30859 1.32031 6.51953 1.37891 6.71484 1.49609C6.94141 1.62891 7.04688 1.80078 7.03125 2.01172V2.08203C6.77344 2.30078 6.39844 2.64844 5.90625 3.125C7.46094 3.38281 9.04297 4.19531 10.6523 5.5625C10.7461 5.64844 10.8945 5.85156 11.0977 6.17188C11.2617 6.4375 11.4297 6.60547 11.6016 6.67578C11.6562 6.73828 11.6875 6.82031 11.6953 6.92188ZM5.47266 8.72656C5.41016 8.74219 5.32812 8.76953 5.22656 8.80859C5.07812 8.87109 4.75391 9.06641 4.25391 9.39453C4.13672 9.44141 3.97656 9.52344 3.77344 9.64062C3.73438 9.67188 3.69141 9.73047 3.64453 9.81641C3.91797 9.95703 4.19141 10.0781 4.46484 10.1797C5.13672 9.73438 5.47266 9.25 5.47266 8.72656ZM5.34375 10.6484L5.33203 10.5898L5.28516 10.543C5.19922 10.5586 5.14453 10.6133 5.12109 10.707C5.15234 10.7305 5.20703 10.7617 5.28516 10.8008L5.34375 10.6484ZM5.21484 11.4453L4.82812 10.9297H4.75781C4.625 10.9219 4.46484 10.9609 4.27734 11.0469C4.00391 11.1797 3.85547 11.2539 3.83203 11.2695C3.70703 11.293 3.52344 11.3398 3.28125 11.4102C3.44531 11.5195 3.73828 11.5742 4.16016 11.5742C4.53516 11.5742 4.88672 11.5312 5.21484 11.4453ZM22.5352 5.91406C22.5352 5.95312 22.5234 5.99609 22.5 6.04297C22.4844 6.08984 22.4766 6.125 22.4766 6.14844C22.5156 6.26562 22.5352 6.40625 22.5352 6.57031C22.5352 6.84375 22.4766 7.1875 22.3594 7.60156C22.2578 7.9375 22.1562 8.26953 22.0547 8.59766C22.0078 8.89453 21.9141 9.32812 21.7734 9.89844C21.6953 10.1016 21.5625 10.2812 21.375 10.4375L21.0234 10.3789C20.9453 10.3633 20.5273 10.6133 19.7695 11.1289C19.6602 11.2383 19.4688 11.3828 19.1953 11.5625C18.8906 11.3359 18.207 11.2227 17.1445 11.2227C17.1211 11.2227 16.9023 11.1836 16.4883 11.1055C16.3711 11.0898 16.2031 11.0469 15.9844 10.9766C16 10.7891 16.0898 10.5586 16.2539 10.2852C16.3945 10.0742 16.5352 9.85938 16.6758 9.64062C16.668 9.74219 16.6211 9.90234 16.5352 10.1211C16.4492 10.3398 16.4062 10.5156 16.4062 10.6484C16.4062 10.7188 16.4219 10.7812 16.4531 10.8359C16.5938 10.9453 16.8789 11 17.3086 11C17.793 11 18.4805 10.9023 19.3711 10.707C19.5117 10.4883 19.7227 10.2188 20.0039 9.89844C20.3398 9.50781 20.5547 9.25 20.6484 9.125C20.75 9 20.8203 8.84375 20.8594 8.65625C20.875 8.49219 20.9062 8.24219 20.9531 7.90625C21.0938 7.16406 21.1641 6.51172 21.1641 5.94922C21.1641 5.81641 21.1445 5.65625 21.1055 5.46875C21.0508 5.19531 21.0234 5.03906 21.0234 5C20.8828 4.05469 20.5469 3.55469 20.0156 3.5C19.9922 3.50781 19.957 3.53516 19.9102 3.58203C19.8711 3.62891 19.8477 3.66797 19.8398 3.69922C19.8789 3.79297 19.8984 3.91797 19.8984 4.07422C19.8984 4.10547 19.8477 4.29688 19.7461 4.64844C19.6367 5.03125 19.4453 5.34375 19.1719 5.58594C18.8203 5.88281 18.5977 6.11328 18.5039 6.27734C18.4102 6.44141 18.3125 6.66797 18.2109 6.95703C18.0781 7.29297 17.9883 7.51562 17.9414 7.625C17.6836 8.16406 17.3125 8.71875 16.8281 9.28906C16.3594 9.82812 15.875 10.2773 15.375 10.6367C15.2578 10.7383 15.1406 10.8359 15.0234 10.9297C14.875 11.0547 14.75 11.1172 14.6484 11.1172C14.6172 11.2422 14.5156 11.3711 14.3438 11.5039C14.1797 11.6367 14.0352 11.7031 13.9102 11.7031C13.6367 11.9375 13.4492 12.0547 13.3477 12.0547C13.293 11.9844 13.2656 11.9219 13.2656 11.8672C13.2656 11.8281 13.2734 11.7656 13.2891 11.6797C13.3047 11.5938 13.3125 11.5312 13.3125 11.4922C13.3125 11.4922 13.2812 11.3359 13.2188 11.0234C13.375 10.3281 13.6406 9.75391 14.0156 9.30078L14.0508 9.3125C14.0586 9.35938 14.0625 9.38281 14.0625 9.38281C14.0625 9.45312 14.043 9.56641 14.0039 9.72266C13.9727 9.87891 13.957 9.99609 13.957 10.0742C13.957 10.1211 13.9609 10.168 13.9688 10.2148C14.7578 9.37891 15.6562 8.39844 16.6641 7.27344C16.5234 7.28125 16.293 7.32812 15.9727 7.41406C15.6602 7.5 15.418 7.54297 15.2461 7.54297C15.0273 7.54297 14.8867 7.43359 14.8242 7.21484C14.7695 6.99609 14.7227 6.78516 14.6836 6.58203C14.6992 6.50391 14.7305 6.37891 14.7773 6.20703C14.7773 6.19141 14.7773 6.17969 14.7773 6.17188L14.7656 6.10156C14.4766 5.92188 14.332 5.72266 14.332 5.50391C14.332 5.11328 14.4102 4.78906 14.5664 4.53125C14.7539 4.21094 15.0273 4.05078 15.3867 4.05078C15.7148 4.05078 16.0273 4.12891 16.3242 4.28516C16.5898 4.16016 16.9727 4.01562 17.4727 3.85156C17.5352 3.65625 17.6133 3.35547 17.707 2.94922C17.6445 2.83984 17.5938 2.71094 17.5547 2.5625L17.625 2.17578L17.5898 2.03516C17.6289 1.86328 17.668 1.6875 17.707 1.50781C17.7461 1.32812 17.8633 1.23828 18.0586 1.23828C18.1602 1.23828 18.2695 1.28516 18.3867 1.37891C18.4727 1.37891 18.5977 1.35547 18.7617 1.30859C18.9336 1.26172 19.0625 1.23828 19.1484 1.23828C19.3047 1.23828 19.4102 1.28516 19.4648 1.37891C19.5039 1.36328 19.543 1.35547 19.582 1.35547C19.707 1.35547 19.8359 1.41016 19.9688 1.51953C20.1016 1.62891 20.168 1.74609 20.168 1.87109C20.168 1.97266 20.0508 2.10938 19.8164 2.28125C19.7773 2.33594 19.7148 2.41016 19.6289 2.50391C19.5664 2.55078 19.4883 2.61719 19.3945 2.70312C19.3711 2.74219 19.3594 2.8125 19.3594 2.91406C19.3516 2.9375 19.3516 2.94922 19.3594 2.94922L19.3945 2.98438C19.5664 2.89844 19.7656 2.85547 19.9922 2.85547C20.1406 2.85547 20.3203 2.90625 20.5312 3.00781C20.7422 3.10937 20.8945 3.21484 20.9883 3.32422C20.9961 3.33984 21.1094 3.53906 21.3281 3.92188C21.4844 4.21875 21.7383 4.64062 22.0898 5.1875C22.3867 5.5625 22.5352 5.80469 22.5352 5.91406ZM33.8203 5.22266C33.8203 5.37891 33.7148 5.50391 33.5039 5.59766C33.3398 5.67578 33.1641 5.71484 32.9766 5.71484C32.9609 5.71484 32.9258 5.73438 32.8711 5.77344C32.8164 5.8125 32.7852 5.83594 32.7773 5.84375L32.707 5.85547C32.3633 6.12891 31.8516 6.53516 31.1719 7.07422C31.0547 7.14453 30.8906 7.26172 30.6797 7.42578C30.3516 7.73828 30.1875 8.25 30.1875 8.96094C30.1875 9.07031 30.2695 9.26562 30.4336 9.54688L30.3867 9.73438C30.3164 9.73438 30.25 9.75781 30.1875 9.80469H30.1289C30.1211 9.78906 30.0312 9.64062 29.8594 9.35938C29.75 9.1875 29.6992 9.02734 29.707 8.87891V8.82031L29.8711 8.62109V8.12891C29.4336 8.30859 28.9492 8.60156 28.418 9.00781C27.9648 9.36719 27.5156 9.72266 27.0703 10.0742C27.0859 10.1914 27.2852 10.2969 27.668 10.3906C28.6992 10.1328 29.3867 10.0039 29.7305 10.0039H30.5508C31.0352 10.0039 31.5508 10.0938 32.0977 10.2734C32.8086 10.5078 33.1758 10.8125 33.1992 11.1875C33.0742 11.2422 32.9727 11.2695 32.8945 11.2695C32.8633 11.2695 32.8164 11.2578 32.7539 11.2344C32.6914 11.2109 32.6484 11.1992 32.625 11.1992C32.3594 11.1992 32.1211 11.2773 31.9102 11.4336L31.7812 11.3984C31.8828 11.3281 31.9492 11.2734 31.9805 11.2344C32.0664 11.1641 32.1133 11.0977 32.1211 11.0352C31.9961 11.0039 31.9219 10.9883 31.8984 10.9883C31.8906 10.9883 31.8672 10.9922 31.8281 11C31.75 10.9844 31.5977 11 31.3711 11.0469C31.1523 11.0938 30.9961 11.1367 30.9023 11.1758C30.8086 11.2227 30.6758 11.2891 30.5039 11.375C30.332 11.4062 30.0859 11.457 29.7656 11.5273C29.5312 11.5273 29.2539 11.5586 28.9336 11.6211C28.5352 11.5664 28.1367 11.5117 27.7383 11.457C27.3398 11.3555 27.0078 11.1328 26.7422 10.7891C26.5547 10.5391 26.4609 10.2734 26.4609 9.99219C26.4609 9.79688 26.5547 9.69922 26.7422 9.69922C26.8516 9.69922 26.9492 9.72656 27.0352 9.78125L29.7656 7.40234C29.6719 6.95703 29.418 6.73438 29.0039 6.73438C28.7148 6.73438 28.3867 6.91797 28.0195 7.28516C27.6602 7.64453 27.4727 7.82422 27.457 7.82422C27.293 7.82422 27.1719 7.76172 27.0938 7.63672C27.0703 7.59766 27.0234 7.46484 26.9531 7.23828C27.1328 6.56641 27.4609 5.91406 27.9375 5.28125C27.7188 5.0625 27.5742 4.91016 27.5039 4.82422C27.3398 4.62109 27.25 4.44141 27.2344 4.28516C27.25 4.24609 27.2656 4.20312 27.2812 4.15625C27.2812 4.10938 27.2578 4.05469 27.2109 3.99219C27.1719 3.92969 27.1523 3.88672 27.1523 3.86328C27.1523 3.83984 27.1562 3.82031 27.1641 3.80469L27.2695 3.71094C27.3789 3.75781 27.5391 3.80078 27.75 3.83984C28.9062 3.51172 29.543 3.25 29.6602 3.05469C29.5586 3 29.4609 2.89844 29.3672 2.75C29.4219 2.58594 29.4727 2.42188 29.5195 2.25781C29.5898 2.0625 29.707 1.96484 29.8711 1.96484C30.0039 1.96484 30.1289 2.07031 30.2461 2.28125C30.3711 2.28125 30.4805 2.30859 30.5742 2.36328C30.6211 2.44922 30.6602 2.60156 30.6914 2.82031C30.7305 3.03125 30.793 3.19922 30.8789 3.32422L30.8672 3.42969C30.8594 3.4375 30.8555 3.44531 30.8555 3.45312C30.8555 3.47656 30.8594 3.49609 30.8672 3.51172C30.8984 3.55078 30.9258 3.58203 30.9492 3.60547L30.9844 3.59375C31.0078 3.60156 31.0312 3.61719 31.0547 3.64062V3.69922C31.0391 3.71484 30.6953 4.09375 30.0234 4.83594C29.5469 5.36719 29.168 5.63281 28.8867 5.63281C28.8398 5.63281 28.7695 5.62109 28.6758 5.59766C28.5898 5.57422 28.5234 5.5625 28.4766 5.5625C28.2734 5.5625 28.0352 5.74609 27.7617 6.11328C27.5117 6.44141 27.3555 6.72266 27.293 6.95703C27.7383 6.46484 28.2656 6.21875 28.875 6.21875C29.1484 6.21875 29.3906 6.3125 29.6016 6.5C29.8125 6.67969 29.9648 6.90625 30.0586 7.17969C30.7148 6.53906 31.2344 6 31.6172 5.5625C31.6172 5.49219 31.6133 5.39062 31.6055 5.25781C31.5977 5.11719 31.5938 5.01172 31.5938 4.94141C31.5938 4.79297 31.6484 4.64844 31.7578 4.50781C31.875 4.36719 32.0039 4.29688 32.1445 4.29688C32.2148 4.29688 32.2812 4.33203 32.3438 4.40234C32.4062 4.47266 32.4648 4.53906 32.5195 4.60156C32.6211 4.625 32.7734 4.65625 32.9766 4.69531C33.5391 4.75 33.8203 4.92578 33.8203 5.22266ZM47.4492 9.69922L47.3438 9.75781C47.0859 9.64062 46.7031 9.46484 46.1953 9.23047C46.0078 9.19922 45.7422 9.12109 45.3984 8.99609C45.8984 8.99609 46.3438 8.98438 46.7344 8.96094C46.4922 8.10938 45.9492 7.41406 45.1055 6.875C44.3086 6.35938 43.4492 6.10156 42.5273 6.10156C42.3945 6.10156 42.0312 6.14844 41.4375 6.24219C40.9531 6.32031 40.6562 6.375 40.5469 6.40625C40.2891 6.49219 40.0234 6.64844 39.75 6.875C39.7656 6.75781 39.8398 6.625 39.9727 6.47656C39.9648 6.46875 39.9258 6.40234 39.8555 6.27734C39.8555 6.26172 39.9023 6.14453 39.9961 5.92578C39.9805 5.90234 39.9062 5.83203 39.7734 5.71484C39.7656 5.65234 39.7266 5.5625 39.6562 5.44531C39.3438 5.63281 39.0898 5.86719 38.8945 6.14844C38.543 6.63281 38.2422 7.15625 37.9922 7.71875C37.6797 8.41406 37.5234 8.99219 37.5234 9.45312C37.5234 9.66406 37.543 9.82031 37.582 9.92188C37.7305 9.92188 37.8555 9.86328 37.957 9.74609C38.0977 9.58203 38.1875 9.48828 38.2266 9.46484C38.2344 9.49609 38.2383 9.52734 38.2383 9.55859C38.2383 9.88672 38.0508 10.1055 37.6758 10.2148C37.207 10.043 36.9727 9.6875 36.9727 9.14844C36.9727 8.40625 37.2422 7.55078 37.7812 6.58203C38.2188 5.79297 38.7539 5.05859 39.3867 4.37891C39.2852 4.37891 39.1289 4.37109 38.918 4.35547C38.707 4.33203 38.5469 4.32031 38.4375 4.32031L38.4141 4.22656L38.4727 4.15625C38.4258 4.13281 38.3594 4.09766 38.2734 4.05078C38.9609 3.19922 39.8281 2.54297 40.875 2.08203C41.9219 1.61328 43 1.39844 44.1094 1.4375L44.2031 1.29688C44.1953 1.28906 44.1914 1.28125 44.1914 1.27344C44.1914 1.25781 44.1992 1.24219 44.2148 1.22656C44.2383 1.21094 44.2773 1.19922 44.332 1.19141L44.4141 1.21484C44.4453 1.20703 44.4805 1.20312 44.5195 1.20312C44.6055 1.20312 44.7148 1.23047 44.8477 1.28516C44.957 1.33203 45.0625 1.37891 45.1641 1.42578C45.3359 1.46484 45.5898 1.5625 45.9258 1.71875L45.8789 1.76562C45.8945 1.8125 45.9102 1.89062 45.9258 2C45.7617 2.10156 45.5703 2.16016 45.3516 2.17578C45.1406 2.19141 44.9336 2.20313 44.7305 2.21094C44.332 2.26562 43.832 2.48047 43.2305 2.85547C42.668 3.21484 42.2461 3.5625 41.9648 3.89844C42.3789 3.89844 42.625 3.91797 42.7031 3.95703L43.4531 3.81641C43.4688 3.82422 43.5859 3.85156 43.8047 3.89844C43.9453 3.92188 44.043 3.99219 44.0977 4.10938C44.0039 4.1875 43.6875 4.34375 43.1484 4.57812C43.0156 4.63281 42.7344 4.84375 42.3047 5.21094C42.5625 5.28906 42.9492 5.39844 43.4648 5.53906C43.7383 5.60938 44.1406 5.72656 44.6719 5.89062C45.9219 6.38281 46.8359 7.44922 47.4141 9.08984L47.3672 9.62891L47.4492 9.69922ZM44.3438 10.8242L44.1562 10.9297C44.1562 11.0078 44.0977 11.1055 43.9805 11.2227C43.8633 11.3398 43.8008 11.4375 43.793 11.5156C43.7461 11.5312 43.6719 11.5469 43.5703 11.5625C43.3516 11.4766 42.8359 11.4336 42.0234 11.4336C41.7891 11.4336 41.5586 11.4844 41.332 11.5859C40.8789 11.7969 40.2031 12.1055 39.3047 12.5117C40.0781 11.8477 40.6953 11.3906 41.1562 11.1406C40.7422 10.7891 40.5352 10.4414 40.5352 10.0977C40.5352 9.89453 40.6641 9.71094 40.9219 9.54688C40.9688 9.47656 41.0195 9.29688 41.0742 9.00781C41.1367 8.71875 41.1641 8.51953 41.1562 8.41016C41.1094 8.37109 40.9688 8.33203 40.7344 8.29297C40.5078 8.25391 40.3242 8.15625 40.1836 8C40.6055 7.75 40.8359 7.61719 40.875 7.60156C40.9141 7.58594 41.1758 7.55078 41.6602 7.49609C41.6836 7.49609 41.7227 7.48828 41.7773 7.47266C41.8398 7.44922 41.8867 7.4375 41.918 7.4375C41.9883 7.4375 42.0625 7.46875 42.1406 7.53125C42.2969 7.4375 42.4492 7.40234 42.5977 7.42578L42.7617 7.44922C42.8555 7.58203 42.9023 7.74609 42.9023 7.94141C42.9023 8.15234 42.7812 8.26953 42.5391 8.29297C42.2188 8.32422 42.0469 8.34766 42.0234 8.36328C41.8516 8.48828 41.6641 8.71094 41.4609 9.03125C41.2266 9.40625 41.1094 9.65625 41.1094 9.78125C41.1094 9.82031 41.1133 9.86328 41.1211 9.91016C41.5586 10.0195 41.7812 10.0742 41.7891 10.0742C41.9922 10.043 42.0938 10.0273 42.0938 10.0273C42.125 10.0273 42.2031 10.0391 42.3281 10.0625C42.4297 10.0859 42.5117 10.0898 42.5742 10.0742C42.6055 10.1289 42.6836 10.1758 42.8086 10.2148C42.8945 10.2461 43.2188 10.3086 43.7812 10.4023L44.1094 10.3906L44.0039 10.4961C44.0039 10.6758 44.1172 10.7852 44.3438 10.8242ZM42.2695 2.62109C42.1367 2.65234 41.9492 2.75 41.707 2.91406C41.4648 3.07812 41.3047 3.21094 41.2266 3.3125C41.1797 3.39844 41.1016 3.51563 40.9922 3.66406C40.9062 3.71094 40.8008 3.79688 40.6758 3.92188L40.875 4.07422C41.2734 3.55859 41.7383 3.07422 42.2695 2.62109ZM41.9766 4.22656C41.875 4.20312 41.8242 4.19141 41.8242 4.19141C41.7383 4.19141 41.6445 4.23438 41.543 4.32031C41.4414 4.39844 41.3906 4.48047 41.3906 4.56641V4.60156C41.5234 4.51562 41.7188 4.39062 41.9766 4.22656ZM40.6289 4.35547V4.32031H40.582C40.3477 4.49219 40.2305 4.61719 40.2305 4.69531C40.2305 4.72656 40.2383 4.76172 40.2539 4.80078L40.6289 4.35547ZM56.8008 10.8828C56.7539 10.9453 56.6836 11.0469 56.5898 11.1875C56.5586 11.1953 56.5312 11.1992 56.5078 11.1992C56.3516 11.1992 56.2852 11.1953 56.3086 11.1875C56.207 11.125 56.0625 11.0234 55.875 10.8828C55.6406 10.9297 55.3555 11.0273 55.0195 11.1758C54.5195 11.3945 54.2422 11.5156 54.1875 11.5391C54.0859 11.4688 53.9922 11.4336 53.9062 11.4336C53.8594 11.4336 53.7891 11.4375 53.6953 11.4453C53.6016 11.4531 53.5352 11.457 53.4961 11.457C53.3555 11.457 53.1953 11.4414 53.0156 11.4102C53.4609 11.3477 53.8008 11.2695 54.0352 11.1758C54.3086 11.0586 54.5898 10.8672 54.8789 10.6016C54.9883 10.4922 55.1719 10.3438 55.4297 10.1562C55.2422 9.79688 54.8828 9.53125 54.3516 9.35938C53.9375 9.21875 53.4766 9.14844 52.9688 9.14844C52.8828 9.14844 52.7578 9.17969 52.5938 9.24219C52.375 9.32812 52.2539 9.375 52.2305 9.38281C52.1133 9.39844 51.9453 9.43359 51.7266 9.48828C51.5547 9.48828 51.3672 9.41406 51.1641 9.26562C51.0078 9.13281 50.8555 9 50.707 8.86719C50.582 8.78125 50.4258 8.62891 50.2383 8.41016C50.1523 8.26172 50.1094 8.08203 50.1094 7.87109C50.1094 7.33984 50.2344 7.00391 50.4844 6.86328L50.5547 6.91016C50.8203 6.09766 51.25 5.30469 51.8438 4.53125C52.1172 4.17969 52.7188 3.51172 53.6484 2.52734H53.7188C53.8047 2.44141 53.9414 2.3125 54.1289 2.14062C54.168 2.125 54.207 2.11719 54.2461 2.11719C54.3398 2.11719 54.457 2.19141 54.5977 2.33984C54.707 2.44922 54.8125 2.55469 54.9141 2.65625C55.0156 2.75 55.1641 2.83203 55.3594 2.90234C55.6016 2.98828 55.7578 3.05078 55.8281 3.08984C55.9453 3.06641 56.0039 3.05469 56.0039 3.05469C56.0898 3.05469 56.1641 3.09766 56.2266 3.18359C56.2969 3.26172 56.332 3.34766 56.332 3.44141C56.332 3.67578 56.0469 3.87109 55.4766 4.02734C54.7969 4.21484 54.418 4.34766 54.3398 4.42578L54.1875 4.25C53.8281 4.28906 53.3008 4.66406 52.6055 5.375C51.9102 6.07812 51.5234 6.61328 51.4453 6.98047L51.457 7.0625L51.375 7.4375C51.5781 7.625 51.9961 7.76172 52.6289 7.84766C52.8555 7.88672 53.2422 8.01172 53.7891 8.22266C54.3438 8.42578 54.7227 8.58984 54.9258 8.71484C55.043 8.80078 55.3477 9.00781 55.8398 9.33594C55.918 9.40625 56.0469 9.50391 56.2266 9.62891C56.4922 10.0742 56.6836 10.4922 56.8008 10.8828ZM55.7812 9.65234L55.6875 9.48828V9.46484C55.6953 9.48047 55.7109 9.49219 55.7344 9.5L55.7461 9.48828L55.7227 9.41797L55.582 9.3125H55.5L55.4883 9.26562C55.4961 9.25781 55.5078 9.24609 55.5234 9.23047L55.5117 9.21875L55.3945 9.16016L55.3711 9.17188L55.418 9.20703L55.4297 9.25391L55.3711 9.30078L55.7812 9.65234ZM69.8789 2.89062C69.8086 2.97656 69.7031 3.04297 69.5625 3.08984C69.4297 3.12891 69.3008 3.16406 69.1758 3.19531C69.0977 3.21875 68.8828 3.31641 68.5312 3.48828C68.1797 3.65234 67.9805 3.75391 67.9336 3.79297C67.8164 4.21484 67.7422 4.73828 67.7109 5.36328C67.6953 5.88672 67.6797 6.41406 67.6641 6.94531C67.8047 7.01562 67.9883 7.26172 68.2148 7.68359C68.4414 8.10547 68.5547 8.40234 68.5547 8.57422C68.5547 8.55859 68.543 8.64453 68.5195 8.83203C68.457 9.20703 68.4023 9.47266 68.3555 9.62891C68.2773 9.87891 68.1445 10.1133 67.957 10.332C67.5664 10.8008 67.1523 11.125 66.7148 11.3047C66.3711 11.4453 65.8555 11.543 65.168 11.5977C64.9648 11.6133 64.5742 11.6523 63.9961 11.7148C63.7461 11.7305 63.3711 11.7617 62.8711 11.8086C62.7773 11.7852 62.5039 11.7539 62.0508 11.7148C61.7227 11.6836 61.4531 11.6172 61.2422 11.5156C61.2344 11.4922 61.2305 11.4766 61.2305 11.4688V11.457L61.2656 11.4336C61.625 11.5898 62.0859 11.668 62.6484 11.668C63.0547 11.668 63.5625 11.6055 64.1719 11.4805C65.3359 11.2383 65.9336 11.1133 65.9648 11.1055C66.5977 10.9102 67.1055 10.5781 67.4883 10.1094C67.8008 9.72656 67.957 9.41016 67.957 9.16016C67.957 8.81641 67.8789 8.53125 67.7227 8.30469C67.6758 8.33594 67.6367 8.40625 67.6055 8.51562C67.5664 8.67188 67.543 8.75781 67.5352 8.77344L67.582 8.96094C67.543 9.08594 67.5117 9.17188 67.4883 9.21875C67.4414 9.3125 67.3789 9.36719 67.3008 9.38281C67.1133 9.35156 66.9766 9.33594 66.8906 9.33594C66.7812 9.33594 66.6484 9.35547 66.4922 9.39453C66.2812 9.44141 66.1484 9.46875 66.0938 9.47656C65.9531 9.625 65.8086 9.77344 65.6602 9.92188C65.4805 10.1094 65.3047 10.2031 65.1328 10.2031C64.6172 10.2031 64.2617 9.96094 64.0664 9.47656C64.0352 9.38281 63.9766 9.25781 63.8906 9.10156C63.875 9.00781 63.8672 8.91016 63.8672 8.80859C63.8672 8.39453 63.9688 8.02344 64.1719 7.69531C64.4141 7.29688 64.7539 6.94922 65.1914 6.65234C65.6602 6.32422 66.1094 6.16016 66.5391 6.16016C66.7969 6.16016 67.0117 6.27344 67.1836 6.5C67.3164 5.50781 67.3906 4.71484 67.4062 4.12109C67.0312 4.17578 66.7148 4.28125 66.457 4.4375C66.3086 4.53125 66.0508 4.74219 65.6836 5.07031C65.5039 5.17969 65.25 5.35156 64.9219 5.58594C64.2266 6.17969 63.6523 6.51172 63.1992 6.58203C63.043 6.61328 62.8047 6.66016 62.4844 6.72266C62.1719 6.78516 61.8984 6.81641 61.6641 6.81641C61.6016 6.81641 61.5117 6.78906 61.3945 6.73438C61.2773 6.67969 61.1992 6.62891 61.1602 6.58203C61.2539 6.30859 61.332 6.10938 61.3945 5.98438C61.4883 5.77344 61.5977 5.59375 61.7227 5.44531C61.957 5.17969 62.3008 4.91406 62.7539 4.64844C63.6914 4.10156 64.4453 3.72656 65.0156 3.52344C65.3672 3.4375 65.8906 3.29687 66.5859 3.10156C66.7109 3.07031 67.0469 2.96875 67.5938 2.79688C67.6875 2.52344 67.7773 2.24609 67.8633 1.96484C68.0039 1.63672 68.1875 1.43359 68.4141 1.35547L68.4492 1.53125C68.3477 1.64063 68.1836 2.03906 67.957 2.72656L68.0039 2.78516L69.082 2.60938C69.0352 2.30469 68.8555 1.94531 68.543 1.53125C68.5742 1.52344 68.6094 1.51953 68.6484 1.51953C68.7891 1.51953 68.9102 1.57812 69.0117 1.69531C69.1133 1.80469 69.207 1.91016 69.293 2.01172C69.3789 2.11328 69.4688 2.20703 69.5625 2.29297C69.6641 2.41797 69.7031 2.53125 69.6797 2.63281L69.8789 2.89062ZM67.0781 7.34375C67.0391 7.21094 66.9375 7.03906 66.7734 6.82812C66.6172 6.61719 66.4883 6.51172 66.3867 6.51172C66.0352 6.51172 65.7227 6.69922 65.4492 7.07422C65.1758 7.44922 65.0391 7.81641 65.0391 8.17578C65.0391 8.24609 65.043 8.32031 65.0508 8.39844C65.3008 8.34375 65.8945 8.28906 66.832 8.23438C66.8398 8.17969 66.8789 8.02734 66.9492 7.77734C67.0195 7.51953 67.0625 7.375 67.0781 7.34375Z" fill="white"/>
</svg>
