<svg width="79" height="13" viewBox="0 0 79 13" fill="none" xmlns="http://www.w3.org/2000/svg">
<path d="M7.82812 1.82812C7.65104 2.80729 7.51042 3.51562 7.40625 3.95312C7.25 4.73438 7.07812 5.4375 6.89062 6.0625L6.23438 8.29688C6.06771 8.78646 5.85938 9.53125 5.60938 10.5312L5.57812 10.5156C5.50521 10.5677 5.46354 10.6458 5.45312 10.75C5.45312 10.8542 5.45312 10.9531 5.45312 11.0469C5.39062 11.151 5.31771 11.3177 5.23438 11.5469C5.01562 11.5156 4.84375 11.3854 4.71875 11.1562C4.63542 11 4.55208 10.8385 4.46875 10.6719C4.54167 10.2031 4.57812 9.89062 4.57812 9.73438C4.57812 9.34896 4.54688 8.78125 4.48438 8.03125C4.42188 7.27083 4.39062 6.70312 4.39062 6.32812C4.25521 6.78646 4.125 7.38542 4 8.125C3.83333 9.20833 3.73958 9.80729 3.71875 9.92188C3.67708 10.3906 3.56771 11.0833 3.39062 12C3.19271 12 3.04167 11.8854 2.9375 11.6562C2.85417 11.4792 2.66146 10.9167 2.35938 9.96875C1.93229 8.84375 1.34375 7.13021 0.59375 4.82812C0.541667 4.67188 0.473958 4.4375 0.390625 4.125C0.348958 3.83333 0.328125 3.49479 0.328125 3.10938C0.328125 2.74479 0.453125 2.16667 0.703125 1.375C0.713542 1.16667 0.765625 0.916667 0.859375 0.625C1.01562 0.666667 1.31771 0.703125 1.76562 0.734375L1.73438 0.8125C1.76562 0.9375 1.86979 1.10417 2.04688 1.3125L2.17188 1.28125L2.15625 1.34375L2.21875 1.48438C2.21875 1.57812 2.25521 1.67708 2.32812 1.78125C2.41146 1.92708 2.46354 2.02083 2.48438 2.0625C2.50521 2.26042 2.55208 2.55729 2.625 2.95312C2.55208 3.13021 2.46875 3.39583 2.375 3.75C2.375 3.8125 2.35938 3.90625 2.32812 4.03125L2.3125 4.0625C2.38542 4.3125 2.45833 4.46875 2.53125 4.53125C2.51042 4.63542 2.5 4.74479 2.5 4.85938C2.5 4.97396 2.50521 5.14062 2.51562 5.35938C2.53646 5.56771 2.54688 5.72917 2.54688 5.84375C2.54688 5.90625 2.53125 6 2.5 6.125C2.47917 6.25 2.46875 6.34375 2.46875 6.40625C2.46875 6.67708 2.57292 7.36458 2.78125 8.46875C2.82292 8.98958 2.92708 9.75521 3.09375 10.7656C3.33333 9.45312 3.54688 8.26562 3.73438 7.20312C4.07812 5.26562 4.25 4.17708 4.25 3.9375C4.25 3.8125 4.21354 3.625 4.14062 3.375C4.07812 3.11458 4.04688 2.92188 4.04688 2.79688C4.04688 2.60938 4.07812 2.43229 4.14062 2.26562C4.18229 2.01562 4.22396 1.76562 4.26562 1.51562C4.34896 1.15104 4.47917 0.96875 4.65625 0.96875C4.6875 1.08333 4.75521 1.15625 4.85938 1.1875C4.98438 1.10417 5.17708 1 5.4375 0.875C5.55208 0.895833 5.65104 0.958333 5.73438 1.0625C5.73438 1.17708 5.73958 1.33854 5.75 1.54688C5.6875 1.91146 5.65104 2.44271 5.64062 3.14062C5.61979 3.88021 5.58854 4.41146 5.54688 4.73438C5.35938 6.09896 5.26562 7.02604 5.26562 7.51562C5.26562 8.01562 5.30208 8.54167 5.375 9.09375C5.90625 8.14583 6.34375 6.90625 6.6875 5.375C7.125 3.39583 7.4375 2.14062 7.625 1.60938C7.67708 1.66146 7.74479 1.73438 7.82812 1.82812ZM15.1094 9.79688C15.1094 9.93229 15.1042 9.98958 15.0938 9.96875L15 10.0312C14.9688 10.0312 14.9167 10.026 14.8438 10.0156C14.7708 10.0052 14.7135 10 14.6719 10C14.6302 10 14.5885 10.0104 14.5469 10.0312C14.5156 10.0521 14.4896 10.0833 14.4688 10.125C14.1771 10.2083 13.75 10.3698 13.1875 10.6094C13.1146 10.651 12.7969 10.9271 12.2344 11.4375C11.8594 11.7812 11.4844 11.9531 11.1094 11.9531C11.026 11.9531 10.9479 11.9427 10.875 11.9219C10.7812 11.8594 10.5521 11.7604 10.1875 11.625C9.89583 11.5208 9.69271 11.3698 9.57812 11.1719C9.53646 11.0573 9.47917 10.8906 9.40625 10.6719C9.21875 10.1615 9.125 9.82292 9.125 9.65625C9.125 8.41667 9.38542 7.42708 9.90625 6.6875C10.5 5.83333 11.3906 5.40625 12.5781 5.40625C12.7031 5.40625 12.8906 5.43229 13.1406 5.48438C13.4323 5.54688 13.6146 5.60938 13.6875 5.67188C13.7083 5.67188 13.7448 5.66146 13.7969 5.64062C13.849 5.61979 13.8906 5.60938 13.9219 5.60938C14.0052 5.60938 14.1042 5.64583 14.2188 5.71875C14.3333 5.78125 14.4167 5.81771 14.4688 5.82812C14.4688 5.91146 14.4479 6.02604 14.4062 6.17188C14.5 6.22396 14.5469 6.35417 14.5469 6.5625C14.5469 6.64583 14.4896 6.78125 14.375 6.96875C14.0729 7.42708 13.6771 7.78125 13.1875 8.03125C12.9271 8.15625 12.4219 8.32292 11.6719 8.53125C11.4844 8.57292 11.2135 8.65104 10.8594 8.76562C10.4323 8.68229 10.1771 8.55208 10.0938 8.375L10.1562 8.3125V8.25C10.2083 8.25 10.25 8.23438 10.2812 8.20312C10.3958 8.04688 10.5521 7.83854 10.75 7.57812C10.8333 7.47396 11.1302 7.24479 11.6406 6.89062C12.1615 6.52604 12.474 6.33854 12.5781 6.32812C12.3385 6.16146 12.1979 6.06771 12.1562 6.04688C12.0312 5.99479 11.8542 5.96875 11.625 5.96875C11.1042 5.96875 10.6771 6.25 10.3438 6.8125C10.0729 7.28125 9.91667 7.80208 9.875 8.375C9.875 8.42708 9.85938 8.52083 9.82812 8.65625C9.80729 8.79167 9.79688 8.89062 9.79688 8.95312C9.79688 9.31771 9.85417 9.59375 9.96875 9.78125C10.0833 9.96875 10.2969 10.1458 10.6094 10.3125C10.9219 10.4792 11.1719 10.5625 11.3594 10.5625C11.6094 10.5625 12.0781 10.401 12.7656 10.0781C13.526 9.72396 14.0833 9.52083 14.4375 9.46875C14.5833 9.52083 14.7969 9.59896 15.0781 9.70312L15.1094 9.75V9.79688ZM23.0156 9.96875C22.9219 10.1042 22.8958 10.2708 22.9375 10.4688C22.8646 10.5208 22.7708 10.6458 22.6562 10.8438C22.5729 10.9896 22.4896 11.1354 22.4062 11.2812V11.375C22.3438 11.3958 22.2448 11.4792 22.1094 11.625C21.9844 11.7708 21.8646 11.8438 21.75 11.8438C21.4688 11.8438 21.2448 11.6562 21.0781 11.2812C20.9427 10.9792 20.875 10.6719 20.875 10.3594C20.875 9.36979 20.9271 8.60417 21.0312 8.0625L20.9531 7.70312C20.7344 8.03646 20.224 8.73438 19.4219 9.79688C18.7656 10.6406 18.2917 11.3594 18 11.9531C17.8958 11.8698 17.7656 11.7396 17.6094 11.5625L17.6875 11.4062L17.6094 10.9688C17.5885 10.8542 17.6823 10.7344 17.8906 10.6094C17.9427 9.93229 18.0104 8.91146 18.0938 7.54688L18.0625 7.5C17.9896 7.47917 17.8958 7.47396 17.7812 7.48438C17.6875 7.53646 17.6562 7.5625 17.6875 7.5625V7.54688C17.3438 7.54688 17.0469 7.48958 16.7969 7.375C16.7969 7.26042 16.8281 7.13021 16.8906 6.98438C16.9531 6.83854 16.9844 6.74479 16.9844 6.70312C16.9844 6.70312 16.9792 6.67708 16.9688 6.625L16.875 6.53125C16.875 6.45833 16.8906 6.34896 16.9219 6.20312C16.9531 6.05729 16.9688 5.94792 16.9688 5.875C16.9688 5.79167 16.9167 5.70312 16.8125 5.60938C16.8125 5.59896 16.9167 5.45312 17.125 5.17188C17.1875 5.05729 17.2865 4.88542 17.4219 4.65625C17.4948 4.57292 17.6094 4.48438 17.7656 4.39062C17.9323 4.28646 18.0625 4.23438 18.1562 4.23438C18.2604 4.23438 18.3594 4.28646 18.4531 4.39062C18.5469 4.49479 18.6406 4.59375 18.7344 4.6875C18.8802 4.8125 19.0677 4.91146 19.2969 4.98438C19.4219 5.01562 19.5781 5.13542 19.7656 5.34375C19.9635 5.55208 20.0781 5.71875 20.1094 5.84375C20.151 6.05208 20.1719 6.24479 20.1719 6.42188C20.0781 6.55729 19.8385 6.70833 19.4531 6.875L19.375 6.78125C18.9479 7.35417 18.7188 8.07812 18.6875 8.95312L18.8594 9.03125C19.2135 8.51042 19.6198 7.91146 20.0781 7.23438C20.2552 7.01562 20.4896 6.68229 20.7812 6.23438C20.8125 6.17188 20.8594 5.94792 20.9219 5.5625C20.974 5.27083 21.0781 5.06771 21.2344 4.95312C21.3698 4.97396 21.526 5.05729 21.7031 5.20312C21.8385 5.31771 21.974 5.42708 22.1094 5.53125C22.224 5.58333 22.3854 5.68229 22.5938 5.82812C22.6979 5.94271 22.7969 6.10417 22.8906 6.3125C22.7552 6.72917 22.5573 7.35417 22.2969 8.1875C22.1406 8.60417 21.9479 9.23958 21.7188 10.0938L21.6875 10.125C21.6979 10.1458 21.724 10.1927 21.7656 10.2656C21.8177 10.3385 21.901 10.375 22.0156 10.375C22.349 10.375 22.6823 10.2396 23.0156 9.96875ZM30.8594 10.7812C30.4531 11.0417 30.0469 11.3073 29.6406 11.5781C29.0573 11.9323 28.6302 12.1094 28.3594 12.1094C27.7552 12.1094 27.375 11.5781 27.2188 10.5156C27.2083 10.3594 27.1927 10.125 27.1719 9.8125C26.8385 10.2604 26.4479 10.8229 26 11.5C25.7708 11.4792 25.6354 11.3958 25.5938 11.25C26.625 9.94792 27.2188 8.80729 27.375 7.82812C27.1146 7.81771 26.7344 7.75521 26.2344 7.64062C26.151 7.60938 26.0677 7.59375 25.9844 7.59375L25.875 7.60938C25.7188 7.76562 25.5781 7.84375 25.4531 7.84375C25.2969 7.84375 25.1354 7.78646 24.9688 7.67188C24.8125 7.54688 24.7135 7.40625 24.6719 7.25C24.7031 7.20833 24.7188 7.16146 24.7188 7.10938C24.6875 6.95312 24.6719 6.89062 24.6719 6.92188C24.6719 6.92188 24.6771 6.89583 24.6875 6.84375L24.9062 6.875L25.375 6.64062C25.375 6.34896 25.5208 6.19271 25.8125 6.17188L25.8438 6.14062C25.8646 6.15104 25.8854 6.16667 25.9062 6.1875L25.9531 6.20312L26.0469 6.17188L26.125 6.25L26.1719 6.21875L26.1875 6.20312L26.2344 6.1875L26.2969 6.25C26.3177 6.375 26.3698 6.50521 26.4531 6.64062L27.5781 6.78125C27.6406 6.46875 27.7344 6.00521 27.8594 5.39062L27.7188 4.95312C27.7396 4.71354 27.7656 4.47396 27.7969 4.23438C27.8385 3.95312 27.9688 3.76042 28.1875 3.65625L28.25 3.6875L28.2969 3.59375H28.3281L28.4531 3.73438L28.5938 3.6875C28.6875 3.73958 28.875 3.80208 29.1562 3.875C29.1875 3.875 29.2344 3.85417 29.2969 3.8125C29.3698 3.76042 29.4219 3.73438 29.4531 3.73438C29.5052 3.73438 29.5469 3.73958 29.5781 3.75C29.7031 3.72917 29.8021 3.78125 29.875 3.90625C29.9583 4.02083 30 4.14062 30 4.26562C29.875 4.45312 29.6927 4.73438 29.4531 5.10938C29.3802 5.21354 29.2604 5.53125 29.0938 6.0625C28.9271 6.59375 28.8333 6.9375 28.8125 7.09375C29.0417 7.20833 29.2656 7.31771 29.4844 7.42188C29.7344 7.55729 29.9323 7.71354 30.0781 7.89062C29.1927 7.84896 28.8177 7.82812 28.9531 7.82812C28.7865 7.82812 28.6771 7.84375 28.625 7.875C28.4167 8.44792 28.3125 9.17708 28.3125 10.0625C28.3125 10.8958 28.526 11.3125 28.9531 11.3125C29.4844 11.3125 29.9896 11.0729 30.4688 10.5938C30.4896 10.6042 30.6198 10.6667 30.8594 10.7812ZM39.7344 11.5938C39.6615 11.6771 39.5625 11.8229 39.4375 12.0312C38.5417 11.8542 36.8385 10.7448 34.3281 8.70312C34.2448 8.70312 34.1615 8.72917 34.0781 8.78125C33.9948 8.89583 33.9167 9.17188 33.8438 9.60938C33.7812 9.99479 33.75 10.2917 33.75 10.5C33.75 10.9375 33.849 11.2917 34.0469 11.5625C34.1302 11.4896 34.2448 11.3333 34.3906 11.0938H34.5V11.1406C34.5104 11.276 34.4479 11.4115 34.3125 11.5469C34.1771 11.6719 34.0365 11.7344 33.8906 11.7344C33.7344 11.7344 33.5781 11.5938 33.4219 11.3125C33.224 10.9375 33.1198 10.7448 33.1094 10.7344L33.0469 10.7812C33.0885 11.1354 33.2396 11.4427 33.5 11.7031C32.8542 11.0469 32.5312 9.88542 32.5312 8.21875C32.5312 7.35417 32.6823 6.48958 32.9844 5.625C33.2552 4.84375 33.526 4.05729 33.7969 3.26562C33.901 3.18229 34 3.0625 34.0938 2.90625C34.2396 2.66667 34.3229 2.53125 34.3438 2.5C34.4375 2.375 34.6927 2.10417 35.1094 1.6875C35.526 1.27083 35.776 1.04167 35.8594 1L35.875 0.890625L35.9062 0.90625C36.0729 0.90625 36.1667 0.901042 36.1875 0.890625L36.2344 0.9375C36.2448 0.979167 36.2552 1.01562 36.2656 1.04688C36.3281 0.942708 36.4062 0.895833 36.5 0.90625H36.5469L36.625 0.96875C36.7083 1.01042 36.8594 1.03125 37.0781 1.03125C37.2135 1.03125 37.4115 0.989583 37.6719 0.90625C37.9427 0.822917 38.151 0.78125 38.2969 0.78125C38.6927 0.78125 38.8802 0.9375 38.8594 1.25V1.3125C38.651 1.42708 38.5312 1.52083 38.5 1.59375C38.4583 1.72917 38.3906 1.9375 38.2969 2.21875C38.276 2.27083 38.1823 2.4375 38.0156 2.71875C37.8906 2.91667 37.8281 3.09375 37.8281 3.25C37.8281 3.375 37.8385 3.5625 37.8594 3.8125C37.8802 4.0625 37.8906 4.25 37.8906 4.375C37.8906 5.11458 37.901 5.54167 37.9219 5.65625C38.099 6.65625 38.4479 7.92708 38.9688 9.46875C39.0104 9.625 39.151 9.97396 39.3906 10.5156C39.5677 10.9115 39.6823 11.2708 39.7344 11.5938ZM36.8906 6.40625C36.8073 5.97917 36.6562 5.40625 36.4375 4.6875C36.375 4.6875 36.2865 4.70833 36.1719 4.75C36.0677 4.79167 35.9844 4.8125 35.9219 4.8125H35.875C35.8333 4.77083 35.7708 4.70312 35.6875 4.60938C35.5417 4.66146 35.3958 4.875 35.25 5.25C35.2917 5.30208 35.3125 5.35417 35.3125 5.40625C35.3125 5.44792 35.2969 5.49479 35.2656 5.54688L35.25 5.45312C35.0312 5.67188 34.8854 5.96354 34.8125 6.32812L34.8594 6.34375H35.0469L35.1094 6.375C35.849 6.32292 36.1667 6.29688 36.0625 6.29688C36.1354 6.29688 36.25 6.31771 36.4062 6.35938C36.5625 6.40104 36.6823 6.41667 36.7656 6.40625H36.8906ZM38.5469 10.75C38.2656 10.0417 37.8542 8.97917 37.3125 7.5625C36.6875 7.75 35.7292 7.91667 34.4375 8.0625C34.5833 8.54167 35.1771 9.08333 36.2188 9.6875C37.0729 10.1875 37.849 10.5417 38.5469 10.75ZM46.7031 9.17188C46.7031 9.72396 46.526 10.2396 46.1719 10.7188C45.776 11.2396 45.3125 11.5 44.7812 11.5C44.1458 11.5 43.6719 11.1615 43.3594 10.4844C43.2344 10.4948 43.125 10.5833 43.0312 10.75C42.9375 10.9062 42.8542 11.0521 42.7812 11.1875C42.6458 11.3542 42.5156 11.526 42.3906 11.7031C42.2656 11.8802 42.1927 12.0833 42.1719 12.3125C42.1198 12.3542 42.0417 12.4167 41.9375 12.5C41.5104 12.2917 41.2969 11.8385 41.2969 11.1406C41.2969 11.099 41.2865 11.0365 41.2656 10.9531C41.2552 10.8698 41.25 10.8073 41.25 10.7656C41.25 10.6198 41.2917 10.5208 41.375 10.4688C41.3646 10.4271 41.3333 10.3177 41.2812 10.1406C41.2396 10.0156 41.2188 9.89583 41.2188 9.78125C41.2188 9.64583 41.2656 9.52083 41.3594 9.40625C41.4635 9.29167 41.5833 9.23438 41.7188 9.23438C41.7708 9.23438 41.8385 9.25521 41.9219 9.29688C42.0156 9.32812 42.0833 9.34375 42.125 9.34375C42.1354 9.3125 42.2917 9.08333 42.5938 8.65625C42.7917 8.375 42.8906 8.13021 42.8906 7.92188C42.8906 7.80729 42.875 7.63542 42.8438 7.40625C42.8229 7.17708 42.8125 7 42.8125 6.875C42.8125 6.03125 42.8802 5.16667 43.0156 4.28125C43.1927 3.11458 43.4427 2.3125 43.7656 1.875C44.0677 1.46875 44.4167 1.1875 44.8125 1.03125L44.8594 1.04688H44.9062L45.0781 0.90625C45.1615 0.9375 45.3125 0.96875 45.5312 1L45.7656 1.95312L45.8438 1.96875L45.8906 2C45.901 2.04167 45.9062 2.08854 45.9062 2.14062C45.9062 2.19271 45.8333 2.39583 45.6875 2.75C45.5208 3.16667 45.4375 3.38542 45.4375 3.40625L45.3125 3.8125C45.1354 4.375 44.9896 5.06771 44.875 5.89062C44.8229 6.27604 44.7083 6.73958 44.5312 7.28125C44.3646 7.72917 44.2031 8.17708 44.0469 8.625C43.8802 9.125 43.7969 9.375 43.7969 9.375C43.7969 9.61458 43.901 9.85938 44.1094 10.1094C44.3177 10.3594 44.5365 10.4844 44.7656 10.4844C44.7656 10.4844 44.7969 10.4792 44.8594 10.4688L44.8906 10.4219C44.9427 10.4427 45.0052 10.4635 45.0781 10.4844C45.4219 10.4844 45.7656 10.3021 46.1094 9.9375C46.4219 9.59375 46.6146 9.24479 46.6875 8.89062C46.6979 8.98438 46.7031 9.07812 46.7031 9.17188ZM44.7969 2.92188L44.6719 2.875C43.9115 3.97917 43.5208 5.625 43.5 7.8125C43.7292 7 43.9635 6.1875 44.2031 5.375C44.4635 4.42708 44.6615 3.60938 44.7969 2.92188ZM54.7031 9.17188C54.7031 9.72396 54.526 10.2396 54.1719 10.7188C53.776 11.2396 53.3125 11.5 52.7812 11.5C52.1458 11.5 51.6719 11.1615 51.3594 10.4844C51.2344 10.4948 51.125 10.5833 51.0312 10.75C50.9375 10.9062 50.8542 11.0521 50.7812 11.1875C50.6458 11.3542 50.5156 11.526 50.3906 11.7031C50.2656 11.8802 50.1927 12.0833 50.1719 12.3125C50.1198 12.3542 50.0417 12.4167 49.9375 12.5C49.5104 12.2917 49.2969 11.8385 49.2969 11.1406C49.2969 11.099 49.2865 11.0365 49.2656 10.9531C49.2552 10.8698 49.25 10.8073 49.25 10.7656C49.25 10.6198 49.2917 10.5208 49.375 10.4688C49.3646 10.4271 49.3333 10.3177 49.2812 10.1406C49.2396 10.0156 49.2188 9.89583 49.2188 9.78125C49.2188 9.64583 49.2656 9.52083 49.3594 9.40625C49.4635 9.29167 49.5833 9.23438 49.7188 9.23438C49.7708 9.23438 49.8385 9.25521 49.9219 9.29688C50.0156 9.32812 50.0833 9.34375 50.125 9.34375C50.1354 9.3125 50.2917 9.08333 50.5938 8.65625C50.7917 8.375 50.8906 8.13021 50.8906 7.92188C50.8906 7.80729 50.875 7.63542 50.8438 7.40625C50.8229 7.17708 50.8125 7 50.8125 6.875C50.8125 6.03125 50.8802 5.16667 51.0156 4.28125C51.1927 3.11458 51.4427 2.3125 51.7656 1.875C52.0677 1.46875 52.4167 1.1875 52.8125 1.03125L52.8594 1.04688H52.9062L53.0781 0.90625C53.1615 0.9375 53.3125 0.96875 53.5312 1L53.7656 1.95312L53.8438 1.96875L53.8906 2C53.901 2.04167 53.9062 2.08854 53.9062 2.14062C53.9062 2.19271 53.8333 2.39583 53.6875 2.75C53.5208 3.16667 53.4375 3.38542 53.4375 3.40625L53.3125 3.8125C53.1354 4.375 52.9896 5.06771 52.875 5.89062C52.8229 6.27604 52.7083 6.73958 52.5312 7.28125C52.3646 7.72917 52.2031 8.17708 52.0469 8.625C51.8802 9.125 51.7969 9.375 51.7969 9.375C51.7969 9.61458 51.901 9.85938 52.1094 10.1094C52.3177 10.3594 52.5365 10.4844 52.7656 10.4844C52.7656 10.4844 52.7969 10.4792 52.8594 10.4688L52.8906 10.4219C52.9427 10.4427 53.0052 10.4635 53.0781 10.4844C53.4219 10.4844 53.7656 10.3021 54.1094 9.9375C54.4219 9.59375 54.6146 9.24479 54.6875 8.89062C54.6979 8.98438 54.7031 9.07812 54.7031 9.17188ZM52.7969 2.92188L52.6719 2.875C51.9115 3.97917 51.5208 5.625 51.5 7.8125C51.7292 7 51.9635 6.1875 52.2031 5.375C52.4635 4.42708 52.6615 3.60938 52.7969 2.92188ZM63.5156 4.92188C63.3698 5.98438 63.224 7.04167 63.0781 8.09375C62.8177 9.47917 62.4115 10.401 61.8594 10.8594C61.3073 11.3073 60.5573 11.651 59.6094 11.8906C59.2969 11.8281 58.8333 11.6823 58.2188 11.4531C58.0833 11.3802 57.9427 11.2552 57.7969 11.0781C57.3802 10.5677 57.1042 9.99479 56.9688 9.35938C56.875 8.93229 56.8281 8.29167 56.8281 7.4375C56.8281 6.38542 56.9792 5.38021 57.2812 4.42188C57.6146 3.32812 58.1042 2.4375 58.75 1.75C58.9375 1.54167 59.1823 1.34375 59.4844 1.15625C59.8385 0.9375 60.1302 0.828125 60.3594 0.828125C60.4531 0.828125 60.5573 0.911458 60.6719 1.07812C60.7969 1.27604 60.8958 1.39583 60.9688 1.4375C61.0833 1.45833 61.2552 1.51042 61.4844 1.59375C61.6198 1.65625 61.776 1.77083 61.9531 1.9375C62.1823 2.14583 62.3281 2.27083 62.3906 2.3125C62.4635 2.34375 62.5625 2.39583 62.6875 2.46875C62.7396 2.52083 62.8073 2.67708 62.8906 2.9375C62.901 2.97917 62.9688 3.08333 63.0938 3.25C63.125 3.30208 63.1875 3.48438 63.2812 3.79688C63.3854 4.10938 63.4427 4.30208 63.4531 4.375C63.4427 4.53125 63.4635 4.71354 63.5156 4.92188ZM62.2969 6.67188C62.2969 6.54688 62.2656 6.38542 62.2031 6.1875C62.151 5.97917 62.1198 5.83333 62.1094 5.75C62.1094 5.65625 62.0938 5.53646 62.0625 5.39062H62.0469L62.0312 5.40625L62.0156 5.45312C61.901 5.04688 61.7031 4.70312 61.4219 4.42188C61.2448 4.23438 60.9271 3.98958 60.4688 3.6875C60.1458 3.70833 59.7917 4.02083 59.4062 4.625C59.1458 5.07292 58.8906 5.51562 58.6406 5.95312C58.2448 6.56771 57.9792 7.04167 57.8438 7.375C57.7812 7.53125 57.7135 7.82812 57.6406 8.26562C57.5677 8.69271 57.5312 8.99479 57.5312 9.17188C57.5312 9.66146 57.651 10.0729 57.8906 10.4062C58.1719 10.7812 58.5469 10.9635 59.0156 10.9531H59.0781C59.4115 10.8698 59.8281 10.7552 60.3281 10.6094C60.4115 10.5781 60.5781 10.4896 60.8281 10.3438C61.0885 10.1979 61.2396 10.099 61.2812 10.0469C61.3854 9.91146 61.4844 9.83333 61.5781 9.8125C62.0573 8.96875 62.2969 7.92188 62.2969 6.67188ZM71.2969 11.0938C71.1198 11.2083 70.9375 11.3229 70.75 11.4375C70.5 11.6042 70.3073 11.6875 70.1719 11.6875C70.0052 11.6875 69.8594 11.6094 69.7344 11.4531C69.5365 11.2031 69.4271 11.0729 69.4062 11.0625C69.25 11.3542 69 11.6146 68.6562 11.8438C68.3229 12.0729 68 12.1875 67.6875 12.1875C67.1042 12.1875 66.4531 11.8802 65.7344 11.2656L65.625 11.3125C65.5104 11.2188 65.4271 11.1146 65.375 11C65.2917 10.8333 65.2292 10.724 65.1875 10.6719L65.1562 10.7656C65.1875 10.8594 65.224 11 65.2656 11.1875C65.1094 10.8333 65.0312 10.3594 65.0312 9.76562C65.0312 9.40104 65.0781 8.92188 65.1719 8.32812C65.2969 7.55729 65.3698 7.08333 65.3906 6.90625C65.4635 6.8125 65.5781 6.71354 65.7344 6.60938C65.776 6.60938 65.8177 6.63021 65.8594 6.67188C65.8906 6.64062 65.9323 6.60938 65.9844 6.57812C66.0781 6.45312 66.1354 6.32812 66.1562 6.20312H66.2031C66.2865 6.24479 66.3542 6.26562 66.4062 6.26562L66.5156 6.23438C66.5156 6.28646 66.5677 6.35938 66.6719 6.45312C66.7344 6.41146 66.8385 6.34375 66.9844 6.25C67.0469 6.25 67.1042 6.25521 67.1562 6.26562L67.1875 6.17188C67.5417 6.40104 67.7188 6.60417 67.7188 6.78125L67.6094 6.95312L67.6875 6.96875L67.7188 7.03125C67.375 7.26042 67.1719 7.43229 67.1094 7.54688C67.0781 7.57812 66.9844 7.75 66.8281 8.0625C66.4115 8.91667 66.2031 9.81771 66.2031 10.7656C66.2031 11.0573 66.3385 11.3385 66.6094 11.6094C66.8906 11.8802 67.1771 12.0156 67.4688 12.0156C67.875 12.0156 68.2865 11.5938 68.7031 10.75C69.0677 10.0104 69.25 9.41667 69.25 8.96875C69.25 8.52083 69.2656 8.26042 69.2969 8.1875C69.2969 7.73958 69.3281 7.375 69.3906 7.09375C69.3594 7.03125 69.3125 6.9375 69.25 6.8125L69.625 6.70312C69.7812 6.45312 69.8646 6.31771 69.875 6.29688C69.9792 6.18229 70.1302 6.10417 70.3281 6.0625C70.4115 6.11458 70.526 6.20312 70.6719 6.32812V6.40625C70.6823 6.53125 70.6146 6.71875 70.4688 6.96875C70.2917 7.28125 70.1927 7.47396 70.1719 7.54688C70.1198 7.73438 70.0521 8.10417 69.9688 8.65625C69.8958 9.16667 69.8594 9.48958 69.8594 9.625C69.8594 10.125 69.9688 10.5521 70.1875 10.9062C70.5833 10.8229 70.8698 10.7083 71.0469 10.5625C71.099 10.6771 71.1823 10.8542 71.2969 11.0938ZM78.8594 10.7812C78.4531 11.0417 78.0469 11.3073 77.6406 11.5781C77.0573 11.9323 76.6302 12.1094 76.3594 12.1094C75.7552 12.1094 75.375 11.5781 75.2188 10.5156C75.2083 10.3594 75.1927 10.125 75.1719 9.8125C74.8385 10.2604 74.4479 10.8229 74 11.5C73.7708 11.4792 73.6354 11.3958 73.5938 11.25C74.625 9.94792 75.2188 8.80729 75.375 7.82812C75.1146 7.81771 74.7344 7.75521 74.2344 7.64062C74.151 7.60938 74.0677 7.59375 73.9844 7.59375L73.875 7.60938C73.7188 7.76562 73.5781 7.84375 73.4531 7.84375C73.2969 7.84375 73.1354 7.78646 72.9688 7.67188C72.8125 7.54688 72.7135 7.40625 72.6719 7.25C72.7031 7.20833 72.7188 7.16146 72.7188 7.10938C72.6875 6.95312 72.6719 6.89062 72.6719 6.92188C72.6719 6.92188 72.6771 6.89583 72.6875 6.84375L72.9062 6.875L73.375 6.64062C73.375 6.34896 73.5208 6.19271 73.8125 6.17188L73.8438 6.14062C73.8646 6.15104 73.8854 6.16667 73.9062 6.1875L73.9531 6.20312L74.0469 6.17188L74.125 6.25L74.1719 6.21875L74.1875 6.20312L74.2344 6.1875L74.2969 6.25C74.3177 6.375 74.3698 6.50521 74.4531 6.64062L75.5781 6.78125C75.6406 6.46875 75.7344 6.00521 75.8594 5.39062L75.7188 4.95312C75.7396 4.71354 75.7656 4.47396 75.7969 4.23438C75.8385 3.95312 75.9688 3.76042 76.1875 3.65625L76.25 3.6875L76.2969 3.59375H76.3281L76.4531 3.73438L76.5938 3.6875C76.6875 3.73958 76.875 3.80208 77.1562 3.875C77.1875 3.875 77.2344 3.85417 77.2969 3.8125C77.3698 3.76042 77.4219 3.73438 77.4531 3.73438C77.5052 3.73438 77.5469 3.73958 77.5781 3.75C77.7031 3.72917 77.8021 3.78125 77.875 3.90625C77.9583 4.02083 78 4.14062 78 4.26562C77.875 4.45312 77.6927 4.73438 77.4531 5.10938C77.3802 5.21354 77.2604 5.53125 77.0938 6.0625C76.9271 6.59375 76.8333 6.9375 76.8125 7.09375C77.0417 7.20833 77.2656 7.31771 77.4844 7.42188C77.7344 7.55729 77.9323 7.71354 78.0781 7.89062C77.1927 7.84896 76.8177 7.82812 76.9531 7.82812C76.7865 7.82812 76.6771 7.84375 76.625 7.875C76.4167 8.44792 76.3125 9.17708 76.3125 10.0625C76.3125 10.8958 76.526 11.3125 76.9531 11.3125C77.4844 11.3125 77.9896 11.0729 78.4688 10.5938C78.4896 10.6042 78.6198 10.6667 78.8594 10.7812Z" fill="white"/>
</svg>
