<svg width="123" height="29" viewBox="0 0 123 29" fill="none" xmlns="http://www.w3.org/2000/svg">
<path d="M8.24 29L0 0.759999H8L14.4 22.52L19.52 0.759999H26.92L32.52 22.72L38.56 0.759999H41.32L33.52 29H26.16L20.72 8.04L15.6 29H8.24ZM31.2 26.88L25.08 2.88H21.76L27.84 26.88H31.2ZM13.32 26.88L6.28 2.88H2.96L9.96 26.88H13.32ZM63.0844 29H43.3244V0.759999H63.0844V3.44H51.8044V13.2H61.2444V15.88H51.8044V26.32H63.0844V29ZM49.3644 26.88V2.88H45.7644V26.88H49.3644ZM65.8931 29V0.759999H73.9731L89.4531 23.12V0.759999H92.4131V29H84.3331L68.8531 6.64V29H65.8931ZM89.3331 26.88L72.7331 2.88H68.9331L85.5331 26.88H89.3331ZM104.026 3.72H94.3859V0.759999H122.146V3.72H112.506V29H104.026V3.72ZM110.066 3.72H106.466V26.88H110.066V3.72Z" fill="white"/>
</svg>
