<svg version="1.2" xmlns="http://www.w3.org/2000/svg" viewBox="0 0 288 288" width="288" height="288"><style>.a{fill:#e88615}</style><path fill-rule="evenodd" class="a" d="m259.2 50.4c0 9.6-2.7 19-7.9 27.1-5.2 8.1-12.5 14.5-21.2 18.6 2.8 12.6 2.8 25.6 0 38.2 14.9 7 25.5 20.7 28.3 36.9 2.9 16.2-2.3 32.8-14 44.4-11.6 11.7-28.2 16.9-44.4 14-16.2-2.8-29.9-13.4-36.9-28.3-12.6 2.8-25.6 2.8-38.2 0-7 14.9-20.7 25.5-36.9 28.3-16.2 2.9-32.8-2.3-44.4-14-11.7-11.6-16.9-28.2-14-44.4 2.8-16.2 13.4-29.9 28.3-36.9-2.8-12.6-2.8-25.6 0-38.2-8.7-4.1-16-10.5-21.2-18.6-5.1-8.1-7.9-17.5-7.9-27.1 0-15.4 7.1-30 19.1-39.5 12.1-9.6 27.9-13.1 42.9-9.5 15 3.5 27.6 13.8 34.1 27.7 12.6-2.7 25.6-2.7 38.2 0 6.5-13.9 19.1-24.2 34.1-27.7 15-3.6 30.8-0.1 42.9 9.5 12 9.5 19.1 24.1 19.1 39.5zm-46.8-1.8h41.3c-0.4-11-4.9-21.4-12.5-29.4-7.6-7.9-17.8-12.8-28.8-13.6zm-39.6-25.2l34.2 22.8v-40.8c-13.5 0.5-26.1 7.2-34.2 18zm-8.5 33.6c1.5 10.1 6.4 19.3 13.8 26.2l27.5-31.4-35.8-23.9c-5.1 8.8-7 19.1-5.5 29.1zm-114.3-40.8c-8.2 6.9-13.6 16.6-15.3 27.1 8-7.1 24.3-19 44.5-19 20.2 0 36.5 11.9 44.4 19-1.6-10.5-7-20.2-15.2-27.1-8.1-7-18.5-10.8-29.2-10.8-10.7 0-21.1 3.8-29.2 10.8zm14.6 48.8c3.8 3.9 9.1 6 14.6 6.1 5.5 0 10.7-2.2 14.6-6.1 3.9-3.9 6.1-9.2 6.1-14.6 0-5.5-2.2-10.8-6.1-14.7-3.9-3.9-9.1-6-14.6-6-5.5 0-10.8 2.1-14.6 6-3.9 3.9-6.1 9.2-6.1 14.7 0 5.4 2.2 10.7 6.1 14.6zm-5.8 1.5q0 0-0.1 0 0.1 0 0.1 0.1zm-0.1 0c-3.6-4.6-5.6-10.4-5.6-16.2 0-5.9 2-11.6 5.7-16.2-8.8 3.9-16.8 9.4-23.6 16.2 6.8 6.7 14.8 12.2 23.5 16.2zm104 93.1c5-11.6 14.3-20.8 25.8-25.9 11.5-5 24.5-5.6 36.5-1.6 2.4-11.2 2.4-22.9 0-34.1-12 4-25 3.5-36.5-1.6-11.6-5.1-20.8-14.3-25.8-25.8-5.1-11.6-5.7-24.6-1.6-36.5-11.3-2.4-22.9-2.4-34.2 0 1.8 5.2 2.7 10.7 2.7 16.2 0 16.2-7.8 31.5-21 40.9-13.2 9.5-30.2 12-45.6 6.8-2.4 11.2-2.4 22.9 0 34.1 12-4 25-3.4 36.5 1.6 11.5 5.1 20.8 14.3 25.8 25.9 5.1 11.5 5.7 24.5 1.6 36.4 11.3 2.4 22.9 2.4 34.2 0-4.1-11.9-3.5-24.9 1.6-36.4zm-128-102.3q0 0 0 0 0 0 0 0zm0.1 0c2.2 14.2 11.1 26.5 24 33.1 12.8 6.5 28 6.5 40.8 0 12.9-6.6 21.8-18.9 24.1-33.1-8 7.1-24.3 19.1-44.5 19.1-20.2 0-36.5-11.9-44.4-19.1zm74.1 156.4c-0.6-10.2-6.4-19.4-15.3-24.4-9-4.9-19.8-4.9-28.8 0-8.9 5-14.7 14.2-15.3 24.4 8.2 7.2 18.8 11.2 29.7 11.2 10.9 0 21.5-4 29.7-11.2zm15.2-36.5c-0.6-11.5-5.7-22.2-14-30.1-8.4-7.9-19.4-12.3-30.9-12.3-11.5 0-22.5 4.4-30.9 12.3-8.3 7.9-13.4 18.6-14 30.1-0.7 11.5 3 22.7 10.4 31.5 1.2-6.1 4.1-11.9 8.2-16.6 4.2-4.7 9.5-8.2 15.5-10.1-4-3.1-6.6-7.7-7-12.7-0.5-5 1.2-10 4.6-13.7 3.4-3.7 8.2-5.9 13.2-5.9 5 0 9.8 2.2 13.2 5.9 3.4 3.7 5.1 8.7 4.6 13.7-0.4 5-3 9.6-7 12.7 6 1.9 11.3 5.4 15.5 10.1 4.1 4.7 7 10.5 8.2 16.6 7.4-8.8 11.1-20 10.4-31.5zm-53.8-0.7c2.4 2.4 5.6 3.7 8.9 3.7 3.3 0 6.5-1.3 8.9-3.7 2.3-2.3 3.6-5.5 3.6-8.8 0-3.3-1.3-6.5-3.6-8.9-2.4-2.3-5.6-3.6-8.9-3.6-3.3 0-6.5 1.3-8.9 3.6-2.3 2.4-3.6 5.6-3.6 8.9 0 3.3 1.3 6.5 3.6 8.8zm29.3-110c8.8-4 16.8-9.5 23.6-16.2-6.8-6.8-14.8-12.3-23.6-16.2 3.7 4.6 5.7 10.3 5.7 16.2 0 5.9-2 11.6-5.7 16.2zm125.4 152.8h-32.4v2.5c10.4 4.1 22 4.1 32.4 0zm18.2-68.5c-6.9-8.1-16.4-13.5-26.9-15.3-10.5-1.8-21.3 0.2-30.4 5.7-9.2 5.4-16.1 13.9-19.6 23.9-3.5 10.1-3.3 21 0.5 31 3.8 9.9 11.1 18.1 20.4 23.2v-2.7c0-9.9-2.8-17.8-10.7-30.1-1-1.5-1.4-3.3-1.3-5.1 0.2-1.8 0.9-3.5 2.1-4.8 9.3-9.9 17.6-20.8 24.7-32.4 1.5-2.3 4-3.7 6.8-3.7 2.8 0 5.4 1.4 6.9 3.7 7.1 11.6 15.3 22.5 24.6 32.4 1.2 1.3 1.9 3 2.1 4.8 0.2 1.8-0.3 3.6-1.3 5.1-7.9 12.3-10.7 20.2-10.7 30.1v2.7c7.1-3.8 13-9.5 17.1-16.5 4.1-6.9 6.3-14.8 6.3-22.9 0-10.7-3.8-21-10.6-29.1zm-18.1 63.1c0.5-9.8 3.7-18.3 11.5-30.3 0.7-1 0.6-2.4-0.3-3.3-9.3-10-17.6-20.9-24.8-32.5v30.6c2.8 0.9 4.9 3 5.8 5.7 1 2.8 0.5 5.8-1.2 8.1-1.7 2.4-4.4 3.8-7.3 3.8-2.9 0-5.6-1.4-7.3-3.8-1.7-2.3-2.2-5.3-1.2-8.1 0.9-2.7 3-4.8 5.8-5.7v-30.6c-7.2 11.6-15.5 22.5-24.8 32.5-0.8 0.9-1 2.3-0.3 3.3 7.8 12 11 20.5 11.5 30.3zm-18.8-29.5c-0.7 0.7-1 1.6-1 2.5 0 1.5 0.8 2.8 2.2 3.4 1.3 0.5 2.9 0.2 3.9-0.8 1-1 1.3-2.6 0.8-3.9-0.6-1.4-1.9-2.3-3.3-2.3-1 0-1.9 0.4-2.6 1.1zm33.1-101.1c8.3-7.6 13.4-18.1 14.3-29.4h-42.7l-28.7 32.7c7.7 5.7 17 8.7 26.6 8.7 11.3 0 22.1-4.3 30.5-12z"/></svg>