<svg version="1.2" xmlns="http://www.w3.org/2000/svg" viewBox="0 0 288 288" width="288" height="288"><style>.a{fill:#e88615}</style><path fill-rule="evenodd" class="a" d="m234.9 0c6.4 0 12.6 2.6 17.2 7.1 4.5 4.6 7.1 10.8 7.1 17.2v135c0 6.4-2.6 12.6-7.1 17.2-4.6 4.5-10.8 7.1-17.2 7.1h-54.1c2.3 8.4 7.1 15.9 13.6 21.6h4.5c3.6 0 7 1.4 9.5 4 2.6 2.5 4 5.9 4 9.5v3.6c0 2.1-0.9 4.2-2.4 5.7-1.5 1.5-3.6 2.4-5.7 2.4h-120.6c-2.1 0-4.2-0.9-5.7-2.4-1.5-1.5-2.4-3.6-2.4-5.7v-3.6c0-3.6 1.4-7 4-9.5 2.5-2.6 5.9-4 9.5-4h4.5c6.6-5.7 11.3-13.2 13.6-21.6h-54.1c-6.4 0-12.6-2.6-17.2-7.1-4.5-4.6-7.1-10.8-7.1-17.2v-135c0-6.4 2.6-12.6 7.1-17.2 4.6-4.5 10.8-7.1 17.2-7.1zm-200.7 147.6h138.6v-142.2h-119.7c-5 0-9.8 2-13.4 5.5-3.5 3.6-5.5 8.4-5.5 13.4zm54.9 63c-2.1 0-4.2 0.9-5.7 2.4-1.5 1.5-2.4 3.6-2.4 5.7v3.6c0 1.5 1.2 2.7 2.7 2.7h120.6c1.5 0 2.7-1.2 2.7-2.7v-3.6c0-2.1-0.9-4.2-2.4-5.7-1.5-1.5-3.5-2.4-5.7-2.4zm86.1-27h-62.4c-2 8-5.9 15.5-11.5 21.6h85.5c-5.6-6.1-9.6-13.6-11.6-21.6zm78.6-30.6h-219.6v6.3c0 5 2 9.8 5.5 13.4 3.6 3.5 8.4 5.5 13.4 5.5h181.8c5 0 9.8-2 13.4-5.5 3.5-3.6 5.5-8.4 5.5-13.4zm0-128.7c0-5-2-9.8-5.5-13.4-3.6-3.5-8.4-5.5-13.4-5.5h-56.7v142.2h75.6z"/><path fill-rule="evenodd" class="a" d="m147.6 165.6c0 2-1.6 3.6-3.6 3.6-2 0-3.6-1.6-3.6-3.6 0-2 1.6-3.6 3.6-3.6 2 0 3.6 1.6 3.6 3.6zm13.8-147c1.5 1.5 2.4 3.6 2.4 5.7v50.4c0 2.1-0.9 4.2-2.4 5.7-1.5 1.5-3.6 2.4-5.7 2.4h-104.4c-2.1 0-4.2-0.9-5.7-2.4-1.5-1.5-2.4-3.6-2.4-5.7v-50.4c0-2.1 0.9-4.2 2.4-5.7 1.5-1.5 3.6-2.4 5.7-2.4h104.4c2.1 0 4.2 0.9 5.7 2.4zm-3 5.7c0-1.5-1.2-2.7-2.7-2.7h-104.4c-1.5 0-2.7 1.2-2.7 2.7v50.4c0 1.5 1.2 2.7 2.7 2.7h104.4c1.5 0 2.7-1.2 2.7-2.7zm-61.8 69.9c1.5 1.5 2.4 3.6 2.4 5.7v28.8c0 2.1-0.9 4.2-2.4 5.7-1.5 1.5-3.6 2.4-5.7 2.4h-39.6c-2.1 0-4.2-0.9-5.7-2.4-1.5-1.5-2.4-3.6-2.4-5.7v-28.8c0-2.1 0.9-4.2 2.4-5.7 1.5-1.5 3.6-2.4 5.7-2.4h39.6c2.1 0 4.2 0.9 5.7 2.4zm-3 5.7c0-1.5-1.2-2.7-2.7-2.7h-39.6c-1.5 0-2.7 1.2-2.7 2.7v28.8c0 1.5 1.2 2.7 2.7 2.7h39.6c1.5 0 2.7-1.2 2.7-2.7zm67.8-5.7c1.5 1.5 2.4 3.6 2.4 5.7v28.8c0 2.1-0.9 4.2-2.4 5.7-1.5 1.5-3.6 2.4-5.7 2.4h-39.6c-2.1 0-4.2-0.9-5.7-2.4-1.5-1.5-2.4-3.6-2.4-5.7v-28.8c0-2.1 0.9-4.2 2.4-5.7 1.5-1.5 3.6-2.4 5.7-2.4h39.6c2.1 0 4.2 0.9 5.7 2.4zm-3 5.7c0-1.5-1.2-2.7-2.7-2.7h-39.6c-1.5 0-2.7 1.2-2.7 2.7v28.8c0 1.5 1.2 2.7 2.7 2.7h39.6c1.5 0 2.7-1.2 2.7-2.7zm82.8 34.2c0 1.5-1.2 2.7-2.7 2.7h-45c-1.5 0-2.7-1.2-2.7-2.7 0-1.5 1.2-2.7 2.7-2.7h45c1.5 0 2.7 1.2 2.7 2.7zm0-18c0 1.5-1.2 2.7-2.7 2.7h-45c-1.5 0-2.7-1.2-2.7-2.7 0-1.5 1.2-2.7 2.7-2.7h45c1.5 0 2.7 1.2 2.7 2.7zm0-18c0 1.5-1.2 2.7-2.7 2.7h-45c-1.5 0-2.7-1.2-2.7-2.7 0-1.5 1.2-2.7 2.7-2.7h45c1.5 0 2.7 1.2 2.7 2.7zm0-18c0 1.5-1.2 2.7-2.7 2.7h-45c-1.5 0-2.7-1.2-2.7-2.7 0-1.5 1.2-2.7 2.7-2.7h45c1.5 0 2.7 1.2 2.7 2.7zm-32.2-21.3c-0.3-0.7-0.3-1.4-0.1-2.1l8.8-25.2c0.5-1.4 2-2.1 3.5-1.6 1.4 0.4 2.1 2 1.6 3.4l-8.8 25.2c-0.5 1.4-2 2.1-3.4 1.7-0.7-0.3-1.3-0.8-1.6-1.4zm-10.6 0.4l-9.6-12.6c-0.7-0.9-0.7-2.3 0-3.2l9.6-12.6c0.9-1.2 2.6-1.4 3.8-0.5 1.2 0.9 1.4 2.6 0.5 3.7l-8.3 11 8.3 11c0.9 1.2 0.7 2.8-0.5 3.7-1.2 1-2.9 0.7-3.8-0.5zm44.8-15.8c0.7 0.9 0.7 2.3 0 3.2l-9.7 12.6c-0.9 1.2-2.6 1.5-3.7 0.5-1.2-0.9-1.5-2.6-0.6-3.7l8.4-11-8.4-11c-0.9-1.1-0.6-2.8 0.6-3.7 1.1-1 2.8-0.7 3.7 0.5z"/></svg>