<svg xmlns="http://www.w3.org/2000/svg" xmlns:svgjs="http://svgjs.com/svgjs" xmlns:xlink="http://www.w3.org/1999/xlink"
    width="288" height="288">
    <svg xmlns="http://www.w3.org/2000/svg" width="288" height="288" version="1.2" viewBox="0 0 700 700">



        <path fill="#262422" fill-rule="evenodd"
            d="m570.9 0c15.7 0 30.7 6.2 41.8 17.3 11 11.1 17.3 26.1 17.3 41.8v328.1c0 15.6-6.3 30.7-17.3 41.7-11.1 11.1-26.1 17.3-41.8 17.3h-131.5c5.7 20.4 17.2 38.7 33.2 52.5h10.8c8.7 0.1 17.1 3.5 23.2 9.7 6.2 6.1 9.6 14.5 9.6 23.2v8.7c0 5.2-2 10.2-5.7 13.9-3.7 3.7-8.7 5.8-13.9 5.8h-293.2c-5.2 0-10.2-2.1-13.9-5.8-3.7-3.7-5.8-8.7-5.8-13.9v-8.7c0.1-8.7 3.5-17.1 9.7-23.2 6.1-6.2 14.5-9.6 23.2-9.7h10.9c15.9-13.9 27.4-32.1 33.1-52.5h-131.5c-15.7 0-30.7-6.2-41.8-17.3-11.1-11-17.3-26.1-17.3-41.7v-328.1c0-15.7 6.2-30.7 17.3-41.8 11.1-11.1 26.1-17.3 41.8-17.3zm-354.4 511.9c-5.2 0-10.2 2.1-13.9 5.8-3.7 3.6-5.8 8.6-5.8 13.9v8.7c0 3.6 3 6.6 6.6 6.6h293.1c3.6 0 6.6-3 6.6-6.6v-8.7c0-5.3-2.1-10.3-5.8-13.9-3.7-3.7-8.7-5.8-13.9-5.8zm209.3-65.6h-151.7c-4.9 19.5-14.5 37.5-28 52.5h207.7c-13.5-14.9-23.2-33-28-52.5zm191-74.4h-533.8v15.3c0 12.2 4.9 23.9 13.5 32.5 8.6 8.6 20.3 13.4 32.5 13.4h441.8c12.2 0 23.9-4.8 32.5-13.4 8.6-8.7 13.5-20.3 13.5-32.5zm0-312.8c0-12.2-4.9-23.9-13.5-32.5-8.6-8.6-20.3-13.4-32.5-13.5h-441.8c-12.2 0.1-23.9 4.9-32.5 13.5-8.6 8.6-13.5 20.3-13.5 32.5v299.7h207.4v-57.9c0-28.2-7.9-50.4-30.2-84.9-2.7-4.1-3.9-8.9-3.5-13.7 0.5-4.8 2.5-9.4 5.8-12.9 26-28 49.2-58.4 69.1-91 4-6.3 10.9-10.1 18.3-10.1 7.5 0 14.4 3.8 18.4 10.1 19.9 32.6 43.1 63 69.1 91 3.3 3.5 5.3 8.1 5.7 12.9 0.4 4.8-0.8 9.6-3.4 13.7-22.3 34.5-30.2 56.7-30.2 84.9v57.9h207.3zm-273.5 45.4q-0.3 0.4-0.6 0.9c-20.4 33.3-44.1 64.4-70.7 93-2.6 2.8-3 7.2-0.8 10.5 21.8 33.8 30.9 57.7 32.1 85.4h93.2c1.2-27.7 10.3-51.6 32.2-85.5 2.1-3.3 1.7-7.6-0.9-10.5-26.6-28.5-50.3-59.7-70.6-92.9q-0.4-0.5-0.7-0.9v89.8c7.5 2.1 13.6 7.8 16.2 15.2 2.7 7.5 1.5 15.7-3 22.1-4.5 6.4-11.9 10.3-19.8 10.3-7.9 0-15.2-3.9-19.8-10.3-4.5-6.4-5.7-14.6-3-22.1 2.6-7.4 8.7-13.1 16.2-15.2zm53 220.1v-17.2h-92.8v17.2zm-92.9 13.1v21h92.9v-21zm35.3-120.1c0 4.5 2.7 8.5 6.9 10.2 4.1 1.8 8.9 0.8 12.1-2.4 3.1-3.1 4.1-7.9 2.4-12.1-1.8-4.1-5.8-6.8-10.3-6.8-6.1 0-11.1 5-11.1 11.1z"
            class="color000 svgShape" />
        <path fill="#262422"
            d="m358.8 402.5c-0.1 4.8-4 8.8-8.8 8.8-4.8-0.1-8.8-4-8.8-8.8 0-4.8 4-8.8 8.8-8.8 4.8 0.1 8.7 4 8.7 8.8z"
            class="color000 svgShape" />
        <path fill="#262422" fill-rule="evenodd"
            d="m521.2 33.4c4.8 4.6 7.8 10.9 8.1 17.6 0.4 6.7-1.8 13.3-6.1 18.4-4.3 5.2-10.5 8.4-17.1 9.2-6.7 0.7-13.4-1.1-18.8-5.1-5.3-4.1-8.9-10-10-16.6h-76.4c26.4 12.7 47.5 34.4 59.5 61.2h16.5c7.2 0 13.1 5.9 13.1 13.2v26.2c0 7.3-5.9 13.1-13.1 13.1h-26.3c-7.2 0-13.1-5.8-13.1-13.1v-26.2c0-5.6 3.5-10.5 8.7-12.4-14-28.2-39.5-49-70-57.1v3.8c0 7.3-5.8 13.2-13.1 13.2h-26.2c-7.3 0-13.2-5.9-13.2-13.2v-3.8c-30.4 8.1-55.9 28.9-70 57.1 5.3 1.9 8.8 6.8 8.8 12.4v26.2c0 7.3-5.9 13.1-13.1 13.1h-26.3c-7.2 0-13.1-5.8-13.1-13.1v-26.2c0-7.3 5.9-13.2 13.1-13.2h16.5c12-26.8 33-48.5 59.5-61.2h-76.4c-1.4 8.4-6.9 15.7-14.7 19.3-7.7 3.7-16.8 3.3-24.2-0.9-7.5-4.3-12.4-12-13.1-20.5-0.8-8.6 2.7-17 9.3-22.5 6.6-5.5 15.5-7.4 23.8-5.1 8.3 2.3 14.9 8.5 17.8 16.6h102.1v-4.4c0-7.3 5.9-13.1 13.2-13.1h26.2c7.3 0 13.1 5.8 13.1 13.1v4.4h102.2c1.8-5.2 5.2-9.6 9.6-12.7 4.4-3.2 9.7-4.8 15.1-4.8 6.7-0.1 13.2 2.5 18.1 7.1zm-311.2 19.1c0-5.3-3.2-10.1-8.1-12.1-4.9-2.1-10.6-0.9-14.3 2.8-3.8 3.8-4.9 9.4-2.9 14.3 2.1 4.9 6.9 8.1 12.2 8.1 7.2 0 13.1-5.9 13.1-13.1zm39.4 105v-26.3h-26.3v26.3zm113.8-91.9v-26.2h-26.3v26.2zm87.5 91.9h26.3v-26.3h-26.3zm65.6-105c0-5.3-3.2-10-8.1-12.1-4.9-2-10.5-0.9-14.3 2.9-3.7 3.7-4.8 9.4-2.8 14.3 2 4.9 6.8 8.1 12.1 8.1 7.3 0 13.1-5.9 13.1-13.2z"
            class="color000 svgShape" />
    </svg></svg>