<svg xmlns="http://www.w3.org/2000/svg" xmlns:svgjs="http://svgjs.com/svgjs" xmlns:xlink="http://www.w3.org/1999/xlink"
    width="288" height="288"><svg xmlns="http://www.w3.org/2000/svg" width="288" height="288" version="1.2"
        viewBox="0 0 700 700">

        <linearGradient id="my-cool-gradient" x2="1" y2="1">
            <stop offset="0%" stop-color="#262422" />
            <stop offset="50%" stop-color="#e88615" />
            <stop offset="100%" stop-color="#db23d5" />
        </linearGradient>

        <path fill="url(#my-cool-gradient)" fill-rule="evenodd"
            d="m612.7 17.3c11.1 11.1 17.3 26.1 17.3 41.8v223.1c0 15.6-6.2 30.7-17.3 41.7-11.1 11.1-26.1 17.3-41.8 17.3h-94.2q0.2 1.6 0.2 3.2v103.5c0 6.9-1.2 13.8-3.6 20.2l-11.3 31.3c4.2 1.1 8 3.5 10.7 6.9 2.7 3.5 4.2 7.7 4.2 12.1v21.9c0 5.2-2.1 10.2-5.8 13.9-3.7 3.7-8.7 5.8-13.9 5.8h-166.3c-5.2 0-10.2-2.1-13.9-5.8-3.7-3.7-5.7-8.7-5.7-13.9v-21.9c0-4 1.2-8 3.6-11.3 2.3-3.3 5.6-5.8 9.5-7.1v-17.3l-56-97c-3.9-6.9-4.8-15.2-2.4-22.8 2.5-7.7 8-13.9 15.3-17.3 6.6-2.8 14-3.1 20.8-0.8 6.8 2.3 12.5 7.1 16 13.3l10.7 18.4v-35.3h-159.7c-15.7 0-30.7-6.2-41.8-17.3-11.1-11-17.3-26.1-17.3-41.7v-223.1c0-15.7 6.2-30.7 17.3-41.8 11.1-11.1 26.1-17.3 41.8-17.3h441.8c15.7 0 30.7 6.2 41.8 17.3zm4.2 41.8c0-12.2-4.9-23.9-13.5-32.5-8.6-8.6-20.3-13.5-32.5-13.5h-441.8c-12.2 0-23.9 4.9-32.5 13.5-8.6 8.6-13.5 20.3-13.5 32.5v21l25.8 13.8c6.6 3.4 12.2 8.5 16.1 14.7 3.9 6.3 6.1 13.5 6.2 20.9v82.3c-0.1 7.3-2.3 14.6-6.2 20.8-3.9 6.3-9.5 11.4-16.1 14.7l-25.8 13.9v21c0 12.2 4.9 23.8 13.5 32.5 8.6 8.6 20.3 13.4 32.5 13.4h159.6v-41.5c-35-18.5-59.9-51.9-67.5-90.8-7.6-38.9 2.8-79.2 28.3-109.6 25.5-30.4 63.4-47.6 103-46.9 39.7 0.8 76.9 19.4 101.2 50.8 24.3 31.3 33.2 72 24.1 110.6-9.1 38.6-35.2 71-71 88.2h0.7c7.1 0.9 13.6 4.3 18.4 9.7 4.7 5.4 7.3 12.4 7.2 19.5v1.4c5.4-3.4 11.8-5 18.1-4.4 8.6 1 16.3 5.7 20.9 13h98.8c12.2 0 23.9-4.8 32.5-13.4 8.6-8.7 13.5-20.3 13.5-32.5zm-153.2 459.4c0-3.7-2.9-6.6-6.5-6.6h-166.3c-3.6 0-6.5 3-6.5 6.6v21.9c0 3.6 2.9 6.5 6.5 6.5h166.3c3.6 0 6.5-2.9 6.5-6.5zm0.1-174.1c0-3.9-1.3-7.7-3.9-10.7-2.5-3-6.1-4.9-9.9-5.5-4.3-0.4-8.6 1-11.8 3.9-3.2 2.9-5 7-5.1 11.4v10.9c0 3.6-2.9 6.6-6.5 6.6-3.7 0-6.6-3-6.6-6.6v-36.2c0.1-4-1.3-7.8-3.8-10.8-2.5-3-6.1-4.9-10-5.4-4.3-0.4-8.6 1-11.8 3.9-3.2 2.9-5 7-5 11.3v37.2c0 3.6-3 6.6-6.6 6.6-3.6 0-6.5-3-6.5-6.6v-62.5c0-3.9-1.3-7.7-3.9-10.7-2.5-3-6-4.9-9.9-5.5-4.3-0.4-8.6 1-11.8 3.9-3.2 2.9-5 7-5.1 11.4v63.4c0 3.6-2.9 6.6-6.5 6.6-3.7 0-6.6-3-6.6-6.6v-136.9c0.1-3.9-1.3-7.7-3.8-10.7-2.6-3-6.1-4.9-10-5.5-4.3-0.3-8.5 1.1-11.7 4-3.2 2.9-5.1 7-5.1 11.3v184.4c-0.1 3-2.1 5.5-4.9 6.3-2.9 0.8-5.9-0.5-7.4-3l-22.8-39.6c-1.9-3.4-5-6-8.7-7.4-3.7-1.3-7.7-1.2-11.3 0.3-4 1.8-7 5.2-8.3 9.3-1.3 4.1-0.9 8.6 1.3 12.3l56.8 98.5c0.6 1 0.9 2.1 0.9 3.3v17.8h150.7l12.8-35.1c1.8-5 2.8-10.4 2.7-15.7zm-125.4-146.4c4.8 5.4 7.4 12.3 7.3 19.5v49.5c7.4-4.8 16.7-5.8 25-2.8 8.3 3.1 14.6 9.8 17.2 18.3 34.3-11.6 61.3-38.2 73.5-72.3 12.1-34 8-71.7-11.2-102.4-19.2-30.6-51.3-50.8-87.3-54.7-35.9-4-71.6 8.8-97 34.5-25.4 25.7-37.6 61.7-33.1 97.6 4.5 35.8 25.1 67.7 56 86.4v-55c0.1-8 3.5-15.6 9.5-21 5.9-5.4 13.8-8 21.8-7.3 7.1 0.9 13.6 4.3 18.3 9.7zm-255.2 48.3l19.6-10.5c4.5-2.3 8.3-5.7 11-9.9 2.7-4.2 4.3-9.1 4.4-14.1v-82.3c-0.1-5-1.6-9.9-4.4-14.1-2.7-4.3-6.5-7.7-11-9.9l-19.6-10.5z"
            class="color000 svgShape" />
        <path fill="url(#my-cool-gradient)"
            d="M573.1 124.7v91.9c0 3.6-2.9 6.5-6.5 6.5-3.7 0-6.6-2.9-6.6-6.5v-91.9c0-3.6 2.9-6.6 6.6-6.6 3.6 0 6.5 3 6.5 6.6zM208.1 260.1c2.5 2.5 2.5 6.7 0 9.2l-30.6 30.7c-2.6 2.5-6.8 2.5-9.3 0-2.6-2.6-2.6-6.8 0-9.3l30.6-30.7c2.6-2.5 6.7-2.5 9.3 0zM531.8 290.7c2.6 2.5 2.6 6.7 0 9.3-2.5 2.5-6.7 2.5-9.3 0l-30.6-30.7c-2.5-2.5-2.5-6.7 0-9.2 2.6-2.6 6.7-2.6 9.3 0zM208.1 76.3c2.5 2.6 2.5 6.7 0 9.3-2.6 2.5-6.7 2.5-9.3 0l-30.6-30.6c-2.6-2.6-2.6-6.8 0-9.3 2.5-2.6 6.7-2.6 9.2 0zM531.8 45.7c2.6 2.5 2.6 6.7 0 9.3l-30.6 30.6c-2.6 2.5-6.7 2.5-9.3 0-2.5-2.6-2.5-6.7 0-9.3l30.7-30.6c2.5-2.6 6.7-2.6 9.2 0z"
            class="color000 svgShape" />
    </svg></svg>