<svg xmlns="http://www.w3.org/2000/svg" xmlns:svgjs="http://svgjs.com/svgjs" xmlns:xlink="http://www.w3.org/1999/xlink"
    width="288" height="288">

    <svg xmlns="http://www.w3.org/2000/svg" width="288" height="288" version="1.2" viewBox="0 0 700 700">

        <linearGradient id="my-cool-gradient" x2="1" y2="1">
            <stop offset="0%" stop-color="#262422" />
            <stop offset="50%" stop-color="#e88615" />
            <stop offset="100%" stop-color="#db23d5" />
        </linearGradient>

        <path fill="url(#my-cool-gradient)"
            d="m170.6 380.6h70c3.6 0 6.6 3 6.6 6.6 0 3.6-3 6.6-6.6 6.6h-70c-3.6 0-6.5-3-6.5-6.6 0-3.6 2.9-6.6 6.5-6.6z"
            class="color000 svgShape" />
        <path fill="url(#my-cool-gradient)" fill-rule="evenodd"
            d="M304.9 88.9c3.6 3.7 5.7 8.7 5.7 13.9v105c0 5.2-2.1 10.2-5.7 13.9-3.7 3.7-8.7 5.8-14 5.8h-170.6c-5.2 0-10.2-2.1-13.9-5.8-3.7-3.7-5.8-8.7-5.8-13.9v-105c0-5.2 2.1-10.2 5.8-13.9 3.7-3.7 8.7-5.8 13.9-5.8h170.6c5.3 0 10.3 2.1 14 5.8zm-176 7.3l76.7 51.2 76.8-51.2zm64.9 59.1l-80-53.3q0 .4-.1.8v105q.1.4.1.8zm88.6 59.1l-76.8-51.2-76.7 51.2zm15.1-111.6q0-.4-.1-.8l-79.9 53.3 79.9 53.4q.1-.4.1-.9zM194.6 342.2c-2.9 2.9-6.8 4.5-10.9 4.5h-67.8c-4 0-7.9-1.6-10.8-4.5-2.9-2.8-4.5-6.7-4.5-10.8v-76.6c0-4 1.6-7.9 4.5-10.8 2.9-2.9 6.8-4.5 10.8-4.5h67.8c4.1 0 8 1.6 10.9 4.5 2.8 2.9 4.5 6.8 4.5 10.8v76.6c0 4.1-1.7 8-4.5 10.8zm-35.9-49.1l27.2 30v-60zm-36.7-40.5l27.9 30.7 27.8-30.7zm19 40.5l-27.2-30v60zm36.7 40.5l-27.8-30.7-27.9 30.7z"
            class="color000 svgShape" />
        <path fill="url(#my-cool-gradient)" fill-rule="evenodd"
            d="m616.5 131.6c8.6 8.6 13.5 20.3 13.5 32.5v350c0 12.1-4.9 23.8-13.5 32.4-8.6 8.6-20.3 13.5-32.4 13.5h-179.4c-12.2 0-23.9-4.9-32.5-13.5-8.6-8.6-13.4-20.3-13.5-32.4v-214.4h-17.5v96.2c0 12.2-4.8 23.9-13.4 32.5-8.6 8.6-20.3 13.5-32.5 13.5h-179.4c-12.2 0-23.8-4.9-32.4-13.5-8.7-8.6-13.5-20.3-13.5-32.5v-350c0-12.1 4.8-23.8 13.5-32.4 8.6-8.6 20.2-13.5 32.4-13.5h179.4c12.2 0 23.9 4.9 32.5 13.5 8.6 8.6 13.4 20.3 13.4 32.4v240.7h17.5v-122.5c0.1-12.2 4.9-23.9 13.5-32.5 8.6-8.6 20.3-13.5 32.5-13.5h179.4c12.1 0 23.8 4.9 32.4 13.5zm-470.8-118.5l7.7 14.3c1.7 3.5 4.3 6.4 7.6 8.5 3.3 2.2 7.1 3.3 11 3.5h67.3c3.9-0.2 7.7-1.3 10.9-3.5 3.3-2.1 5.9-5 7.7-8.5l7.6-14.3zm182.4 32.8c0-8.7-3.4-17-9.6-23.2-6.1-6.1-14.5-9.6-23.2-9.6h-14.9l-10.9 20.5c-2.9 5.6-7.2 10.3-12.5 13.6-5.3 3.3-11.4 5.2-17.7 5.3h-67.3c-6.3-0.1-12.4-2-17.7-5.3-5.3-3.3-9.6-8-12.5-13.6l-11-20.5h-14.9c-8.7 0-17 3.5-23.1 9.6-6.2 6.2-9.7 14.5-9.7 23.2v350c0 8.7 3.5 17.1 9.7 23.2 6.1 6.2 14.4 9.6 23.1 9.6h179.4c8.7 0 17.1-3.4 23.2-9.6 6.2-6.1 9.6-14.5 9.6-23.2v-96.2h-17.5v31.7c0 4.1-1.6 8-4.4 10.8-2.9 2.9-6.8 4.5-10.9 4.5h-67.8c-4 0-7.9-1.6-10.8-4.5-2.9-2.8-4.5-6.7-4.5-10.8v-76.6c0-4 1.6-7.9 4.5-10.8 2.9-2.9 6.8-4.5 10.8-4.5h67.8c4.1 0 8 1.6 10.9 4.5 2.8 2.9 4.4 6.8 4.4 10.8v31.8h17.5zm-57.9 227.7l19.1-21h-55.7l18.4 20.3c2.6-1.2 5.5-1.7 8.3-1.7 3.5 0 6.8 0.8 9.9 2.4zm-3.7 13.3c-1.6-1.7-3.8-2.6-6.2-2.6-3.5 0-6.7 2.1-8 5.4-1.4 3.3-0.7 7 1.8 9.5 2.5 2.5 6.3 3.3 9.6 1.9 3.3-1.3 5.4-4.5 5.4-8.1 0-2.3-0.9-4.5-2.6-6.1zm-41.2-23.9v60.1l16.6-18.3c-2.2-3.5-3.4-7.6-3.4-11.8 0-4.1 1.2-8.2 3.4-11.7zm8.3 70.5h55.7l-19.1-21c-5.7 3-12.4 3.2-18.2 0.8zm63.9-10.5v-23.4h-16.4q-0.6 1.9-1.6 3.6zm0-36.6v-23.4l-17.9 19.8q0.9 1.7 1.5 3.6zm319.4-122.5c0-8.7-3.5-17-9.7-23.2-6.1-6.1-14.4-9.6-23.1-9.6h-14.9l-11 20.5c-2.9 5.6-7.2 10.3-12.5 13.6-5.3 3.3-11.4 5.2-17.7 5.3h-67.3c-6.3-0.1-12.4-2-17.7-5.3-5.3-3.3-9.6-8-12.5-13.6l-10.9-20.5h-14.9c-8.7 0-17.1 3.5-23.2 9.6-6.2 6.2-9.6 14.5-9.6 23.2v122.5h17.5v-65.6c0-5.2 2.1-10.2 5.7-13.9 3.7-3.7 8.7-5.8 14-5.8h170.6c5.2 0 10.2 2.1 13.9 5.8 3.7 3.7 5.8 8.7 5.8 13.9v105c0 5.2-2.1 10.2-5.8 13.9-3.7 3.7-8.7 5.8-13.9 5.8h-170.6c-5.3 0-10.3-2.1-14-5.8-3.6-3.7-5.7-8.7-5.7-13.9v-26.3h-17.5v214.4c0 8.7 3.4 17.1 9.6 23.2 6.1 6.2 14.5 9.6 23.2 9.6h179.4c8.7 0 17-3.4 23.2-9.6 6.1-6.1 9.6-14.5 9.6-23.2zm-182.4-32.8l7.6 14.3c1.8 3.5 4.4 6.4 7.7 8.5 3.2 2.2 7 3.3 10.9 3.5h67.3c3.9-0.2 7.7-1.3 11-3.5 3.3-2.1 5.9-5 7.6-8.5l7.7-14.3zm136.6 83.1h-153.5l19.7 13.2h44c5.2 0 10.2 2.1 13.9 5.7 3.7 3.7 5.8 8.7 5.8 14v5.5c2.5 0.8 4.9 2 7 3.7zm-85.5 59.1c0 3.5 2.2 6.7 5.4 8.1 3.3 1.3 7.1 0.6 9.6-1.9 2.5-2.5 3.2-6.3 1.9-9.6-1.4-3.2-4.6-5.4-8.1-5.4-4.8 0-8.8 4-8.8 8.8zm-4.8 17l-63.2 42.1h153.5l-63.1-42.1c-3.8 3.1-8.6 4.8-13.6 4.9-5-0.1-9.8-1.8-13.6-4.9zm105.4 36.3q0-0.4 0.1-0.8v-105q-0.1-0.4-0.1-0.8l-70.9 47.2c1.3 4 1.3 8.2 0 12.2zm-98.3-79.6c0-3.6-3-6.6-6.6-6.6h-24.3l23.8 15.9c2.1-1.7 4.5-3 7.1-3.8zm-85.3-27.1q0 0.4-0.1 0.8v65.6h6.6c3.6 0 6.6-2.9 6.6-6.5v-32.8c0-5.4 2.2-10.6 6.2-14.3zm-0.1 79.6v26.2q0 0.4 0.1 0.9l70.8-47.3c-1.2-3.9-1.2-8.2 0-12.1l-39.7-26.5c-2.9 0.7-5 3.3-5 6.3v32.8c0 5.2-2.1 10.2-5.7 13.9-3.7 3.7-8.7 5.8-14 5.8z"
            class="color000 svgShape" />
        <path fill="url(#my-cool-gradient)"
            d="m535.9 505.3c0 3.6-2.9 6.6-6.5 6.6h-70c-3.6 0-6.6-3-6.6-6.6 0-3.6 3-6.6 6.6-6.6h70c3.6 0 6.5 3 6.5 6.6z"
            class="color000 svgShape" />
        <path fill="url(#my-cool-gradient)" fill-rule="evenodd"
            d="M483.3 460.4c-2.8 2.8-6.7 4.4-10.8 4.4h-67.8c-4.1 0-8-1.6-10.8-4.4-2.9-2.9-4.5-6.8-4.5-10.9v-76.5c0-4.1 1.6-8 4.5-10.9 2.8-2.8 6.7-4.4 10.8-4.4h67.8c4.1 0 8 1.6 10.8 4.4 2.9 2.9 4.5 6.8 4.5 10.9v76.5c0 4.1-1.6 8-4.5 10.9zm-35.8-49.2l27.2 30.1v-60.1zm-36.7-40.4l27.8 30.7 27.9-30.7zm19 40.4l-27.3-30v60zm36.8 40.5l-27.9-30.7-27.9 30.7zM594.9 362.1c2.9 2.9 4.5 6.8 4.5 10.9v76.5c0 4.1-1.6 8-4.5 10.9-2.9 2.8-6.8 4.4-10.8 4.4h-67.9c-4 0-7.9-1.6-10.8-4.4-2.9-2.9-4.5-6.8-4.5-10.9v-76.5c0-4.1 1.6-8 4.5-10.9 2.9-2.8 6.8-4.4 10.8-4.4h67.9c4 0 7.9 1.6 10.8 4.4zm-72.6 8.7l27.9 30.7 27.8-30.7zm19 40.5l-27.2-30.1v60.1zm36.7 40.4l-27.9-30.7-27.8 30.7zm8.2-70.4l-27.2 30 27.2 30z"
            class="color000 svgShape" />
    </svg></svg>