<svg xmlns="http://www.w3.org/2000/svg" xmlns:svgjs="http://svgjs.com/svgjs" xmlns:xlink="http://www.w3.org/1999/xlink" width="288" height="288"><svg xmlns="http://www.w3.org/2000/svg" width="288" height="288" version="1.2" viewBox="0 0 700 700"><path fill="#e88615" fill-rule="evenodd" d="m87.3 542.7c-11.1-11.1-17.3-26.1-17.3-41.8v-441.8c0-15.7 6.2-30.7 17.3-41.8 11.1-11.1 26.1-17.3 41.8-17.3h223.1c15.6 0 30.7 6.2 41.7 17.3 11.1 11.1 17.3 26.1 17.3 41.8v441.8c0 15.7-6.2 30.7-17.3 41.8-11 11.1-26.1 17.3-41.7 17.3h-223.1c-15.7 0-30.7-6.2-41.8-17.3zm77.7-529.6l10.5 19.6c2.2 4.5 5.6 8.3 9.9 11 4.2 2.7 9.1 4.3 14.1 4.4h82.2c5.1-0.1 10-1.6 14.2-4.4 4.2-2.7 7.7-6.5 9.9-11l10.5-19.6zm-81.8 487.8c0 12.2 4.8 23.9 13.4 32.5 8.7 8.6 20.3 13.5 32.5 13.5h223.1c12.2 0 23.9-4.9 32.5-13.5 8.6-8.6 13.5-20.3 13.5-32.5v-441.8c0-12.2-4.9-23.9-13.5-32.5-8.6-8.6-20.3-13.5-32.5-13.5h-21l-13.8 25.8c-3.4 6.6-8.5 12.2-14.7 16.1-6.3 3.9-13.5 6.1-20.9 6.2h-82.3c-7.3-0.1-14.6-2.3-20.8-6.2-6.3-3.9-11.4-9.5-14.7-16.1l-13.9-25.8h-21c-12.2 0-23.8 4.9-32.5 13.5-8.6 8.6-13.4 20.3-13.4 32.5z" class="color000 svgShape"/><path fill="#e88615" d="m293.1 496.6c0 3.6-2.9 6.5-6.5 6.5h-91.9c-3.6 0-6.6-2.9-6.6-6.5 0-3.7 3-6.6 6.6-6.6h91.9c3.6 0 6.5 2.9 6.5 6.6z" class="color000 svgShape"/><path fill="#e88615" fill-rule="evenodd" d="M604.3 25.7c16.4 16.4 25.7 38.6 25.7 61.8 0 23.2-9.2 45.5-25.6 61.9-16.4 16.4-38.7 25.6-61.9 25.6-23.2 0-45.5-9.2-61.9-25.6-16.4-16.4-25.6-38.7-25.6-61.9 0-23.2 9.2-45.5 25.6-61.9 16.4-16.4 38.7-25.6 61.9-25.6 23.2 0 45.4 9.3 61.8 25.7zm-9.2 114.4c13.9-14 21.8-32.9 21.8-52.6 0-19.7-7.9-38.6-21.8-52.6-14-13.9-32.9-21.8-52.6-21.8-19.7 0-38.6 7.9-52.6 21.8-13.9 14-21.8 32.9-21.8 52.6 0 19.7 7.9 38.7 21.8 52.6 14 13.9 32.9 21.8 52.6 21.8 19.7 0 38.6-7.9 52.6-21.8zM604.3 411.9c16.4 16.4 25.7 38.6 25.7 61.8 0 23.2-9.2 45.5-25.6 61.9-16.4 16.4-38.7 25.6-61.9 25.6-23.2 0-45.5-9.2-61.9-25.6-16.4-16.4-25.6-38.7-25.6-61.9 0-23.2 9.2-45.5 25.6-61.9 16.4-16.4 38.7-25.6 61.9-25.6 23.2 0 45.4 9.3 61.8 25.7zm-9.2 114.4c13.9-14 21.8-32.9 21.8-52.6 0-19.7-7.9-38.6-21.8-52.6-14-13.9-32.9-21.8-52.6-21.8-19.7 0-38.6 7.9-52.6 21.8-13.9 14-21.8 32.9-21.8 52.6 0 19.7 7.9 38.7 21.8 52.6 14 14 32.9 21.8 52.6 21.8 19.7 0 38.6-7.9 52.6-21.8zM604.3 218.2c16.4 16.4 25.7 38.6 25.7 61.8 0 23.2-9.2 45.5-25.6 61.9-16.4 16.4-38.7 25.6-61.9 25.6-23.2 0-45.5-9.2-61.9-25.6-16.4-16.4-25.6-38.7-25.6-61.9 0-23.2 9.2-45.5 25.6-61.9 16.4-16.4 38.7-25.6 61.9-25.6 23.2 0 45.4 9.3 61.8 25.7zm-9.2 114.4c13.9-14 21.8-32.9 21.8-52.6 0-19.7-7.9-38.6-21.8-52.6-14-13.9-32.9-21.8-52.6-21.8-19.7 0-38.6 7.9-52.6 21.8-13.9 14-21.8 32.9-21.8 52.6 0 19.7 7.9 38.6 21.8 52.6 14 13.9 32.9 21.8 52.6 21.8 19.7 0 38.6-7.9 52.6-21.8z" class="color000 svgShape"/><path fill="#e88615" d="M572.6 99.1c.7 1.6.6 3.4 0 5-3.5 7.9-9.8 14.1-17.7 17.3-8 3.2-16.8 3.2-24.8 0-7.9-3.2-14.2-9.4-17.7-17.3-1.4-3.3.1-7.2 3.5-8.6 3.3-1.5 7.2.1 8.6 3.4 2 4.7 5.9 8.4 10.6 10.3 4.7 2 10.1 2 14.8 0 4.7-1.9 8.6-5.6 10.6-10.3.7-1.6 2-2.9 3.6-3.5 1.6-.6 3.4-.6 5 .1 1.6.7 2.9 2 3.5 3.6zM560.5 485.3c5.3 3.5 9.5 8.5 12.1 14.3.6 1.6.7 3.4 0 5.1-.6 1.6-1.9 2.9-3.5 3.6-3.3 1.4-7.2-.1-8.6-3.5-2-4.7-5.9-8.4-10.6-10.3-4.7-1.9-10.1-1.9-14.8 0-4.7 1.9-8.6 5.6-10.6 10.3-1.4 3.4-5.3 4.9-8.6 3.5-3.4-1.5-4.9-5.3-3.5-8.7 2.6-5.8 6.8-10.8 12.1-14.3 5.4-3.5 11.6-5.4 18-5.4 6.4 0 12.6 1.9 18 5.4zM570.9 297.5c0 3.6-2.9 6.6-6.5 6.6h-43.8c-3.6 0-6.5-3-6.5-6.6 0-3.6 2.9-6.6 6.5-6.6h43.8c3.6 0 6.5 3 6.5 6.6z" class="color000 svgShape"/><path fill="#e88615" fill-rule="evenodd" d="M110.8 213c-3.7-3.7-5.8-8.7-5.8-13.9v-96.3c0-5.2 2.1-10.2 5.8-13.9 3.7-3.7 8.7-5.8 13.9-5.8h231.9c5.2 0 10.2 2.1 13.9 5.8 3.7 3.7 5.8 8.7 5.8 13.9v96.3c0 5.2-2.1 10.2-5.8 13.9-3.7 3.7-8.7 5.7-13.9 5.8h-231.9c-5.2-.1-10.2-2.1-13.9-5.8zm7.3-13.9c0 3.6 3 6.5 6.6 6.5h231.9c3.6 0 6.5-2.9 6.5-6.5v-96.3c0-3.6-2.9-6.6-6.5-6.6h-231.9c-3.6 0-6.6 3-6.6 6.6zM110.8 453.6c-3.7-3.7-5.8-8.7-5.8-13.9v-61.3c0-5.2 2.1-10.2 5.8-13.9 3.7-3.7 8.7-5.7 13.9-5.7h231.9c5.2 0 10.2 2 13.9 5.7 3.7 3.7 5.8 8.7 5.8 13.9v61.3c0 5.2-2.1 10.2-5.8 13.9-3.7 3.7-8.7 5.8-13.9 5.8h-231.9c-5.2 0-10.2-2.1-13.9-5.8zm7.3-13.9c0 3.6 3 6.6 6.6 6.6h231.9c3.6 0 6.5-3 6.5-6.6v-61.3c0-3.6-2.9-6.5-6.5-6.5h-231.9c-3.6 0-6.6 2.9-6.6 6.5zM110.8 335.5c-3.7-3.7-5.8-8.7-5.8-13.9v-65.7c0-5.2 2.1-10.2 5.8-13.9 3.7-3.7 8.7-5.7 13.9-5.7h87.5c5.2 0 10.2 2 13.9 5.7 3.7 3.7 5.8 8.7 5.8 13.9v65.7c0 5.2-2.1 10.2-5.8 13.9-3.7 3.7-8.7 5.7-13.9 5.8h-87.5c-5.2-.1-10.2-2.1-13.9-5.8zm7.3-13.9c0 3.6 3 6.5 6.6 6.5h87.5c3.6 0 6.6-2.9 6.6-6.5v-65.7c0-3.6-3-6.5-6.6-6.5h-87.5c-3.6 0-6.6 2.9-6.6 6.5zM370.5 242c3.7 3.7 5.7 8.7 5.7 13.9v65.7c0 5.2-2 10.2-5.7 13.9-3.7 3.7-8.7 5.7-13.9 5.7h-87.5c-5.3 0-10.3-2-14-5.7-3.6-3.7-5.7-8.7-5.7-13.9v-65.7c0-5.2 2.1-10.2 5.7-13.9 3.7-3.7 8.7-5.7 14-5.8h87.5c5.2.1 10.2 2.1 13.9 5.8zm-7.4 13.9c0-3.6-2.9-6.5-6.5-6.5h-87.5c-3.7 0-6.6 2.9-6.6 6.5v65.7c0 3.6 2.9 6.5 6.6 6.5h87.5c3.6 0 6.5-2.9 6.5-6.5z" class="color000 svgShape"/></svg></svg>