<svg width="116" height="15" viewBox="0 0 116 15" fill="none" xmlns="http://www.w3.org/2000/svg">
<path d="M-6.92782 0L-9.00352 5.76585H-15L-10.1567 9.45599L-12.0018 14.9912L-6.92782 11.5317L-2.08451 14.9912L-3.92958 9.45599L0.913733 5.76585H-5.08275L-6.92782 0Z" fill="black"/>
<path d="M38.9685 0L37.1234 5.76585H31.127L35.9703 9.45599L34.1252 14.9912L38.9685 11.5317L44.0424 14.9912L42.1974 9.45599L46.8101 5.76585H40.8136L38.9685 0Z" fill="black"/>
<path d="M85.0955 0L83.2504 5.76585H77.2539L82.0972 9.45599L80.2521 14.9912L85.0955 11.5317L89.9388 14.9912L88.3243 9.45599L92.937 5.76585H86.9405L85.0955 0Z" fill="black"/>
<path d="M15.905 0L14.06 5.76585H8.06348L12.9068 9.45599L11.0617 14.9912L15.905 11.5317L20.979 14.9912L19.1339 9.45599L23.9772 5.76585H17.7501L15.905 0Z" fill="black"/>
<path d="M62.032 0L60.1869 5.76585H54.1904L59.0337 9.45599L57.1887 14.9912L62.032 11.5317L66.8753 14.9912L65.2609 9.45599L69.8735 5.76585H63.8771L62.032 0Z" fill="black"/>
<path d="M108.158 0L106.313 5.76585H100.316L105.16 9.45599L103.315 14.9912L108.158 11.5317L113.001 14.9912L111.156 9.45599L116 5.76585H110.003L108.158 0Z" fill="black"/>
</svg>
