<svg width="100" height="100" viewBox="0 0 100 100" fill="none" xmlns="http://www.w3.org/2000/svg">
    <g clip-path="url(#clip0_852_198)">
        <path
            d="M0.930266 64.5324L-19.0452 53.5823L-14.6608 49.1979L0.748477 57.6137L-8.36237 42.8995L-4.30954 38.8467L10.779 47.7971L2.06378 32.4733L3.58225 30.9549L14.7676 50.695L10.7362 54.7265L-3.71071 46.2252L4.96171 60.501L0.930266 64.5324ZM0.705702 62.4258L2.54498 60.5865L-14.4363 51.3046L-16.2542 53.1225L0.705702 62.4258ZM10.4902 52.6412L12.3295 50.802L-4.14914 41.0174L-5.96703 42.8353L10.4902 52.6412Z"
            fill="#FFBB00" />
        <path
            d="M100.93 64.5324L80.9548 53.5823L85.3392 49.1979L100.748 57.6137L91.6376 42.8995L95.6905 38.8467L110.779 47.7971L102.064 32.4733L103.582 30.9549L114.768 50.695L110.736 54.7265L96.2893 46.2252L104.962 60.501L100.93 64.5324ZM100.706 62.4258L102.545 60.5865L85.5637 51.3046L83.7458 53.1225L100.706 62.4258ZM110.49 52.6412L112.33 50.802L95.8509 41.0174L94.033 42.8353L110.49 52.6412Z"
            fill="#FFBB00" />
        <path
            d="M50.9576 14.5324L30.9822 3.58228L35.3665 -0.802054L50.7758 7.61372L41.665 -7.10052L45.7178 -11.1533L60.8063 -2.2029L52.0911 -17.5267L53.6096 -19.0451L64.795 0.695033L60.7635 4.72648L46.3166 -3.77484L54.9891 10.501L50.9576 14.5324ZM50.733 12.4258L52.5723 10.5865L35.5911 1.30456L33.7732 3.12246L50.733 12.4258ZM60.5176 2.64125L62.3569 0.801968L45.8782 -8.98257L44.0603 -7.16468L60.5176 2.64125Z"
            fill="#FFBB00" />
        <path
            d="M50.9576 114.532L30.9822 103.582L35.3665 99.1979L50.7758 107.614L41.665 92.8995L45.7178 88.8467L60.8063 97.7971L52.0911 82.4733L53.6096 80.9549L64.795 100.695L60.7635 104.726L46.3166 96.2252L54.9891 110.501L50.9576 114.532ZM50.733 112.426L52.5723 110.587L35.5911 101.305L33.7732 103.122L50.733 112.426ZM60.5176 102.641L62.3569 100.802L45.8782 91.0174L44.0603 92.8353L60.5176 102.641Z"
            fill="#FFBB00" />
    </g>
    <defs>
        <clipPath id="clip0_852_198">
            <rect width="100" height="100" fill="white" />
        </clipPath>
    </defs>
</svg>